<svg version="1.1" xmlns="http://www.w3.org/2000/svg" viewBox="0 0 1307.50390625 1063.7006552747957" width="1307.50390625" height="1063.7006552747957">
  <!-- svg-source:excalidraw -->
  
  <defs>
    <style class="style-fonts">
      @font-face {
        font-family: "Virgil";
        src: url("https://excalidraw.com/Virgil.woff2");
      }
      @font-face {
        font-family: "Cascadia";
        src: url("https://excalidraw.com/Cascadia.woff2");
      }
    </style>
  </defs>
  <g transform="translate(569.4091796875 590.0000000000001) rotate(0 55.01953125 12)"><text x="0" y="0" font-family="Helvetica, Segoe UI Emoji" font-size="20px" fill="#fd7e14" text-anchor="start" style="white-space: pre;" direction="ltr" dominant-baseline="text-before-edge">nextToClaim</text></g><g transform="translate(509.4091796875 690.0000000000001) rotate(0 73.9111328125 12)"><text x="0" y="0" font-family="Helvetica, Segoe UI Emoji" font-size="20px" fill="#000000" text-anchor="start" style="white-space: pre;" direction="ltr" dominant-baseline="text-before-edge">consumerBarrier</text></g><g transform="translate(1009.4091796875 650.0000000000001) rotate(0 53.369140625 12)"><text x="0" y="0" font-family="Helvetica, Segoe UI Emoji" font-size="20px" fill="#40c057" text-anchor="start" style="white-space: pre;" direction="ltr" dominant-baseline="text-before-edge">nextToRead</text></g><g transform="translate(1029.4091796875 710.0000000000001) rotate(0 69.47265625 12)"><text x="0" y="0" font-family="Helvetica, Segoe UI Emoji" font-size="20px" fill="#000000" text-anchor="start" style="white-space: pre;" direction="ltr" dominant-baseline="text-before-edge">producerBarrier</text></g><g stroke-linecap="round" transform="translate(810.5236163806171 610.0000000000001) rotate(0 20.6364205464313 21.850327637397868)"><path d="M-1.66 0.61 C10.19 1.62, 21.45 -1.24, 42.05 -0.55 M0.85 0.46 C13.29 -0.11, 27.83 -0.33, 41.78 -0.39 M40.38 0.32 C41.11 14.55, 41.5 27.66, 39.99 45.5 M41.68 0.39 C42.16 10.63, 41.56 21.05, 40.98 43.83 M40.55 42.55 C31.23 42.55, 20.1 42.7, -0.33 45.53 M42.22 43.24 C25.08 43.89, 10.93 44, 0.69 43.63 M-0.31 42.97 C0.21 34.31, -0.82 24.28, -1.67 -0.08 M0.28 42.81 C0.46 28.99, -0.08 14.79, -0.66 -0.99" stroke="#000000" stroke-width="2" fill="none"/></g><g stroke-linecap="round" transform="translate(810.5236163806171 690.0000000000001) rotate(0 20.6364205464313 21.850327637397868)"><path d="M0.15 1.82 L41.1 1.68 L41.32 43.33 L-0.35 43.27" stroke="none" stroke-width="0" fill="#40c057"/><path d="M0.61 -0.85 C16.24 -0.28, 28.14 1.12, 40.72 0.68 M0.46 -0.49 C9.43 -0.07, 18.44 0.16, 40.88 0.06 M41.6 0.06 C42.21 11.31, 41.94 20.43, 43.07 42.47 M41.67 0.59 C41.39 16.14, 41.38 32.02, 41.4 43.13 M40.13 43.67 C30.6 42.4, 21.05 43.23, 1.83 45.23 M40.81 43.05 C27.21 44.84, 13.18 44.78, -0.08 43.03 M-0.73 43.83 C0.96 30.45, 1.12 17.3, -0.08 0.69 M-0.89 44.44 C-0.08 28, 0.34 11.23, -0.99 -0.5" stroke="#000000" stroke-width="2" fill="none"/></g><g stroke-linecap="round" transform="translate(810.5236163806171 650.0000000000001) rotate(0 20.6364205464313 21.850327637397868)"><path d="M-0.85 1.49 C10.39 -1.5, 22.81 -0.68, 41.95 -1.53 M-0.49 0.22 C15.98 -0.19, 31.91 -0.58, 41.33 -0.52 M41.33 1.17 C41.53 11.72, 39.8 23.45, 40.04 45.09 M41.86 0.21 C41.43 12.37, 41.16 24.47, 40.7 43.05 M41.24 42.74 C29.6 42.65, 19.89 45.29, 1.53 44.56 M40.63 43.79 C28.69 43.71, 15.29 43.43, -0.67 43.53 M0.13 44.51 C-0.82 33.05, -1.61 20.38, 0.69 1.28 M0.74 43.6 C0.08 31.08, -0.78 16.81, -0.5 0.07" stroke="#000000" stroke-width="2" fill="none"/></g><g transform="translate(870.5236163806171 614.8000000000001) rotate(0 5.5615234375 12)"><text x="0" y="0" font-family="Helvetica, Segoe UI Emoji" font-size="20px" fill="#000000" text-anchor="start" style="white-space: pre;" direction="ltr" dominant-baseline="text-before-edge">2</text></g><g transform="translate(870.5236163806171 654.8000000000001) rotate(0 5.5615234375 12)"><text x="0" y="0" font-family="Helvetica, Segoe UI Emoji" font-size="20px" fill="#000000" text-anchor="start" style="white-space: pre;" direction="ltr" dominant-baseline="text-before-edge">1</text></g><g stroke-linecap="round" transform="translate(810.5236163806171 770.0000000000001) rotate(0 20.6364205464313 21.850327637397868)"><path d="M-1.37 0.77 C10.08 0.8, 19.73 1.74, 42.98 0.93 M41.28 1.02 C40.58 11.11, 40.34 20.93, 40.38 44.03 M42.17 42.42 C30.56 42.56, 17.65 43.36, 0.81 44.49 M0.4 43.12 C0.17 26.87, -1.39 11.45, -0.72 -1.15" stroke="#000000" stroke-width="2.5" fill="none" stroke-dasharray="1.5 8"/></g><g stroke-linecap="round" transform="translate(810.5236163806171 730.0000000000001) rotate(0 20.6364205464313 21.850327637397868)"><path d="M0.77 -0.55 C16.12 -1.25, 32.51 1.99, 42.2 -0.97 M42.29 -0.78 C41.52 13.03, 40.35 27.23, 41.6 43.76 M39.99 45.5 C25.25 45.28, 11.26 44.7, 0.79 44.88 M-0.59 43.96 C-1.14 28.38, -0.89 14.94, -1.15 -0.03" stroke="#000000" stroke-width="2.5" fill="none" stroke-dasharray="1.5 8"/></g><g transform="translate(870.5236163806171 734.8000000000001) rotate(0 22.24609375 12)"><text x="0" y="0" font-family="Helvetica, Segoe UI Emoji" font-size="20px" fill="#000000" text-anchor="start" style="white-space: pre;" direction="ltr" dominant-baseline="text-before-edge">255u</text></g><g transform="translate(870.5236163806171 694.8000000000001) rotate(0 5.5615234375 12)"><text x="0" y="0" font-family="Helvetica, Segoe UI Emoji" font-size="20px" fill="#000000" text-anchor="start" style="white-space: pre;" direction="ltr" dominant-baseline="text-before-edge">0</text></g><g transform="translate(870.5236163806171 774.8000000000001) rotate(0 22.24609375 12)"><text x="0" y="0" font-family="Helvetica, Segoe UI Emoji" font-size="20px" fill="#000000" text-anchor="start" style="white-space: pre;" direction="ltr" dominant-baseline="text-before-edge">254u</text></g><g stroke-linecap="round" transform="translate(810.5236163806171 810.0000000000001) rotate(0 20.6364205464313 21.850327637397868)"><path d="M1.61 1.7 C12.16 -0.66, 22.91 0.87, 41.28 1.02 M40.23 -0.89 C41.62 11.46, 42.47 23.25, 42.17 42.42 M40.84 44.51 C25.96 45.16, 9.49 43.96, 0.4 43.12 M-0.9 42.98 C-0.9 30, -0.71 15.21, -0.82 -0.33" stroke="#000000" stroke-width="2.5" fill="none" stroke-dasharray="1.5 8"/></g><g stroke-linecap="round" transform="translate(810.5236163806171 850.0000000000001) rotate(0 20.6364205464313 21.850327637397868)"><path d="M1.7 0.93 C12.8 0.1, 28.11 -0.33, 42.29 -0.78 M40.38 0.32 C41.11 14.55, 41.5 27.66, 39.99 45.5 M42.08 44.49 C32.6 44.03, 21.55 44.01, -0.59 43.96 M-0.72 42.55 C0.26 32.14, -0.87 21.68, -0.33 1.83" stroke="#000000" stroke-width="2.5" fill="none" stroke-dasharray="1.5 8"/></g><g transform="translate(870.5236163806171 814.8000000000001) rotate(0 22.24609375 12)"><text x="0" y="0" font-family="Helvetica, Segoe UI Emoji" font-size="20px" fill="#000000" text-anchor="start" style="white-space: pre;" direction="ltr" dominant-baseline="text-before-edge">253u</text></g><g transform="translate(870.5236163806171 854.8000000000001) rotate(0 22.24609375 12)"><text x="0" y="0" font-family="Helvetica, Segoe UI Emoji" font-size="20px" fill="#000000" text-anchor="start" style="white-space: pre;" direction="ltr" dominant-baseline="text-before-edge">252u</text></g><g stroke-linecap="round" transform="translate(810.5236163806171 890.0000000000001) rotate(0 20.6364205464313 21.850327637397868)"><path d="M0.43 0.56 C15.9 1.22, 31.01 0.32, 40.24 -1.05 M42.44 0.45 C42.24 9.88, 43.14 21.1, 42.67 43.27 M41.69 43.67 C27.62 43.36, 13.42 42.79, -1.3 42.8 M-0.97 42.55 C-0.57 31.84, 2.08 22.17, 0.86 0.46" stroke="#000000" stroke-width="2.5" fill="none" stroke-dasharray="1.5 8"/></g><g stroke-linecap="round" transform="translate(810.5236163806171 930.0000000000001) rotate(0 20.6364205464313 21.850327637397868)"><path d="M0.56 0.01 C15.32 -0.87, 28.72 -1.12, 40.23 -0.89 M41.72 0.9 C40.01 15.62, 40.06 29.03, 40.84 44.51 M41.24 44.1 C26.68 44.04, 12.11 42.49, -0.9 42.98 M-1.15 42.88 C-0.32 34.92, 1.54 23.35, 0.46 1.9" stroke="#000000" stroke-width="2.5" fill="none" stroke-dasharray="1.5 8"/></g><g transform="translate(870.5236163806171 894.8000000000001) rotate(0 22.24609375 12)"><text x="0" y="0" font-family="Helvetica, Segoe UI Emoji" font-size="20px" fill="#000000" text-anchor="start" style="white-space: pre;" direction="ltr" dominant-baseline="text-before-edge">251u</text></g><g transform="translate(870.5236163806171 934.8000000000003) rotate(0 22.24609375 12)"><text x="0" y="0" font-family="Helvetica, Segoe UI Emoji" font-size="20px" fill="#000000" text-anchor="start" style="white-space: pre;" direction="ltr" dominant-baseline="text-before-edge">240u</text></g><g stroke-linecap="round" transform="translate(810.5236163806171 970.0000000000001) rotate(0 20.6364205464313 21.850327637397868)"><path d="M-0.78 0.12 C12.5 -1.26, 26.17 0.11, 41.33 1.17 M43.07 -1.23 C42.86 13.66, 42.28 28.98, 42.45 44.12 M41.53 42.55 C27.66 42.68, 15.92 42.43, -0.03 42.74 M1.83 45.23 C1.04 33.57, 2.08 21.58, -1.29 0.18" stroke="#000000" stroke-width="2.5" fill="none" stroke-dasharray="1.5 8"/></g><g stroke-linecap="round" transform="translate(810.5236163806171 1010.0000000000001) rotate(0 20.6364205464313 21.850327637397868)"><path d="M0.12 -1.03 C11.35 -0.73, 25.11 0.22, 42.44 0.45 M40.04 1.39 C40.56 15.88, 41.78 31.32, 41.69 43.67 M40.12 42.4 C27.17 43.03, 13.71 43.73, -0.97 42.55 M1.53 44.56 C0.53 34.28, -0.85 19.76, 0.18 1.5" stroke="#000000" stroke-width="2.5" fill="none" stroke-dasharray="1.5 8"/></g><g transform="translate(870.5236163806171 974.8000000000003) rotate(0 22.24609375 12)"><text x="0" y="0" font-family="Helvetica, Segoe UI Emoji" font-size="20px" fill="#000000" text-anchor="start" style="white-space: pre;" direction="ltr" dominant-baseline="text-before-edge">239u</text></g><g transform="translate(870.5236163806171 1014.8000000000003) rotate(0 22.24609375 12)"><text x="0" y="0" font-family="Helvetica, Segoe UI Emoji" font-size="20px" fill="#000000" text-anchor="start" style="white-space: pre;" direction="ltr" dominant-baseline="text-before-edge">238u</text></g><g stroke-linecap="round" transform="translate(810.5236163806171 490.0000000000001) rotate(0 20.6364205464313 21.850327637397868)"><path d="M-0.89 0.32 C12.7 1.38, 25.72 1.11, 39.99 1.8 M0.41 0.39 C10.43 0.3, 19.68 0.29, 40.98 0.13 M40.55 -1.15 C40.96 9.63, 39.84 20.38, 40.95 45.53 M42.22 -0.46 C40.81 16.55, 42.21 33.12, 41.96 43.63 M40.96 42.97 C31.77 44.37, 21.12 44.54, -1.67 43.62 M41.55 42.81 C28.21 43.59, 13.87 44.01, -0.66 42.71 M-0.18 45.38 C0.02 32.39, -0.39 21.39, -1.12 0.65 M0.63 44.21 C-1.04 27.87, 0.46 13.33, -0.41 -0.96" stroke="#000000" stroke-width="2" fill="none"/></g><g stroke-linecap="round" transform="translate(810.5236163806171 570.0000000000001) rotate(0 20.6364205464313 21.850327637397868)"><path d="M0.32 0.06 C11.42 0.63, 21.4 -1.09, 43.07 -1.23 M0.39 0.59 C15.47 -0.18, 30.72 -0.46, 41.4 -0.57 M40.13 -0.03 C40.11 9.13, 40.26 20.23, 43.1 45.23 M40.81 -0.65 C41.46 15.73, 41.58 30.65, 41.2 43.03 M40.54 43.83 C30.4 42.74, 18.9 41.96, -0.08 44.39 M40.38 44.44 C26.16 44.02, 11.56 43.16, -0.99 43.2 M1.68 43.75 C-0.77 29.91, -0.83 15.72, 0.65 1.11 M0.51 43.02 C0.06 27.83, 1.05 9.92, -0.96 0.87" stroke="#000000" stroke-width="2" fill="none"/></g><g stroke-linecap="round" transform="translate(810.5236163806171 530.0000000000001) rotate(0 20.6364205464313 21.850327637397868)"><path d="M0.06 1.17 C10.67 0.83, 19.17 1.73, 40.04 1.39 M0.59 0.21 C11.48 0.04, 22.7 -0.03, 40.7 -0.65 M41.24 -0.97 C39.96 10.33, 40.79 24.12, 42.81 44.56 M40.63 0.09 C42.44 14.33, 42.38 28.17, 40.61 43.53 M41.4 44.51 C29.4 44.52, 17.65 43.47, 0.69 44.98 M42.01 43.6 C29.25 43.66, 16.15 42.34, -0.5 43.77 M0.05 43.33 C-0.32 26.18, -1.08 10.18, 1.11 1.64 M-0.68 43.4 C0.54 34.86, -0.69 23.67, 0.87 0.69" stroke="#000000" stroke-width="2" fill="none"/></g><g transform="translate(870.5236163806171 494.80000000000007) rotate(0 5.5615234375 12)"><text x="0" y="0" font-family="Helvetica, Segoe UI Emoji" font-size="20px" fill="#000000" text-anchor="start" style="white-space: pre;" direction="ltr" dominant-baseline="text-before-edge">5</text></g><g transform="translate(870.5236163806171 534.8000000000001) rotate(0 5.5615234375 12)"><text x="0" y="0" font-family="Helvetica, Segoe UI Emoji" font-size="20px" fill="#000000" text-anchor="start" style="white-space: pre;" direction="ltr" dominant-baseline="text-before-edge">4</text></g><g transform="translate(870.5236163806171 574.8000000000001) rotate(0 5.5615234375 12)"><text x="0" y="0" font-family="Helvetica, Segoe UI Emoji" font-size="20px" fill="#000000" text-anchor="start" style="white-space: pre;" direction="ltr" dominant-baseline="text-before-edge">3</text></g><g stroke-linecap="round" transform="translate(810.5236163806171 370.0000000000001) rotate(0 20.6364205464313 21.850327637397868)"><path d="M-1.28 1.8 C13.56 1.21, 29.15 0.63, 42.06 1.17 M-0.29 0.13 C12.67 -0.73, 26.03 -0.44, 40.7 -0.01 M40.95 1.83 C42.55 11.86, 41.48 23.9, 40.35 42.41 M41.96 -0.08 C40.93 13.33, 41.26 26.84, 40.91 43.77 M39.6 43.62 C27.92 45.18, 13.11 44.45, -1.78 45.18 M40.61 42.71 C28.79 43.91, 18.22 43.75, 0.84 43.73 M-1.12 44.35 C1.19 33.04, -1.56 20.37, 1.02 -1.36 M-0.41 42.74 C0.51 32.6, 0.46 20.95, 0.69 0.69" stroke="#000000" stroke-width="2" fill="none"/></g><g stroke-linecap="round" transform="translate(810.5236163806171 450.0000000000001) rotate(0 20.6364205464313 21.850327637397868)"><path d="M1.8 -1.23 C14.71 -0.17, 27.43 1.05, 42.45 0.42 M0.13 -0.57 C11.67 -0.33, 24.27 -0.45, 41.26 -0.48 M43.1 1.53 C41.95 11.06, 43 20.27, 39.98 43.88 M41.2 -0.67 C41.19 16.04, 41.21 32.4, 41.34 44.1 M41.19 44.39 C32.01 43.28, 20.74 41.57, 1.48 43.51 M40.28 43.2 C28.12 44.34, 14.74 44.27, 0.02 43.51 M0.65 44.81 C1.73 29.73, 1.36 20.05, -1.36 -0.6 M-0.96 44.57 C0.39 27.85, 0.53 11.07, 0.69 -0.9" stroke="#000000" stroke-width="2" fill="none"/></g><g stroke-linecap="round" transform="translate(810.5236163806171 410.0000000000001) rotate(0 20.6364205464313 21.850327637397868)"><path d="M-1.23 1.39 C13.81 0.44, 29.26 0.8, 41.69 -0.03 M-0.57 -0.65 C12.76 -0.41, 25.84 -0.07, 40.79 -0.58 M42.81 0.86 C41.66 13.23, 40.28 21.36, 41.45 45.2 M40.61 -0.17 C41.23 13.85, 41.21 28.07, 41.68 43.25 M41.96 44.98 C26.81 44.24, 10.7 45.16, -0.19 44.11 M40.78 43.77 C28.46 43.2, 14.67 43.32, -0.19 43.52 M1.11 45.34 C-1.39 32.79, 1.26 18, -0.6 1.63 M0.87 44.39 C0.99 28.4, 0.87 12.13, -0.9 0.32" stroke="#000000" stroke-width="2" fill="none"/></g><g transform="translate(870.5236163806171 374.80000000000007) rotate(0 5.5615234375 12)"><text x="0" y="0" font-family="Helvetica, Segoe UI Emoji" font-size="20px" fill="#000000" text-anchor="start" style="white-space: pre;" direction="ltr" dominant-baseline="text-before-edge">8</text></g><g transform="translate(870.5236163806171 414.80000000000007) rotate(0 5.5615234375 12)"><text x="0" y="0" font-family="Helvetica, Segoe UI Emoji" font-size="20px" fill="#000000" text-anchor="start" style="white-space: pre;" direction="ltr" dominant-baseline="text-before-edge">7</text></g><g transform="translate(870.5236163806171 454.80000000000007) rotate(0 5.5615234375 12)"><text x="0" y="0" font-family="Helvetica, Segoe UI Emoji" font-size="20px" fill="#000000" text-anchor="start" style="white-space: pre;" direction="ltr" dominant-baseline="text-before-edge">6</text></g><g stroke-linecap="round" transform="translate(810.5236163806171 250) rotate(0 20.6364205464313 21.850327637397868)"><path d="M0.79 1.17 C15.68 -0.2, 30.92 -0.75, 41.53 -1.15 M-0.57 -0.01 C9.22 -0.43, 19 -0.01, 42.19 0.77 M40.35 -1.29 C41.55 16.48, 41.78 31.34, 41.12 42.37 M40.91 0.07 C41.53 11.92, 41.61 23.89, 41.23 44.05 M39.49 45.18 C26.06 44.22, 11.88 42.5, -1.98 42.71 M42.11 43.73 C28.4 43.49, 15.68 43.11, 0.33 44.25 M1.02 42.34 C-0.25 28.64, 1.74 9.51, -1.93 1.73 M0.69 44.39 C-1.26 27.91, -0.26 10.94, -0.55 0.33" stroke="#000000" stroke-width="2" fill="none"/></g><g stroke-linecap="round" transform="translate(810.5236163806171 330) rotate(0 20.6364205464313 21.850327637397868)"><path d="M1.17 0.42 C11.46 0.24, 22.4 0.09, 40.12 -1.3 M-0.01 -0.48 C9.95 -0.17, 20.89 1.15, 42.04 0.43 M39.98 0.18 C43.19 14.53, 43.06 28.09, 39.94 43.36 M41.34 0.4 C40.76 12.11, 40.37 23.2, 41.62 44.34 M42.75 43.51 C29.45 43.98, 15.49 41.36, -0.99 43.85 M41.3 43.51 C24.96 43.83, 8.44 44.37, 0.55 44.52 M-1.36 43.1 C1.35 35.55, -1.1 22.7, 1.73 1.38 M0.69 42.8 C-0.04 27.14, -0.89 9.85, 0.33 0.79" stroke="#000000" stroke-width="2" fill="none"/></g><g stroke-linecap="round" transform="translate(810.5236163806171 290) rotate(0 20.6364205464313 21.850327637397868)"><path d="M0.42 -0.03 C14.46 -0.83, 28.37 -1.39, 39.98 -0.9 M-0.48 -0.58 C10.48 -0.16, 22.7 0.77, 41.7 0.23 M41.45 1.5 C41.48 18.64, 40.92 33.2, 40.93 43.02 M41.68 -0.45 C41.6 11.6, 41.07 25.22, 41.91 43.66 M41.08 44.11 C28.4 42.69, 12.26 43.01, 0.15 45.52 M41.09 43.52 C29.04 43.15, 17.56 44.26, 0.82 42.88 M-0.6 45.33 C1.16 27.01, -2.15 13.7, 1.38 1.62 M-0.9 44.02 C-0.21 26.42, -0.85 10.54, 0.79 0.41" stroke="#000000" stroke-width="2" fill="none"/></g><g transform="translate(870.5236163806171 254.80000000000018) rotate(0 10.380859375 12)"><text x="0" y="0" font-family="Helvetica, Segoe UI Emoji" font-size="20px" fill="#000000" text-anchor="start" style="white-space: pre;" direction="ltr" dominant-baseline="text-before-edge">11</text></g><g transform="translate(870.5236163806171 294.8000000000002) rotate(0 11.123046875 12)"><text x="0" y="0" font-family="Helvetica, Segoe UI Emoji" font-size="20px" fill="#000000" text-anchor="start" style="white-space: pre;" direction="ltr" dominant-baseline="text-before-edge">10</text></g><g transform="translate(870.5236163806171 334.8000000000002) rotate(0 5.5615234375 12)"><text x="0" y="0" font-family="Helvetica, Segoe UI Emoji" font-size="20px" fill="#000000" text-anchor="start" style="white-space: pre;" direction="ltr" dominant-baseline="text-before-edge">9</text></g><g stroke-linecap="round" transform="translate(810.5236163806171 210) rotate(0 20.6364205464313 21.850327637397868)"><path d="M0.26 -1.15 C11.02 -0.78, 23.91 -1.03, 41.24 -0.97 M0.91 0.77 C10.44 0.3, 20.97 -0.4, 40.63 0.09 M41.12 -1.33 C41.02 15.7, 41.05 32.04, 41.4 44.51 M41.23 0.34 C42.13 11.12, 41.76 21.43, 42.01 43.6 M39.3 42.71 C28.2 45.25, 14.65 45.11, 0.05 43.33 M41.6 44.25 C30.44 42.65, 18.6 43.98, -0.68 43.4 M-1.93 45.43 C1.07 28.66, 1.36 11.76, 1.37 -1.81 M-0.55 44.03 C0.75 29.59, -0.25 13.94, 0.39 -0.53" stroke="#000000" stroke-width="2" fill="none"/></g><g stroke-linecap="round" transform="translate(810.5236163806171 170) rotate(0 20.6364205464313 21.850327637397868)"><path d="M-1.15 -1.3 C12.31 -0.78, 25.27 -0.08, 40.31 -1.15 M0.77 0.43 C10.93 0.57, 20.93 -1.02, 41.36 0.75 M39.94 -0.34 C40.89 13.69, 40.84 28.14, 42.08 42.81 M41.62 0.64 C40.87 15.52, 40.01 31.22, 41.18 43.9 M40.28 43.85 C29.37 43.12, 15.51 43.34, -0.37 43.35 M41.83 44.52 C28.96 44.47, 18.79 43.16, -0.3 44.51 M1.73 45.08 C1.8 29.23, 1.57 12.82, -1.81 0.64 M0.33 44.49 C0.64 29.96, -0.49 17.03, -0.53 0.94" stroke="#000000" stroke-width="2" fill="none"/></g><g transform="translate(870.5236163806171 174.80000000000018) rotate(0 11.123046875 12)"><text x="0" y="0" font-family="Helvetica, Segoe UI Emoji" font-size="20px" fill="#000000" text-anchor="start" style="white-space: pre;" direction="ltr" dominant-baseline="text-before-edge">13</text></g><g transform="translate(870.5236163806171 214.80000000000018) rotate(0 11.123046875 12)"><text x="0" y="0" font-family="Helvetica, Segoe UI Emoji" font-size="20px" fill="#000000" text-anchor="start" style="white-space: pre;" direction="ltr" dominant-baseline="text-before-edge">12</text></g><g stroke-linecap="round" transform="translate(810.5236163806171 10) rotate(0 20.6364205464313 21.850327637397868)"><path d="M-0.72 -1.15 C9.98 -0.78, 18.87 -0.63, 40.95 1.83 M0.95 -0.46 C14.9 -0.01, 31.84 0.11, 41.96 -0.08 M40.96 -0.73 C41.33 11, 40.31 21.37, 39.6 43.62 M41.55 -0.89 C42.29 14.52, 41.76 29.56, 40.61 42.71 M41.1 45.38 C30.99 43.7, 20.25 43.65, -1.12 44.35 M41.9 44.21 C25.93 43.06, 12.75 44.05, -0.41 42.74 M1.66 45.09 C1.07 24.99, 0.34 10.09, -1.06 -1.1 M-0.21 42.98 C0.05 28.6, 0.6 13.76, 0.43 -0.79" stroke="#000000" stroke-width="2" fill="none"/></g><g stroke-linecap="round" transform="translate(810.5236163806171 50) rotate(0 20.6364205464313 21.850327637397868)"><path d="M-1.15 -0.03 C8.74 -1, 18.59 -0.18, 43.1 1.53 M-0.46 -0.65 C14.24 0.36, 28.5 0.29, 41.2 -0.67 M40.54 0.13 C41.93 11.47, 42.1 23.05, 41.19 44.39 M40.38 0.74 C41.16 16.11, 41.58 31.15, 40.28 43.2 M42.95 43.75 C28.21 43.31, 15.47 42.55, 0.65 44.81 M41.78 43.02 C25.21 44.77, 10.45 43.55, -0.96 44.57 M1.39 45.08 C-2.16 28.23, -0.16 10.4, -1.1 0.66 M-0.72 44.09 C-0.71 28.08, -0.99 11.01, -0.79 0.63" stroke="#000000" stroke-width="2" fill="none"/></g><g transform="translate(870.5236163806171 14.800000000000182) rotate(0 22.24609375 12)"><text x="0" y="0" font-family="Helvetica, Segoe UI Emoji" font-size="20px" fill="#000000" text-anchor="start" style="white-space: pre;" direction="ltr" dominant-baseline="text-before-edge">255u</text></g><g transform="translate(870.5236163806171 54.80000000000018) rotate(0 22.24609375 12)"><text x="0" y="0" font-family="Helvetica, Segoe UI Emoji" font-size="20px" fill="#000000" text-anchor="start" style="white-space: pre;" direction="ltr" dominant-baseline="text-before-edge">254u</text></g><g stroke-linecap="round"><g transform="translate(810.5236163806171 169.63732503093797) rotate(0 0 -40)"><path d="M-1.35 -1.61 C-1.27 -15.01, -1.8 -67.75, -1.14 -80.46" stroke="#000000" stroke-width="1.5" fill="none" stroke-dasharray="8 9"/></g></g><mask/><g stroke-linecap="round"><g transform="translate(850.5236163806171 169.63732503093797) rotate(0 0 -40)"><path d="M-1.61 -1.14 C-1.68 -13.83, -1.08 -64.5, -0.46 -77.44" stroke="#000000" stroke-width="1.5" fill="none" stroke-dasharray="8 9"/></g></g><mask/><g stroke-linecap="round"><g transform="translate(890.5236163806171 149.63732503093797) rotate(0 0 -30)"><path d="M-1.14 -0.46 C-0.49 -9.83, 2.17 -48.04, 2.56 -57.85" stroke="#000000" stroke-width="1.5" fill="none" stroke-dasharray="1.5 7"/></g></g><mask/><g stroke-linecap="round"><g transform="translate(649.4091796875 710.0000000000001) rotate(0 80.29541015625 -5.684341886080802e-14)"><path d="M-0.46 2.56 C10.27 2.95, 35.79 1.18, 62.74 1.2 C89.69 1.22, 145.15 3.16, 161.24 2.66 M-4.15 1.48 C6.54 1.12, 34.34 -2.68, 61.66 -3.16 C88.99 -3.64, 143.53 -1.92, 159.78 -1.42" stroke="#000000" stroke-width="1" fill="none"/></g><g transform="translate(649.4091796875 710.0000000000001) rotate(0 80.29541015625 -5.684341886080802e-14)"><path d="M134.95 11.07 C140 6.74, 149 1.67, 157.19 -1.06 M131.15 6.67 C141.6 3.4, 152.31 -0.19, 159.91 -0.61" stroke="#000000" stroke-width="1" fill="none"/></g><g transform="translate(649.4091796875 710.0000000000001) rotate(0 80.29541015625 -5.684341886080802e-14)"><path d="M135.56 -9.44 C140.29 -8.8, 149.14 -8.89, 157.19 -1.06 M131.76 -13.84 C142.06 -9.42, 152.55 -5.31, 159.91 -0.61" stroke="#000000" stroke-width="1" fill="none"/></g></g><mask/><g stroke-linecap="round"><g transform="translate(590.8281721356511 608.2644647023083) rotate(0 109.58591393217444 28.17183771754486)"><path d="M2.56 2.15 C19.48 8.39, 63.82 28.17, 100.37 36.99 C136.92 45.81, 202.34 51.78, 221.83 55.05 M0.5 0.84 C17.26 6.23, 61.96 22.9, 98.78 32.33 C135.61 41.77, 201.78 52.95, 221.47 57.45" stroke="#fd7e14" stroke-width="1" fill="none"/></g><g transform="translate(590.8281721356511 608.2644647023083) rotate(0 109.58591393217444 28.17183771754486)"><path d="M194.89 63.72 C200.44 64.09, 205.35 56.52, 221.83 60.45 M190.49 61.66 C200.58 60.28, 210.03 59.26, 222.28 56.56" stroke="#fd7e14" stroke-width="1" fill="none"/></g><g transform="translate(590.8281721356511 608.2644647023083) rotate(0 109.58591393217444 28.17183771754486)"><path d="M198.9 43.59 C203.35 49.25, 207.22 46.9, 221.83 60.45 M194.5 41.54 C203.58 46.6, 211.75 52.03, 222.28 56.56" stroke="#fd7e14" stroke-width="1" fill="none"/></g></g><mask/><g stroke-linecap="round"><g transform="translate(1002.751953125 669.9122102060969) rotate(0 -50 0)"><path d="M2.15 1.2 C-7.67 1.22, -42.11 3.16, -59.35 2.66 C-76.59 2.16, -94.56 -1.72, -101.3 -1.81 M-0.13 -0.62 C-10.22 -0.11, -43.96 -1.06, -61.24 -0.9 C-78.52 -0.75, -97.51 0.63, -103.81 0.32" stroke="#40c057" stroke-width="1" fill="none"/></g><g transform="translate(1002.751953125 669.9122102060969) rotate(0 -50 0)"><path d="M-83.38 -5.8 C-86.47 -6.29, -98.17 -2.09, -100.81 1.13 M-85.43 -7.41 C-92.31 -5.11, -98.77 -0.98, -104.7 1.29" stroke="#40c057" stroke-width="1" fill="none"/></g><g transform="translate(1002.751953125 669.9122102060969) rotate(0 -50 0)"><path d="M-83.23 7.88 C-86.61 3.51, -98.35 3.83, -100.81 1.13 M-85.28 6.27 C-92.2 3.52, -98.71 2.61, -104.7 1.29" stroke="#40c057" stroke-width="1" fill="none"/></g></g><mask/><g stroke-linecap="round" transform="translate(10 404.608140137398) rotate(0 131 41)"><path d="M-1.88 -0.44 L262.82 0.26 L260.06 80.04 L-1.84 81.86" stroke="none" stroke-width="0" fill="#868e96"/><path d="M1.52 -0.74 C97.65 -0.34, 198.56 -0.16, 263.1 -0.12 M-0.12 -0.29 C61.18 1.03, 121.9 1.1, 261.33 -0.03 M262.55 -1.78 C264 27.23, 262.93 55.51, 260.68 80.02 M261.91 0.84 C262.09 20.34, 261.88 40.84, 261.44 82.33 M263.01 82.81 C167.81 79.81, 77.08 81.39, -0.66 80.46 M262.66 82.55 C161.23 82.97, 59.62 83.77, -0.42 81.56 M-0.41 80.56 C0.14 53.61, 1.24 25.72, 0.86 -1.58 M0.79 81.49 C0.17 51.66, 0.25 21.51, 0.67 0.98" stroke="#000" stroke-width="1" fill="none"/></g><g transform="translate(15 421.608140137398) rotate(0 118.486328125 24)"><text x="0" y="0" font-family="Helvetica, Segoe UI Emoji" font-size="20px" fill="#000" text-anchor="start" style="white-space: pre;" direction="ltr" dominant-baseline="text-before-edge">bufferSize = 8</text><text x="0" y="24" font-family="Helvetica, Segoe UI Emoji" font-size="20px" fill="#000" text-anchor="start" style="white-space: pre;" direction="ltr" dominant-baseline="text-before-edge">indexMask = bufferSize - 1</text></g><g stroke-linecap="round" transform="translate(975.50390625 368.127671387398) rotate(0 161 51)"><path d="M0.82 0.26 L320.06 -1.96 L320.16 101.86 L-1.22 100.05" stroke="none" stroke-width="0" fill="#40c057"/><path d="M-0.9 0.12 C105.09 1.32, 209.06 0.93, 321.07 -0.24 M0.05 0.28 C85.32 1.16, 170.69 0.79, 322.24 0.45 M323.48 -0.19 C322.69 30.88, 320.96 58.48, 321.01 102.15 M322.02 -0.19 C321.73 39.67, 321.35 80.1, 322.55 102.82 M321.05 101.58 C252.87 104.11, 180.91 101.8, 1.21 102.96 M322.48 101.37 C199.53 103.62, 76.23 103.17, 0.23 102.55 M0.78 100.93 C2.1 65.63, 1.07 30.94, 1.26 -0.69 M-0.12 101.43 C-0.85 67.09, -0.14 35.04, -0.94 -0.22" stroke="#000" stroke-width="1" fill="none"/></g><g transform="translate(980.50390625 395.127671387398) rotate(0 46.6845703125 24)"><text x="0" y="0" font-family="Helvetica, Segoe UI Emoji" font-size="20px" fill="#000" text-anchor="start" style="white-space: pre;" direction="ltr" dominant-baseline="text-before-edge">consumer:</text><text x="0" y="24" font-family="Helvetica, Segoe UI Emoji" font-size="20px" fill="#000" text-anchor="start" style="white-space: pre;" direction="ltr" dominant-baseline="text-before-edge">publish(0)</text></g><g stroke-linecap="round" transform="translate(55.50390625 688.127671387398) rotate(0 150 150)"><path d="M164.63 0.61 C179.3 -0.27, 196.13 6.37, 210.32 12.66 C224.5 18.94, 238.08 28.07, 249.71 38.34 C261.35 48.6, 272.21 61.01, 280.11 74.22 C288.02 87.43, 293.95 102.36, 297.13 117.6 C300.31 132.83, 300.73 150.14, 299.18 165.64 C297.63 181.14, 294.02 196.7, 287.83 210.62 C281.63 224.55, 272.3 237.69, 262.01 249.19 C251.71 260.69, 239.45 271.65, 226.07 279.61 C212.7 287.58, 197.11 293.86, 181.77 296.97 C166.43 300.07, 149.53 299.85, 134.05 298.23 C118.56 296.61, 102.72 293.36, 88.85 287.26 C74.98 281.16, 62.11 271.96, 50.83 261.64 C39.54 251.33, 29.07 238.74, 21.13 225.36 C13.19 211.98, 6.6 196.59, 3.17 181.39 C-0.25 166.19, -1.09 149.4, 0.57 134.15 C2.23 118.9, 6.72 104.07, 13.14 89.9 C19.56 75.72, 28.73 60.62, 39.09 49.1 C49.45 37.58, 62.18 28.47, 75.3 20.8 C88.41 13.13, 100.11 5.89, 117.76 3.06 C135.41 0.22, 168.51 2.83, 181.2 3.8 C193.88 4.77, 194.34 6.41, 193.84 8.85 M210.17 10.79 C224.47 14.25, 238.01 27.04, 249.32 37.31 C260.64 47.58, 270.16 58.97, 278.07 72.41 C285.98 85.86, 293.13 102.85, 296.78 118 C300.43 133.15, 301.65 148.05, 299.99 163.33 C298.32 178.62, 293.1 195.24, 286.77 209.72 C280.45 224.21, 272.23 238.63, 262.03 250.26 C251.82 261.89, 238.88 271.68, 225.54 279.51 C212.21 287.34, 196.95 293.84, 182 297.23 C167.05 300.62, 150.83 301.56, 135.84 299.87 C120.84 298.18, 106.19 293.4, 92.05 287.08 C77.91 280.77, 62.81 272.27, 50.98 261.98 C39.15 251.69, 28.79 238.24, 21.08 225.35 C13.37 212.46, 8.37 199.55, 4.73 184.66 C1.08 169.77, -2.12 151.63, -0.78 136.03 C0.56 120.43, 6.68 105.45, 12.76 91.06 C18.85 76.67, 25.86 61.36, 35.71 49.69 C45.56 38.01, 58.49 28.93, 71.85 21.02 C85.22 13.12, 100.54 5.82, 115.9 2.25 C131.26 -1.31, 148.42 -2.26, 164.03 -0.37 C179.63 1.52, 202.44 11.24, 209.54 13.6 C216.64 15.95, 207.58 11.47, 206.62 13.76" stroke="#000000" stroke-width="1" fill="none"/></g><g stroke-linecap="round" transform="translate(115.50390625 748.127671387398) rotate(0 90 90)"><path d="M120.16 4.92 C130.88 7.34, 141.75 15.12, 150.29 22.95 C158.84 30.79, 166.57 41.41, 171.43 51.93 C176.29 62.45, 179.03 74.69, 179.45 86.08 C179.86 97.47, 177.64 109.45, 173.9 120.29 C170.16 131.12, 164.6 142.53, 157.02 151.09 C149.45 159.64, 139.02 166.71, 128.44 171.64 C117.85 176.56, 104.99 180.08, 93.52 180.63 C82.04 181.18, 70.18 179.04, 59.58 174.94 C48.97 170.84, 38.53 163.85, 29.88 156.02 C21.22 148.19, 12.6 138.09, 7.65 127.98 C2.7 117.86, 0.59 106.56, 0.18 95.32 C-0.23 84.07, 1.32 71.5, 5.18 60.51 C9.04 49.52, 15.65 38.05, 23.34 29.37 C31.04 20.69, 41.07 13.24, 51.35 8.42 C61.63 3.6, 71.83 0.14, 85.03 0.44 C98.24 0.73, 121.86 7.49, 130.58 10.21 C139.3 12.93, 138.05 15.67, 137.37 16.76 M75.84 -0.42 C86.43 -3.43, 101.39 0.45, 112.84 3.65 C124.3 6.85, 135.36 11.96, 144.56 18.76 C153.76 25.57, 162.55 34.78, 168.06 44.48 C173.57 54.17, 176.04 65.9, 177.62 76.95 C179.2 87.99, 180.19 99.6, 177.53 110.75 C174.87 121.9, 168.3 134.36, 161.66 143.84 C155.03 153.32, 147.48 161.96, 137.74 167.63 C128 173.31, 114.68 176.41, 103.23 177.9 C91.78 179.39, 79.9 179.35, 69.04 176.58 C58.19 173.81, 47.31 168.14, 38.07 161.27 C28.84 154.4, 19.64 145.08, 13.62 135.37 C7.6 125.66, 3.72 113.97, 1.97 103.01 C0.22 92.06, 0.65 80.73, 3.11 69.64 C5.57 58.56, 10.16 45.93, 16.74 36.48 C23.33 27.03, 32.88 18.66, 42.6 12.92 C52.31 7.18, 69.11 3.95, 75.05 2.03 C80.98 0.11, 77.8 -0.02, 78.21 1.4" stroke="#000000" stroke-width="1" fill="none"/></g><g stroke-linecap="round"><g transform="translate(55.50390625 848.127671387398) rotate(0 30 0)"><path d="M0.25 0.82 C10.21 0.54, 49.98 -0.59, 59.91 -0.8 M-1.09 0.21 C8.71 -0.02, 48.91 0.24, 58.91 0.32" stroke="#000000" stroke-width="1" fill="none"/></g></g><mask/><g stroke-linecap="round"><g transform="translate(295.50390625 828.127671387398) rotate(0 30 0)"><path d="M0.82 -0.09 C10.54 -0.17, 49.41 -0.19, 59.2 -0.21 M-0.2 -1.18 C9.82 -1.09, 51.69 0.85, 61.49 1.22" stroke="#000000" stroke-width="1" fill="none"/></g></g><mask/><g stroke-linecap="round"><g transform="translate(195.50390625 748.127671387398) rotate(0 0 -30)"><path d="M-0.09 -0.8 C-0.17 -11.01, -0.19 -50.47, -0.21 -60.41 M-1.6 1.39 C-1.87 -8.72, -1.35 -48.96, -1.26 -59.09" stroke="#000000" stroke-width="1" fill="none"/></g></g><mask/><g stroke-linecap="round"><g transform="translate(215.50390625 988.127671387398) rotate(0 0 -30)"><path d="M-0.8 -0.21 C-1.01 -10.22, -0.47 -50.23, -0.41 -60.19 M0.98 -1.36 C0.51 -11.18, -1.17 -49.21, -1.57 -58.75" stroke="#000000" stroke-width="1" fill="none"/></g></g><mask/><g stroke-linecap="round"><g transform="translate(275.50390625 888.127671387398) rotate(0 20 30)"><path d="M-0.21 -0.41 C6.45 9.65, 33.1 49.41, 39.81 59.56 M-1.77 -1.67 C4.71 8.63, 31.91 50.86, 38.77 60.87" stroke="#000000" stroke-width="1" fill="none"/></g></g><mask/><g stroke-linecap="round"><g transform="translate(135.50390625 788.127671387398) rotate(0 -20 -30)"><path d="M-0.41 -0.19 C-7.02 -10.14, -33.92 -49.86, -40.44 -59.92 M1.58 -1.33 C-5.16 -11.05, -34.68 -48.65, -41.62 -58.34" stroke="#000000" stroke-width="1" fill="none"/></g></g><mask/><g stroke-linecap="round"><g transform="translate(255.50390625 768.127671387398) rotate(0 30 -20)"><path d="M-0.19 -0.44 C9.86 -6.96, 50.14 -33.02, 60.08 -39.52 M-1.74 -1.72 C8.17 -8.56, 49.15 -34.76, 59.17 -41.38" stroke="#000000" stroke-width="1" fill="none"/></g></g><mask/><g stroke-linecap="round"><g transform="translate(155.50390625 908.127671387398) rotate(0 -30 20)"><path d="M-0.44 0.08 C-10.29 6.69, -49.69 32.98, -59.52 39.46 M1.53 -0.93 C-8.4 5.86, -49.98 33.94, -60.21 40.72" stroke="#000000" stroke-width="1" fill="none"/></g></g><mask/><g transform="translate(255.50390625 668.127671387398) rotate(0 5.5615234375 12)"><text x="0" y="0" font-family="Helvetica, Segoe UI Emoji" font-size="20px" fill="#000000" text-anchor="start" style="white-space: pre;" direction="ltr" dominant-baseline="text-before-edge">0</text></g><g transform="translate(366.73558408186364 762.3816043897706) rotate(0 5.5615234375 12)"><text x="0" y="0" font-family="Helvetica, Segoe UI Emoji" font-size="20px" fill="#000000" text-anchor="start" style="white-space: pre;" direction="ltr" dominant-baseline="text-before-edge">1</text></g><g transform="translate(361.681148245249 884.9516734276748) rotate(0 5.5615234375 12)"><text x="0" y="0" font-family="Helvetica, Segoe UI Emoji" font-size="20px" fill="#000000" text-anchor="start" style="white-space: pre;" direction="ltr" dominant-baseline="text-before-edge">2</text></g><g transform="translate(275.50390625 988.127671387398) rotate(0 5.5615234375 12)"><text x="0" y="0" font-family="Helvetica, Segoe UI Emoji" font-size="20px" fill="#000000" text-anchor="start" style="white-space: pre;" direction="ltr" dominant-baseline="text-before-edge">3</text></g><g transform="translate(135.50390625 988.127671387398) rotate(0 5.5615234375 12)"><text x="0" y="0" font-family="Helvetica, Segoe UI Emoji" font-size="20px" fill="#000000" text-anchor="start" style="white-space: pre;" direction="ltr" dominant-baseline="text-before-edge">4</text></g><g transform="translate(35.50390625 908.127671387398) rotate(0 5.5615234375 12)"><text x="0" y="0" font-family="Helvetica, Segoe UI Emoji" font-size="20px" fill="#000000" text-anchor="start" style="white-space: pre;" direction="ltr" dominant-baseline="text-before-edge">5</text></g><g transform="translate(35.50390625 768.127671387398) rotate(0 5.5615234375 12)"><text x="0" y="0" font-family="Helvetica, Segoe UI Emoji" font-size="20px" fill="#000000" text-anchor="start" style="white-space: pre;" direction="ltr" dominant-baseline="text-before-edge">6</text></g><g transform="translate(124.12266392436254 667.6109324532468) rotate(0 5.5615234375 12)"><text x="0" y="0" font-family="Helvetica, Segoe UI Emoji" font-size="20px" fill="#000000" text-anchor="start" style="white-space: pre;" direction="ltr" dominant-baseline="text-before-edge">7</text></g><g transform="translate(204.85896622270707 708.4349021723402) rotate(0 41.66666666666674 17.08333333333337)" stroke="none"><path fill="#40c057" d="M -4.29,-9.44 Q -4.29,-9.44 3.73,-9.29 11.75,-9.13 14.74,-3.81 17.73,1.50 15.89,7.72 14.05,13.94 12.15,18.72 10.24,23.49 10.72,25.75 11.20,28.01 11.01,29.55 10.81,31.08 10.26,32.53 9.70,33.98 8.82,35.25 7.93,36.53 6.76,37.55 5.60,38.57 4.22,39.29 2.85,40.01 1.34,40.37 -0.16,40.74 -1.71,40.73 -3.26,40.72 -4.77,40.35 -6.27,39.97 -7.64,39.24 -9.01,38.52 -10.17,37.48 -11.33,36.45 -12.20,35.17 -13.08,33.89 -13.62,32.44 -14.17,30.98 -14.35,29.44 -14.53,27.90 -12.29,22.53 -10.05,17.15 -6.91,13.97 -3.78,10.79 0.88,6.33 5.55,1.86 9.91,-0.85 14.27,-3.57 19.25,-6.18 24.23,-8.80 24.45,-9.09 24.66,-9.39 26.22,-10.02 27.78,-10.66 29.45,-10.90 31.11,-11.14 32.79,-10.98 34.47,-10.81 36.05,-10.25 37.64,-9.69 39.05,-8.77 40.46,-7.84 41.60,-6.61 42.75,-5.37 43.57,-3.90 44.38,-2.43 44.82,-0.80 45.26,0.81 45.30,2.50 45.34,4.18 44.98,5.82 44.61,7.47 43.86,8.98 43.12,10.48 42.03,11.77 40.94,13.06 39.58,14.04 38.21,15.03 36.70,21.12 35.19,27.21 33.29,31.23 31.38,35.26 31.35,36.05 31.32,36.85 30.49,38.32 29.67,39.80 28.52,41.03 27.37,42.26 25.96,43.19 24.55,44.11 22.95,44.67 21.36,45.23 19.68,45.39 18.00,45.55 16.33,45.30 14.66,45.05 13.10,44.42 11.54,43.78 10.17,42.78 8.81,41.79 7.72,40.50 6.64,39.21 5.89,37.69 5.15,36.18 4.79,34.53 4.42,32.88 4.47,31.20 4.51,29.51 4.96,27.88 5.40,26.25 11.25,21.56 17.09,16.87 20.57,14.25 24.04,11.64 29.38,7.62 34.72,3.61 39.74,1.22 44.77,-1.15 49.48,-2.88 54.19,-4.62 54.55,-4.80 54.92,-4.98 56.59,-5.23 58.27,-5.48 59.96,-5.32 61.65,-5.16 63.25,-4.60 64.85,-4.04 66.27,-3.11 67.69,-2.19 68.84,-0.95 70.00,0.28 70.83,1.76 71.65,3.24 72.10,4.88 72.55,6.51 72.59,8.21 72.64,9.90 72.27,11.56 71.91,13.21 71.16,14.73 70.41,16.25 69.32,17.55 68.23,18.85 66.86,19.85 65.49,20.85 63.93,21.49 62.36,22.13 61.24,27.18 60.13,32.23 56.34,37.65 52.54,43.07 52.37,44.04 52.20,45.01 51.24,46.37 50.28,47.74 49.02,48.83 47.76,49.92 46.28,50.68 44.80,51.45 43.18,51.83 41.55,52.21 39.89,52.20 38.22,52.18 36.60,51.77 34.99,51.35 33.52,50.57 32.05,49.78 30.81,48.66 29.58,47.54 28.64,46.16 27.71,44.78 27.13,43.22 26.55,41.65 26.37,40.00 26.18,38.34 26.40,36.69 26.61,35.03 27.22,33.48 27.83,31.93 34.21,27.86 40.60,23.79 45.50,21.30 50.40,18.81 56.04,16.25 61.67,13.68 66.89,12.30 72.10,10.92 76.11,9.77 80.11,8.61 82.34,8.36 84.57,8.10 86.77,8.57 88.97,9.04 90.90,10.18 92.83,11.33 94.30,13.03 95.77,14.73 96.61,16.81 97.46,18.90 97.59,21.14 97.73,23.38 97.14,25.55 96.55,27.72 95.31,29.58 94.06,31.45 92.28,32.82 90.50,34.19 88.37,34.93 86.25,35.66 84.00,35.67 81.76,35.69 79.62,34.98 77.49,34.28 75.69,32.93 73.90,31.58 72.62,29.73 71.35,27.88 70.74,25.72 70.12,23.56 70.23,21.32 70.33,19.07 71.15,16.98 71.97,14.89 73.41,13.17 74.86,11.44 76.78,10.27 78.69,9.10 80.88,8.61 83.07,8.11 85.31,8.34 87.54,8.57 89.59,9.50 91.63,10.43 93.27,11.96 94.92,13.50 95.98,15.47 97.04,17.45 97.42,19.67 97.80,21.88 97.45,24.10 97.10,26.32 96.06,28.31 95.02,30.30 93.40,31.86 91.78,33.41 89.75,34.37 87.71,35.32 87.72,35.32 87.72,35.32 85.04,36.05 82.37,36.78 77.35,37.82 72.32,38.85 67.74,40.92 63.16,42.99 57.68,44.00 52.20,45.01 51.24,46.37 50.28,47.73 49.02,48.83 47.77,49.92 46.28,50.68 44.80,51.45 43.18,51.83 41.55,52.21 39.89,52.20 38.22,52.18 36.60,51.77 34.99,51.36 33.52,50.57 32.05,49.78 30.81,48.66 29.58,47.54 28.64,46.16 27.71,44.78 27.13,43.22 26.55,41.65 26.37,40.00 26.18,38.34 26.40,36.69 26.61,35.03 27.22,33.48 27.83,31.93 27.77,31.80 27.71,31.66 30.24,27.55 32.78,23.44 36.14,18.16 39.49,12.89 41.72,8.83 43.94,4.78 49.43,-0.10 54.92,-4.98 56.59,-5.23 58.27,-5.48 59.96,-5.32 61.65,-5.16 63.25,-4.60 64.85,-4.04 66.27,-3.11 67.68,-2.19 68.84,-0.95 70.00,0.28 70.83,1.76 71.65,3.24 72.10,4.88 72.55,6.51 72.59,8.20 72.64,9.90 72.27,11.56 71.91,13.21 71.16,14.73 70.42,16.25 69.33,17.55 68.23,18.85 66.86,19.85 65.50,20.85 63.93,21.49 62.36,22.13 60.92,22.54 59.48,22.94 55.26,24.34 51.05,25.74 46.41,29.34 41.78,32.94 36.55,34.89 31.32,36.85 30.50,38.32 29.67,39.80 28.52,41.03 27.37,42.26 25.96,43.19 24.55,44.11 22.95,44.67 21.36,45.23 19.68,45.39 18.00,45.55 16.33,45.30 14.66,45.05 13.10,44.42 11.54,43.78 10.18,42.78 8.81,41.79 7.73,40.50 6.64,39.21 5.89,37.69 5.15,36.18 4.79,34.53 4.42,32.88 4.47,31.20 4.51,29.51 4.96,27.88 5.40,26.26 6.27,23.73 7.13,21.20 9.49,16.17 11.85,11.13 14.39,5.67 16.92,0.22 20.79,-4.58 24.66,-9.39 26.22,-10.02 27.78,-10.66 29.45,-10.90 31.11,-11.14 32.79,-10.98 34.47,-10.81 36.05,-10.25 37.64,-9.69 39.05,-8.77 40.46,-7.84 41.60,-6.61 42.75,-5.38 43.57,-3.90 44.38,-2.43 44.82,-0.81 45.26,0.81 45.30,2.49 45.34,4.18 44.98,5.82 44.61,7.47 43.86,8.97 43.12,10.48 42.03,11.77 40.94,13.06 39.58,14.04 38.22,15.03 36.37,15.61 34.53,16.18 27.60,20.06 20.67,23.93 15.94,25.97 11.20,28.00 11.01,29.54 10.81,31.08 10.26,32.53 9.70,33.98 8.82,35.25 7.93,36.53 6.77,37.55 5.60,38.57 4.22,39.29 2.85,40.01 1.34,40.37 -0.16,40.74 -1.71,40.73 -3.26,40.72 -4.76,40.35 -6.27,39.97 -7.64,39.24 -9.01,38.52 -10.17,37.48 -11.32,36.45 -12.20,35.17 -13.08,33.89 -13.62,32.44 -14.17,30.99 -14.35,29.45 -14.53,27.90 -14.51,27.65 -14.49,27.40 -14.01,22.98 -13.53,18.56 -11.28,13.81 -9.02,9.07 -5.11,6.71 -1.21,4.34 1.54,6.89 4.29,9.44 3.10,9.82 1.90,10.20 0.66,10.28 -0.58,10.36 -1.81,10.14 -3.05,9.92 -4.19,9.41 -5.33,8.90 -6.32,8.13 -7.31,7.36 -8.08,6.38 -8.86,5.40 -9.37,4.26 -9.89,3.12 -10.12,1.89 -10.35,0.66 -10.28,-0.58 -10.21,-1.83 -9.84,-3.02 -9.47,-4.22 -8.83,-5.29 -8.19,-6.37 -7.31,-7.25 -6.43,-8.14 -5.36,-8.79 -4.29,-9.44 -4.29,-9.44 L -4.29,-9.44 Z"/></g><g stroke-linecap="round" transform="translate(42.751953125 69.91221020609692) rotate(0 270 60)"><path d="M-1.04 0.32 L539.31 -1.28 L538.2 120.46 L-1.77 121.01" stroke="none" stroke-width="0" fill="#868e96"/><path d="M-0.71 0.59 C196.44 -0.43, 393.3 -1.12, 539.21 -0.4 M0.34 0.01 C165.92 0.12, 331.91 -0.03, 540.13 0.22 M541.02 -1.36 C538.41 47.44, 540.4 90.8, 538.07 121.73 M540.69 0.69 C540.07 44.58, 541.07 87.98, 539.45 120.33 M539.43 120.31 C334.92 120.31, 130.05 119.9, -0.63 120.5 M539.8 119.95 C396.53 121.7, 253.14 121.98, 0.39 119.62 M-1.94 118.04 C-2.33 86.48, -1.71 51.3, 0.51 -1.32 M-0.76 120.38 C-0.24 81.19, -0.77 40.61, -0.15 0.51" stroke="#000" stroke-width="1" fill="none"/></g><g transform="translate(47.751953125 93.91221020609692) rotate(0 263.9599609375 36)"><text x="0" y="0" font-family="Helvetica, Segoe UI Emoji" font-size="20px" fill="#000" text-anchor="start" style="white-space: pre;" direction="ltr" dominant-baseline="text-before-edge">5. Потребитель прочитал ячейку в буфере и публикует </text><text x="0" y="24" font-family="Helvetica, Segoe UI Emoji" font-size="20px" fill="#000" text-anchor="start" style="white-space: pre;" direction="ltr" dominant-baseline="text-before-edge">номер прочитанного слота в барьере продюсера (делая </text><text x="0" y="48" font-family="Helvetica, Segoe UI Emoji" font-size="20px" fill="#000" text-anchor="start" style="white-space: pre;" direction="ltr" dominant-baseline="text-before-edge">прочитанную ячейку доступной для записи)</text></g><g stroke-linecap="round"><g transform="translate(1022.751953125 729.9122102060969) rotate(0 -60 -10)"><path d="M0.89 -0.12 C-19.13 -3.21, -99.48 -16.1, -119.76 -19.61 M-0.11 -1.22 C-20.29 -4.59, -100.87 -18.32, -120.58 -21.53" stroke="#000000" stroke-width="1" fill="none"/></g><g transform="translate(1022.751953125 729.9122102060969) rotate(0 -60 -10)"><path d="M-91.27 -26.59 C-100.14 -26.31, -112.43 -24.19, -120.43 -19.71 M-91.26 -27.18 C-99.84 -25.96, -107.89 -23.25, -119.76 -22.35" stroke="#000000" stroke-width="1" fill="none"/></g><g transform="translate(1022.751953125 729.9122102060969) rotate(0 -60 -10)"><path d="M-94.66 -6.35 C-102.23 -12.72, -113.42 -17.23, -120.43 -19.71 M-94.65 -6.94 C-102.41 -11.61, -109.47 -14.8, -119.76 -22.35" stroke="#000000" stroke-width="1" fill="none"/></g></g><mask/><g stroke-linecap="round"><g transform="translate(982.751953125 409.9122102060969) rotate(0 -226.3759765625 140.04389489695154)"><path d="M-0.12 0.24 C-75.33 9.98, -383.39 12.76, -452.36 59.3 C-521.33 105.84, -420.55 242.51, -413.94 279.49" stroke="#40c057" stroke-width="1.5" fill="none" stroke-dasharray="1.5 7"/></g><g transform="translate(982.751953125 409.9122102060969) rotate(0 -226.3759765625 140.04389489695154)"><path d="M-434.28 258.48 C-431.47 260.44, -426.78 267.13, -412.12 279.32" stroke="#40c057" stroke-width="1.5" fill="none" stroke-dasharray="1.5 5"/></g><g transform="translate(982.751953125 409.9122102060969) rotate(0 -226.3759765625 140.04389489695154)"><path d="M-415.5 250.21 C-416.59 253.89, -415.85 262.32, -412.12 279.32" stroke="#40c057" stroke-width="1.5" fill="none" stroke-dasharray="1.5 5"/></g></g><mask/></svg>