<svg version="1.1" xmlns="http://www.w3.org/2000/svg" viewBox="0 0 1360 1086.9" width="1360" height="1086.9">
  <!-- svg-source:excalidraw -->
  
  <defs>
    <style class="style-fonts">
      @font-face {
        font-family: "Virgil";
        src: url("https://excalidraw.com/Virgil.woff2");
      }
      @font-face {
        font-family: "Cascadia";
        src: url("https://excalidraw.com/Cascadia.woff2");
      }
    </style>
  </defs>
  <g transform="translate(610.6787341001004 263.60814013739787) rotate(0 55.01953125 12)"><text x="0" y="0" font-family="Helvetica, Segoe UI Emoji" font-size="20px" fill="#fd7e14" text-anchor="start" style="white-space: pre;" direction="ltr" dominant-baseline="text-before-edge">nextToClaim</text></g><g transform="translate(510 530) rotate(0 73.9111328125 12)"><text x="0" y="0" font-family="Helvetica, Segoe UI Emoji" font-size="20px" fill="#000000" text-anchor="start" style="white-space: pre;" direction="ltr" dominant-baseline="text-before-edge">consumerBarrier</text></g><g transform="translate(994.3359606626003 670.0000000000001) rotate(0 53.369140625 12)"><text x="0" y="0" font-family="Helvetica, Segoe UI Emoji" font-size="20px" fill="#40c057" text-anchor="start" style="white-space: pre;" direction="ltr" dominant-baseline="text-before-edge">nextToRead</text></g><g transform="translate(990 290) rotate(0 69.47265625 12)"><text x="0" y="0" font-family="Helvetica, Segoe UI Emoji" font-size="20px" fill="#000000" text-anchor="start" style="white-space: pre;" direction="ltr" dominant-baseline="text-before-edge">producerBarrier</text></g><g stroke-linecap="round" transform="translate(795.4503973557174 710.0000000000001) rotate(0 20.6364205464313 21.850327637397868)"><path d="M0.8 1.41 L41.53 0.03 L41.11 44.03 L0.83 42.38" stroke="none" stroke-width="0" fill="#40c057"/><path d="M-1.47 0.75 C9.54 0.66, 19.84 -1.98, 40.75 1.38 M-0.13 0.34 C12.28 0.02, 26.34 -0.28, 42.16 -0.68 M41.33 -0.43 C39.72 18.98, 39.46 33.44, 39.3 41.96 M42.08 0.84 C41.2 15.64, 41.67 29.98, 41.84 43.23 M42.99 44.61 C33.85 44.64, 24.47 41.46, -0.87 42.13 M42.23 43.41 C29.55 43.93, 17.23 43.95, 0.03 43.32 M-1.82 45.29 C-0.33 33.08, -0.79 21.12, 0.67 1.34 M0.76 43.24 C-0.56 32.68, 0.17 19.03, 0.56 -0.09" stroke="#000000" stroke-width="2" fill="none"/></g><g stroke-linecap="round" transform="translate(795.4503973557174 670.0000000000001) rotate(0 20.6364205464313 21.850327637397868)"><path d="M1.41 0.26 L41.31 -0.16 L41.6 44.53 L-1.32 42.79" stroke="none" stroke-width="0" fill="#40c057"/><path d="M0.75 -1.19 C11.09 -1.32, 18.52 -0.22, 42.65 0.36 M0.34 -0.85 C14.18 0.14, 28.1 0.94, 40.59 0.98 M40.84 -1.56 C42.8 11.3, 39.87 24.27, 39.53 44.54 M42.11 -0.09 C42.4 13.65, 41.78 27.11, 40.81 42.72 M42.18 44.59 C26.99 43.88, 8.27 43.19, -1.57 43.39 M40.98 43.7 C30.5 43.51, 19.32 44.12, -0.38 43.48 M1.59 43.81 C1.28 25.91, 1.45 9.51, 1.34 -0.58 M-0.46 43.08 C0.63 31.36, -1.19 19.37, -0.09 0.4" stroke="#000000" stroke-width="2" fill="none"/></g><g transform="translate(855.4503973557174 634.8000000000001) rotate(0 5.5615234375 12)"><text x="0" y="0" font-family="Helvetica, Segoe UI Emoji" font-size="20px" fill="#000000" text-anchor="start" style="white-space: pre;" direction="ltr" dominant-baseline="text-before-edge">2</text></g><g transform="translate(855.4503973557174 674.8000000000001) rotate(0 5.5615234375 12)"><text x="0" y="0" font-family="Helvetica, Segoe UI Emoji" font-size="20px" fill="#000000" text-anchor="start" style="white-space: pre;" direction="ltr" dominant-baseline="text-before-edge">1</text></g><g stroke-linecap="round" transform="translate(795.4503973557174 790.0000000000001) rotate(0 20.6364205464313 21.850327637397868)"><path d="M-1.63 -1.62 C13.41 1.17, 28.22 0.68, 40.92 -0.27 M41.44 -0.72 C42.67 13.21, 42.86 29.16, 40.95 43.76 M39.46 42.36 C27.8 42.29, 19.12 44.1, 1.99 45.31 M0.76 43.86 C1.18 25.98, -1.93 11.66, -1.58 1.72" stroke="#000000" stroke-width="2.5" fill="none" stroke-dasharray="1.5 8"/></g><g stroke-linecap="round" transform="translate(795.4503973557174 750.0000000000001) rotate(0 20.6364205464313 21.850327637397868)"><path d="M-1.62 -0.53 C11.3 0.7, 20.74 -0.02, 41.01 0.67 M40.56 1.77 C39.89 11.34, 41.26 18.45, 41.33 43.27 M39.94 41.73 C30.36 44.17, 23 45.31, 1.61 45.38 M0.16 44.84 C-1.24 29, 1.23 16.66, 1.72 0.91" stroke="#000000" stroke-width="2.5" fill="none" stroke-dasharray="1.5 8"/></g><g transform="translate(855.4503973557174 754.8000000000001) rotate(0 22.24609375 12)"><text x="0" y="0" font-family="Helvetica, Segoe UI Emoji" font-size="20px" fill="#000000" text-anchor="start" style="white-space: pre;" direction="ltr" dominant-baseline="text-before-edge">255u</text></g><g transform="translate(855.4503973557174 714.8000000000001) rotate(0 5.5615234375 12)"><text x="0" y="0" font-family="Helvetica, Segoe UI Emoji" font-size="20px" fill="#000000" text-anchor="start" style="white-space: pre;" direction="ltr" dominant-baseline="text-before-edge">0</text></g><g transform="translate(855.4503973557174 794.8000000000001) rotate(0 22.24609375 12)"><text x="0" y="0" font-family="Helvetica, Segoe UI Emoji" font-size="20px" fill="#000000" text-anchor="start" style="white-space: pre;" direction="ltr" dominant-baseline="text-before-edge">254u</text></g><g stroke-linecap="round" transform="translate(795.4503973557174 830.0000000000001) rotate(0 20.6364205464313 21.850327637397868)"><path d="M0.89 -0.36 C11.03 0.6, 20.89 -0.17, 41.44 -0.72 M41.28 -0.32 C41.03 16.54, 39.42 35.54, 39.46 42.36 M41.34 45.69 C34.57 45.56, 24.48 45.26, 0.76 43.86 M1.53 42.13 C1.92 29, 1.1 13.75, -0.18 -1.91" stroke="#000000" stroke-width="2.5" fill="none" stroke-dasharray="1.5 8"/></g><g stroke-linecap="round" transform="translate(795.4503973557174 870.0000000000001) rotate(0 20.6364205464313 21.850327637397868)"><path d="M-0.36 -0.27 C15.9 -1.89, 30.36 -0.02, 40.56 1.77 M40.95 0.06 C41.27 8.57, 43.3 18.44, 39.94 41.73 M43.26 45.31 C34.16 43.54, 25.07 44.48, 0.16 44.84 M-1.58 45.42 C1.34 33.53, 1.69 21.39, -1.91 -0.87" stroke="#000000" stroke-width="2.5" fill="none" stroke-dasharray="1.5 8"/></g><g transform="translate(855.4503973557174 834.8000000000001) rotate(0 22.24609375 12)"><text x="0" y="0" font-family="Helvetica, Segoe UI Emoji" font-size="20px" fill="#000000" text-anchor="start" style="white-space: pre;" direction="ltr" dominant-baseline="text-before-edge">253u</text></g><g transform="translate(855.4503973557174 874.8000000000001) rotate(0 22.24609375 12)"><text x="0" y="0" font-family="Helvetica, Segoe UI Emoji" font-size="20px" fill="#000000" text-anchor="start" style="white-space: pre;" direction="ltr" dominant-baseline="text-before-edge">252u</text></g><g stroke-linecap="round" transform="translate(795.4503973557174 910.0000000000001) rotate(0 20.6364205464313 21.850327637397868)"><path d="M-1.7 -0.1 C11.82 -0.85, 25.06 -1.5, 43.23 0.01 M39.72 1.6 C39.47 11.07, 39.31 23.08, 42.12 43.77 M41.1 45.08 C25.55 44.2, 9.45 43.11, -1.97 45.23 M0.89 44.96 C-0.55 32.12, -1.24 22.8, -0.32 -0.57" stroke="#000000" stroke-width="2.5" fill="none" stroke-dasharray="1.5 8"/></g><g stroke-linecap="round" transform="translate(795.4503973557174 950.0000000000001) rotate(0 20.6364205464313 21.850327637397868)"><path d="M-0.1 0.17 C11.12 2.12, 22.3 2.31, 41.28 -0.32 M42.87 -1.82 C39.84 11.26, 39.44 27.31, 41.34 45.69 M42.65 44.46 C25.73 44.81, 8.94 41.69, 1.53 42.13 M1.26 43.52 C-2.11 25.97, -1.76 9.66, -0.57 -1.04" stroke="#000000" stroke-width="2.5" fill="none" stroke-dasharray="1.5 8"/></g><g transform="translate(855.4503973557174 914.8000000000001) rotate(0 22.24609375 12)"><text x="0" y="0" font-family="Helvetica, Segoe UI Emoji" font-size="20px" fill="#000000" text-anchor="start" style="white-space: pre;" direction="ltr" dominant-baseline="text-before-edge">251u</text></g><g transform="translate(855.4503973557174 954.8000000000003) rotate(0 22.24609375 12)"><text x="0" y="0" font-family="Helvetica, Segoe UI Emoji" font-size="20px" fill="#000000" text-anchor="start" style="white-space: pre;" direction="ltr" dominant-baseline="text-before-edge">240u</text></g><g stroke-linecap="round" transform="translate(795.4503973557174 990.0000000000001) rotate(0 20.6364205464313 21.850327637397868)"><path d="M1.77 -1.36 C14.13 0.15, 24.03 0.2, 40.84 -1.56 M39.3 -1.74 C41.72 16.67, 42.86 34.8, 42.95 43.53 M42.42 42.77 C24.07 45.26, 9.24 45.45, 0.91 44.59 M-0.87 42.13 C-0.28 27.26, -1.01 13.87, -0.59 0.01" stroke="#000000" stroke-width="2.5" fill="none" stroke-dasharray="1.5 8"/></g><g stroke-linecap="round" transform="translate(795.4503973557174 1030) rotate(0 20.6364205464313 21.850327637397868)"><path d="M-1.36 1.96 C12.73 -0.68, 25.51 -0.79, 39.72 1.6 M39.53 0.84 C41.05 11.13, 42.59 19.96, 41.1 45.08 M40.34 41.73 C28.85 42.36, 15.09 44.85, 0.89 44.96 M-1.57 43.39 C-0.15 29.93, 2.32 17.66, 0.01 0.88" stroke="#000000" stroke-width="2.5" fill="none" stroke-dasharray="1.5 8"/></g><g transform="translate(855.4503973557174 994.8000000000003) rotate(0 22.24609375 12)"><text x="0" y="0" font-family="Helvetica, Segoe UI Emoji" font-size="20px" fill="#000000" text-anchor="start" style="white-space: pre;" direction="ltr" dominant-baseline="text-before-edge">239u</text></g><g transform="translate(855.4503973557174 1034.8000000000002) rotate(0 22.24609375 12)"><text x="0" y="0" font-family="Helvetica, Segoe UI Emoji" font-size="20px" fill="#000000" text-anchor="start" style="white-space: pre;" direction="ltr" dominant-baseline="text-before-edge">238u</text></g><g stroke-linecap="round" transform="translate(795.4503973557174 510.0000000000001) rotate(0 20.6364205464313 21.850327637397868)"><path d="M-1.2 -1.95 L40.86 -1.4 L41.21 42.83 L-1.76 42.32" stroke="none" stroke-width="0" fill="#fd7e14"/><path d="M-0.32 0.06 C9.14 -1.56, 20.73 -1.82, 39.94 -1.97 M0.99 0.8 C9.63 -0.1, 18.27 0.37, 41.35 0.57 M39.7 1.72 C41.75 11.96, 42.1 21.96, 39.36 42.83 M40.75 0.95 C40.91 9.69, 41.64 18.79, 41.74 43.73 M42.29 41.88 C32.05 44.21, 21.15 43.75, 1.67 44.37 M41.7 44.46 C25.66 43.01, 11.8 43.74, -1 44.26 M0.26 43.73 C-0.33 31.29, 0.66 16.9, -0.91 -0.43 M0.9 44.11 C0.02 33.05, -0.28 24.02, -0.66 0.66" stroke="#000000" stroke-width="2" fill="none"/></g><g stroke-linecap="round" transform="translate(795.4503973557174 590.0000000000001) rotate(0 20.6364205464313 21.850327637397868)"><path d="M0 0 C0 0, 0 0, 0 0 M0 0 C0 0, 0 0, 0 0 M-0.91 12.11 C5.02 6.76, 6.98 3.4, 11.57 -0.05 M0.5 11.68 C2.99 9.07, 5.52 5.27, 9.97 -0.43 M-0.27 24.4 C6.44 16.7, 11.05 13.63, 21.38 -0.54 M-0.28 25.07 C7.22 17.15, 14.15 8.5, 21.26 0.84 M1.5 35.24 C9.66 24.97, 17.91 13.6, 33.04 0.32 M-0.85 36.86 C7.62 27.86, 14.51 19.98, 30.96 -0.92 M2.2 47.38 C13.29 30.52, 28.32 18.71, 42.18 2.4 M2.84 45.5 C17.77 28.23, 33.01 11.85, 41.79 1.14 M13.2 47.45 C19.28 38.29, 27.22 27.48, 43.48 10.92 M12.81 46.24 C23.6 33.33, 36.22 19.66, 42.91 12.77 M24.19 44.94 C29.11 39.1, 33.8 33.69, 40.57 24.58 M23.91 45.21 C30.46 38.8, 36.41 30.22, 41.26 23.94 M34 45.17 C35.69 44.28, 38.21 40.49, 42.16 37.46 M34.26 45.38 C36.07 43.22, 37.99 41.42, 41.82 37.68" stroke="#40c057" stroke-width="1" fill="none"/><path d="M0.06 -0.43 C14.87 1.66, 31.03 -1.27, 39.3 -1.74 M0.8 0.84 C14.03 0.28, 28.62 -0.33, 41.84 -0.47 M42.99 0.91 C42.5 10.06, 41.43 15.69, 40.41 42.13 M42.23 -0.29 C41.15 12.86, 40.56 25.31, 41.3 43.32 M39.45 45.29 C29.92 45.42, 18.01 45.58, 0.67 45.04 M42.03 43.24 C29.47 44.7, 19.02 42.88, 0.56 43.62 M0.03 43.54 C0.02 29.68, -1.63 13.09, -0.43 -1.33 M0.41 43.72 C-0.76 30.32, 0.41 16.83, 0.66 -0.6" stroke="#000000" stroke-width="2" fill="none"/></g><g stroke-linecap="round" transform="translate(795.4503973557174 550.0000000000001) rotate(0 20.6364205464313 21.850327637397868)"><path d="M-0.42 -1.4 L41.21 -0.87 L39.51 42.32 L0.74 44.2" stroke="none" stroke-width="0" fill="#fd7e14"/><path d="M-0.43 -1.56 C13.99 -1.83, 23.45 -1.99, 39.53 0.84 M0.84 -0.09 C13.22 0.05, 25.14 0.24, 40.81 -0.99 M42.18 0.89 C42.19 16.28, 39.01 32.05, 39.71 43.39 M40.98 0 C41.49 11.28, 41.51 23.76, 40.89 43.48 M42.87 43.81 C26.31 42.97, 10.02 44, 1.34 43.12 M40.81 43.08 C30.34 44.11, 16.77 44.57, -0.09 44.1 M-0.16 44.03 C0.77 26.18, -0.97 10.88, -1.33 0 M0.02 43.26 C-0.67 28.11, -1.05 11.71, -0.6 -0.98" stroke="#000000" stroke-width="2" fill="none"/></g><g transform="translate(855.4503973557174 514.8000000000001) rotate(0 5.5615234375 12)"><text x="0" y="0" font-family="Helvetica, Segoe UI Emoji" font-size="20px" fill="#000000" text-anchor="start" style="white-space: pre;" direction="ltr" dominant-baseline="text-before-edge">5</text></g><g transform="translate(855.4503973557174 554.8000000000001) rotate(0 5.5615234375 12)"><text x="0" y="0" font-family="Helvetica, Segoe UI Emoji" font-size="20px" fill="#000000" text-anchor="start" style="white-space: pre;" direction="ltr" dominant-baseline="text-before-edge">4</text></g><g transform="translate(855.4503973557174 594.8000000000001) rotate(0 5.5615234375 12)"><text x="0" y="0" font-family="Helvetica, Segoe UI Emoji" font-size="20px" fill="#000000" text-anchor="start" style="white-space: pre;" direction="ltr" dominant-baseline="text-before-edge">3</text></g><g stroke-linecap="round" transform="translate(795.4503973557174 390.0000000000001) rotate(0 20.6364205464313 21.850327637397868)"><path d="M-1.76 -1.38 L42.01 0.5 L43.21 41.97 L0.93 44.83" stroke="none" stroke-width="0" fill="#fd7e14"/><path d="M-1.34 -1.97 C7.43 1.22, 18.41 2.36, 42.88 1.68 M0.08 0.57 C11.56 -1.14, 24.81 -0.94, 42.13 0.45 M39.36 -0.87 C39.98 14.75, 40.98 29.08, 43.18 43.11 M41.74 0.03 C41.09 12.9, 42.45 26.75, 40.36 44.5 M42.95 44.37 C30.01 43.04, 15.77 44.48, 1.51 42.77 M40.27 44.26 C31.39 44.14, 22.38 43.87, 0.02 43.62 M-0.91 43.27 C-1.51 29.87, 1.29 17.84, 0.81 0.04 M-0.66 44.36 C-0.48 31.55, -0.09 20.66, -0.03 -0.43" stroke="#000000" stroke-width="2" fill="none"/></g><g stroke-linecap="round" transform="translate(795.4503973557174 470.0000000000001) rotate(0 20.6364205464313 21.850327637397868)"><path d="M-1.38 0.74 L41.78 1.94 L39.54 44.63 L1.13 45.51" stroke="none" stroke-width="0" fill="#fd7e14"/><path d="M-1.97 -1.74 C16.52 0.35, 33.34 1.88, 42.95 -0.17 M0.57 -0.47 C14.25 0.73, 29.67 0.83, 41.73 0.45 M40.41 -1.57 C40.92 15.3, 40.19 33.64, 40.68 43.71 M41.3 -0.38 C40.79 16.02, 41.52 29.16, 42.07 43.75 M41.94 45.04 C25.2 43.74, 11.15 45.56, -0.93 42.45 M41.83 43.62 C25.9 43.99, 9.87 43.3, -0.08 43.86 M-0.43 42.37 C0.29 30.25, 2.08 14.67, 0.04 -0.89 M0.66 43.1 C-1.3 31.59, -1.02 19.87, -0.43 -0.88" stroke="#000000" stroke-width="2" fill="none"/></g><g stroke-linecap="round" transform="translate(795.4503973557174 430.0000000000001) rotate(0 20.6364205464313 21.850327637397868)"><path d="M0.74 0.5 L43.21 -1.73 L42.2 44.83 L1.81 43.3" stroke="none" stroke-width="0" fill="#fd7e14"/><path d="M-1.74 0.84 C8.7 2.4, 18.87 2.09, 41.1 1.38 M-0.47 -0.99 C14.72 -1.02, 28.76 0.22, 41.72 0.63 M39.71 -0.32 C40.29 11.68, 42.76 24.86, 41.28 44.58 M40.89 -0.22 C42.47 11.06, 40.56 21.91, 41.33 44.45 M42.61 43.12 C29.32 44.69, 19.48 42.91, -1.25 45.34 M41.19 44.1 C29.17 44.06, 15.68 43.85, 0.16 44.12 M-1.33 43.7 C1.67 35.28, 1.01 23.31, -0.89 -0.55 M-0.6 42.72 C0.08 26.67, 0.25 10.61, -0.88 -0.69" stroke="#000000" stroke-width="2" fill="none"/></g><g transform="translate(855.4503973557174 394.80000000000007) rotate(0 5.5615234375 12)"><text x="0" y="0" font-family="Helvetica, Segoe UI Emoji" font-size="20px" fill="#000000" text-anchor="start" style="white-space: pre;" direction="ltr" dominant-baseline="text-before-edge">8</text></g><g transform="translate(855.4503973557174 434.80000000000007) rotate(0 5.5615234375 12)"><text x="0" y="0" font-family="Helvetica, Segoe UI Emoji" font-size="20px" fill="#000000" text-anchor="start" style="white-space: pre;" direction="ltr" dominant-baseline="text-before-edge">7</text></g><g transform="translate(855.4503973557174 474.80000000000007) rotate(0 5.5615234375 12)"><text x="0" y="0" font-family="Helvetica, Segoe UI Emoji" font-size="20px" fill="#000000" text-anchor="start" style="white-space: pre;" direction="ltr" dominant-baseline="text-before-edge">6</text></g><g stroke-linecap="round" transform="translate(795.4503973557174 270) rotate(0 20.6364205464313 21.850327637397868)"><path d="M1.61 1.68 C13.95 0.97, 29 -0.25, 42.42 -0.93 M0.86 0.45 C8.76 0.96, 16.54 -0.63, 40.84 -0.78 M43.18 -0.59 C41.15 13.3, 39.98 25.77, 41.33 42.94 M40.36 0.8 C41.76 12.88, 41.53 25.09, 41.61 44.37 M42.78 42.77 C28.84 45.52, 19.12 41.88, 1.12 43.53 M41.29 43.62 C27.41 44.17, 12.57 43.3, -0.21 43.04 M0.81 43.75 C-1.21 30.04, 1.15 16.18, 1.32 -1.2 M-0.03 43.27 C-0.79 34.17, 0.46 26.27, 0.97 -0.86" stroke="#000000" stroke-width="2" fill="none"/></g><g stroke-linecap="round" transform="translate(795.4503973557174 350) rotate(0 20.6364205464313 21.850327637397868)"><path d="M0 0 C0 0, 0 0, 0 0 M0 0 C0 0, 0 0, 0 0 M-0.58 11.91 C3.21 8.45, 4.59 5.04, 9.84 -0.82 M0.26 12.32 C1.79 9.53, 5.21 7, 10.44 0.12 M2.24 24.96 C9.99 16.3, 16.14 5.77, 23.07 0.17 M-0.55 24 C6.13 16.03, 12.21 10.68, 21.47 -0.66 M-0.3 37.48 C10.34 23.22, 23.47 9.72, 30.27 0.11 M0.48 35.94 C5.94 29.7, 13.76 21.7, 32.78 0.71 M1.7 45.8 C10.76 35.64, 21.67 24.62, 42.91 0.04 M3.3 45.02 C14.03 32.43, 24.11 21.35, 41 1.6 M13.89 43.87 C23.37 35.99, 31.37 27.31, 42.22 12.25 M12.69 45.88 C18.91 38.3, 25.51 30.41, 41.94 13.29 M22.51 46.27 C32.09 36.57, 37.44 27.61, 40.61 24.28 M23.19 45.16 C29.55 39.78, 33.35 34.59, 42.1 24.39 M33.55 45.15 C35.45 43.17, 38.01 42.32, 41.99 37.1 M34.92 45.44 C36.4 43.33, 38.98 40.55, 41.3 37.7" stroke="#fd7e14" stroke-width="1" fill="none"/><path d="M1.68 -0.17 C13.91 0.43, 25.22 0.81, 40.34 -1.97 M0.45 0.45 C16.17 -0.44, 30.13 -0.79, 40.49 -0.16 M40.68 0.01 C41.93 10.7, 41.98 23.79, 40.51 43.25 M42.07 0.05 C42.25 17.26, 42.33 35.2, 41.94 43.41 M40.34 42.45 C31.16 44.22, 15.77 45.13, -0.17 44.5 M41.19 43.86 C26.39 43.05, 10.22 43.49, -0.66 43.7 M0.04 42.81 C-0.95 28.85, -1.71 12.38, -1.2 -1.95 M-0.43 42.82 C-0.38 31.87, 0.56 20.27, -0.86 0.47" stroke="#000000" stroke-width="2" fill="none"/></g><g stroke-linecap="round" transform="translate(795.4503973557174 310) rotate(0 20.6364205464313 21.850327637397868)"><path d="M-0.17 1.38 C17.25 -0.19, 34.11 -1.28, 39.3 1.53 M0.45 0.63 C9.04 -1.14, 17.83 -0.97, 41.12 -0.28 M41.28 0.88 C40.52 11.76, 41.74 20.9, 40.82 45.68 M41.33 0.75 C40.7 16.16, 41.21 31.32, 40.98 43.55 M40.02 45.34 C27.33 41.51, 14.1 43.34, 0.8 45.11 M41.44 44.12 C27.7 43.21, 15.23 43, 0 44.44 M-0.89 43.15 C1.29 25.35, 1.14 8.44, -1.95 -0.42 M-0.88 43.01 C0.39 33.9, 0.98 22.74, 0.47 0.56" stroke="#000000" stroke-width="2" fill="none"/></g><g transform="translate(855.4503973557174 274.8000000000002) rotate(0 10.380859375 12)"><text x="0" y="0" font-family="Helvetica, Segoe UI Emoji" font-size="20px" fill="#000000" text-anchor="start" style="white-space: pre;" direction="ltr" dominant-baseline="text-before-edge">11</text></g><g transform="translate(855.4503973557174 314.8000000000002) rotate(0 11.123046875 12)"><text x="0" y="0" font-family="Helvetica, Segoe UI Emoji" font-size="20px" fill="#000000" text-anchor="start" style="white-space: pre;" direction="ltr" dominant-baseline="text-before-edge">10</text></g><g transform="translate(855.4503973557174 354.8000000000002) rotate(0 5.5615234375 12)"><text x="0" y="0" font-family="Helvetica, Segoe UI Emoji" font-size="20px" fill="#000000" text-anchor="start" style="white-space: pre;" direction="ltr" dominant-baseline="text-before-edge">9</text></g><g stroke-linecap="round" transform="translate(795.4503973557174 230) rotate(0 20.6364205464313 21.850327637397868)"><path d="M1.14 -0.93 C13.26 1.5, 28.89 1.69, 42.18 0.89 M-0.43 -0.78 C14.83 0.11, 29.45 1.35, 40.98 0 M41.33 -0.76 C40.57 17.01, 42.03 28.25, 42.87 43.81 M41.61 0.67 C40.9 16.25, 41.62 33.55, 40.81 43.08 M42.39 43.53 C26.3 44.7, 10 43.32, -0.16 44.03 M41.06 43.04 C27.18 44.25, 13.98 43.92, 0.02 43.26 M1.32 42.5 C-2.27 31.38, -1.72 19.83, -0.87 -1.76 M0.97 42.84 C0.3 34.16, 0.74 23.29, -0.99 -0.42" stroke="#000000" stroke-width="2" fill="none"/></g><g stroke-linecap="round" transform="translate(795.4503973557174 190) rotate(0 20.6364205464313 21.850327637397868)"><path d="M-0.93 -1.97 C15.48 -1.81, 29.62 0.67, 42.17 1.26 M-0.78 -0.16 C11.73 -0.34, 24.99 -0.12, 41.28 0.44 M40.51 -0.45 C43.45 11.57, 39.65 22.7, 41.38 45.21 M41.94 -0.29 C41.49 12.76, 42.39 24.21, 40.65 44.52 M41.1 44.5 C29.88 44.19, 15.7 43.77, 0.33 44.53 M40.61 43.7 C32.36 44.51, 22.38 43.63, -0.44 43.42 M-1.2 41.75 C-0.13 25.97, 0.22 10.18, -1.76 -1.38 M-0.86 44.17 C0.45 29.87, -0.31 13.25, -0.42 0.38" stroke="#000000" stroke-width="2" fill="none"/></g><g transform="translate(855.4503973557174 194.80000000000018) rotate(0 11.123046875 12)"><text x="0" y="0" font-family="Helvetica, Segoe UI Emoji" font-size="20px" fill="#000000" text-anchor="start" style="white-space: pre;" direction="ltr" dominant-baseline="text-before-edge">13</text></g><g transform="translate(855.4503973557174 234.80000000000018) rotate(0 11.123046875 12)"><text x="0" y="0" font-family="Helvetica, Segoe UI Emoji" font-size="20px" fill="#000000" text-anchor="start" style="white-space: pre;" direction="ltr" dominant-baseline="text-before-edge">12</text></g><g stroke-linecap="round" transform="translate(795.4503973557174 30) rotate(0 20.6364205464313 21.850327637397868)"><path d="M-1.58 1.72 C11.36 0.58, 22.17 -0.49, 39.36 -0.87 M-0.52 0.95 C8.86 0.12, 18.74 -0.47, 41.74 0.03 M42.29 -1.82 C42.77 11.56, 42.68 22.55, 42.95 44.37 M41.7 0.76 C40.68 15.41, 41.97 32.17, 40.27 44.26 M41.53 43.73 C29.08 44.32, 18.04 42.67, -0.91 43.27 M42.17 44.11 C31.65 43.56, 21.71 44.74, -0.66 44.36 M-1.4 43.63 C-0.44 31.45, -0.95 23.47, 0.5 1.94 M0.9 43.5 C-1.19 33.95, 0.18 25.96, -0.33 -0.03" stroke="#000000" stroke-width="2" fill="none"/></g><g stroke-linecap="round" transform="translate(795.4503973557174 70) rotate(0 20.6364205464313 21.850327637397868)"><path d="M1.72 0.91 C9.21 1.59, 16.45 -1.59, 40.41 -1.57 M0.95 -0.29 C11.73 0.66, 22.88 0.68, 41.3 -0.38 M39.45 1.59 C41.81 13.63, 41.35 25.93, 41.94 45.04 M42.03 -0.46 C40.58 12.66, 41.31 22.67, 41.83 43.62 M41.31 43.54 C27.58 44.58, 11.9 42.84, -0.43 42.37 M41.68 43.72 C28.45 43.79, 17.26 43.41, 0.66 43.1 M-0.07 42.83 C-1.67 33.48, 0.83 26.52, 1.94 -1.73 M-0.2 42.71 C-0.67 28.94, 0.68 13.08, -0.03 0.77" stroke="#000000" stroke-width="2" fill="none"/></g><g transform="translate(855.4503973557174 34.80000000000018) rotate(0 22.24609375 12)"><text x="0" y="0" font-family="Helvetica, Segoe UI Emoji" font-size="20px" fill="#000000" text-anchor="start" style="white-space: pre;" direction="ltr" dominant-baseline="text-before-edge">255u</text></g><g transform="translate(855.4503973557174 74.80000000000018) rotate(0 22.24609375 12)"><text x="0" y="0" font-family="Helvetica, Segoe UI Emoji" font-size="20px" fill="#000000" text-anchor="start" style="white-space: pre;" direction="ltr" dominant-baseline="text-before-edge">254u</text></g><g stroke-linecap="round"><g transform="translate(795.4503973557174 189.63732503093797) rotate(0 0 -40)"><path d="M1.25 1.77 C0.81 -12.23, 0.16 -68.69, -0.25 -82.68" stroke="#000000" stroke-width="1.5" fill="none" stroke-dasharray="8 9"/></g></g><mask/><g stroke-linecap="round"><g transform="translate(835.4503973557174 189.63732503093797) rotate(0 0 -40)"><path d="M1.77 -0.25 C1.11 -13.99, -2.02 -67.85, -2.68 -81.21" stroke="#000000" stroke-width="1.5" fill="none" stroke-dasharray="8 9"/></g></g><mask/><g stroke-linecap="round"><g transform="translate(875.4503973557174 169.63732503093797) rotate(0 0 -30)"><path d="M-0.25 -2.68 C-0.66 -13.34, -1.18 -52.51, -1.21 -62.19" stroke="#000000" stroke-width="1.5" fill="none" stroke-dasharray="1.5 7"/></g></g><mask/><g stroke-linecap="round"><g transform="translate(592.6796630345285 551.2143397249281) rotate(0 100 50)"><path d="M-2.68 -1.21 C12.88 11.88, 61.48 61.72, 95.13 78.34 C128.77 94.97, 181.28 95.07, 199.2 98.54 M1.06 4.3 C17.33 17.86, 67.69 65.64, 100.34 81.73 C132.99 97.83, 181.01 97.59, 196.96 100.85" stroke="#000000" stroke-width="1" fill="none"/></g><g transform="translate(592.6796630345285 551.2143397249281) rotate(0 100 50)"><path d="M166.04 104.65 C177.76 104.69, 186.9 107.12, 195.79 100.87 M167.83 107.03 C177.45 107.11, 188.96 100.92, 198.56 100.96" stroke="#000000" stroke-width="1" fill="none"/></g><g transform="translate(592.6796630345285 551.2143397249281) rotate(0 100 50)"><path d="M168.41 84.27 C179.23 91.66, 187.51 101.5, 195.79 100.87 M170.2 86.64 C178.77 93.76, 189.46 94.59, 198.56 100.96" stroke="#000000" stroke-width="1" fill="none"/></g></g><mask/><g stroke-linecap="round"><g transform="translate(691.3990141874607 294.0000000000001) rotate(0 49.30049290626965 17.999999999999943)"><path d="M-1.21 -2.19 C5.19 0.79, 21.77 8.39, 38.16 15.2 C54.55 22.01, 87.2 35.2, 97.14 38.67 M3.32 2.79 C9.33 6.42, 20.48 13.1, 35.68 18.4 C50.88 23.7, 84.17 31.22, 94.54 34.59" stroke="#fd7e14" stroke-width="1" fill="none"/></g><g transform="translate(691.3990141874607 294.0000000000001) rotate(0 49.30049290626965 17.999999999999943)"><path d="M61.5 36.34 C72.25 34.45, 85.9 34.67, 94.55 36.35 M63.87 36.52 C73.81 37.39, 77.23 37.4, 94.64 36.09" stroke="#fd7e14" stroke-width="1" fill="none"/></g><g transform="translate(691.3990141874607 294.0000000000001) rotate(0 49.30049290626965 17.999999999999943)"><path d="M66.96 16.56 C75.74 20.38, 87.81 26.36, 94.55 36.35 M69.34 16.74 C78.14 22.39, 80.24 27.17, 94.64 36.09" stroke="#fd7e14" stroke-width="1" fill="none"/></g></g><mask/><g stroke-linecap="round"><g transform="translate(987.6787341001003 689.9122102060969) rotate(0 -48.83936705005016 -59.95610510304846)"><path d="M-0.94 -0.19 C-7.09 -16.86, -22.09 -80.53, -38.02 -100.54 C-53.95 -120.55, -86.59 -117.12, -96.54 -120.27 M0.77 -1.33 C-5.46 -17.81, -22.9 -79.7, -39.15 -99.33 C-55.39 -118.96, -86.99 -115.41, -96.7 -119.13" stroke="#40c057" stroke-width="1" fill="none"/></g><g transform="translate(987.6787341001003 689.9122102060969) rotate(0 -48.83936705005016 -59.95610510304846)"><path d="M-67.55 -125.33 C-74.32 -121.93, -79.89 -122.69, -95.82 -120.3 M-67.46 -123.77 C-76.94 -123.83, -86.86 -120.92, -95.95 -119.31" stroke="#40c057" stroke-width="1" fill="none"/></g><g transform="translate(987.6787341001003 689.9122102060969) rotate(0 -48.83936705005016 -59.95610510304846)"><path d="M-70.83 -105.07 C-76.84 -105.79, -81.74 -110.68, -95.82 -120.3 M-70.74 -103.51 C-79.08 -110.58, -87.87 -114.69, -95.95 -119.31" stroke="#40c057" stroke-width="1" fill="none"/></g></g><mask/><g stroke-linecap="round" transform="translate(10 490) rotate(0 131 41)"><path d="M1.18 -0.02 L261.4 -1.33 L262.98 82.91 L-0.89 81.84" stroke="none" stroke-width="0" fill="#868e96"/><path d="M-0.45 -0.83 C68.76 -0.14, 134.48 1.03, 261.07 0.74 M0.79 0.4 C78.59 1.1, 158.68 1.07, 261.86 0.67 M261.7 0.85 C264.06 26.43, 261.3 56.35, 262.2 80 M262.71 0.13 C261.95 29.09, 262.09 58.76, 261.34 81.54 M263.17 83.43 C189.65 82.03, 115.29 81.56, 1.17 80.95 M261.83 81.44 C166.04 79.62, 69.43 79.41, 0.3 82.2 M1.13 83.81 C0.31 47.47, -0.13 17.66, 1.86 -0.66 M-0.98 82 C-1.28 57.69, -0.1 32.82, -0.7 0.24" stroke="#000" stroke-width="1" fill="none"/></g><g transform="translate(15 507) rotate(0 118.486328125 24)"><text x="0" y="0" font-family="Helvetica, Segoe UI Emoji" font-size="20px" fill="#000" text-anchor="start" style="white-space: pre;" direction="ltr" dominant-baseline="text-before-edge">bufferSize = 8</text><text x="0" y="24" font-family="Helvetica, Segoe UI Emoji" font-size="20px" fill="#000" text-anchor="start" style="white-space: pre;" direction="ltr" dominant-baseline="text-before-edge">indexMask = bufferSize - 1</text></g><g stroke-linecap="round" transform="translate(40.43068722510043 708.127671387398) rotate(0 150 150)"><path d="M127.44 2.08 C141.61 -2.56, 159.68 -0.95, 174.98 1.71 C190.27 4.37, 205.44 10.96, 219.21 18.03 C232.99 25.09, 246.65 33.21, 257.63 44.09 C268.62 54.97, 278.21 69.34, 285.12 83.3 C292.04 97.26, 296.86 112.51, 299.13 127.85 C301.4 143.18, 301.33 160.07, 298.75 175.29 C296.16 190.5, 290.95 205.43, 283.63 219.14 C276.31 232.86, 265.86 246.77, 254.84 257.55 C243.82 268.34, 231.42 276.92, 217.51 283.86 C203.59 290.8, 186.75 297.03, 171.35 299.2 C155.96 301.38, 140.19 299.63, 125.15 296.91 C110.11 294.19, 94.77 289.74, 81.12 282.88 C67.47 276.01, 54.16 266.72, 43.27 255.7 C32.39 244.69, 22.76 230.7, 15.8 216.77 C8.85 202.84, 3.75 187.54, 1.54 172.14 C-0.68 156.74, 0 139.69, 2.5 124.39 C5.01 109.09, 9.61 93.94, 16.58 80.35 C23.56 66.76, 33.11 53.5, 44.34 42.87 C55.57 32.24, 67.89 23.66, 83.98 16.57 C100.08 9.48, 129.48 2.63, 140.91 0.32 C152.34 -1.98, 152.34 0.37, 152.55 2.75 M198.4 7.08 C213.2 9.73, 227.94 20.18, 240.12 29.48 C252.3 38.77, 262.5 50.01, 271.48 62.83 C280.45 75.65, 288.97 91.67, 293.96 106.4 C298.96 121.13, 301.67 135.67, 301.43 151.19 C301.2 166.72, 297.6 184.78, 292.57 199.56 C287.53 214.34, 280.88 227.77, 271.23 239.87 C261.58 251.97, 247.44 263.01, 234.66 272.17 C221.88 281.32, 209.16 290.17, 194.55 294.8 C179.94 299.43, 162.37 300.24, 147.02 299.93 C131.66 299.63, 117.22 297.99, 102.44 292.98 C87.67 287.97, 71.06 279.33, 58.36 269.87 C45.65 260.41, 34.72 248.97, 26.23 236.2 C17.73 223.44, 11.93 207.98, 7.38 193.26 C2.84 178.54, -1.3 163.2, -1.03 147.87 C-0.76 132.54, 3.89 116.11, 9.01 101.27 C14.13 86.43, 20.42 71.07, 29.68 58.84 C38.94 46.6, 51.98 36.61, 64.59 27.88 C77.2 19.15, 90.6 11.23, 105.35 6.47 C120.11 1.72, 137.63 -0.73, 153.13 -0.66 C168.63 -0.59, 191.04 5.08, 198.35 6.9 C205.66 8.71, 197.97 7.44, 196.99 10.23" stroke="#000000" stroke-width="1" fill="none"/></g><g stroke-linecap="round" transform="translate(100.43068722510043 768.127671387398) rotate(0 90 90)"><path d="M90.59 0.03 C101.36 -1.28, 113.49 2.19, 124.18 6.67 C134.87 11.16, 146.7 18.66, 154.72 26.96 C162.74 35.26, 168.06 45.82, 172.29 56.47 C176.51 67.12, 179.95 79.39, 180.05 90.88 C180.16 102.37, 177.28 114.81, 172.92 125.39 C168.56 135.98, 162.04 146.46, 153.89 154.4 C145.74 162.34, 134.63 168.65, 124.03 173.04 C113.44 177.44, 101.81 180.85, 90.3 180.75 C78.79 180.66, 65.51 176.99, 54.98 172.48 C44.44 167.96, 35.29 161.59, 27.09 153.65 C18.9 145.72, 10.33 135.45, 5.8 124.88 C1.27 114.32, -0.39 101.82, -0.09 90.27 C0.21 78.72, 3.18 66.25, 7.61 55.57 C12.03 44.89, 18.43 34.25, 26.47 26.19 C34.5 18.13, 44.12 11.61, 55.84 7.22 C67.55 2.83, 88.7 0.67, 96.75 -0.15 C104.8 -0.97, 104.15 0.62, 104.14 2.31 M128.35 8.48 C138.86 11.79, 150.26 20.54, 158.19 29.01 C166.12 37.49, 172.56 48.39, 175.93 59.34 C179.3 70.29, 179.38 83.09, 178.4 94.7 C177.42 106.3, 174.89 118.79, 170.05 128.97 C165.21 139.14, 157.9 148.01, 149.35 155.76 C140.79 163.51, 129.39 171.23, 118.73 175.49 C108.06 179.75, 96.87 181.93, 85.37 181.32 C73.86 180.7, 59.95 176.8, 49.69 171.8 C39.42 166.81, 31.25 160.27, 23.76 151.35 C16.28 142.43, 8.8 129.24, 4.76 118.27 C0.72 107.31, -1.41 96.86, -0.49 85.56 C0.43 74.26, 5.21 60.74, 10.29 50.49 C15.36 40.24, 21.45 31.89, 29.96 24.07 C38.46 16.26, 50.51 7.74, 61.35 3.59 C72.19 -0.56, 83.72 -1.85, 95 -0.84 C106.29 0.18, 123.66 7.97, 129.08 9.69 C134.5 11.41, 128.12 8.1, 127.52 9.47" stroke="#000000" stroke-width="1" fill="none"/></g><g stroke-linecap="round"><g transform="translate(40.43068722510043 868.127671387398) rotate(0 30 0)"><path d="M-0.35 0 C9.84 -0.3, 50.38 -0.71, 60.53 -0.7 M1.66 -1.04 C11.8 -0.7, 50.12 0.07, 59.86 0.47" stroke="#000000" stroke-width="1" fill="none"/></g></g><mask/><g stroke-linecap="round"><g transform="translate(280.4306872251004 848.127671387398) rotate(0 30 0)"><path d="M0 0.53 C9.7 0.68, 49.29 0.72, 59.3 0.56 M-1.45 -0.24 C8.53 -0.41, 51.52 -1.41, 61.64 -1.27" stroke="#000000" stroke-width="1" fill="none"/></g></g><mask/><g stroke-linecap="round"><g transform="translate(180.43068722510043 768.127671387398) rotate(0 0 -30)"><path d="M0.53 -0.7 C0.68 -10.7, 0.72 -50.04, 0.56 -59.97 M-0.65 1.54 C-0.58 -8.24, 0.04 -48.31, -0.1 -58.41" stroke="#000000" stroke-width="1" fill="none"/></g></g><mask/><g stroke-linecap="round"><g transform="translate(200.43068722510043 1008.127671387398) rotate(0 0 -30)"><path d="M-0.7 0.56 C-0.7 -9.61, -0.04 -50.56, 0.03 -60.46 M1.13 -0.19 C0.98 -10.24, -0.51 -49.1, -0.9 -59.16" stroke="#000000" stroke-width="1" fill="none"/></g></g><mask/><g stroke-linecap="round"><g transform="translate(260.4306872251004 908.127671387398) rotate(0 20 30)"><path d="M0.56 0.03 C7.06 10.1, 32.77 49.63, 39.54 59.73 M-0.61 -1 C5.65 9.32, 31.41 51.2, 38.36 61.13" stroke="#000000" stroke-width="1" fill="none"/></g></g><mask/><g stroke-linecap="round"><g transform="translate(120.43068722510043 808.127671387398) rotate(0 -20 -30)"><path d="M0.03 -0.46 C-6.56 -10.35, -33.7 -48.71, -40.27 -58.81 M-1.41 -1.74 C-8.12 -11.99, -34.95 -50.54, -41.36 -60.31" stroke="#000000" stroke-width="1" fill="none"/></g></g><mask/><g stroke-linecap="round"><g transform="translate(240.43068722510043 788.127671387398) rotate(0 30 -20)"><path d="M-0.46 -0.27 C9.65 -6.84, 51.29 -32.93, 61.19 -39.39 M1.51 -1.46 C11.51 -8.38, 50.91 -34.62, 60.86 -41.19" stroke="#000000" stroke-width="1" fill="none"/></g></g><mask/><g stroke-linecap="round"><g transform="translate(140.43068722510043 928.127671387398) rotate(0 -30 20)"><path d="M-0.27 1.19 C-10.17 7.75, -49.6 32.43, -59.39 38.91 M1.79 0.76 C-8.22 7.47, -49.84 33.09, -60.02 39.87" stroke="#000000" stroke-width="1" fill="none"/></g></g><mask/><g transform="translate(240.43068722510043 688.127671387398) rotate(0 5.5615234375 12)"><text x="0" y="0" font-family="Helvetica, Segoe UI Emoji" font-size="20px" fill="#000000" text-anchor="start" style="white-space: pre;" direction="ltr" dominant-baseline="text-before-edge">0</text></g><g transform="translate(351.66236505696406 782.3816043897706) rotate(0 5.5615234375 12)"><text x="0" y="0" font-family="Helvetica, Segoe UI Emoji" font-size="20px" fill="#000000" text-anchor="start" style="white-space: pre;" direction="ltr" dominant-baseline="text-before-edge">1</text></g><g transform="translate(346.60792922034943 904.9516734276748) rotate(0 5.5615234375 12)"><text x="0" y="0" font-family="Helvetica, Segoe UI Emoji" font-size="20px" fill="#000000" text-anchor="start" style="white-space: pre;" direction="ltr" dominant-baseline="text-before-edge">2</text></g><g transform="translate(260.4306872251004 1008.127671387398) rotate(0 5.5615234375 12)"><text x="0" y="0" font-family="Helvetica, Segoe UI Emoji" font-size="20px" fill="#000000" text-anchor="start" style="white-space: pre;" direction="ltr" dominant-baseline="text-before-edge">3</text></g><g transform="translate(120.43068722510043 1008.127671387398) rotate(0 5.5615234375 12)"><text x="0" y="0" font-family="Helvetica, Segoe UI Emoji" font-size="20px" fill="#000000" text-anchor="start" style="white-space: pre;" direction="ltr" dominant-baseline="text-before-edge">4</text></g><g transform="translate(20.430687225100428 928.127671387398) rotate(0 5.5615234375 12)"><text x="0" y="0" font-family="Helvetica, Segoe UI Emoji" font-size="20px" fill="#000000" text-anchor="start" style="white-space: pre;" direction="ltr" dominant-baseline="text-before-edge">5</text></g><g transform="translate(20.430687225100428 788.127671387398) rotate(0 5.5615234375 12)"><text x="0" y="0" font-family="Helvetica, Segoe UI Emoji" font-size="20px" fill="#000000" text-anchor="start" style="white-space: pre;" direction="ltr" dominant-baseline="text-before-edge">6</text></g><g transform="translate(109.04944489946274 687.6109324532468) rotate(0 5.5615234375 12)"><text x="0" y="0" font-family="Helvetica, Segoe UI Emoji" font-size="20px" fill="#000000" text-anchor="start" style="white-space: pre;" direction="ltr" dominant-baseline="text-before-edge">7</text></g><g stroke-linecap="round" transform="translate(27.678734100100428 89.91221020609692) rotate(0 251.5 80.5)"><path d="M0.04 1.85 L503.12 -0.47 L503.39 162.63 L1.57 159.91" stroke="none" stroke-width="0" fill="#868e96"/><path d="M0.54 -0.23 C141.87 -0.33, 284.6 -1.05, 502.5 0.66 M-0.03 0.16 C156.34 -1.07, 312.12 -1.15, 503.07 0.17 M501.67 0 C503.74 39.44, 503.08 75.33, 502.11 160.45 M502.4 -0.98 C501.73 59.45, 501.91 119.86, 502.12 160.31 M502.31 161.37 C333.9 163.67, 163.74 162.16, -0.34 161.3 M503.31 161.3 C305.01 160.94, 107.55 160.95, 0.21 160.81 M-0.02 160.4 C-1.71 124.99, 0.52 86.13, -0.16 0.85 M-0.5 160.51 C-0.49 120.86, 0.12 79.1, 0.34 -0.57" stroke="#000" stroke-width="1" fill="none"/></g><g transform="translate(32.67873410010043 122.41221020609692) rotate(0 244.4580078125 48)"><text x="0" y="0" font-family="Helvetica, Segoe UI Emoji" font-size="20px" fill="#000" text-anchor="start" style="white-space: pre;" direction="ltr" dominant-baseline="text-before-edge">8. Продюсер пробуждается и захватывает </text><text x="0" y="24" font-family="Helvetica, Segoe UI Emoji" font-size="20px" fill="#000" text-anchor="start" style="white-space: pre;" direction="ltr" dominant-baseline="text-before-edge">следующий слот только после того, как потребитель</text><text x="0" y="48" font-family="Helvetica, Segoe UI Emoji" font-size="20px" fill="#000" text-anchor="start" style="white-space: pre;" direction="ltr" dominant-baseline="text-before-edge">прочтет хотя бы один и опубликует последний </text><text x="0" y="72" font-family="Helvetica, Segoe UI Emoji" font-size="20px" fill="#000" text-anchor="start" style="white-space: pre;" direction="ltr" dominant-baseline="text-before-edge">прочитанный номер в барьере продюсера.</text></g><g stroke-linecap="round"><g transform="translate(990 310) rotate(0 -60 50)"><path d="M-0.35 -0.18 C-20.33 16.5, -99.45 84.33, -119.49 100.91 M1.67 -1.32 C-18.46 14.96, -99.62 82.34, -120.17 99.26" stroke="#000000" stroke-width="1" fill="none"/></g><g transform="translate(990 310) rotate(0 -60 50)"><path d="M-105.28 74.24 C-108.36 81.04, -116.19 92.24, -119.96 97.26 M-104.27 73.52 C-110.39 82.57, -115.64 92.27, -120.83 98.8" stroke="#000000" stroke-width="1" fill="none"/></g><g transform="translate(990 310) rotate(0 -60 50)"><path d="M-92.21 90.06 C-99.75 91.55, -111.94 97.47, -119.96 97.26 M-91.2 89.33 C-101.95 92.81, -111.86 96.89, -120.83 98.8" stroke="#000000" stroke-width="1" fill="none"/></g></g><mask/><g stroke-linecap="round" transform="translate(230 310) rotate(0 160 53)"><path d="M-0.47 0.39 L321.63 1.57 L318.91 107.98 L0.87 107.91" stroke="none" stroke-width="0" fill="#fd7e14"/><path d="M0.6 1.06 C116.77 -0.53, 235.98 0.48, 318.6 0.78 M0.09 0.01 C93.21 -1.47, 186.82 -2.05, 319.68 -0.15 M321.79 0.81 C320.04 23.88, 319.44 51, 318.68 107.32 M319.3 -0.03 C318.53 24.55, 318.28 51.24, 320.25 106.97 M321.26 105.72 C250.28 106.68, 183.86 108.56, -0.46 105.96 M320 105.55 C199.33 104.17, 78.26 103.3, 0.17 106.41 M0.98 106.91 C-0.57 74.15, 1.17 41.71, -0.48 -1.64 M0.89 105.73 C0.68 79.8, -0.05 52.93, 0.92 0.06" stroke="#000000" stroke-width="1" fill="none"/></g><g transform="translate(235 327) rotate(0 117.8466796875 36)"><text x="0" y="0" font-family="Helvetica, Segoe UI Emoji" font-size="20px" fill="#000000" text-anchor="start" style="white-space: pre;" direction="ltr" dominant-baseline="text-before-edge">producer:</text><text x="0" y="24" font-family="Helvetica, Segoe UI Emoji" font-size="20px" fill="#000000" text-anchor="start" style="white-space: pre;" direction="ltr" dominant-baseline="text-before-edge">claimed = 9</text><text x="0" y="48" font-family="Helvetica, Segoe UI Emoji" font-size="20px" fill="#000000" text-anchor="start" style="white-space: pre;" direction="ltr" dominant-baseline="text-before-edge">index = 9 &amp; indexMask = 1</text></g><g stroke-linecap="round" transform="translate(795.6787341001003 628.6081401373979) rotate(0 20.6364205464313 21.850327637397868)"><path d="M1.63 1.57 L40.19 1.98 L42.15 45.61 L1.32 43.75" stroke="none" stroke-width="0" fill="#40c057"/><path d="M-0.93 -1.25 C13.39 -0.11, 21.51 0.8, 41.1 0.8 M-0.08 0.16 C15.71 -0.67, 30.14 -0.22, 40.61 0 M41.32 -0.89 C41.11 17.8, 40.35 33.97, 40.07 41.75 M40.84 -0.88 C40.28 12.57, 41.22 25.37, 40.41 44.17 M39.29 42.86 C27.33 45.47, 11.19 43.56, 1.54 45.18 M41.31 44.23 C32.47 42.73, 24.87 44.02, -0.01 43.4 M-0.89 43.54 C0.64 32.58, -0.7 21.63, -0.99 -0.98 M0.16 44.05 C-0.96 34.47, 0.53 25.26, -0.23 0.2" stroke="#000000" stroke-width="2" fill="none"/></g><g transform="translate(188.60319806835605 731.5352559906532) rotate(0 13.651698319247487 -6.992333285468192)" stroke="none"><path fill="#fd7e14" d="M -0.50,-2.00 Q -0.50,-2.00 1.81,-2.48 4.14,-2.96 6.02,-3.52 7.91,-4.08 10.63,-5.04 13.35,-6.00 15.21,-6.93 17.07,-7.87 18.32,-8.43 19.58,-9.00 21.37,-10.55 23.16,-12.10 24.23,-13.41 25.31,-14.71 25.56,-14.91 25.81,-15.11 26.10,-15.22 26.40,-15.32 26.72,-15.33 27.04,-15.34 27.34,-15.24 27.65,-15.15 27.90,-14.96 28.16,-14.77 28.35,-14.51 28.53,-14.25 28.62,-13.95 28.71,-13.64 28.70,-13.32 28.69,-13.01 28.58,-12.71 28.47,-12.41 28.27,-12.16 28.07,-11.92 27.80,-11.75 27.53,-11.58 27.22,-11.50 26.91,-11.43 26.59,-11.46 26.27,-11.48 25.98,-11.61 25.69,-11.74 25.46,-11.95 25.22,-12.17 25.07,-12.45 24.91,-12.72 24.85,-13.04 24.80,-13.35 24.84,-13.66 24.89,-13.98 25.03,-14.26 25.17,-14.55 25.40,-14.77 25.63,-14.99 25.91,-15.13 26.20,-15.27 26.51,-15.31 26.83,-15.36 27.14,-15.29 27.45,-15.23 27.73,-15.07 28.00,-14.91 28.22,-14.68 28.43,-14.44 28.55,-14.14 28.67,-13.85 28.70,-13.53 28.72,-13.22 28.64,-12.91 28.56,-12.60 28.39,-12.33 28.22,-12.07 28.22,-12.07 28.22,-12.07 26.86,-10.70 25.50,-9.33 23.15,-7.52 20.80,-5.70 19.66,-5.41 18.51,-5.11 16.51,-4.02 14.51,-2.92 11.76,-1.82 9.00,-0.72 7.02,-0.02 5.04,0.66 2.77,1.33 0.50,2.00 0.25,2.03 0.00,2.07 -0.24,2.04 -0.48,2.01 -0.72,1.92 -0.95,1.83 -1.16,1.69 -1.36,1.55 -1.53,1.36 -1.70,1.18 -1.81,0.96 -1.93,0.74 -1.99,0.49 -2.05,0.25 -2.05,0.00 -2.05,-0.24 -1.99,-0.48 -1.93,-0.72 -1.82,-0.94 -1.70,-1.17 -1.54,-1.35 -1.37,-1.54 -1.17,-1.68 -0.96,-1.83 -0.73,-1.91 -0.50,-2.00 -0.50,-2.00 L -0.50,-2.00 Z"/></g><g transform="translate(215.90659470685068 717.5505894197169) rotate(0 15.31653957769231 26.63746013511701)" stroke="none"><path fill="#fd7e14" d="M 7.68,6.10 Q 7.68,6.10 2.09,12.27 -3.49,18.45 -5.95,22.29 -8.41,26.13 -11.15,30.90 -13.89,35.67 -16.46,39.58 -19.02,43.49 -18.93,43.95 -18.84,44.42 -19.72,45.42 -20.61,46.42 -21.70,47.18 -22.79,47.93 -24.04,48.41 -25.28,48.88 -26.60,49.04 -27.92,49.20 -29.24,49.05 -30.56,48.89 -31.81,48.42 -33.05,47.95 -34.15,47.19 -35.24,46.44 -36.13,45.44 -37.01,44.45 -37.63,43.27 -38.25,42.09 -38.57,40.80 -38.89,39.51 -38.89,38.18 -38.89,36.85 -38.58,35.56 -38.26,34.27 -37.64,33.09 -37.03,31.91 -31.81,28.65 -26.58,25.39 -20.92,23.40 -15.26,21.40 -9.85,17.70 -4.44,14.01 1.03,10.25 6.51,6.50 10.77,3.58 15.03,0.65 16.84,-0.22 18.66,-1.11 20.13,-1.57 21.60,-2.03 23.14,-2.12 24.67,-2.21 26.19,-1.94 27.70,-1.66 29.11,-1.03 30.51,-0.40 31.73,0.54 32.94,1.49 33.89,2.71 34.84,3.92 35.47,5.32 36.10,6.73 36.38,8.24 36.66,9.76 36.57,11.30 36.47,12.83 36.02,14.30 35.56,15.77 34.76,17.09 33.96,18.41 32.88,19.50 31.79,20.59 30.47,21.39 29.15,22.18 26.08,28.05 23.01,33.92 20.67,37.51 18.33,41.11 15.06,45.11 11.79,49.12 8.02,52.24 4.25,55.36 2.83,56.20 1.42,57.04 -0.14,57.52 -1.72,58.00 -3.36,58.09 -5.00,58.17 -6.62,57.87 -8.24,57.56 -9.73,56.87 -11.23,56.19 -12.52,55.16 -13.80,54.14 -14.81,52.84 -15.82,51.54 -16.48,50.03 -17.15,48.53 -17.43,46.91 -17.72,45.28 -17.61,43.64 -17.49,42.00 -16.99,40.43 -16.49,38.87 -15.63,37.46 -14.77,36.06 -13.60,34.91 -12.43,33.75 -5.37,30.50 1.68,27.25 7.48,24.30 13.28,21.34 21.28,18.13 29.28,14.93 34.40,13.04 39.52,11.15 46.57,12.59 53.62,14.04 56.39,20.47 59.15,26.90 57.93,31.20 56.71,35.50 52.40,38.91 48.10,42.33 44.65,45.29 41.20,48.25 37.05,50.76 32.90,53.26 29.02,56.55 25.15,59.83 23.91,61.27 22.67,62.70 21.32,63.69 19.96,64.68 18.41,65.32 16.86,65.96 15.20,66.21 13.54,66.46 11.87,66.31 10.20,66.15 8.61,65.60 7.02,65.05 5.62,64.14 4.21,63.23 3.06,62.00 1.91,60.78 1.09,59.32 0.26,57.85 -0.17,56.23 -0.62,54.62 -0.67,52.94 -0.72,51.26 -0.36,49.62 -0.01,47.98 0.72,46.47 1.46,44.96 2.53,43.67 3.61,42.39 7.84,40.12 12.07,37.85 17.06,35.59 22.05,33.33 25.90,31.28 29.75,29.23 34.12,27.36 38.49,25.49 44.77,23.93 51.05,22.38 53.58,21.98 56.12,21.57 58.39,21.60 60.66,21.63 62.80,22.39 64.94,23.14 66.73,24.54 68.52,25.94 69.77,27.83 71.02,29.73 71.59,31.93 72.17,34.12 72.02,36.39 71.86,38.65 71.00,40.75 70.13,42.85 68.63,44.56 67.14,46.27 65.18,47.41 63.22,48.56 60.99,49.01 58.77,49.47 56.51,49.20 54.26,48.92 52.21,47.94 50.17,46.96 48.54,45.37 46.91,43.79 45.88,41.77 44.84,39.75 44.50,37.50 44.17,35.26 44.57,33.02 44.96,30.78 46.06,28.79 47.15,26.80 48.82,25.26 50.49,23.73 52.56,22.80 54.63,21.88 56.89,21.66 59.15,21.45 61.36,21.97 63.58,22.48 65.50,23.68 67.43,24.88 68.88,26.63 70.33,28.38 71.14,30.50 71.95,32.62 72.04,34.89 72.13,37.16 71.49,39.34 70.85,41.52 69.55,43.38 68.25,45.24 66.43,46.59 64.60,47.94 62.44,48.63 60.28,49.33 60.28,49.33 60.28,49.33 56.19,49.78 52.10,50.23 47.66,51.99 43.22,53.76 38.88,56.00 34.54,58.24 28.61,60.47 22.67,62.70 21.32,63.69 19.96,64.68 18.41,65.32 16.86,65.96 15.20,66.21 13.54,66.46 11.87,66.31 10.20,66.16 8.61,65.61 7.02,65.06 5.62,64.14 4.21,63.23 3.06,62.00 1.91,60.78 1.09,59.32 0.26,57.85 -0.17,56.24 -0.62,54.62 -0.67,52.94 -0.72,51.26 -0.36,49.62 -0.01,47.98 0.72,46.47 1.46,44.96 2.53,43.68 3.61,42.39 6.74,39.53 9.86,36.68 13.90,33.60 17.93,30.52 22.76,27.72 27.59,24.92 32.40,23.58 37.21,22.23 38.27,30.55 39.32,38.87 32.76,41.74 26.21,44.62 20.05,47.82 13.89,51.02 9.07,53.19 4.25,55.36 2.84,56.20 1.42,57.04 -0.14,57.52 -1.72,58.00 -3.36,58.09 -5.00,58.17 -6.62,57.87 -8.24,57.56 -9.73,56.87 -11.23,56.19 -12.52,55.16 -13.80,54.14 -14.81,52.84 -15.81,51.54 -16.48,50.03 -17.15,48.53 -17.43,46.91 -17.72,45.29 -17.61,43.64 -17.49,42.00 -16.99,40.44 -16.49,38.87 -15.63,37.47 -14.77,36.06 -13.60,34.91 -12.43,33.75 -12.06,33.32 -11.70,32.89 -7.31,29.44 -2.91,26.00 -0.19,22.29 2.52,18.58 6.49,13.01 10.46,7.45 14.56,3.16 18.66,-1.11 20.13,-1.57 21.60,-2.03 23.13,-2.12 24.67,-2.21 26.19,-1.94 27.70,-1.66 29.11,-1.03 30.51,-0.40 31.72,0.54 32.94,1.49 33.89,2.71 34.84,3.92 35.47,5.32 36.10,6.73 36.38,8.24 36.66,9.76 36.57,11.29 36.47,12.83 36.02,14.30 35.56,15.77 34.76,17.09 33.97,18.41 32.88,19.50 31.79,20.59 30.47,21.39 29.15,22.18 29.13,21.32 29.11,20.45 23.82,23.90 18.52,27.35 14.74,29.48 10.96,31.62 6.58,33.93 2.19,36.24 -2.62,39.08 -7.44,41.91 -13.14,43.17 -18.84,44.42 -19.72,45.42 -20.60,46.42 -21.70,47.18 -22.79,47.93 -24.04,48.41 -25.28,48.88 -26.60,49.04 -27.92,49.20 -29.24,49.05 -30.56,48.89 -31.81,48.42 -33.05,47.95 -34.15,47.19 -35.24,46.44 -36.13,45.44 -37.01,44.45 -37.63,43.27 -38.25,42.10 -38.57,40.80 -38.89,39.51 -38.89,38.18 -38.89,36.85 -38.58,35.56 -38.26,34.27 -37.64,33.09 -37.03,31.91 -37.12,32.02 -37.21,32.12 -33.84,28.24 -30.47,24.35 -26.91,19.95 -23.35,15.56 -20.26,11.57 -17.18,7.58 -12.43,0.74 -7.68,-6.10 -6.84,-6.93 -5.99,-7.76 -4.98,-8.36 -3.96,-8.97 -2.83,-9.31 -1.70,-9.66 -0.52,-9.72 0.65,-9.78 1.81,-9.56 2.98,-9.34 4.05,-8.85 5.13,-8.36 6.05,-7.62 6.98,-6.89 7.70,-5.95 8.42,-5.01 8.90,-3.93 9.38,-2.85 9.59,-1.69 9.79,-0.52 9.71,0.65 9.63,1.83 9.27,2.95 8.91,4.08 8.29,5.09 7.68,6.10 7.68,6.10 L 7.68,6.10 Z"/></g><g transform="translate(269.18151497708504 780.1486207372419) rotate(0 29.301206148628694 23.640745869916316)" stroke="none"><path fill="#fd7e14" d="M -0.68,-2.04 Q -0.68,-2.04 1.05,-2.58 2.78,-3.12 6.10,-3.86 9.42,-4.60 12.34,-5.26 15.26,-5.92 17.05,-6.42 18.84,-6.92 21.10,-7.10 23.35,-7.29 24.85,-7.46 26.35,-7.63 27.90,-8.03 29.46,-8.42 30.21,-8.88 30.97,-9.33 31.24,-9.39 31.51,-9.45 31.79,-9.45 32.07,-9.44 32.34,-9.37 32.61,-9.30 32.86,-9.17 33.11,-9.03 33.31,-8.85 33.52,-8.66 33.67,-8.42 33.83,-8.19 33.92,-7.93 34.02,-7.66 34.05,-7.39 34.08,-7.11 34.04,-6.83 34.00,-6.55 33.90,-6.29 33.79,-6.03 33.63,-5.81 33.47,-5.58 33.26,-5.40 33.04,-5.21 32.79,-5.09 32.55,-4.96 30.37,-3.23 28.20,-1.49 25.95,0.26 23.71,2.02 21.55,3.54 19.39,5.06 16.37,7.21 13.34,9.36 12.16,10.48 10.98,11.59 9.93,12.67 8.88,13.75 7.76,14.77 6.64,15.79 5.58,16.38 4.52,16.98 3.54,17.77 2.56,18.56 2.13,19.00 1.70,19.44 1.43,19.62 1.16,19.79 0.85,19.89 0.54,20.00 0.22,20.02 -0.09,20.05 -0.41,20.00 -0.73,19.94 -1.03,19.82 -1.32,19.69 -1.58,19.50 -1.84,19.30 -2.04,19.05 -2.25,18.80 -2.39,18.51 -2.53,18.22 -2.59,17.91 -2.66,17.59 -2.64,17.27 -2.63,16.94 -2.54,16.63 -2.45,16.32 -2.29,16.04 -2.13,15.76 -1.90,15.53 -1.68,15.30 -0.02,15.43 1.63,15.57 4.50,15.37 7.36,15.18 9.55,15.07 11.75,14.97 14.44,14.77 17.13,14.57 19.41,14.33 21.68,14.09 22.85,13.86 24.03,13.63 25.85,13.39 27.66,13.16 29.67,13.07 31.67,12.99 32.89,12.86 34.10,12.73 36.82,12.43 39.54,12.12 41.15,11.90 42.77,11.68 43.42,11.72 44.07,11.76 44.31,11.76 44.56,11.76 44.80,11.83 45.04,11.89 45.26,12.01 45.48,12.13 45.66,12.29 45.85,12.46 45.98,12.67 46.12,12.87 46.21,13.10 46.29,13.34 46.32,13.58 46.35,13.83 46.31,14.08 46.28,14.32 46.19,14.55 46.10,14.78 45.95,14.99 45.81,15.19 45.62,15.35 45.43,15.51 45.21,15.62 44.99,15.74 44.75,15.79 44.51,15.85 42.34,17.48 40.17,19.12 37.28,21.07 34.40,23.03 32.64,24.38 30.88,25.74 29.93,26.48 28.98,27.23 26.78,28.41 24.59,29.59 22.11,30.85 19.63,32.10 18.40,32.76 17.17,33.42 16.02,34.22 14.87,35.02 13.80,35.53 12.73,36.03 12.00,36.36 11.27,36.68 11.00,36.71 10.74,36.74 10.47,36.71 10.21,36.68 9.96,36.58 9.71,36.49 9.49,36.34 9.27,36.19 9.10,35.99 8.92,35.79 8.79,35.55 8.67,35.32 8.61,35.06 8.54,34.80 8.54,34.54 8.54,34.27 8.60,34.01 8.67,33.75 8.79,33.52 8.91,33.28 9.09,33.08 9.27,32.88 9.49,32.73 9.71,32.58 9.95,32.48 10.20,32.39 11.84,31.90 13.48,31.42 15.81,30.89 18.14,30.37 19.41,29.88 20.67,29.39 22.27,28.96 23.87,28.53 25.04,28.13 26.22,27.73 28.62,27.47 31.01,27.21 32.80,27.05 34.58,26.89 36.52,26.65 38.46,26.41 40.00,26.27 41.53,26.14 42.61,26.10 43.69,26.06 44.91,26.04 46.14,26.03 49.53,26.19 52.92,26.36 54.76,26.41 56.60,26.46 57.17,26.59 57.73,26.71 58.01,26.74 58.29,26.78 58.55,26.88 58.80,26.97 59.03,27.13 59.26,27.29 59.45,27.50 59.63,27.70 59.76,27.95 59.89,28.20 59.95,28.47 60.02,28.74 60.02,29.01 60.02,29.29 59.95,29.56 59.89,29.83 59.76,30.08 59.63,30.32 59.45,30.53 59.26,30.74 59.03,30.90 58.80,31.05 58.55,31.15 58.29,31.25 58.01,31.28 57.73,31.32 57.21,32.28 56.69,33.24 54.01,35.06 51.33,36.88 48.90,38.52 46.47,40.16 45.11,41.26 43.76,42.37 42.03,43.17 40.31,43.98 38.50,45.15 36.69,46.32 34.66,47.40 32.63,48.47 30.54,49.50 28.45,50.53 27.37,51.11 26.30,51.69 24.55,52.57 22.80,53.45 20.36,54.23 17.91,55.02 16.78,55.44 15.65,55.87 15.43,55.92 15.21,55.96 14.98,55.96 14.76,55.95 14.54,55.89 14.32,55.83 14.13,55.72 13.93,55.61 13.77,55.45 13.60,55.30 13.48,55.11 13.36,54.92 13.28,54.71 13.21,54.50 13.19,54.27 13.17,54.05 13.20,53.83 13.24,53.60 13.32,53.40 13.41,53.19 13.54,53.01 13.68,52.82 13.85,52.68 14.02,52.54 14.22,52.44 14.43,52.34 18.08,51.95 21.73,51.56 23.81,51.25 25.90,50.94 27.00,50.67 28.10,50.40 29.40,50.25 30.70,50.09 32.02,50.00 33.34,49.90 35.18,49.75 37.01,49.61 38.82,49.66 40.62,49.71 42.92,49.83 45.21,49.95 46.38,49.88 47.55,49.81 51.61,50.02 55.66,50.24 56.02,50.33 56.37,50.41 56.68,50.60 56.99,50.79 57.22,51.07 57.45,51.35 57.58,51.69 57.71,52.03 57.73,52.40 57.74,52.76 57.64,53.11 57.54,53.46 57.33,53.75 57.12,54.05 56.83,54.27 56.53,54.48 56.19,54.60 55.84,54.71 55.48,54.70 55.12,54.70 54.77,54.57 54.43,54.45 54.14,54.23 53.86,54.01 53.66,53.70 53.46,53.40 53.37,53.05 53.27,52.69 53.30,52.33 53.32,51.97 53.46,51.63 53.60,51.30 53.84,51.02 54.08,50.75 54.39,50.57 54.71,50.38 55.06,50.31 55.42,50.24 55.78,50.28 56.14,50.33 56.47,50.48 56.80,50.64 57.06,50.90 57.32,51.15 57.48,51.47 57.65,51.80 57.70,52.16 57.76,52.52 57.69,52.87 57.63,53.23 57.45,53.55 57.28,53.87 57.01,54.12 56.74,54.36 56.41,54.51 56.08,54.66 55.72,54.69 55.36,54.73 55.36,54.73 55.36,54.73 51.45,54.40 47.55,54.07 46.38,54.00 45.21,53.93 42.92,54.05 40.62,54.18 38.83,54.23 37.03,54.28 35.23,54.17 33.43,54.06 32.17,54.02 30.91,53.98 29.75,53.95 28.60,53.93 27.51,53.97 26.43,54.01 24.29,54.43 22.14,54.84 18.89,55.35 15.65,55.87 15.43,55.92 15.21,55.96 14.98,55.96 14.76,55.95 14.54,55.89 14.32,55.83 14.13,55.72 13.93,55.61 13.77,55.45 13.60,55.30 13.48,55.11 13.36,54.92 13.28,54.71 13.21,54.50 13.19,54.27 13.17,54.05 13.20,53.83 13.24,53.60 13.32,53.40 13.41,53.19 13.54,53.01 13.68,52.82 13.85,52.68 14.02,52.54 14.22,52.44 14.43,52.34 15.62,52.09 16.82,51.85 18.96,51.05 21.09,50.25 22.92,49.20 24.75,48.16 25.77,47.81 26.80,47.47 28.76,46.33 30.71,45.19 32.80,43.85 34.89,42.51 36.87,41.57 38.85,40.63 40.23,40.11 41.60,39.59 43.04,38.48 44.48,37.37 46.83,35.61 49.17,33.85 51.41,32.16 53.65,30.47 55.69,28.59 57.73,26.71 58.01,26.74 58.29,26.78 58.54,26.87 58.80,26.97 59.03,27.13 59.26,27.29 59.45,27.50 59.63,27.70 59.76,27.95 59.89,28.20 59.95,28.47 60.02,28.74 60.02,29.01 60.02,29.29 59.95,29.56 59.89,29.83 59.76,30.08 59.63,30.32 59.45,30.53 59.26,30.74 59.03,30.90 58.81,31.05 58.55,31.15 58.29,31.25 58.01,31.28 57.73,31.32 57.13,31.06 56.53,30.80 54.73,30.85 52.92,30.91 49.53,31.07 46.14,31.24 44.92,31.22 43.70,31.20 42.63,31.17 41.57,31.14 40.08,31.03 38.58,30.93 36.75,30.87 34.91,30.80 33.26,30.93 31.60,31.06 29.51,31.49 27.43,31.91 26.15,32.22 24.88,32.53 23.42,32.87 21.97,33.21 20.55,33.63 19.14,34.04 16.96,34.75 14.78,35.45 13.03,36.07 11.27,36.68 11.00,36.71 10.74,36.74 10.47,36.71 10.21,36.68 9.96,36.58 9.71,36.49 9.49,36.34 9.27,36.19 9.10,35.99 8.92,35.79 8.79,35.55 8.67,35.32 8.61,35.06 8.54,34.80 8.54,34.54 8.54,34.27 8.60,34.01 8.67,33.75 8.79,33.52 8.91,33.28 9.09,33.08 9.27,32.88 9.49,32.73 9.71,32.58 9.95,32.48 10.20,32.39 10.18,32.39 10.15,32.39 11.53,32.12 12.90,31.85 14.32,31.04 15.75,30.23 16.97,29.79 18.19,29.36 20.58,28.05 22.97,26.75 25.96,25.04 28.96,23.33 30.75,21.85 32.54,20.37 35.30,18.36 38.06,16.35 41.06,14.05 44.07,11.76 44.31,11.76 44.56,11.76 44.80,11.83 45.04,11.89 45.26,12.01 45.48,12.13 45.66,12.29 45.85,12.46 45.98,12.67 46.12,12.87 46.21,13.10 46.29,13.34 46.32,13.58 46.35,13.83 46.31,14.08 46.28,14.32 46.19,14.55 46.10,14.78 45.95,14.99 45.81,15.19 45.62,15.35 45.44,15.51 45.21,15.62 44.99,15.74 44.75,15.79 44.51,15.85 43.82,15.65 43.13,15.45 41.59,15.57 40.05,15.69 37.15,16.19 34.25,16.69 33.06,16.65 31.87,16.62 30.02,16.74 28.17,16.87 26.31,17.13 24.46,17.39 23.31,17.43 22.15,17.47 19.84,17.86 17.54,18.25 14.86,18.64 12.18,19.03 9.85,19.41 7.51,19.79 3.32,19.83 -0.86,19.87 0.42,19.65 1.70,19.44 1.43,19.62 1.16,19.79 0.85,19.89 0.54,20.00 0.22,20.02 -0.09,20.05 -0.41,20.00 -0.73,19.94 -1.03,19.82 -1.32,19.69 -1.58,19.50 -1.84,19.30 -2.04,19.05 -2.25,18.80 -2.39,18.51 -2.53,18.22 -2.59,17.91 -2.66,17.59 -2.64,17.27 -2.63,16.94 -2.54,16.63 -2.45,16.32 -2.29,16.04 -2.13,15.76 -1.90,15.53 -1.68,15.30 -0.34,14.31 0.99,13.33 2.53,12.85 4.07,12.38 5.23,11.74 6.39,11.10 7.57,10.08 8.74,9.05 10.10,7.93 11.46,6.80 14.42,4.57 17.37,2.35 19.36,0.78 21.36,-0.77 23.47,-2.67 25.59,-4.57 28.28,-6.95 30.97,-9.33 31.24,-9.39 31.51,-9.45 31.79,-9.45 32.07,-9.44 32.34,-9.37 32.61,-9.30 32.86,-9.17 33.11,-9.03 33.31,-8.85 33.52,-8.66 33.67,-8.42 33.83,-8.19 33.92,-7.93 34.02,-7.66 34.05,-7.39 34.08,-7.11 34.04,-6.83 34.00,-6.55 33.90,-6.29 33.80,-6.03 33.63,-5.81 33.47,-5.58 33.26,-5.40 33.05,-5.21 32.80,-5.09 32.55,-4.96 31.47,-4.62 30.40,-4.27 28.48,-4.18 26.57,-4.08 25.12,-4.07 23.68,-4.06 21.72,-3.82 19.76,-3.58 17.93,-3.07 16.11,-2.57 13.23,-1.76 10.35,-0.96 7.22,-0.06 4.10,0.82 2.39,1.43 0.68,2.04 0.42,2.09 0.17,2.14 -0.08,2.13 -0.34,2.12 -0.59,2.05 -0.84,1.97 -1.06,1.84 -1.29,1.71 -1.48,1.54 -1.66,1.36 -1.80,1.14 -1.94,0.92 -2.02,0.67 -2.10,0.42 -2.12,0.17 -2.15,-0.08 -2.10,-0.34 -2.06,-0.59 -1.96,-0.83 -1.86,-1.07 -1.70,-1.28 -1.55,-1.49 -1.35,-1.65 -1.14,-1.81 -0.91,-1.93 -0.68,-2.04 -0.68,-2.04 L -0.68,-2.04 Z"/></g><g transform="translate(329.7817367844764 864.7225566662385) rotate(0 -27.303396638494974 34.96166642734113)" stroke="none"><path fill="#40c057" d="M -0.39,10.25 Q -0.39,10.25 -5.37,10.12 -10.35,9.99 -14.85,10.00 -19.35,10.01 -24.65,10.25 -29.96,10.49 -34.32,10.80 -38.69,11.11 -39.32,11.38 -39.96,11.65 -41.38,11.47 -42.81,11.30 -44.16,10.79 -45.50,10.28 -46.69,9.46 -47.87,8.64 -48.82,7.57 -49.78,6.49 -50.45,5.21 -51.11,3.94 -51.46,2.54 -51.80,1.15 -51.80,-0.28 -51.80,-1.72 -51.46,-3.12 -51.11,-4.51 -50.44,-5.79 -49.77,-7.06 -48.82,-8.14 -47.86,-9.21 -46.68,-10.03 -45.49,-10.85 -44.15,-11.36 -42.80,-11.87 -41.38,-12.04 -39.95,-12.21 -32.66,-7.78 -25.37,-3.35 -21.32,-0.45 -17.26,2.43 -12.21,5.18 -7.16,7.93 -5.59,8.70 -4.02,9.48 -2.46,9.83 -0.91,10.19 0.50,10.91 1.92,11.62 3.12,12.66 4.33,13.69 5.25,14.99 6.18,16.28 6.76,17.76 7.35,19.24 7.57,20.82 7.78,22.39 7.62,23.97 7.45,25.56 6.91,27.05 6.37,28.55 5.49,29.87 4.60,31.19 3.43,32.27 2.26,33.34 0.86,34.10 -0.53,34.86 -2.07,35.27 -3.61,35.67 -5.20,35.70 -6.79,35.72 -12.85,35.58 -18.92,35.43 -25.61,34.55 -32.30,33.67 -37.51,33.59 -42.72,33.51 -47.05,33.60 -51.38,33.69 -45.93,27.81 -40.48,21.92 -40.63,16.97 -40.79,12.02 -36.65,13.89 -32.52,15.77 -27.89,17.93 -23.27,20.09 -19.12,22.44 -14.98,24.80 -11.11,26.81 -7.23,28.81 -6.34,29.17 -5.44,29.52 -3.89,30.30 -2.34,31.07 -1.02,32.20 0.29,33.32 1.31,34.73 2.32,36.14 2.97,37.75 3.61,39.35 3.86,41.07 4.10,42.79 3.93,44.52 3.75,46.24 3.17,47.88 2.59,49.51 1.63,50.96 0.67,52.40 -0.59,53.58 -1.87,54.75 -3.39,55.59 -4.91,56.43 -6.58,56.88 -8.26,57.32 -9.99,57.36 -11.73,57.39 -13.42,57.01 -15.11,56.63 -22.26,58.29 -29.41,59.95 -33.93,60.12 -38.46,60.30 -43.33,60.37 -48.20,60.45 -49.47,60.66 -50.74,60.86 -52.48,60.65 -54.22,60.44 -55.86,59.82 -57.50,59.20 -58.94,58.21 -60.38,57.21 -61.54,55.90 -62.71,54.59 -63.52,53.04 -64.34,51.49 -64.76,49.79 -65.18,48.08 -65.18,46.33 -65.18,44.58 -64.76,42.88 -64.34,41.18 -63.53,39.62 -62.71,38.07 -61.55,36.76 -60.39,35.45 -58.95,34.45 -57.51,33.46 -55.87,32.84 -54.23,32.21 -52.49,32.00 -50.75,31.79 -44.01,36.12 -37.26,40.46 -33.37,42.44 -29.47,44.42 -25.56,46.65 -21.65,48.89 -18.34,49.90 -15.03,50.91 -13.39,51.51 -11.76,52.10 -10.31,53.07 -8.87,54.04 -7.70,55.32 -6.53,56.61 -5.70,58.14 -4.87,59.67 -4.43,61.35 -3.99,63.03 -3.97,64.77 -3.95,66.51 -4.34,68.21 -4.74,69.90 -5.52,71.45 -6.31,73.00 -7.45,74.32 -8.58,75.63 -10.00,76.64 -11.42,77.65 -13.04,78.29 -14.65,78.92 -16.38,79.16 -18.10,79.39 -19.83,79.20 -21.56,79.01 -25.22,81.33 -28.88,83.65 -29.65,83.96 -30.43,84.26 -32.75,84.56 -35.08,84.85 -37.38,84.39 -39.68,83.92 -41.71,82.75 -43.74,81.58 -45.29,79.82 -46.84,78.06 -47.74,75.89 -48.65,73.73 -48.82,71.39 -48.99,69.05 -48.40,66.78 -47.81,64.51 -46.53,62.54 -45.25,60.58 -43.40,59.13 -41.56,57.68 -39.35,56.89 -37.14,56.10 -34.80,56.06 -32.45,56.02 -30.22,56.73 -27.98,57.44 -26.09,58.83 -24.20,60.21 -22.85,62.13 -21.50,64.05 -20.83,66.30 -20.17,68.55 -20.25,70.89 -20.34,73.23 -21.17,75.43 -22.00,77.62 -23.49,79.44 -24.97,81.25 -26.96,82.49 -28.95,83.74 -31.23,84.28 -33.51,84.82 -35.85,84.61 -38.18,84.40 -40.33,83.45 -42.48,82.50 -44.21,80.92 -45.94,79.34 -47.07,77.28 -48.21,75.23 -48.62,72.92 -49.04,70.62 -48.70,68.29 -48.37,65.97 -47.30,63.88 -46.24,61.79 -44.57,60.15 -42.89,58.51 -40.78,57.49 -38.67,56.46 -38.67,56.46 -38.67,56.47 -33.44,55.17 -28.22,53.88 -21.62,52.39 -15.03,50.91 -13.39,51.50 -11.76,52.10 -10.32,53.07 -8.87,54.04 -7.70,55.32 -6.53,56.61 -5.70,58.14 -4.87,59.67 -4.43,61.35 -3.99,63.03 -3.97,64.77 -3.95,66.51 -4.34,68.20 -4.74,69.90 -5.52,71.45 -6.31,73.00 -7.45,74.32 -8.58,75.63 -10.00,76.64 -11.42,77.65 -13.04,78.28 -14.65,78.92 -16.38,79.16 -18.10,79.39 -19.83,79.20 -21.56,79.02 -25.98,77.77 -30.41,76.52 -34.94,73.91 -39.47,71.30 -44.45,68.34 -49.43,65.38 -54.83,61.63 -60.24,57.89 -55.49,59.37 -50.74,60.86 -52.48,60.65 -54.22,60.44 -55.86,59.82 -57.50,59.20 -58.94,58.21 -60.38,57.21 -61.54,55.90 -62.71,54.59 -63.52,53.04 -64.34,51.49 -64.76,49.79 -65.18,48.09 -65.18,46.33 -65.18,44.58 -64.76,42.88 -64.34,41.18 -63.53,39.63 -62.71,38.07 -61.55,36.76 -60.39,35.45 -58.95,34.45 -57.51,33.46 -55.87,32.84 -54.23,32.21 -52.49,32.00 -50.75,31.79 -48.34,31.63 -45.93,31.48 -41.63,31.53 -37.33,31.57 -32.17,31.42 -27.01,31.27 -21.80,30.28 -16.58,29.29 -11.01,29.41 -5.44,29.52 -3.89,30.30 -2.34,31.07 -1.02,32.20 0.29,33.32 1.31,34.73 2.32,36.13 2.97,37.74 3.61,39.35 3.86,41.07 4.10,42.79 3.93,44.51 3.75,46.24 3.17,47.87 2.59,49.51 1.63,50.95 0.67,52.40 -0.59,53.58 -1.87,54.75 -3.39,55.59 -4.91,56.43 -6.58,56.88 -8.26,57.32 -9.99,57.36 -11.73,57.39 -13.42,57.01 -15.11,56.63 -16.45,56.05 -17.78,55.47 -21.56,53.50 -25.33,51.54 -30.31,48.42 -35.30,45.30 -39.62,43.08 -43.94,40.87 -49.86,38.01 -55.78,35.15 -60.87,26.59 -65.97,18.03 -58.65,12.14 -51.33,6.26 -46.75,6.39 -42.17,6.52 -37.72,6.72 -33.28,6.92 -28.20,7.58 -23.12,8.25 -17.89,8.86 -12.67,9.47 -8.34,9.47 -4.02,9.48 -2.47,9.83 -0.92,10.19 0.49,10.90 1.91,11.62 3.12,12.66 4.33,13.69 5.25,14.99 6.18,16.28 6.76,17.76 7.35,19.24 7.57,20.82 7.78,22.39 7.62,23.97 7.45,25.55 6.91,27.05 6.37,28.55 5.49,29.87 4.60,31.19 3.43,32.27 2.26,33.34 0.86,34.10 -0.53,34.86 -2.07,35.27 -3.60,35.67 -5.19,35.70 -6.78,35.72 -10.91,34.17 -15.03,32.62 -19.32,29.94 -23.61,27.26 -27.74,24.61 -31.87,21.97 -35.91,16.81 -39.95,11.65 -41.38,11.47 -42.81,11.30 -44.16,10.79 -45.50,10.28 -46.69,9.46 -47.87,8.64 -48.82,7.57 -49.78,6.49 -50.45,5.22 -51.11,3.94 -51.46,2.54 -51.80,1.15 -51.80,-0.28 -51.80,-1.72 -51.46,-3.12 -51.11,-4.51 -50.44,-5.79 -49.77,-7.06 -48.82,-8.14 -47.86,-9.21 -46.68,-10.03 -45.50,-10.85 -44.15,-11.36 -42.81,-11.87 -41.38,-12.04 -39.95,-12.21 -39.68,-12.33 -39.42,-12.44 -34.60,-12.11 -29.78,-11.78 -24.38,-11.44 -18.97,-11.10 -14.26,-10.93 -9.55,-10.75 -4.58,-10.50 0.39,-10.25 1.61,-10.05 2.83,-9.86 3.97,-9.37 5.11,-8.89 6.10,-8.15 7.09,-7.41 7.87,-6.45 8.66,-5.49 9.19,-4.38 9.72,-3.26 9.97,-2.05 10.22,-0.84 10.17,0.39 10.13,1.62 9.78,2.81 9.44,4.00 8.83,5.07 8.21,6.14 7.35,7.04 6.50,7.93 5.45,8.59 4.41,9.26 3.24,9.65 2.06,10.04 0.83,10.15 -0.39,10.25 -0.39,10.25 L -0.39,10.25 Z"/></g><g transform="translate(244.54186435210158 944.6349370715895) rotate(0 3.995619020267611 22.30887286316056)" stroke="none"><path fill="#40c057" d="M -0.13,-1.81 Q -0.13,-1.81 2.35,-1.94 4.84,-2.06 7.41,-2.28 9.99,-2.50 12.22,-2.77 14.45,-3.04 16.21,-3.23 17.97,-3.42 20.99,-3.72 24.00,-4.03 24.70,-4.21 25.40,-4.40 25.62,-4.39 25.85,-4.39 26.07,-4.33 26.29,-4.27 26.49,-4.16 26.69,-4.05 26.85,-3.90 27.02,-3.74 27.15,-3.56 27.27,-3.37 27.35,-3.15 27.42,-2.94 27.45,-2.71 27.47,-2.49 27.44,-2.26 27.41,-2.04 27.32,-1.83 27.24,-1.62 27.10,-1.43 26.97,-1.25 26.80,-1.10 26.63,-0.95 26.42,-0.85 26.22,-0.75 26.00,-0.70 25.78,-0.65 23.59,0.06 21.40,0.79 19.14,2.05 16.88,3.31 13.13,5.04 9.38,6.76 5.88,8.25 2.37,9.74 -0.65,10.94 -3.68,12.15 -6.13,13.04 -8.58,13.94 -10.73,14.87 -12.88,15.80 -14.94,16.77 -17.00,17.74 -18.80,18.72 -20.61,19.70 -22.32,20.71 -24.03,21.71 -25.39,21.31 -26.74,20.91 -23.83,21.29 -20.93,21.66 -17.41,21.90 -13.89,22.14 -9.90,22.26 -5.90,22.37 -1.34,22.43 3.22,22.49 7.08,22.52 10.94,22.55 14.69,22.57 18.43,22.59 21.36,22.60 24.30,22.61 25.73,22.50 27.17,22.39 28.70,22.20 30.22,22.00 32.18,21.03 34.13,20.05 35.32,19.31 36.51,18.56 36.80,18.22 37.10,17.88 37.34,17.78 37.57,17.68 37.83,17.64 38.08,17.60 38.34,17.63 38.59,17.65 38.84,17.73 39.08,17.82 39.29,17.96 39.51,18.10 39.69,18.28 39.86,18.47 39.99,18.70 40.11,18.92 40.18,19.17 40.25,19.41 40.26,19.67 40.27,19.93 40.21,20.18 40.16,20.43 40.05,20.66 39.93,20.89 39.77,21.09 39.61,21.29 39.40,21.44 39.19,21.59 35.63,22.56 32.07,23.53 29.13,24.47 26.20,25.40 23.78,26.17 21.36,26.93 18.20,27.83 15.03,28.72 12.60,29.64 10.18,30.56 7.74,31.35 5.31,32.13 3.88,32.59 2.45,33.04 -0.56,34.08 -3.58,35.11 -5.63,35.92 -7.69,36.73 -9.05,37.52 -10.42,38.30 -12.15,39.33 -13.88,40.35 -16.43,41.58 -18.98,42.81 -21.71,44.43 -24.45,46.05 -27.34,47.32 -30.23,48.59 -30.48,48.63 -30.73,48.68 -30.99,48.64 -31.24,48.60 -31.47,48.49 -31.70,48.37 -31.88,48.18 -32.06,48.00 -32.17,47.77 -32.29,47.53 -32.32,47.28 -32.35,47.02 -32.30,46.77 -32.24,46.52 -32.12,46.30 -31.99,46.07 -31.79,45.90 -31.60,45.73 -31.36,45.63 -31.12,45.54 -30.86,45.52 -30.61,45.50 -30.36,45.57 -30.11,45.63 -29.89,45.77 -29.68,45.92 -29.52,46.12 -29.36,46.32 -29.27,46.56 -29.19,46.81 -29.18,47.07 -29.18,47.32 -29.26,47.57 -29.34,47.81 -29.49,48.02 -29.64,48.23 -29.86,48.38 -30.07,48.52 -30.32,48.60 -30.56,48.67 -30.82,48.66 -31.08,48.65 -31.32,48.56 -31.56,48.46 -31.76,48.30 -31.96,48.14 -32.09,47.92 -32.23,47.70 -32.29,47.45 -32.35,47.20 -32.32,46.94 -32.30,46.68 -32.19,46.45 -32.09,46.21 -31.91,46.02 -31.74,45.83 -31.51,45.71 -31.29,45.58 -31.29,45.58 -31.29,45.58 -28.61,44.58 -25.94,43.57 -23.12,41.85 -20.31,40.13 -17.91,38.90 -15.51,37.68 -13.71,36.54 -11.90,35.41 -10.35,34.70 -8.81,34.00 -6.71,33.11 -4.61,32.21 -1.46,31.05 1.68,29.88 3.05,29.66 4.42,29.44 6.77,28.64 9.12,27.84 11.65,26.83 14.18,25.82 17.26,24.88 20.34,23.93 22.72,23.07 25.10,22.21 28.04,21.13 30.98,20.04 34.04,18.96 37.10,17.88 37.34,17.78 37.57,17.68 37.83,17.64 38.08,17.60 38.34,17.63 38.59,17.65 38.84,17.73 39.08,17.82 39.29,17.96 39.51,18.10 39.69,18.28 39.86,18.47 39.99,18.69 40.11,18.92 40.18,19.17 40.25,19.41 40.26,19.67 40.27,19.93 40.21,20.18 40.16,20.43 40.05,20.66 39.93,20.89 39.77,21.09 39.61,21.29 39.40,21.44 39.19,21.59 38.85,21.82 38.50,22.06 37.28,22.68 36.06,23.30 33.14,24.61 30.22,25.93 28.70,25.74 27.17,25.54 25.73,25.43 24.29,25.32 21.36,25.32 18.43,25.33 14.68,25.33 10.93,25.34 7.07,25.34 3.20,25.34 -1.38,25.32 -5.97,25.30 -10.02,25.24 -14.07,25.18 -17.75,25.00 -21.44,24.82 -24.67,24.20 -27.91,23.59 -28.26,22.42 -28.62,21.26 -27.02,20.27 -25.42,19.29 -23.66,18.30 -21.89,17.32 -20.02,16.31 -18.14,15.31 -16.05,14.32 -13.96,13.32 -11.75,12.35 -9.53,11.37 -7.13,10.47 -4.72,9.57 -1.73,8.35 1.25,7.13 4.70,5.63 8.15,4.12 11.76,2.40 15.37,0.68 17.81,-0.74 20.25,-2.17 22.82,-3.28 25.40,-4.40 25.62,-4.39 25.85,-4.39 26.07,-4.33 26.29,-4.27 26.49,-4.16 26.69,-4.05 26.85,-3.90 27.02,-3.74 27.15,-3.56 27.27,-3.37 27.35,-3.15 27.42,-2.94 27.45,-2.71 27.47,-2.49 27.44,-2.26 27.41,-2.04 27.32,-1.83 27.24,-1.62 27.10,-1.43 26.97,-1.25 26.80,-1.10 26.63,-0.95 26.42,-0.85 26.22,-0.75 26.00,-0.70 25.78,-0.65 25.06,-0.65 24.34,-0.66 21.28,-0.42 18.22,-0.18 16.54,-0.11 14.85,-0.04 12.59,0.30 10.32,0.64 7.71,0.97 5.10,1.29 2.62,1.55 0.13,1.81 -0.07,1.80 -0.29,1.79 -0.51,1.73 -0.72,1.67 -0.91,1.56 -1.10,1.45 -1.25,1.30 -1.41,1.14 -1.53,0.96 -1.65,0.77 -1.72,0.56 -1.78,0.35 -1.80,0.13 -1.82,-0.08 -1.78,-0.29 -1.75,-0.51 -1.66,-0.71 -1.57,-0.91 -1.44,-1.09 -1.31,-1.26 -1.14,-1.40 -0.96,-1.54 -0.77,-1.63 -0.57,-1.73 -0.35,-1.77 -0.13,-1.81 -0.13,-1.81 L -0.13,-1.81 Z"/></g><g transform="translate(118.01392871029566 953.9580481188806) rotate(0 33.96276167227427 17.647317339514984)" stroke="none"><path fill="#fd7e14" d="M -1.46,-9.54 Q -1.46,-9.54 6.04,-10.37 13.56,-11.21 18.80,-12.72 24.04,-14.24 27.98,-15.38 31.92,-16.52 33.22,-16.61 34.51,-16.69 35.79,-16.47 37.07,-16.25 38.26,-15.73 39.45,-15.20 40.48,-14.41 41.51,-13.62 42.32,-12.60 43.13,-11.59 43.67,-10.41 44.21,-9.23 44.46,-7.95 44.70,-6.68 44.64,-5.38 44.57,-4.08 44.19,-2.84 43.82,-1.59 43.15,-0.48 42.49,0.63 41.58,1.56 40.67,2.48 39.57,3.16 38.46,3.85 37.22,4.24 35.99,4.64 32.24,8.01 28.49,11.38 22.37,14.33 16.26,17.28 11.11,19.59 5.95,21.91 2.06,24.23 -1.83,26.56 -3.13,27.03 -4.43,27.51 -5.80,27.65 -7.18,27.80 -8.55,27.61 -9.92,27.43 -11.20,26.92 -12.49,26.41 -13.61,25.61 -14.74,24.81 -15.64,23.76 -16.54,22.71 -17.17,21.48 -17.79,20.25 -18.10,18.90 -18.41,17.55 -18.39,16.17 -18.37,14.79 -18.02,13.45 -17.67,12.12 -17.01,10.90 -16.35,9.69 -15.42,8.67 -14.49,7.64 -13.34,6.88 -12.19,6.11 -6.26,5.77 -0.32,5.44 7.22,4.52 14.78,3.60 20.34,2.89 25.89,2.18 31.00,0.71 36.10,-0.75 40.72,-2.43 45.35,-4.11 49.39,-5.79 53.44,-7.48 54.96,-7.73 56.48,-7.98 58.02,-7.86 59.56,-7.75 61.03,-7.26 62.50,-6.78 63.80,-5.95 65.11,-5.13 66.18,-4.02 67.26,-2.91 68.03,-1.58 68.81,-0.24 69.24,1.23 69.68,2.71 69.74,4.26 69.81,5.80 69.51,7.31 69.20,8.83 68.54,10.23 67.89,11.62 66.91,12.82 65.94,14.02 64.71,14.95 63.48,15.88 62.06,16.49 60.64,17.10 54.82,20.61 49.01,24.11 44.45,27.02 39.90,29.93 36.07,32.45 32.25,34.98 31.20,36.51 30.16,38.04 28.86,39.04 27.57,40.03 26.07,40.69 24.57,41.35 22.96,41.64 21.34,41.92 19.71,41.80 18.08,41.69 16.52,41.19 14.96,40.69 13.57,39.83 12.17,38.98 11.02,37.81 9.88,36.64 9.04,35.23 8.21,33.83 7.73,32.26 7.26,30.69 7.17,29.06 7.09,27.42 7.40,25.81 7.70,24.21 8.39,22.72 9.07,21.23 10.09,19.95 11.11,18.67 20.18,16.19 29.25,13.71 33.83,13.07 38.40,12.42 43.90,10.64 49.39,8.85 54.20,7.25 59.01,5.66 64.07,3.85 69.13,2.04 70.10,1.68 71.07,1.31 72.66,0.90 74.25,0.49 75.89,0.47 77.54,0.44 79.14,0.82 80.74,1.19 82.21,1.94 83.67,2.68 84.92,3.76 86.16,4.83 87.12,6.17 88.07,7.52 88.67,9.05 89.27,10.58 89.49,12.21 89.71,13.84 89.53,15.47 89.36,17.11 88.79,18.65 88.23,20.20 87.31,21.56 86.39,22.93 85.18,24.03 83.96,25.14 82.51,25.92 81.07,26.70 78.55,30.57 76.03,34.43 72.88,37.71 69.73,41.00 66.35,44.60 62.97,48.21 60.15,50.30 57.33,52.39 55.81,53.16 54.28,53.93 52.62,54.31 50.96,54.70 49.25,54.67 47.54,54.64 45.89,54.21 44.24,53.78 42.74,52.96 41.25,52.15 39.99,51.00 38.73,49.85 37.78,48.43 36.83,47.01 36.25,45.40 35.67,43.80 35.49,42.10 35.31,40.41 35.54,38.72 35.77,37.02 36.40,35.44 37.03,33.85 38.02,32.46 39.01,31.07 40.30,29.96 41.60,28.85 47.95,28.08 54.30,27.30 60.39,26.62 66.47,25.94 68.75,26.12 71.04,26.31 73.15,27.22 75.26,28.13 76.97,29.66 78.68,31.20 79.81,33.20 80.94,35.20 81.37,37.45 81.80,39.71 81.49,41.98 81.18,44.26 80.15,46.31 79.13,48.37 77.51,49.99 75.88,51.62 73.83,52.64 71.77,53.65 69.49,53.96 67.22,54.27 64.96,53.84 62.71,53.40 60.71,52.27 58.71,51.14 57.18,49.43 55.65,47.72 54.74,45.61 53.83,43.50 53.65,41.21 53.46,38.92 54.02,36.69 54.58,34.47 55.81,32.53 57.05,30.60 58.84,29.16 60.63,27.72 62.79,26.93 64.95,26.14 67.24,26.08 69.54,26.02 71.73,26.70 73.93,27.37 75.79,28.71 77.65,30.06 78.99,31.92 80.33,33.79 81.00,35.98 81.68,38.18 81.61,40.47 81.55,42.77 80.75,44.92 79.96,47.08 78.52,48.87 77.08,50.66 75.14,51.89 73.21,53.13 70.98,53.68 68.75,54.23 68.75,54.23 68.75,54.23 64.57,54.53 60.39,54.83 53.93,54.76 47.47,54.70 52.40,53.54 57.33,52.39 55.81,53.16 54.28,53.93 52.62,54.31 50.96,54.70 49.25,54.67 47.55,54.64 45.90,54.21 44.25,53.78 42.75,52.96 41.25,52.15 39.99,51.00 38.73,49.85 37.78,48.43 36.83,47.01 36.25,45.41 35.67,43.80 35.49,42.10 35.31,40.41 35.54,38.72 35.77,37.03 36.40,35.44 37.03,33.85 38.02,32.46 39.01,31.07 40.30,29.96 41.60,28.85 42.18,28.42 42.77,27.99 46.41,24.80 50.05,21.61 53.08,18.58 56.11,15.56 59.32,12.05 62.53,8.54 66.80,4.93 71.07,1.32 72.66,0.90 74.25,0.49 75.89,0.47 77.54,0.44 79.14,0.82 80.74,1.19 82.21,1.94 83.67,2.68 84.92,3.76 86.16,4.83 87.11,6.17 88.07,7.51 88.67,9.04 89.27,10.57 89.49,12.20 89.71,13.83 89.53,15.47 89.36,17.10 88.79,18.65 88.23,20.19 87.31,21.56 86.40,22.92 85.18,24.03 83.96,25.14 82.52,25.92 81.07,26.70 80.61,26.73 80.16,26.76 74.64,28.61 69.13,30.47 64.50,31.82 59.86,33.17 55.58,34.17 51.30,35.16 46.96,36.46 42.62,37.75 36.39,37.89 30.16,38.04 28.86,39.03 27.57,40.03 26.07,40.69 24.57,41.35 22.96,41.64 21.35,41.92 19.71,41.80 18.08,41.69 16.52,41.19 14.96,40.69 13.57,39.83 12.17,38.98 11.03,37.81 9.88,36.64 9.04,35.23 8.21,33.83 7.73,32.26 7.26,30.69 7.17,29.06 7.09,27.42 7.40,25.82 7.70,24.21 8.39,22.72 9.07,21.23 10.09,19.95 11.11,18.67 12.37,17.36 13.62,16.06 17.65,13.23 21.67,10.40 26.04,7.64 30.42,4.88 36.85,1.26 43.28,-2.35 48.36,-4.92 53.43,-7.48 54.96,-7.73 56.48,-7.98 58.02,-7.86 59.56,-7.75 61.03,-7.26 62.49,-6.78 63.80,-5.95 65.11,-5.13 66.18,-4.02 67.26,-2.91 68.03,-1.58 68.81,-0.24 69.24,1.23 69.68,2.71 69.74,4.26 69.81,5.80 69.51,7.31 69.20,8.83 68.55,10.22 67.89,11.62 66.91,12.82 65.94,14.02 64.71,14.95 63.48,15.88 62.06,16.49 60.64,17.10 59.33,17.20 58.01,17.30 52.83,19.05 47.64,20.80 42.75,21.61 37.86,22.42 33.58,23.38 29.30,24.35 23.54,25.37 17.79,26.39 12.26,27.20 6.73,28.01 2.44,27.28 -1.83,26.56 -3.13,27.03 -4.43,27.50 -5.80,27.65 -7.18,27.80 -8.55,27.61 -9.92,27.43 -11.20,26.92 -12.49,26.41 -13.61,25.61 -14.74,24.81 -15.64,23.76 -16.54,22.71 -17.16,21.48 -17.79,20.25 -18.10,18.90 -18.41,17.55 -18.39,16.17 -18.37,14.79 -18.02,13.45 -17.67,12.12 -17.01,10.90 -16.35,9.69 -15.42,8.67 -14.49,7.65 -13.34,6.88 -12.19,6.11 -7.75,4.02 -3.31,1.92 1.43,-0.35 6.17,-2.63 10.73,-5.08 15.29,-7.53 19.57,-10.10 23.84,-12.66 27.88,-14.59 31.92,-16.52 33.21,-16.61 34.51,-16.69 35.79,-16.47 37.07,-16.25 38.26,-15.73 39.45,-15.20 40.48,-14.41 41.51,-13.62 42.32,-12.60 43.13,-11.59 43.67,-10.41 44.21,-9.23 44.46,-7.95 44.70,-6.68 44.64,-5.38 44.57,-4.08 44.19,-2.84 43.82,-1.60 43.16,-0.48 42.49,0.63 41.58,1.56 40.67,2.48 39.57,3.16 38.46,3.85 37.22,4.24 35.99,4.64 39.15,1.16 42.31,-2.31 35.51,1.34 28.71,5.00 22.51,5.81 16.30,6.61 8.88,8.08 1.46,9.54 0.30,9.58 -0.85,9.62 -1.99,9.38 -3.13,9.13 -4.18,8.63 -5.23,8.12 -6.12,7.37 -7.02,6.63 -7.71,5.69 -8.40,4.75 -8.85,3.68 -9.30,2.60 -9.47,1.45 -9.65,0.30 -9.55,-0.85 -9.44,-2.01 -9.07,-3.11 -8.69,-4.21 -8.06,-5.19 -7.43,-6.17 -6.58,-6.97 -5.73,-7.77 -4.72,-8.34 -3.71,-8.92 -2.58,-9.23 -1.46,-9.54 -1.46,-9.54 L -1.46,-9.54 Z"/></g><g transform="translate(52.752151379258976 894.0237628148672) rotate(0 37.958380692541766 18.646222094581958)" stroke="none"><path fill="#fd7e14" d="M -3.74,-9.54 Q -3.74,-9.54 1.62,-11.61 7.00,-13.68 11.00,-15.19 15.01,-16.69 20.06,-18.62 25.12,-20.55 27.80,-21.69 30.47,-22.84 31.84,-22.98 33.22,-23.13 34.58,-22.94 35.95,-22.75 37.24,-22.24 38.52,-21.73 39.65,-20.93 40.77,-20.13 41.67,-19.08 42.57,-18.04 43.19,-16.80 43.82,-15.57 44.13,-14.22 44.44,-12.88 44.41,-11.50 44.39,-10.12 44.04,-8.78 43.69,-7.44 43.03,-6.23 42.37,-5.02 41.44,-4.00 40.51,-2.98 39.36,-2.21 38.21,-1.45 36.91,-0.98 35.61,-0.51 31.78,6.45 27.96,13.41 22.82,18.62 17.68,23.84 15.96,26.16 14.24,28.47 13.12,29.41 12.00,30.34 10.69,30.98 9.38,31.62 7.96,31.93 6.53,32.24 5.07,32.20 3.62,32.16 2.21,31.77 0.81,31.38 -0.46,30.66 -1.73,29.95 -2.79,28.95 -3.86,27.95 -4.65,26.73 -5.44,25.51 -5.92,24.13 -6.40,22.75 -6.53,21.30 -6.67,19.85 -6.45,18.40 -6.23,16.96 -5.68,15.61 -5.12,14.26 -4.26,13.09 -3.40,11.91 4.42,8.51 12.25,5.11 18.49,2.39 24.72,-0.32 30.38,-2.81 36.05,-5.30 46.51,-3.70 56.96,-2.10 57.03,6.79 57.10,15.70 53.96,20.86 50.82,26.02 46.92,31.29 43.01,36.56 39.60,41.04 36.20,45.52 32.89,48.91 29.59,52.30 28.17,53.18 26.75,54.07 25.17,54.59 23.58,55.11 21.92,55.23 20.25,55.36 18.60,55.08 16.96,54.80 15.42,54.14 13.89,53.48 12.56,52.46 11.23,51.45 10.19,50.15 9.14,48.85 8.43,47.34 7.72,45.83 7.40,44.19 7.07,42.55 7.15,40.88 7.23,39.22 7.70,37.62 8.18,36.01 9.02,34.57 9.86,33.13 11.03,31.93 12.19,30.74 18.78,28.51 25.36,26.27 31.19,24.82 37.01,23.37 43.04,21.84 49.06,20.32 54.47,19.16 59.89,18.01 65.55,17.04 71.20,16.07 72.14,15.92 73.08,15.77 74.57,15.78 76.07,15.79 77.52,16.15 78.97,16.52 80.29,17.22 81.61,17.92 82.72,18.91 83.84,19.91 84.68,21.14 85.53,22.38 86.05,23.78 86.57,25.18 86.75,26.66 86.92,28.15 86.73,29.63 86.55,31.12 86.01,32.51 85.47,33.91 84.62,35.13 83.76,36.36 82.64,37.35 81.52,38.33 80.19,39.02 78.86,39.71 77.41,40.06 75.96,40.41 69.91,44.11 63.86,47.80 58.45,51.03 53.04,54.26 49.36,56.41 45.68,58.56 47.13,57.52 48.58,56.47 47.21,58.08 45.84,59.68 44.04,60.77 42.23,61.86 40.17,62.31 38.11,62.76 36.01,62.54 33.91,62.31 32.00,61.42 30.09,60.53 28.55,59.08 27.02,57.63 26.04,55.77 25.05,53.90 24.71,51.82 24.37,49.74 24.71,47.66 25.05,45.58 26.04,43.71 27.03,41.85 28.56,40.40 30.09,38.95 32.01,38.07 33.92,37.18 36.02,36.95 38.12,36.73 40.18,37.18 42.24,37.63 44.04,38.72 45.85,39.81 47.21,41.42 48.58,43.03 49.36,44.99 50.14,46.95 50.25,49.05 50.37,51.16 49.80,53.19 49.24,55.22 48.05,56.97 46.87,58.71 45.19,59.99 43.51,61.27 41.51,61.94 39.51,62.61 37.40,62.61 35.29,62.61 33.29,61.94 31.29,61.26 29.61,59.98 27.94,58.71 26.75,56.96 25.57,55.21 25.01,53.18 24.44,51.15 24.56,49.04 24.67,46.94 25.45,44.98 26.24,43.02 26.24,43.02 26.23,43.02 31.86,38.32 37.49,33.62 41.26,31.57 45.03,29.52 51.68,25.93 58.33,22.35 65.70,19.06 73.08,15.77 74.57,15.78 76.07,15.79 77.52,16.15 78.97,16.52 80.29,17.22 81.61,17.92 82.72,18.91 83.84,19.91 84.68,21.14 85.53,22.38 86.05,23.78 86.57,25.18 86.75,26.66 86.92,28.15 86.73,29.63 86.55,31.12 86.01,32.51 85.47,33.91 84.62,35.13 83.77,36.36 82.64,37.35 81.52,38.33 80.19,39.02 78.86,39.71 77.41,40.06 75.96,40.41 75.01,40.44 74.06,40.47 69.65,40.89 65.25,41.31 60.72,42.44 56.20,43.58 50.54,45.64 44.89,47.70 37.24,50.00 29.59,52.30 28.17,53.18 26.76,54.07 25.17,54.59 23.58,55.11 21.92,55.23 20.25,55.36 18.61,55.08 16.96,54.80 15.43,54.14 13.89,53.48 12.56,52.47 11.24,51.45 10.19,50.15 9.14,48.86 8.43,47.34 7.72,45.83 7.40,44.19 7.07,42.55 7.15,40.89 7.23,39.22 7.70,37.62 8.18,36.02 9.02,34.57 9.86,33.13 11.03,31.94 12.19,30.74 14.01,28.96 15.83,27.17 20.09,22.29 24.34,17.41 27.16,13.78 29.99,10.16 34.26,10.30 38.52,10.45 42.80,13.87 47.08,17.30 42.78,18.51 38.48,19.72 32.93,21.93 27.38,24.13 20.81,26.30 14.24,28.47 13.12,29.41 12.01,30.34 10.70,30.98 9.39,31.62 7.96,31.93 6.53,32.24 5.08,32.20 3.62,32.16 2.21,31.77 0.81,31.38 -0.46,30.67 -1.73,29.95 -2.79,28.95 -3.85,27.95 -4.65,26.73 -5.44,25.51 -5.92,24.13 -6.40,22.75 -6.53,21.30 -6.67,19.85 -6.45,18.40 -6.23,16.96 -5.68,15.61 -5.12,14.26 -4.26,13.09 -3.40,11.91 -0.76,9.18 1.87,6.44 6.37,2.41 10.87,-1.61 16.11,-7.20 21.36,-12.79 25.91,-17.81 30.47,-22.84 31.84,-22.98 33.22,-23.13 34.58,-22.94 35.95,-22.75 37.24,-22.24 38.52,-21.74 39.64,-20.93 40.77,-20.13 41.67,-19.08 42.57,-18.04 43.19,-16.80 43.82,-15.57 44.13,-14.23 44.44,-12.88 44.41,-11.50 44.39,-10.12 44.04,-8.78 43.69,-7.45 43.03,-6.23 42.37,-5.02 41.44,-4.00 40.51,-2.98 39.36,-2.21 38.21,-1.45 36.91,-0.98 35.61,-0.51 32.03,0.35 28.44,1.22 21.44,3.24 14.44,5.26 9.09,7.40 3.74,9.54 2.55,9.85 1.35,10.16 0.12,10.17 -1.11,10.18 -2.31,9.90 -3.52,9.62 -4.62,9.06 -5.72,8.50 -6.65,7.69 -7.59,6.88 -8.30,5.87 -9.01,4.87 -9.47,3.72 -9.92,2.57 -10.08,1.34 -10.25,0.12 -10.11,-1.10 -9.98,-2.33 -9.55,-3.49 -9.13,-4.65 -8.44,-5.68 -7.75,-6.70 -6.83,-7.53 -5.92,-8.36 -4.83,-8.95 -3.74,-9.54 -3.74,-9.54 L -3.74,-9.54 Z"/></g><g transform="translate(70.066500467085 784.8101762608874) rotate(0 4.328587271956565 31.29901565876247)" stroke="none"><path fill="#fd7e14" d="M -2.35,-10.02 Q -2.35,-10.02 4.19,-11.36 10.75,-12.70 12.71,-13.14 14.66,-13.59 15.89,-13.73 17.12,-13.86 18.35,-13.70 19.58,-13.54 20.73,-13.09 21.88,-12.64 22.89,-11.92 23.91,-11.21 24.72,-10.27 25.53,-9.34 26.09,-8.24 26.65,-7.13 26.94,-5.93 27.22,-4.72 27.21,-3.49 27.20,-2.25 26.89,-1.05 26.58,0.14 25.99,1.23 25.40,2.32 24.57,3.24 23.74,4.15 22.72,4.85 21.69,5.54 20.53,5.96 19.37,6.39 14.86,11.17 10.35,15.95 6.74,18.30 3.14,20.66 -1.16,13.79 -5.47,6.93 0.59,6.88 6.66,6.82 12.36,6.62 18.05,6.42 21.98,5.83 25.90,5.24 27.42,4.95 28.95,4.66 30.49,4.75 32.04,4.83 33.52,5.28 35.00,5.73 36.33,6.52 37.66,7.32 38.76,8.40 39.87,9.49 40.68,10.81 41.49,12.13 41.96,13.61 42.43,15.08 42.53,16.63 42.63,18.17 42.37,19.70 42.10,21.22 41.47,22.64 40.84,24.05 39.90,25.28 38.95,26.50 37.74,27.47 36.53,28.43 35.12,29.07 33.71,29.72 27.46,33.11 21.22,36.51 15.04,39.95 8.87,43.39 3.84,46.92 -1.18,50.45 -5.02,53.75 -8.87,57.05 -12.35,49.48 -15.83,41.92 -19.83,40.48 -23.84,39.05 -15.86,36.93 -7.88,34.81 -1.57,33.02 4.72,31.22 9.76,29.83 14.79,28.44 24.75,30.35 34.71,32.25 33.87,40.98 33.03,49.71 28.19,53.18 23.35,56.66 17.81,59.14 12.26,61.61 7.88,64.11 3.51,66.61 0.29,69.52 -2.92,72.44 -5.72,75.33 -8.52,78.23 -9.93,79.09 -11.34,79.96 -12.91,80.46 -14.49,80.97 -16.13,81.08 -17.78,81.20 -19.41,80.91 -21.04,80.63 -22.55,79.96 -24.06,79.30 -25.37,78.29 -26.68,77.28 -27.71,75.99 -28.74,74.70 -29.43,73.19 -30.13,71.69 -30.44,70.07 -30.75,68.45 -30.66,66.80 -30.58,65.15 -30.10,63.56 -29.62,61.98 -28.78,60.56 -27.93,59.14 -26.77,57.96 -25.62,56.78 -15.72,55.69 -5.82,54.60 1.06,54.42 7.95,54.25 10.34,54.18 12.73,54.10 14.84,54.42 16.95,54.73 18.84,55.70 20.74,56.67 22.23,58.19 23.72,59.72 24.64,61.64 25.56,63.56 25.83,65.67 26.09,67.78 25.66,69.87 25.24,71.96 24.17,73.80 23.10,75.64 21.49,77.05 19.89,78.45 17.92,79.27 15.96,80.09 13.83,80.23 11.71,80.38 9.64,79.84 7.58,79.30 5.80,78.13 4.02,76.97 2.71,75.29 1.39,73.61 0.68,71.60 -0.02,69.60 -0.05,67.47 -0.08,65.34 0.56,63.31 1.21,61.28 2.47,59.56 3.73,57.85 5.48,56.63 7.22,55.40 9.27,54.80 11.31,54.20 13.44,54.29 15.57,54.37 17.56,55.13 19.55,55.89 21.19,57.24 22.84,58.60 23.96,60.41 25.09,62.21 25.58,64.29 26.07,66.36 25.87,68.48 25.67,70.60 24.81,72.55 23.94,74.50 22.50,76.06 21.06,77.63 19.19,78.66 17.32,79.68 15.23,80.06 13.13,80.44 13.13,80.44 13.13,80.44 7.43,80.50 1.73,80.56 -3.39,79.39 -8.52,78.22 -9.93,79.09 -11.34,79.96 -12.91,80.46 -14.48,80.97 -16.13,81.08 -17.78,81.20 -19.41,80.91 -21.04,80.63 -22.55,79.96 -24.06,79.30 -25.37,78.29 -26.68,77.28 -27.71,75.99 -28.74,74.70 -29.43,73.20 -30.13,71.69 -30.44,70.07 -30.75,68.45 -30.66,66.80 -30.58,65.15 -30.10,63.56 -29.62,61.98 -28.78,60.56 -27.93,59.14 -26.78,57.96 -25.62,56.78 -22.62,53.81 -19.62,50.83 -15.12,47.64 -10.62,44.44 -5.10,41.43 0.42,38.42 5.26,35.60 10.09,32.78 14.42,31.27 18.74,29.76 17.79,38.19 16.83,46.63 19.26,50.40 21.68,54.17 17.24,55.33 12.81,56.50 6.00,58.53 -0.80,60.56 -7.81,62.51 -14.82,64.45 -21.36,63.40 -27.89,62.34 -28.04,50.75 -28.20,39.17 -24.84,36.50 -21.48,33.82 -15.46,29.27 -9.43,24.71 -3.28,21.09 2.85,17.46 9.63,13.84 16.41,10.23 21.15,7.73 25.90,5.24 27.42,4.95 28.94,4.66 30.49,4.75 32.04,4.83 33.52,5.28 35.00,5.73 36.33,6.52 37.66,7.31 38.76,8.40 39.87,9.49 40.68,10.81 41.49,12.13 41.96,13.60 42.43,15.08 42.53,16.62 42.64,18.17 42.37,19.69 42.10,21.22 41.47,22.64 40.85,24.05 39.90,25.28 38.95,26.50 37.74,27.47 36.53,28.43 35.12,29.07 33.71,29.72 33.14,29.80 32.57,29.89 27.41,30.47 22.24,31.05 16.64,30.92 11.05,30.80 3.96,30.16 -3.11,29.52 -7.47,28.06 -11.84,26.60 -12.77,15.89 -13.70,5.18 -8.29,1.90 -2.89,-1.36 2.06,-4.95 7.01,-8.53 10.84,-11.06 14.66,-13.59 15.89,-13.73 17.12,-13.86 18.35,-13.70 19.58,-13.54 20.73,-13.09 21.88,-12.64 22.89,-11.92 23.91,-11.21 24.72,-10.27 25.53,-9.34 26.09,-8.24 26.65,-7.13 26.94,-5.93 27.22,-4.72 27.21,-3.49 27.20,-2.25 26.89,-1.05 26.58,0.14 25.99,1.23 25.40,2.32 24.57,3.24 23.74,4.15 22.72,4.85 21.69,5.54 20.53,5.96 19.37,6.39 17.32,6.48 15.28,6.57 8.82,8.30 2.35,10.02 1.12,10.16 -0.10,10.30 -1.34,10.14 -2.57,9.97 -3.72,9.52 -4.88,9.07 -5.89,8.35 -6.91,7.63 -7.72,6.70 -8.54,5.76 -9.10,4.65 -9.67,3.55 -9.95,2.34 -10.24,1.13 -10.22,-0.10 -10.21,-1.35 -9.90,-2.55 -9.59,-3.75 -9.00,-4.84 -8.41,-5.94 -7.58,-6.86 -6.74,-7.78 -5.72,-8.47 -4.69,-9.17 -3.52,-9.60 -2.35,-10.02 -2.35,-10.02 L -2.35,-10.02 Z"/></g><g transform="translate(96.03802409882428 754.8430336088807) rotate(0 38.29134894423072 -2.3307777618227306)" stroke="none"><path fill="#fd7e14" d="M -5.15,-9.12 Q -5.15,-9.12 -0.76,-11.64 3.62,-14.17 9.05,-16.34 14.48,-18.52 18.52,-20.02 22.56,-21.51 23.87,-21.80 25.19,-22.08 26.53,-22.05 27.87,-22.01 29.16,-21.65 30.46,-21.29 31.63,-20.63 32.80,-19.98 33.78,-19.06 34.76,-18.14 35.49,-17.01 36.22,-15.89 36.66,-14.62 37.10,-13.35 37.23,-12.02 37.35,-10.68 37.15,-9.35 36.95,-8.02 36.44,-6.78 35.93,-5.54 35.14,-4.46 34.34,-3.37 33.31,-2.51 32.28,-1.65 31.08,-1.06 29.87,-0.47 28.51,6.11 27.16,12.69 24.73,18.02 22.31,23.35 21.24,26.18 20.18,29.02 19.35,30.24 18.52,31.46 17.43,32.44 16.33,33.43 15.03,34.12 13.73,34.82 12.31,35.18 10.88,35.54 9.40,35.55 7.93,35.56 6.50,35.22 5.07,34.88 3.76,34.20 2.45,33.53 1.34,32.56 0.23,31.59 -0.61,30.38 -1.45,29.18 -1.98,27.80 -2.52,26.43 -2.71,24.97 -2.89,23.51 -2.73,22.04 -2.56,20.58 -2.05,19.20 -1.53,17.82 4.42,12.35 10.39,6.88 15.24,1.66 20.10,-3.56 23.99,-8.15 27.89,-12.73 30.32,-16.25 32.76,-19.76 35.26,-23.29 37.76,-26.82 38.52,-27.02 39.28,-27.22 40.32,-28.40 41.36,-29.59 42.65,-30.49 43.94,-31.40 45.41,-31.97 46.88,-32.53 48.45,-32.73 50.01,-32.93 51.58,-32.75 53.14,-32.57 54.62,-32.02 56.10,-31.47 57.40,-30.58 58.71,-29.69 59.76,-28.52 60.81,-27.34 61.55,-25.95 62.29,-24.56 62.68,-23.03 63.07,-21.50 63.07,-19.92 63.08,-18.35 62.72,-16.81 62.35,-15.28 61.62,-13.88 60.90,-12.48 57.80,-6.99 54.71,-1.50 52.60,2.50 50.50,6.52 49.57,11.49 48.63,16.47 46.41,21.68 44.19,26.89 44.59,28.16 44.99,29.43 44.37,30.92 43.75,32.41 42.79,33.71 41.84,35.01 40.60,36.04 39.36,37.07 37.90,37.77 36.45,38.48 34.88,38.81 33.30,39.15 31.69,39.10 30.08,39.05 28.52,38.61 26.97,38.18 25.57,37.38 24.16,36.59 22.99,35.48 21.82,34.37 20.94,33.02 20.07,31.66 19.55,30.14 19.02,28.61 18.88,27.00 18.73,25.40 18.98,23.80 19.23,22.21 22.48,17.95 25.73,13.69 29.03,10.04 32.33,6.38 35.30,2.68 38.27,-1.01 40.91,-4.95 43.55,-8.89 46.06,-13.78 48.56,-18.68 52.20,-23.57 55.85,-28.46 58.60,-32.34 61.35,-36.21 65.30,-39.29 69.26,-42.37 68.66,-42.09 68.06,-41.82 69.52,-42.62 70.98,-43.42 72.59,-43.86 74.20,-44.29 75.87,-44.32 77.53,-44.35 79.16,-43.99 80.78,-43.62 82.28,-42.88 83.77,-42.13 85.04,-41.05 86.31,-39.97 87.28,-38.62 88.25,-37.27 88.88,-35.72 89.50,-34.18 89.73,-32.53 89.97,-30.88 89.80,-29.22 89.63,-27.56 89.07,-25.99 88.51,-24.42 87.59,-23.03 86.67,-21.64 85.45,-20.51 84.22,-19.38 84.91,-13.77 85.59,-8.16 84.77,-3.43 83.96,1.29 83.28,4.83 82.60,8.37 82.08,10.46 81.56,12.55 80.40,14.37 79.23,16.19 77.55,17.54 75.87,18.89 73.85,19.64 71.82,20.38 69.67,20.44 67.51,20.50 65.45,19.86 63.39,19.23 61.64,17.97 59.88,16.72 58.62,14.96 57.37,13.21 56.73,11.15 56.10,9.09 56.16,6.93 56.22,4.78 56.96,2.75 57.70,0.73 59.05,-0.94 60.40,-2.63 62.22,-3.79 64.04,-4.95 66.13,-5.47 68.23,-5.99 70.38,-5.82 72.53,-5.64 74.51,-4.79 76.49,-3.94 78.09,-2.50 79.70,-1.06 80.76,0.81 81.82,2.69 82.23,4.81 82.64,6.93 82.35,9.06 82.05,11.20 81.10,13.13 80.14,15.06 78.61,16.59 77.09,18.12 75.15,19.07 73.22,20.03 71.09,20.32 68.95,20.61 66.83,20.21 64.71,19.80 62.83,18.74 60.96,17.68 59.52,16.07 58.08,14.47 57.22,12.49 56.37,10.50 56.20,8.35 56.02,6.20 56.02,6.21 56.02,6.21 57.02,2.00 58.02,-2.20 59.06,-7.12 60.10,-12.04 60.68,-16.27 61.27,-20.51 64.66,-31.16 68.06,-41.82 69.52,-42.62 70.98,-43.42 72.59,-43.85 74.20,-44.29 75.87,-44.32 77.53,-44.35 79.16,-43.99 80.78,-43.62 82.27,-42.88 83.77,-42.13 85.04,-41.05 86.30,-39.97 87.28,-38.62 88.25,-37.27 88.88,-35.72 89.50,-34.18 89.73,-32.53 89.97,-30.88 89.80,-29.22 89.63,-27.56 89.07,-25.99 88.51,-24.42 87.59,-23.03 86.67,-21.64 85.45,-20.51 84.22,-19.38 81.45,-16.73 78.68,-14.07 74.78,-9.34 70.88,-4.61 67.87,0.14 64.85,4.90 61.46,9.46 58.06,14.03 55.01,18.23 51.97,22.43 48.48,25.93 44.99,29.43 44.37,30.92 43.75,32.41 42.80,33.71 41.84,35.01 40.60,36.04 39.36,37.07 37.91,37.77 36.46,38.48 34.88,38.81 33.30,39.15 31.69,39.10 30.08,39.05 28.52,38.61 26.97,38.18 25.57,37.38 24.16,36.59 22.99,35.48 21.82,34.37 20.94,33.02 20.07,31.66 19.55,30.14 19.02,28.61 18.88,27.01 18.73,25.40 18.98,23.81 19.22,22.21 19.86,19.51 20.50,16.80 23.24,11.12 25.98,5.44 26.93,0.75 27.88,-3.93 30.16,-8.98 32.44,-14.03 35.86,-20.62 39.28,-27.22 40.32,-28.40 41.35,-29.59 42.65,-30.49 43.94,-31.40 45.41,-31.97 46.88,-32.53 48.45,-32.73 50.01,-32.93 51.58,-32.75 53.14,-32.57 54.62,-32.02 56.10,-31.47 57.40,-30.58 58.71,-29.69 59.76,-28.52 60.81,-27.34 61.55,-25.95 62.29,-24.56 62.68,-23.03 63.07,-21.50 63.07,-19.93 63.08,-18.35 62.72,-16.82 62.35,-15.28 61.62,-13.88 60.90,-12.48 59.38,-11.57 57.86,-10.65 53.99,-6.03 50.13,-1.41 46.13,3.21 42.14,7.84 37.40,12.64 32.67,17.44 26.43,23.23 20.18,29.02 19.35,30.24 18.52,31.46 17.43,32.44 16.33,33.43 15.03,34.12 13.73,34.82 12.31,35.18 10.88,35.54 9.41,35.55 7.93,35.56 6.50,35.22 5.07,34.88 3.76,34.20 2.45,33.53 1.34,32.56 0.23,31.59 -0.61,30.38 -1.45,29.18 -1.98,27.80 -2.52,26.43 -2.70,24.97 -2.89,23.51 -2.73,22.04 -2.56,20.58 -2.05,19.20 -1.53,17.82 -0.48,15.86 0.57,13.91 3.83,7.66 7.08,1.42 10.54,-4.95 13.99,-11.33 18.28,-16.42 22.56,-21.51 23.87,-21.80 25.18,-22.08 26.53,-22.05 27.87,-22.01 29.16,-21.65 30.46,-21.29 31.63,-20.64 32.80,-19.98 33.78,-19.06 34.76,-18.14 35.49,-17.02 36.22,-15.89 36.66,-14.62 37.10,-13.35 37.23,-12.02 37.35,-10.68 37.15,-9.35 36.95,-8.02 36.44,-6.78 35.93,-5.54 35.14,-4.46 34.34,-3.37 33.31,-2.51 32.28,-1.65 31.08,-1.06 29.87,-0.47 25.98,0.39 22.09,1.27 18.04,2.74 13.98,4.21 9.57,6.67 5.15,9.12 3.99,9.61 2.82,10.09 1.57,10.28 0.32,10.47 -0.93,10.36 -2.19,10.25 -3.38,9.84 -4.58,9.43 -5.64,8.74 -6.70,8.05 -7.57,7.14 -8.43,6.22 -9.06,5.12 -9.68,4.02 -10.02,2.80 -10.36,1.58 -10.40,0.32 -10.44,-0.93 -10.17,-2.17 -9.91,-3.41 -9.36,-4.54 -8.80,-5.68 -8.00,-6.65 -7.19,-7.62 -6.17,-8.37 -5.15,-9.12 -5.15,-9.12 L -5.15,-9.12 Z"/></g><g stroke-linecap="round"><g transform="translate(550 390) rotate(0 120 10)"><path d="M-0.1 1.03 C19.86 7.77, 80.59 43.11, 120.53 39.45 C160.47 35.78, 219.63 -11.05, 239.55 -20.95 M-1.61 0.53 C18.17 7.51, 79.83 44.14, 119.86 40.69 C159.88 37.25, 218.47 -10.21, 238.54 -20.13" stroke="#fd7e14" stroke-width="1" fill="none"/></g><g transform="translate(550 390) rotate(0 120 10)"><path d="M221.81 4.41 C226.12 -5.87, 232.22 -13.72, 238.65 -19.77 M220.73 3.59 C226.09 -5.44, 233.2 -13.11, 239.1 -20.24" stroke="#fd7e14" stroke-width="1" fill="none"/></g><g transform="translate(550 390) rotate(0 120 10)"><path d="M210.92 -12.98 C219.07 -16.89, 229.15 -18.37, 238.65 -19.77 M209.84 -13.8 C219.03 -16.55, 230.07 -17.94, 239.1 -20.24" stroke="#fd7e14" stroke-width="1" fill="none"/></g></g><mask/><g stroke-linecap="round" transform="translate(450 690) rotate(0 140 60)"><path d="M-1.07 0.41 L279.59 -0.04 L278.69 118.53 L-1.03 121.37" stroke="none" stroke-width="0" fill="#fd7e14"/><path d="M-1.15 0.08 C88.74 -0.63, 177.02 -3.32, 279.94 0.9 M0.33 0.57 C72.37 -2.4, 146.38 -2.53, 280.64 -0.29 M278.8 -1.96 C279.14 38.54, 279.93 78.77, 278.04 119.43 M279.37 -0.15 C279.87 45.22, 280.8 89.28, 279.36 119.3 M278.84 121.13 C213.82 121.36, 146.78 119.83, 0.87 120.52 M280.16 119.44 C183.69 121.25, 87.21 121.49, 0.03 120.46 M-0.67 120.16 C0.52 72.6, -0.78 28.56, 1.06 -0.23 M-0.77 120.92 C0.69 78.18, -0.69 34.68, -0.89 0.35" stroke="#000000" stroke-width="1" fill="none"/></g><g transform="translate(455 711.6) rotate(0 131.95730590820312 38.39999999999999)"><text x="0" y="0" font-family="Helvetica, Segoe UI Emoji" font-size="16.44876999520984px" fill="#000000" text-anchor="start" style="white-space: pre;" direction="ltr" dominant-baseline="text-before-edge">Прочитан потребителем, помечен </text><text x="0" y="19.2" font-family="Helvetica, Segoe UI Emoji" font-size="16.44876999520984px" fill="#000000" text-anchor="start" style="white-space: pre;" direction="ltr" dominant-baseline="text-before-edge">как доступный для продюсера и </text><text x="0" y="38.4" font-family="Helvetica, Segoe UI Emoji" font-size="16.44876999520984px" fill="#000000" text-anchor="start" style="white-space: pre;" direction="ltr" dominant-baseline="text-before-edge">уже захвачен продюсером для </text><text x="0" y="57.599999999999994" font-family="Helvetica, Segoe UI Emoji" font-size="16.44876999520984px" fill="#000000" text-anchor="start" style="white-space: pre;" direction="ltr" dominant-baseline="text-before-edge">записи следующего сообщения.</text></g><g stroke-linecap="round"><g transform="translate(450 730) rotate(0 -59.63908909298479 30.755490415674046)"><path d="M-1.14 0.14 C-11.08 7.21, -39.64 31.67, -59.45 41.92 C-79.26 52.17, -110.04 58.56, -120 61.65 M0.47 -0.83 C-9.66 5.92, -40.83 29.36, -60.49 40.01 C-80.15 50.65, -107.74 59.53, -117.48 63.04" stroke="#fd7e14" stroke-width="2" fill="none"/></g></g><mask/><g stroke-linecap="round" transform="translate(410 989.9) rotate(0 170 43.5)"><path d="M0.08 0.01 L338.6 -0.53 L338.45 86.36 L-1.23 86.16" stroke="none" stroke-width="0" fill="#40c057"/><path d="M-1.25 -1.2 C95.27 0.59, 192.18 -0.05, 338.68 -1.02 M0.07 0.51 C112.99 -2.02, 225.69 -2.49, 340.27 -0.05 M340.9 -1.93 C339.54 30.11, 341.16 59.38, 339.61 85.04 M340.4 -0.22 C339.52 34.25, 339.98 66.94, 340.44 86.64 M339.21 86.3 C217.85 85.04, 96.2 83.77, -0.52 86.76 M340.23 86.69 C251.08 85.63, 162.39 84.82, -0.18 87.48 M0.02 88.4 C1.51 53.35, 0.12 21.84, -1.93 -1.45 M-0.34 86.26 C-0.81 62.83, -0.48 37.84, 0.92 -0.94" stroke="#000" stroke-width="1" fill="none"/></g><g transform="translate(415 1004.5999999999999) rotate(0 162.38040161132812 28.799999999999983)"><text x="0" y="0" font-family="Helvetica, Segoe UI Emoji" font-size="16.44876999520984px" fill="#000" text-anchor="start" style="white-space: pre;" direction="ltr" dominant-baseline="text-before-edge">Его читает потребитель и пока еще не </text><text x="0" y="19.2" font-family="Helvetica, Segoe UI Emoji" font-size="16.44876999520984px" fill="#000" text-anchor="start" style="white-space: pre;" direction="ltr" dominant-baseline="text-before-edge">опубликовал в барьере продюсера номер </text><text x="0" y="38.4" font-family="Helvetica, Segoe UI Emoji" font-size="16.44876999520984px" fill="#000" text-anchor="start" style="white-space: pre;" direction="ltr" dominant-baseline="text-before-edge">слота как прочтенный</text></g><g stroke-linecap="round" transform="translate(430 870) rotate(0 160.5 40)"><path d="M-1.16 1.05 L320.59 -1.52 L322.42 79.66 L-1.62 79.54" stroke="none" stroke-width="0" fill="#40c057"/><path d="M1.18 -1.17 C109.46 -2.01, 219.83 -1.34, 320.02 -1.39 M-0.56 -0.5 C83.9 0.55, 167.11 1.15, 320.8 -0.58 M320.09 0.24 C321.6 23.18, 322.69 42.15, 320.72 79.32 M321.15 0.7 C320.08 15.53, 319.74 32.72, 320.65 79.58 M321.01 79.02 C194.7 79.01, 68.68 79.23, -0.59 78.86 M320.65 80.64 C235.11 82.39, 149.6 82.12, 0.11 79.46 M-1.2 80.44 C0.55 59.92, -2.31 39.9, 1.21 -1.96 M-0.84 79.12 C0.6 62.4, 0.6 46.15, 0.66 0.43" stroke="#000" stroke-width="1" fill="none"/></g><g transform="translate(435 881.2) rotate(0 147.16294860839844 28.799999999999983)"><text x="0" y="0" font-family="Helvetica, Segoe UI Emoji" font-size="16.44876999520984px" fill="#000" text-anchor="start" style="white-space: pre;" direction="ltr" dominant-baseline="text-before-edge">Помечен потребителем как </text><text x="0" y="19.2" font-family="Helvetica, Segoe UI Emoji" font-size="16.44876999520984px" fill="#000" text-anchor="start" style="white-space: pre;" direction="ltr" dominant-baseline="text-before-edge">прочитанный и доступный для записи </text><text x="0" y="38.4" font-family="Helvetica, Segoe UI Emoji" font-size="16.44876999520984px" fill="#000" text-anchor="start" style="white-space: pre;" direction="ltr" dominant-baseline="text-before-edge">продюсером</text></g><g stroke-linecap="round" transform="translate(990 410) rotate(0 80 40)"><path d="M0.87 0.55 L161.38 0.94 L159.58 78.92 L1.92 78.38" stroke="none" stroke-width="0" fill="#40c057"/><path d="M1.27 0.97 C45.67 -2.73, 93.49 -2.5, 161.35 0.48 M-0.26 -0.09 C60.88 -0.36, 122.93 -0.5, 159.24 -0.69 M158.43 0.29 C160.26 16.87, 159.99 33.39, 161.16 79.06 M159.29 -0.36 C161.26 27.96, 160.47 54.25, 159.75 79.15 M159.07 81.3 C96.91 82.84, 33.98 81.65, 1.08 81.65 M159.65 80.16 C110.97 81.54, 61.06 80.24, 0.1 79.35 M-0.18 79.79 C-1.22 52.91, 1.44 23.64, 0.6 0.37 M-0.53 79.57 C0.09 59.68, -1.35 38.74, 0.54 -0.68" stroke="#000" stroke-width="1" fill="none"/></g><g transform="translate(995 426) rotate(0 46.6845703125 24)"><text x="0" y="0" font-family="Helvetica, Segoe UI Emoji" font-size="20px" fill="#000" text-anchor="start" style="white-space: pre;" direction="ltr" dominant-baseline="text-before-edge">consumer:</text><text x="0" y="24" font-family="Helvetica, Segoe UI Emoji" font-size="20px" fill="#000" text-anchor="start" style="white-space: pre;" direction="ltr" dominant-baseline="text-before-edge">publish(2)</text></g><g stroke-linecap="round"><g transform="translate(989 450.33333333333337) rotate(0 -169.5 39.83333333333333)"><path d="M0.01 -0.38 C-46.55 5.91, -222.49 25.52, -278.88 38.88 C-335.27 52.24, -328.21 73, -338.31 79.78" stroke="#40c057" stroke-width="2.5" fill="none" stroke-dasharray="1.5 8"/></g><g transform="translate(989 450.33333333333337) rotate(0 -169.5 39.83333333333333)"><path d="M-330.92 51.07 C-334.07 61.98, -335.33 70.02, -338.48 79.57" stroke="#40c057" stroke-width="2.5" fill="none" stroke-dasharray="1.5 6"/></g><g transform="translate(989 450.33333333333337) rotate(0 -169.5 39.83333333333333)"><path d="M-314.22 62.99 C-323.24 69.8, -330.25 73.73, -338.48 79.57" stroke="#40c057" stroke-width="2.5" fill="none" stroke-dasharray="1.5 6"/></g></g><mask/><g stroke-linecap="round"><g transform="translate(411.6790923824959 430) rotate(0 -40.83954619124796 170)"><path d="M0.99 0.51 C-2.47 37.2, -7.3 162.93, -20.97 219.49 C-34.63 276.05, -70.84 319.95, -81.01 339.84 M0.05 -0.27 C-3.48 36.64, -7.96 163.87, -21.54 220.76 C-35.12 277.65, -71.37 321.32, -81.42 341.08" stroke="#fd7e14" stroke-width="2" fill="none"/></g><g transform="translate(411.6790923824959 430) rotate(0 -40.83954619124796 170)"><path d="M-74.49 312.89 C-78.06 321.1, -79.18 327.75, -83.37 340.42 M-74.98 311.75 C-77.29 319.02, -78.98 327.51, -81.48 340.85" stroke="#fd7e14" stroke-width="2" fill="none"/></g><g transform="translate(411.6790923824959 430) rotate(0 -40.83954619124796 170)"><path d="M-57.03 323.68 C-65.43 329.01, -71.45 332.64, -83.37 340.42 M-57.53 322.54 C-64.67 326.83, -71.09 332.4, -81.48 340.85" stroke="#fd7e14" stroke-width="2" fill="none"/></g></g><mask/><g stroke-linecap="round" transform="translate(950 10) rotate(0 200 110)"><path d="M-1.6 1.06 L401.85 0.02 L398.34 220.99 L0.32 220.83" stroke="none" stroke-width="0" fill="#868e96"/><path d="M-0.82 1.12 C81.11 0.28, 164.35 -0.7, 399.68 0.57 M0.08 -0.19 C97 0.09, 192.89 0.45, 400.43 0.35 M398.96 -0.82 C402.06 43.74, 400.33 89.92, 400.03 219.12 M399.57 0.16 C398.34 53.63, 399.46 108.06, 399.63 220.65 M400.08 221.03 C296.34 222.92, 192.13 222.39, -0.3 219 M400.31 219.7 C280.18 221.38, 161.23 221.37, -0.2 220.06 M1.53 219.75 C-1.02 136.51, -1.66 53.65, -0.52 -0.38 M0.56 219.72 C-1.03 154.52, -0.09 87.92, -0.33 0.12" stroke="#000" stroke-width="1" fill="none"/></g><g transform="translate(955 36) rotate(0 193.8330078125 84)"><text x="0" y="0" font-family="Helvetica, Segoe UI Emoji" font-size="20px" fill="#000" text-anchor="start" style="white-space: pre;" direction="ltr" dominant-baseline="text-before-edge">Потребитель может прочитать несколько </text><text x="0" y="24" font-family="Helvetica, Segoe UI Emoji" font-size="20px" fill="#000" text-anchor="start" style="white-space: pre;" direction="ltr" dominant-baseline="text-before-edge">сообщений за раз, но помечает их </text><text x="0" y="48" font-family="Helvetica, Segoe UI Emoji" font-size="20px" fill="#000" text-anchor="start" style="white-space: pre;" direction="ltr" dominant-baseline="text-before-edge">прочитанными в виде возрастающей </text><text x="0" y="72" font-family="Helvetica, Segoe UI Emoji" font-size="20px" fill="#000" text-anchor="start" style="white-space: pre;" direction="ltr" dominant-baseline="text-before-edge">последовательности.</text><text x="0" y="96" font-family="Helvetica, Segoe UI Emoji" font-size="20px" fill="#000" text-anchor="start" style="white-space: pre;" direction="ltr" dominant-baseline="text-before-edge">Потребитель никогда не публикует в </text><text x="0" y="120" font-family="Helvetica, Segoe UI Emoji" font-size="20px" fill="#000" text-anchor="start" style="white-space: pre;" direction="ltr" dominant-baseline="text-before-edge">барьре продюсера N - 1 после </text><text x="0" y="144" font-family="Helvetica, Segoe UI Emoji" font-size="20px" fill="#000" text-anchor="start" style="white-space: pre;" direction="ltr" dominant-baseline="text-before-edge">публикации N.</text></g><g stroke-linecap="round"><g transform="translate(430 910) rotate(0 -50 -10)"><path d="M0.5 -0.82 C-6.28 -4.37, -23.49 -20.79, -40.1 -20.77 C-56.71 -20.75, -89 -4.35, -99.15 -0.71 M-0.7 1.37 C-7.69 -2.09, -24.64 -19.45, -41.1 -19.64 C-57.56 -19.83, -89.43 -2.88, -99.47 0.24" stroke="#40c057" stroke-width="2" fill="none"/></g></g><mask/><g stroke-linecap="round"><g transform="translate(410 1050) rotate(0 -60 -30)"><path d="M-0.49 0.99 C-13.54 -2.24, -59 -8.65, -78.81 -18.92 C-98.62 -29.2, -112.42 -53.82, -119.34 -60.67 M1.45 0.47 C-11.61 -3.11, -58.93 -10.45, -79.14 -20.48 C-99.34 -30.51, -112.9 -53.3, -119.75 -59.7" stroke="#40c057" stroke-width="2" fill="none"/></g></g><mask/><g stroke-linecap="round"><g transform="translate(430 890) rotate(0 -40 -30)"><path d="M0.06 0.56 C-6.74 -9.12, -27.67 -48.88, -40.98 -59.01 C-54.29 -69.13, -73.38 -59.8, -79.81 -60.16 M-1.36 -0.19 C-7.78 -10.1, -25.6 -50.82, -38.79 -60.61 C-51.97 -70.4, -73.76 -58.92, -80.48 -58.93" stroke="#40c057" stroke-width="2" fill="none"/></g></g><mask/></svg>