<svg version="1.1" xmlns="http://www.w3.org/2000/svg" viewBox="0 0 1307.50390625 1063.7006552747957" width="1307.50390625" height="1063.7006552747957">
  <!-- svg-source:excalidraw -->
  
  <defs>
    <style class="style-fonts">
      @font-face {
        font-family: "Virgil";
        src: url("https://excalidraw.com/Virgil.woff2");
      }
      @font-face {
        font-family: "Cascadia";
        src: url("https://excalidraw.com/Cascadia.woff2");
      }
    </style>
  </defs>
  <g transform="translate(569.4091796875 590.0000000000001) rotate(0 55.01953125 12)"><text x="0" y="0" font-family="Helvetica, Segoe UI Emoji" font-size="20px" fill="#fd7e14" text-anchor="start" style="white-space: pre;" direction="ltr" dominant-baseline="text-before-edge">nextToClaim</text></g><g transform="translate(509.4091796875 690.0000000000001) rotate(0 73.9111328125 12)"><text x="0" y="0" font-family="Helvetica, Segoe UI Emoji" font-size="20px" fill="#000000" text-anchor="start" style="white-space: pre;" direction="ltr" dominant-baseline="text-before-edge">consumerBarrier</text></g><g transform="translate(1009.4091796875 650.0000000000001) rotate(0 53.369140625 12)"><text x="0" y="0" font-family="Helvetica, Segoe UI Emoji" font-size="20px" fill="#40c057" text-anchor="start" style="white-space: pre;" direction="ltr" dominant-baseline="text-before-edge">nextToRead</text></g><g transform="translate(1029.4091796875 710.0000000000001) rotate(0 69.47265625 12)"><text x="0" y="0" font-family="Helvetica, Segoe UI Emoji" font-size="20px" fill="#000000" text-anchor="start" style="white-space: pre;" direction="ltr" dominant-baseline="text-before-edge">producerBarrier</text></g><g stroke-linecap="round" transform="translate(810.5236163806171 610.0000000000001) rotate(0 20.636420546431296 21.850327637397868)"><path d="M-0.72 0.11 C12.08 1.75, 24.25 1.13, 41.41 1.09 M1 0.32 C14.36 0.08, 27.9 0.23, 40.28 -0.23 M43.18 0.29 C42.93 10.2, 41.45 19.37, 42.93 42.39 M40.38 0.46 C41.87 12.93, 42.2 25.64, 41.19 43.63 M40.21 44.69 C31.59 45.3, 21.07 45.79, 1.85 42.87 M40.73 43.62 C26.21 43.53, 10.83 43.5, 0.07 43.38 M0.15 44.69 C0.93 32, 1.05 22.98, 1.23 -0.21 M0.66 42.95 C0.48 31.45, 0.24 18.25, 0.71 0.82" stroke="#000000" stroke-width="2" fill="none"/></g><g stroke-linecap="round" transform="translate(810.5236163806171 690.0000000000001) rotate(0 20.636420546431296 21.850327637397868)"><path d="M0 0 C0 0, 0 0, 0 0 M0 0 C0 0, 0 0, 0 0 M-1.35 12.13 C1.8 10.22, 4.38 6.5, 9.12 1.3 M-0.34 11.92 C1.81 9.88, 4.42 6.91, 10.04 0.59 M-0.45 23.48 C4.93 18.77, 11.92 12.71, 21.61 1.38 M1.02 23.54 C4.32 19.6, 8.93 13.98, 22.02 -1.05 M-0.29 36.14 C7.56 28.38, 14.55 18.79, 31.92 0.2 M0.66 36.42 C7.23 28.24, 14.21 21.87, 31.8 0.76 M0.61 44.86 C14.9 31.96, 24.82 17.88, 43.02 -0.18 M1.98 45.12 C11.09 34.09, 20.87 23.4, 42.61 1.22 M12.58 47.13 C20.37 37.5, 29.27 27.85, 40.68 14.19 M13.98 46.49 C23.82 33.29, 33.32 21.94, 41.53 11.74 M23.41 46.15 C31.28 37.48, 37.97 33.21, 42.72 25.61 M23.97 45.81 C27.51 41.46, 33.56 34.61, 42.87 25.53 M33.52 46.65 C37.39 42.78, 39.35 40.47, 40.54 38.12 M34.06 46.16 C35.57 44.19, 36.93 42.87, 42.14 36.99" stroke="#40c057" stroke-width="1" fill="none"/><path d="M0.11 -0.09 C11.69 0.05, 21.28 0.28, 42.36 0.95 M0.32 0.03 C8.75 -1.18, 17.64 -1.4, 41.04 -0.7 M41.57 1.5 C41.32 14.71, 40.42 31.04, 39.96 43.64 M41.73 0.39 C41.08 15.9, 40.82 30.3, 41.2 43.15 M42.26 44.14 C28.3 43.51, 14.46 45.33, -0.83 44.94 M41.19 43.56 C30.08 42.89, 18.7 43.54, -0.32 43.15 M0.99 44.24 C-0.57 35.11, 1.12 26.41, -0.21 0.01 M-0.75 44.08 C0.56 31.71, 0.49 20.14, 0.82 0.59" stroke="#000000" stroke-width="2" fill="none"/></g><g stroke-linecap="round" transform="translate(810.5236163806171 650.0000000000001) rotate(0 20.636420546431296 21.850327637397868)"><path d="M-0.09 1.49 C9.69 0.85, 19.71 1.07, 42.22 -1.77 M0.03 0.02 C11.09 0.05, 22.71 -0.36, 40.58 0.36 M42.77 0.13 C41.71 11.5, 43.34 23.23, 41.21 44.65 M41.66 -0.05 C41.6 11.36, 40.8 23.27, 40.72 44.17 M41.71 45.07 C26.61 45.76, 13.74 43.07, 1.23 43.2 M41.14 43.87 C31.7 43.8, 23.36 43.34, -0.55 42.82 M0.54 42.72 C0.63 35.35, 1.19 25.34, 0.01 -0.45 M0.38 44.59 C-0.15 28.13, 0.42 11.73, 0.59 0.05" stroke="#000000" stroke-width="2" fill="none"/></g><g transform="translate(870.5236163806171 614.8000000000001) rotate(0 5.5615234375 12)"><text x="0" y="0" font-family="Helvetica, Segoe UI Emoji" font-size="20px" fill="#000000" text-anchor="start" style="white-space: pre;" direction="ltr" dominant-baseline="text-before-edge">2</text></g><g transform="translate(870.5236163806171 654.8000000000001) rotate(0 5.5615234375 12)"><text x="0" y="0" font-family="Helvetica, Segoe UI Emoji" font-size="20px" fill="#000000" text-anchor="start" style="white-space: pre;" direction="ltr" dominant-baseline="text-before-edge">1</text></g><g stroke-linecap="round" transform="translate(810.5236163806171 770.0000000000001) rotate(0 20.636420546431296 21.850327637397868)"><path d="M0.87 0.13 C13.28 0.97, 22.62 -0.24, 43.27 0.63 M41.63 -1.98 C40.82 11.84, 42.01 26.09, 43.18 43.99 M40.51 45.36 C24.48 43.64, 11.26 43.05, -1.79 44.61 M-0.63 43.54 C-0.12 27.8, 0.97 15.22, -1.07 0.99" stroke="#000000" stroke-width="2.5" fill="none" stroke-dasharray="1.5 8"/></g><g stroke-linecap="round" transform="translate(810.5236163806171 730.0000000000001) rotate(0 20.636420546431296 21.850327637397868)"><path d="M0.13 1.09 C16.4 -1.95, 30.66 1.81, 41.9 0.06 M39.3 -0.46 C39.55 13.93, 40.55 28.32, 41.57 45.2 M42.93 42.39 C28.55 44.49, 15.3 41.75, 0.91 44.47 M-0.16 43.56 C-1.41 31.76, 0.81 16.85, 0.99 0.44" stroke="#000000" stroke-width="2.5" fill="none" stroke-dasharray="1.5 8"/></g><g transform="translate(870.5236163806171 734.8000000000001) rotate(0 22.24609375 12)"><text x="0" y="0" font-family="Helvetica, Segoe UI Emoji" font-size="20px" fill="#000000" text-anchor="start" style="white-space: pre;" direction="ltr" dominant-baseline="text-before-edge">255u</text></g><g transform="translate(870.5236163806171 694.8000000000001) rotate(0 5.5615234375 12)"><text x="0" y="0" font-family="Helvetica, Segoe UI Emoji" font-size="20px" fill="#000000" text-anchor="start" style="white-space: pre;" direction="ltr" dominant-baseline="text-before-edge">0</text></g><g transform="translate(870.5236163806171 774.8000000000001) rotate(0 22.24609375 12)"><text x="0" y="0" font-family="Helvetica, Segoe UI Emoji" font-size="20px" fill="#000000" text-anchor="start" style="white-space: pre;" direction="ltr" dominant-baseline="text-before-edge">254u</text></g><g stroke-linecap="round" transform="translate(810.5236163806171 810.0000000000001) rotate(0 20.636420546431296 21.850327637397868)"><path d="M-0.26 1.99 C15.26 0.42, 29.3 -1.16, 41.63 -1.98 M40.89 1.9 C41.26 13.6, 41.1 24.22, 40.51 45.36 M40.61 41.91 C32.51 44.67, 21.82 45.33, -0.63 43.54 M1.12 42.63 C1.23 31.34, 1.61 18.13, 1.86 1.85" stroke="#000000" stroke-width="2.5" fill="none" stroke-dasharray="1.5 8"/></g><g stroke-linecap="round" transform="translate(810.5236163806171 850.0000000000001) rotate(0 20.636420546431296 21.850327637397868)"><path d="M1.99 0.63 C14.39 0.1, 27.14 0.41, 39.3 -0.46 M43.18 0.29 C42.93 10.2, 41.45 19.37, 42.93 42.39 M39.48 44.61 C29.79 43.46, 18.19 42.94, -0.16 43.56 M-1.07 44.69 C0.23 34.36, -0.18 24.14, 1.85 -0.83" stroke="#000000" stroke-width="2.5" fill="none" stroke-dasharray="1.5 8"/></g><g transform="translate(870.5236163806171 814.8000000000001) rotate(0 22.24609375 12)"><text x="0" y="0" font-family="Helvetica, Segoe UI Emoji" font-size="20px" fill="#000000" text-anchor="start" style="white-space: pre;" direction="ltr" dominant-baseline="text-before-edge">253u</text></g><g transform="translate(870.5236163806171 854.8000000000001) rotate(0 22.24609375 12)"><text x="0" y="0" font-family="Helvetica, Segoe UI Emoji" font-size="20px" fill="#000000" text-anchor="start" style="white-space: pre;" direction="ltr" dominant-baseline="text-before-edge">252u</text></g><g stroke-linecap="round" transform="translate(810.5236163806171 890.0000000000001) rotate(0 20.636420546431296 21.850327637397868)"><path d="M0.04 -1.53 C16.86 -1.99, 32.52 -1.4, 42 -0.39 M41.41 0.02 C40.57 18.93, 40.03 34.48, 42.22 43.04 M41.17 45.13 C31.96 43.7, 23.75 42.76, 0.95 44.82 M1.37 43.73 C1.64 34.77, -1.05 23.37, -0.5 -1.64" stroke="#000000" stroke-width="2.5" fill="none" stroke-dasharray="1.5 8"/></g><g stroke-linecap="round" transform="translate(810.5236163806171 930.0000000000001) rotate(0 20.636420546431296 21.850327637397868)"><path d="M-1.53 0.36 C11.71 -0.47, 25.98 0.72, 40.89 1.9 M41.29 -0.76 C43.26 12.44, 41.54 28.46, 40.61 41.91 M42.7 43.08 C26.85 43.54, 11.65 44.63, 1.12 42.63 M0.03 45.56 C1.75 27.61, 1.14 12.67, -1.64 -1.08" stroke="#000000" stroke-width="2.5" fill="none" stroke-dasharray="1.5 8"/></g><g transform="translate(870.5236163806171 894.8000000000001) rotate(0 22.24609375 12)"><text x="0" y="0" font-family="Helvetica, Segoe UI Emoji" font-size="20px" fill="#000000" text-anchor="start" style="white-space: pre;" direction="ltr" dominant-baseline="text-before-edge">251u</text></g><g transform="translate(870.5236163806171 934.8000000000003) rotate(0 22.24609375 12)"><text x="0" y="0" font-family="Helvetica, Segoe UI Emoji" font-size="20px" fill="#000000" text-anchor="start" style="white-space: pre;" direction="ltr" dominant-baseline="text-before-edge">240u</text></g><g stroke-linecap="round" transform="translate(810.5236163806171 970.0000000000001) rotate(0 20.636420546431296 21.850327637397868)"><path d="M-0.46 -1.39 C9.95 0.02, 20.36 0.7, 42.77 0.13 M39.96 -0.06 C42.06 12.49, 39.32 27.21, 42.05 43.6 M41.13 42.6 C26.88 44.79, 9.54 44.65, 0.44 45.07 M-0.83 44.94 C-0.9 28.88, -1.48 17.18, -0.27 0.34" stroke="#000000" stroke-width="2.5" fill="none" stroke-dasharray="1.5 8"/></g><g stroke-linecap="round" transform="translate(810.5236163806171 1010.0000000000001) rotate(0 20.636420546431296 21.850327637397868)"><path d="M-1.39 0.73 C12.74 2, 26.55 1.6, 41.41 0.02 M41.21 0.95 C40.98 9.65, 42.55 23.65, 41.17 45.13 M40.18 44.65 C31.3 42.61, 20.08 44.11, 1.37 43.73 M1.23 43.2 C-2.05 25.45, -0.57 9.09, 0.34 -1.17" stroke="#000000" stroke-width="2.5" fill="none" stroke-dasharray="1.5 8"/></g><g transform="translate(870.5236163806171 974.8000000000003) rotate(0 22.24609375 12)"><text x="0" y="0" font-family="Helvetica, Segoe UI Emoji" font-size="20px" fill="#000000" text-anchor="start" style="white-space: pre;" direction="ltr" dominant-baseline="text-before-edge">239u</text></g><g transform="translate(870.5236163806171 1014.8000000000003) rotate(0 22.24609375 12)"><text x="0" y="0" font-family="Helvetica, Segoe UI Emoji" font-size="20px" fill="#000000" text-anchor="start" style="white-space: pre;" direction="ltr" dominant-baseline="text-before-edge">238u</text></g><g stroke-linecap="round" transform="translate(810.5236163806171 490.0000000000001) rotate(0 20.636420546431296 21.850327637397868)"><path d="M1.9 0.29 C11.01 0.21, 19.04 -0.69, 42.93 -1.31 M-0.89 0.46 C12.64 0.09, 25.23 -0.18, 41.19 -0.07 M40.21 0.99 C41.92 12.08, 41.51 23.28, 43.12 42.87 M40.73 -0.09 C41.03 15.98, 40.58 31.76, 41.34 43.38 M41.43 44.69 C31.69 42.34, 21.69 44.04, 1.23 43.49 M41.93 42.95 C29.24 44.9, 16.6 44.83, 0.71 44.52 M-0.14 43.98 C1.75 26.51, -1.6 14.09, -0.3 -1.89 M-0.18 43.87 C-0.74 33.2, 0.3 23.97, -0.8 -0.28" stroke="#000000" stroke-width="2" fill="none"/></g><g stroke-linecap="round" transform="translate(810.5236163806171 570.0000000000001) rotate(0 20.636420546431296 21.850327637397868)"><path d="M0.29 1.5 C14.01 -0.37, 26.99 1.26, 39.96 -0.06 M0.46 0.39 C14.29 1.08, 28.38 0.29, 41.2 -0.55 M42.26 0.44 C42.88 15.21, 43.37 32.2, 40.44 44.94 M41.19 -0.14 C41.08 11.44, 41.05 24.12, 40.95 43.15 M42.26 44.24 C31.55 44.4, 24.51 44.96, -0.21 43.71 M40.53 44.08 C30.7 44.11, 19.18 44.68, 0.82 44.29 M0.28 45.48 C-1.61 28.77, 1.64 16.7, -1.89 -1.54 M0.17 43.27 C-0.78 28.06, -0.25 10.4, -0.28 -0.6" stroke="#000000" stroke-width="2" fill="none"/></g><g stroke-linecap="round" transform="translate(810.5236163806171 530.0000000000001) rotate(0 20.636420546431296 21.850327637397868)"><path d="M1.5 0.13 C11.61 -0.83, 24.83 -1.37, 41.21 0.95 M0.39 -0.05 C11.74 -0.5, 21.97 -0.26, 40.72 0.47 M41.71 1.37 C41.07 17.41, 42.89 30.28, 42.51 43.2 M41.14 0.17 C40.45 9.66, 41.1 18.72, 40.73 42.82 M41.82 42.72 C33.37 44.62, 25.36 43.69, 0.01 43.25 M41.65 44.59 C25.93 44.21, 11.01 44.21, 0.59 43.76 M1.78 42.18 C-1.55 31.4, -0.27 13.74, -1.54 1.44 M-0.43 42.95 C0.69 30.08, -0.73 16.62, -0.6 -0.58" stroke="#000000" stroke-width="2" fill="none"/></g><g transform="translate(870.5236163806171 494.80000000000007) rotate(0 5.5615234375 12)"><text x="0" y="0" font-family="Helvetica, Segoe UI Emoji" font-size="20px" fill="#000000" text-anchor="start" style="white-space: pre;" direction="ltr" dominant-baseline="text-before-edge">5</text></g><g transform="translate(870.5236163806171 534.8000000000001) rotate(0 5.5615234375 12)"><text x="0" y="0" font-family="Helvetica, Segoe UI Emoji" font-size="20px" fill="#000000" text-anchor="start" style="white-space: pre;" direction="ltr" dominant-baseline="text-before-edge">4</text></g><g transform="translate(870.5236163806171 574.8000000000001) rotate(0 5.5615234375 12)"><text x="0" y="0" font-family="Helvetica, Segoe UI Emoji" font-size="20px" fill="#000000" text-anchor="start" style="white-space: pre;" direction="ltr" dominant-baseline="text-before-edge">3</text></g><g stroke-linecap="round" transform="translate(810.5236163806171 370.0000000000001) rotate(0 20.636420546431296 21.850327637397868)"><path d="M1.66 -1.31 C12.6 1.11, 24.65 -1.63, 42.19 0.77 M-0.08 -0.07 C11.63 0.6, 24.91 -0.4, 41.77 0.22 M43.12 -0.83 C42.51 15.6, 39.64 31.12, 41.1 43.43 M41.34 -0.32 C40.47 12.97, 40.09 27.79, 41.77 43.97 M42.5 43.49 C30.92 43.4, 22.05 45.17, -1.49 44.46 M41.98 44.52 C25.81 44.09, 9.39 43.97, 0.14 44.59 M-0.3 41.81 C-1.19 35.35, 0.48 23.76, 0.33 -0.86 M-0.8 43.42 C-0.87 33.28, -0.99 24.39, -0.93 0.05" stroke="#000000" stroke-width="2" fill="none"/></g><g stroke-linecap="round" transform="translate(810.5236163806171 450.0000000000001) rotate(0 20.636420546431296 21.850327637397868)"><path d="M-1.31 -0.06 C13.37 -1, 23.05 0.57, 42.05 -0.1 M-0.07 -0.55 C15.81 0.59, 30.14 0.53, 41.49 0.68 M40.44 1.23 C41.18 11.53, 40.6 26.18, 41 44.04 M40.95 -0.55 C40.45 9.63, 41.41 21.59, 41.54 43.21 M41.06 43.71 C27.07 45.46, 15.08 42.46, 0.76 45.48 M42.09 44.29 C28.36 44.2, 15.27 44.13, 0.89 42.94 M-1.89 42.16 C1.06 34.17, -0.74 24.71, -0.86 -1.5 M-0.28 43.1 C-0.48 27.21, 0.47 11.23, 0.05 -0.6" stroke="#000000" stroke-width="2" fill="none"/></g><g stroke-linecap="round" transform="translate(810.5236163806171 410.0000000000001) rotate(0 20.636420546431296 21.850327637397868)"><path d="M-0.06 0.95 C10.14 -1.52, 22.52 1.04, 41.17 1.43 M-0.55 0.47 C11.65 -0.5, 22.67 0.25, 41.96 0.01 M42.51 -0.5 C40.03 16.09, 41.51 34.06, 41.61 42.53 M40.73 -0.88 C40.38 13.8, 41.8 27.71, 40.78 44.03 M41.29 43.25 C28.91 44.98, 12.05 44.42, 1.78 43.98 M41.86 43.76 C25.71 43.97, 9.86 44.93, -0.76 42.91 M-1.54 45.14 C0.2 26.45, 0.4 9.06, -1.5 1.22 M-0.6 43.12 C-0.37 31.94, -0.58 19.49, -0.6 0.71" stroke="#000000" stroke-width="2" fill="none"/></g><g transform="translate(870.5236163806171 374.80000000000007) rotate(0 5.5615234375 12)"><text x="0" y="0" font-family="Helvetica, Segoe UI Emoji" font-size="20px" fill="#000000" text-anchor="start" style="white-space: pre;" direction="ltr" dominant-baseline="text-before-edge">8</text></g><g transform="translate(870.5236163806171 414.80000000000007) rotate(0 5.5615234375 12)"><text x="0" y="0" font-family="Helvetica, Segoe UI Emoji" font-size="20px" fill="#000000" text-anchor="start" style="white-space: pre;" direction="ltr" dominant-baseline="text-before-edge">7</text></g><g transform="translate(870.5236163806171 454.80000000000007) rotate(0 5.5615234375 12)"><text x="0" y="0" font-family="Helvetica, Segoe UI Emoji" font-size="20px" fill="#000000" text-anchor="start" style="white-space: pre;" direction="ltr" dominant-baseline="text-before-edge">6</text></g><g stroke-linecap="round" transform="translate(810.5236163806171 250) rotate(0 20.636420546431296 21.850327637397868)"><path d="M0.91 0.77 C14.24 1.8, 28.06 0.21, 41.13 -1.1 M0.49 0.22 C15.02 0.23, 29.6 1.14, 40.86 0.62 M41.1 -0.27 C41.25 10.85, 41.19 24.19, 40.63 42.61 M41.77 0.27 C40.38 9.59, 41.23 19.13, 41.17 43.71 M39.78 44.46 C31.59 44.26, 20 45.39, 1.64 44.87 M41.41 44.59 C27.9 42.88, 16.92 43.52, -0.95 42.93 M0.33 42.84 C-1.52 28.67, -0.48 9.6, -0.56 -1.2 M-0.93 43.75 C-0.28 33.83, -0.26 22.75, -0.94 0.83" stroke="#000000" stroke-width="2" fill="none"/></g><g stroke-linecap="round" transform="translate(810.5236163806171 330) rotate(0 20.636420546431296 21.850327637397868)"><path d="M0.77 -0.1 C12.45 -0.81, 21.89 -0.33, 40.18 0.95 M0.22 0.68 C14.7 0.73, 30.3 -0.62, 41.89 -0.25 M41 0.34 C39.87 9.8, 41.17 18.4, 40.18 41.94 M41.54 -0.49 C41.64 9.43, 41.92 18.04, 41.28 43.48 M42.03 45.48 C26.07 45.04, 11.72 45.03, 1.17 43.81 M42.16 42.94 C27.23 44.62, 14.62 42.81, -0.77 44.42 M-0.86 42.21 C1.3 29.85, -1.53 16.34, -1.2 -1.16 M0.05 43.1 C0.55 33.17, 0.05 22.86, 0.83 -0.85" stroke="#000000" stroke-width="2" fill="none"/></g><g stroke-linecap="round" transform="translate(810.5236163806171 290) rotate(0 20.636420546431296 21.850327637397868)"><path d="M-0.1 1.43 C8.06 -0.32, 17.23 -1.26, 42.22 1.12 M0.68 0.01 C11.11 0.83, 19.95 0.53, 41.02 -0.82 M41.61 -1.17 C41.51 10.89, 40.59 20.42, 39.51 41.85 M40.78 0.33 C41.85 14.06, 41.38 26.9, 41.05 44.45 M43.05 43.98 C27.81 45.27, 12.71 45.03, 0.11 44.12 M40.51 42.91 C30.04 43.92, 16.13 43.3, 0.72 43.77 M-1.5 44.92 C-0.52 29.77, -0.63 17.85, -1.16 -1.45 M-0.6 44.42 C-0.17 29.17, -0.54 15.03, -0.85 0.05" stroke="#000000" stroke-width="2" fill="none"/></g><g transform="translate(870.5236163806171 254.80000000000018) rotate(0 10.380859375 12)"><text x="0" y="0" font-family="Helvetica, Segoe UI Emoji" font-size="20px" fill="#000000" text-anchor="start" style="white-space: pre;" direction="ltr" dominant-baseline="text-before-edge">11</text></g><g transform="translate(870.5236163806171 294.8000000000002) rotate(0 11.123046875 12)"><text x="0" y="0" font-family="Helvetica, Segoe UI Emoji" font-size="20px" fill="#000000" text-anchor="start" style="white-space: pre;" direction="ltr" dominant-baseline="text-before-edge">10</text></g><g transform="translate(870.5236163806171 334.8000000000002) rotate(0 5.5615234375 12)"><text x="0" y="0" font-family="Helvetica, Segoe UI Emoji" font-size="20px" fill="#000000" text-anchor="start" style="white-space: pre;" direction="ltr" dominant-baseline="text-before-edge">9</text></g><g stroke-linecap="round" transform="translate(810.5236163806171 210) rotate(0 20.636420546431296 21.850327637397868)"><path d="M-0.14 -1.1 C16.28 1.15, 29.6 1.02, 41.71 1.37 M-0.41 0.62 C12.19 -1.2, 24.34 -0.47, 41.14 0.17 M40.63 -1.09 C39.57 8.7, 41.49 22.09, 41.82 42.72 M41.17 0.01 C41.21 15.31, 42.09 28.38, 41.65 44.59 M42.91 44.87 C28.42 44.42, 15.2 44.28, 1.78 42.18 M40.33 42.93 C32.87 43.7, 22.85 43.8, -0.43 42.95 M-0.56 42.5 C-1.06 26.48, 0.85 10.3, 0.11 -1.2 M-0.94 44.53 C-0.6 27.52, -0.1 10.65, -0.15 -0.71" stroke="#000000" stroke-width="2" fill="none"/></g><g stroke-linecap="round" transform="translate(810.5236163806171 170) rotate(0 20.636420546431296 21.850327637397868)"><path d="M-1.1 0.95 C12.21 -1.04, 23.17 0.47, 42.64 0.03 M0.62 -0.25 C15.39 -0.37, 32.35 0.03, 41.44 -0.59 M40.18 -1.76 C39.45 13.87, 42.29 27.98, 40.29 44.37 M41.28 -0.22 C42.29 15.34, 40.79 29.74, 42.16 43.84 M42.44 43.81 C25.92 43.9, 10.01 45.81, -1.52 42.12 M40.5 44.42 C25.39 43.13, 9.54 42.88, -0.75 44.31 M-1.2 42.54 C-1.09 32.32, -1.5 19.55, -1.2 1.43 M0.83 42.85 C-0.04 32.76, -0.68 22.36, -0.71 0.49" stroke="#000000" stroke-width="2" fill="none"/></g><g transform="translate(870.5236163806171 174.80000000000018) rotate(0 11.123046875 12)"><text x="0" y="0" font-family="Helvetica, Segoe UI Emoji" font-size="20px" fill="#000000" text-anchor="start" style="white-space: pre;" direction="ltr" dominant-baseline="text-before-edge">13</text></g><g transform="translate(870.5236163806171 214.80000000000018) rotate(0 11.123046875 12)"><text x="0" y="0" font-family="Helvetica, Segoe UI Emoji" font-size="20px" fill="#000000" text-anchor="start" style="white-space: pre;" direction="ltr" dominant-baseline="text-before-edge">12</text></g><g stroke-linecap="round" transform="translate(810.5236163806171 10) rotate(0 20.636420546431296 21.850327637397868)"><path d="M-1.07 0.99 C10.55 1.14, 20.26 1.63, 43.12 -0.83 M-0.54 -0.09 C14.79 0.51, 29.27 0.48, 41.34 -0.32 M41.43 0.99 C41.43 9.74, 41.55 22.16, 42.5 43.49 M41.93 -0.75 C41.55 14.03, 41.32 27.1, 41.98 44.52 M41.14 43.98 C28.25 42.27, 10.09 45.52, -0.3 41.81 M41.09 43.87 C31.63 42.98, 23.46 43.5, -0.8 43.42 M0.75 41.85 C0.36 32.02, 1.68 21.58, 0.43 -1.88 M-0.35 43.11 C0.22 26.25, 0.86 9.95, 0.03 -0.74" stroke="#000000" stroke-width="2" fill="none"/></g><g stroke-linecap="round" transform="translate(810.5236163806171 50) rotate(0 20.636420546431296 21.850327637397868)"><path d="M0.99 0.44 C15.7 0.25, 30.53 2.07, 40.44 1.23 M-0.09 -0.14 C11.53 -0.36, 22.86 0.29, 40.95 -0.55 M42.26 0.54 C39.89 9.92, 41.59 19.74, 41.06 43.71 M40.53 0.38 C42.49 12.27, 42.42 24.98, 42.09 44.29 M41.56 45.48 C27.14 42.09, 17.79 43.37, -1.89 42.16 M41.44 43.27 C25.18 44.24, 10.36 42.82, -0.28 43.1 M-1.85 43.81 C-0.88 34.55, -0.84 22.97, -1.88 1.66 M-0.59 43.55 C-0.73 34.81, -0.29 24.96, -0.74 0.78" stroke="#000000" stroke-width="2" fill="none"/></g><g transform="translate(870.5236163806171 14.800000000000182) rotate(0 22.24609375 12)"><text x="0" y="0" font-family="Helvetica, Segoe UI Emoji" font-size="20px" fill="#000000" text-anchor="start" style="white-space: pre;" direction="ltr" dominant-baseline="text-before-edge">255u</text></g><g transform="translate(870.5236163806171 54.80000000000018) rotate(0 22.24609375 12)"><text x="0" y="0" font-family="Helvetica, Segoe UI Emoji" font-size="20px" fill="#000000" text-anchor="start" style="white-space: pre;" direction="ltr" dominant-baseline="text-before-edge">254u</text></g><g stroke-linecap="round"><g transform="translate(810.5236163806171 169.63732503093797) rotate(0 0 -40)"><path d="M1.91 0.04 C2.12 -12.96, 3.11 -64.36, 2.6 -77.41" stroke="#000000" stroke-width="1.5" fill="none" stroke-dasharray="8 9"/></g></g><mask/><g stroke-linecap="round"><g transform="translate(850.5236163806171 169.63732503093797) rotate(0 0 -40)"><path d="M0.04 2.6 C0.37 -11.25, 2.3 -67.28, 2.59 -81.16" stroke="#000000" stroke-width="1.5" fill="none" stroke-dasharray="8 9"/></g></g><mask/><g stroke-linecap="round"><g transform="translate(890.5236163806171 149.63732503093797) rotate(0 0 -30)"><path d="M2.6 2.59 C2.09 -7.13, -0.61 -47.46, -1.16 -58.27" stroke="#000000" stroke-width="1.5" fill="none" stroke-dasharray="1.5 7"/></g></g><mask/><g stroke-linecap="round"><g transform="translate(649.4091796875 710.0000000000001) rotate(0 80 20)"><path d="M2.59 -1.16 C2.87 1.62, -24.12 12.7, 1.73 19.31 C27.58 25.91, 131.36 35.11, 157.7 38.49 M0.55 -4.26 C0.61 0.15, -26.69 15.05, 0.43 22.56 C27.55 30.07, 136.65 37.54, 163.28 40.78" stroke="#000000" stroke-width="1" fill="none"/></g><g transform="translate(649.4091796875 710.0000000000001) rotate(0 80 20)"><path d="M132.59 50.82 C141.87 42.24, 149.46 42.91, 162.73 41.46 M133.61 47.25 C139.48 44.63, 148.4 45.64, 163.83 39.8" stroke="#000000" stroke-width="1" fill="none"/></g><g transform="translate(649.4091796875 710.0000000000001) rotate(0 80 20)"><path d="M134.52 30.39 C143.6 28.01, 150.6 34.83, 162.73 41.46 M135.54 26.82 C141 29.14, 149.46 35.08, 163.83 39.8" stroke="#000000" stroke-width="1" fill="none"/></g></g><mask/><g stroke-linecap="round"><g transform="translate(590.8281721356511 608.2644647023083) rotate(0 109.58591393217444 28.17183771754486)"><path d="M-1.16 1.73 C14.82 6.97, 62.01 24.98, 98.48 34.04 C134.95 43.11, 197.61 52.31, 217.66 56.1 M3.4 0.2 C18.71 6.92, 60.59 26.61, 95.86 36.42 C131.13 46.24, 194.49 55.21, 215.04 59.09" stroke="#fd7e14" stroke-width="1" fill="none"/></g><g transform="translate(590.8281721356511 608.2644647023083) rotate(0 109.58591393217444 28.17183771754486)"><path d="M188 63.52 C193.74 60.47, 208.27 59.94, 215.72 56.74 M184.44 62.75 C192.94 63.15, 205.04 61.84, 214.06 59.75" stroke="#fd7e14" stroke-width="1" fill="none"/></g><g transform="translate(590.8281721356511 608.2644647023083) rotate(0 109.58591393217444 28.17183771754486)"><path d="M191.42 43.28 C196.18 48.15, 209.38 55.58, 215.72 56.74 M187.85 42.51 C195.31 49.25, 206.34 54.29, 214.06 59.75" stroke="#fd7e14" stroke-width="1" fill="none"/></g></g><mask/><g stroke-linecap="round"><g transform="translate(1002.751953125 669.9122102060969) rotate(0 -50 0)"><path d="M1.73 -0.69 C-9.09 -0.75, -45.31 -1.56, -62.3 -1.51 C-79.29 -1.46, -94.04 -0.36, -100.24 -0.38 M-0.78 -3.54 C-10.97 -3.15, -40.25 0.29, -57.15 1.3 C-74.05 2.31, -95.25 2.72, -102.18 2.52" stroke="#40c057" stroke-width="1" fill="none"/></g><g transform="translate(1002.751953125 669.9122102060969) rotate(0 -50 0)"><path d="M-84.36 -7.57 C-92.96 -1.73, -98.73 1.96, -104.52 3.07 M-85.13 -6.14 C-89.03 -1.42, -94.4 -1.3, -101.51 3.24" stroke="#40c057" stroke-width="1" fill="none"/></g><g transform="translate(1002.751953125 669.9122102060969) rotate(0 -50 0)"><path d="M-84.39 6.11 C-92.86 6.59, -98.63 4.91, -104.52 3.07 M-85.16 7.55 C-88.96 8.07, -94.33 3.99, -101.51 3.24" stroke="#40c057" stroke-width="1" fill="none"/></g></g><mask/><g stroke-linecap="round" transform="translate(10 404.608140137398) rotate(0 131 41)"><path d="M-1.81 1.67 L261.03 1.52 L260.91 81.7 L0.96 82.12" stroke="none" stroke-width="0" fill="#868e96"/><path d="M-0.14 -0.22 C72.37 0.19, 144.43 1.23, 261.49 -0.87 M0.39 0.22 C55.11 0.1, 111.29 0.33, 261.92 0.01 M260.51 0.76 C264.39 23.05, 264.26 46.95, 263.64 83.17 M262.14 0.89 C261.41 24.26, 263.04 49.95, 261.05 81.23 M262.26 81.32 C163.39 82.6, 66.81 80.34, -0.45 81.04 M261.26 82.04 C198.08 83.35, 134.66 82.96, -0.75 82.66 M-1.18 81.69 C-1.46 65.37, -0.57 46.84, -1.48 1.56 M-0.36 81.7 C0.15 60.74, 0.83 39.01, 0.18 0.73" stroke="#000" stroke-width="1" fill="none"/></g><g transform="translate(15 421.608140137398) rotate(0 118.486328125 24)"><text x="0" y="0" font-family="Helvetica, Segoe UI Emoji" font-size="20px" fill="#000" text-anchor="start" style="white-space: pre;" direction="ltr" dominant-baseline="text-before-edge">bufferSize = 8</text><text x="0" y="24" font-family="Helvetica, Segoe UI Emoji" font-size="20px" fill="#000" text-anchor="start" style="white-space: pre;" direction="ltr" dominant-baseline="text-before-edge">indexMask = bufferSize - 1</text></g><g stroke-linecap="round" transform="translate(975.50390625 368.127671387398) rotate(0 161 51)"><path d="M-1.09 -0.3 L322.96 0.12 L321.84 103.51 L-1.96 101.05" stroke="none" stroke-width="0" fill="#40c057"/><path d="M0.19 0.09 C91.73 0.55, 183.12 0.03, 322.11 0.69 M0.25 0.43 C105.27 -0.74, 210.53 -0.22, 322.46 -0.52 M323.64 1.42 C324.54 35.64, 323.02 69.36, 321.86 102.28 M322.86 -0.15 C320.28 38.89, 321.94 79.37, 321.82 102.17 M321.69 100.88 C238.84 102.53, 155.66 102.36, 0.52 100.71 M321.6 102.15 C223.03 104.18, 124.78 103.64, -0.24 101.59 M-0.53 102.06 C-0.76 74.53, 0.07 42.17, 1.76 -0.71 M0.11 102.87 C0.77 75.21, -0.31 47.81, -0.48 0.76" stroke="#000" stroke-width="1" fill="none"/></g><g transform="translate(980.50390625 383.127671387398) rotate(0 134.7998046875 36)"><text x="0" y="0" font-family="Helvetica, Segoe UI Emoji" font-size="20px" fill="#000" text-anchor="start" style="white-space: pre;" direction="ltr" dominant-baseline="text-before-edge">consumer:</text><text x="0" y="24" font-family="Helvetica, Segoe UI Emoji" font-size="20px" fill="#000" text-anchor="start" style="white-space: pre;" direction="ltr" dominant-baseline="text-before-edge">available = 0</text><text x="0" y="48" font-family="Helvetica, Segoe UI Emoji" font-size="20px" fill="#000" text-anchor="start" style="white-space: pre;" direction="ltr" dominant-baseline="text-before-edge">index = available &amp; indexMask</text></g><g stroke-linecap="round" transform="translate(55.50390625 688.127671387398) rotate(0 150 150)"><path d="M109.59 6.06 C123.27 -0.12, 140.92 -0.97, 156.4 -0.36 C171.88 0.24, 187.93 4.28, 202.47 9.71 C217.02 15.15, 231.6 22.76, 243.66 32.24 C255.73 41.73, 266.27 53.65, 274.86 66.64 C283.44 79.62, 291.14 95.19, 295.18 110.17 C299.23 125.15, 299.74 141.15, 299.13 156.5 C298.52 171.86, 296.64 187.74, 291.54 202.28 C286.43 216.82, 278.07 231.56, 268.47 243.76 C258.88 255.95, 246.95 266.96, 233.96 275.44 C220.97 283.92, 205.57 290.55, 190.54 294.64 C175.52 298.74, 159.11 300.81, 143.81 300.02 C128.51 299.22, 113.36 295.14, 98.75 289.89 C84.14 284.64, 68.45 278.13, 56.16 268.52 C43.87 258.9, 33.56 245.08, 25 232.19 C16.44 219.31, 8.93 205.96, 4.8 191.21 C0.66 176.46, -0.6 159.33, 0.19 143.7 C0.98 128.07, 4.28 111.79, 9.52 97.43 C14.75 83.08, 22.08 69.74, 31.6 57.56 C41.12 45.38, 52.52 33.41, 66.64 24.35 C80.76 15.28, 106.81 6.47, 116.32 3.17 C125.83 -0.13, 123.04 2.16, 123.71 4.54 M153.13 0.38 C167.78 -1.58, 184.23 4.75, 198.72 9.87 C213.22 15, 227.69 22.06, 240.09 31.12 C252.49 40.17, 264.22 51.67, 273.14 64.21 C282.06 76.76, 289.02 91.5, 293.61 106.4 C298.2 121.3, 301.05 138.16, 300.68 153.6 C300.32 169.03, 296.51 184.48, 291.42 199.03 C286.33 213.57, 279.77 228.22, 270.13 240.88 C260.49 253.54, 246.6 266.23, 233.57 274.98 C220.55 283.73, 206.74 289.06, 192 293.39 C177.26 297.72, 160.46 301.07, 145.13 300.95 C129.8 300.83, 114.4 297.82, 100.02 292.67 C85.65 287.52, 71.4 279.47, 58.9 270.05 C46.39 260.63, 33.9 248.88, 24.99 236.16 C16.08 223.43, 9.72 208.74, 5.43 193.67 C1.14 178.61, -1.42 161.4, -0.77 145.78 C-0.11 130.16, 4.07 114.29, 9.35 99.96 C14.63 85.62, 21.87 72.16, 30.92 59.77 C39.97 47.38, 51.08 34.32, 63.62 25.63 C76.17 16.94, 91.13 12, 106.18 7.64 C121.24 3.29, 146.09 0.12, 153.97 -0.5 C161.85 -1.12, 153.73 1.22, 153.45 3.92" stroke="#000000" stroke-width="1" fill="none"/></g><g stroke-linecap="round" transform="translate(115.50390625 748.127671387398) rotate(0 90 90)"><path d="M52.09 8.88 C61.44 3.01, 73.73 0.93, 85.18 0.44 C96.62 -0.06, 109.89 2.08, 120.76 5.9 C131.63 9.73, 142 15.64, 150.4 23.38 C158.8 31.12, 166.15 42.09, 171.17 52.35 C176.2 62.61, 179.9 73.43, 180.55 84.92 C181.21 96.41, 179.05 110.22, 175.09 121.29 C171.13 132.35, 164.43 142.84, 156.77 151.32 C149.11 159.81, 139.42 167.44, 129.11 172.21 C118.8 176.98, 106.47 179.55, 94.92 179.95 C83.37 180.36, 70.69 178.38, 59.81 174.64 C48.93 170.9, 38.3 165.35, 29.64 157.52 C20.98 149.68, 12.62 138.17, 7.85 127.61 C3.07 117.06, 1.55 105.65, 0.97 94.18 C0.39 82.72, 0.49 69.6, 4.34 58.83 C8.2 48.06, 15.67 38.16, 24.09 29.56 C32.51 20.96, 49.09 11.05, 54.87 7.23 C60.65 3.4, 58.05 5.29, 58.77 6.61 M53.93 6.08 C63.59 0.46, 78.1 -1.31, 89.74 -1.39 C101.38 -1.46, 113.03 1.26, 123.76 5.64 C134.49 10.02, 145.89 16.96, 154.13 24.92 C162.36 32.88, 168.64 42.89, 173.16 53.39 C177.68 63.88, 181.18 76.27, 181.24 87.9 C181.31 99.53, 178.19 112.34, 173.54 123.16 C168.89 133.98, 161.57 144.42, 153.34 152.82 C145.1 161.23, 134.62 169.03, 124.14 173.57 C113.65 178.1, 101.91 179.86, 90.42 180.04 C78.94 180.22, 65.87 179.16, 55.21 174.63 C44.55 170.11, 34.24 161.22, 26.46 152.89 C18.67 144.56, 12.97 135.16, 8.49 124.67 C4.01 114.18, -0.29 101.32, -0.45 89.95 C-0.61 78.59, 2.95 66.94, 7.54 56.48 C12.13 46.02, 19.02 35.65, 27.08 27.21 C35.14 18.76, 50.94 9, 55.89 5.81 C60.83 2.63, 56.16 6.63, 56.76 8.1" stroke="#000000" stroke-width="1" fill="none"/></g><g stroke-linecap="round"><g transform="translate(55.50390625 848.127671387398) rotate(0 30 0)"><path d="M-0.66 -1.06 C9.15 -0.98, 48.68 -0.14, 58.89 0.09 M1.2 1 C11.35 1.33, 51.2 1.54, 61.02 1.68" stroke="#000000" stroke-width="1" fill="none"/></g></g><mask/><g stroke-linecap="round"><g transform="translate(295.50390625 828.127671387398) rotate(0 30 0)"><path d="M-1.06 -1.11 C9.02 -0.9, 49.86 0.51, 60.09 0.59 M0.59 0.92 C10.55 0.84, 49.34 -1.13, 59.19 -1.22" stroke="#000000" stroke-width="1" fill="none"/></g></g><mask/><g stroke-linecap="round"><g transform="translate(195.50390625 748.127671387398) rotate(0 0 -30)"><path d="M-1.11 0.09 C-0.9 -9.68, 0.51 -49.73, 0.59 -59.67 M0.51 -0.91 C0.67 -10.96, 0.32 -51.49, -0.04 -61.63" stroke="#000000" stroke-width="1" fill="none"/></g></g><mask/><g stroke-linecap="round"><g transform="translate(215.50390625 988.127671387398) rotate(0 0 -30)"><path d="M0.09 0.59 C0.32 -9.32, 0.27 -50.56, 0.33 -60.59 M-1.32 -0.14 C-1.12 -9.8, -0.64 -49.1, -0.45 -59.36" stroke="#000000" stroke-width="1" fill="none"/></g></g><mask/><g stroke-linecap="round"><g transform="translate(275.50390625 888.127671387398) rotate(0 20 30)"><path d="M0.59 0.33 C7.35 10.38, 32.77 50.33, 39.41 60.4 M-0.55 -0.55 C6.7 9.12, 35.08 48.6, 41.82 58.49" stroke="#000000" stroke-width="1" fill="none"/></g></g><mask/><g stroke-linecap="round"><g transform="translate(135.50390625 788.127671387398) rotate(0 -20 -30)"><path d="M0.33 -0.59 C-6.29 -10.61, -33 -49.65, -39.6 -59.57 M-0.96 1.72 C-7.71 -8.73, -33.89 -51.37, -40.34 -61.46" stroke="#000000" stroke-width="1" fill="none"/></g></g><mask/><g stroke-linecap="round"><g transform="translate(255.50390625 768.127671387398) rotate(0 30 -20)"><path d="M-0.59 0.4 C9.39 -6.2, 50.35 -32.53, 60.43 -39.26 M1.31 -0.44 C11.11 -7.41, 50.09 -34.63, 59.71 -41" stroke="#000000" stroke-width="1" fill="none"/></g></g><mask/><g stroke-linecap="round"><g transform="translate(155.50390625 908.127671387398) rotate(0 -30 20)"><path d="M0.4 0.43 C-9.53 7.18, -49.2 33.32, -59.26 39.87 M-0.85 -0.39 C-10.9 6.6, -49.84 34.46, -59.83 41.34" stroke="#000000" stroke-width="1" fill="none"/></g></g><mask/><g transform="translate(255.50390625 668.127671387398) rotate(0 5.5615234375 12)"><text x="0" y="0" font-family="Helvetica, Segoe UI Emoji" font-size="20px" fill="#000000" text-anchor="start" style="white-space: pre;" direction="ltr" dominant-baseline="text-before-edge">0</text></g><g transform="translate(366.73558408186364 762.3816043897706) rotate(0 5.5615234375 12)"><text x="0" y="0" font-family="Helvetica, Segoe UI Emoji" font-size="20px" fill="#000000" text-anchor="start" style="white-space: pre;" direction="ltr" dominant-baseline="text-before-edge">1</text></g><g transform="translate(361.681148245249 884.9516734276748) rotate(0 5.5615234375 12)"><text x="0" y="0" font-family="Helvetica, Segoe UI Emoji" font-size="20px" fill="#000000" text-anchor="start" style="white-space: pre;" direction="ltr" dominant-baseline="text-before-edge">2</text></g><g transform="translate(275.50390625 988.127671387398) rotate(0 5.5615234375 12)"><text x="0" y="0" font-family="Helvetica, Segoe UI Emoji" font-size="20px" fill="#000000" text-anchor="start" style="white-space: pre;" direction="ltr" dominant-baseline="text-before-edge">3</text></g><g transform="translate(135.50390625 988.127671387398) rotate(0 5.5615234375 12)"><text x="0" y="0" font-family="Helvetica, Segoe UI Emoji" font-size="20px" fill="#000000" text-anchor="start" style="white-space: pre;" direction="ltr" dominant-baseline="text-before-edge">4</text></g><g transform="translate(35.50390625 908.127671387398) rotate(0 5.5615234375 12)"><text x="0" y="0" font-family="Helvetica, Segoe UI Emoji" font-size="20px" fill="#000000" text-anchor="start" style="white-space: pre;" direction="ltr" dominant-baseline="text-before-edge">5</text></g><g transform="translate(35.50390625 768.127671387398) rotate(0 5.5615234375 12)"><text x="0" y="0" font-family="Helvetica, Segoe UI Emoji" font-size="20px" fill="#000000" text-anchor="start" style="white-space: pre;" direction="ltr" dominant-baseline="text-before-edge">6</text></g><g transform="translate(124.12266392436254 667.6109324532468) rotate(0 5.5615234375 12)"><text x="0" y="0" font-family="Helvetica, Segoe UI Emoji" font-size="20px" fill="#000000" text-anchor="start" style="white-space: pre;" direction="ltr" dominant-baseline="text-before-edge">7</text></g><g transform="translate(204.85896622270707 708.4349021723402) rotate(0 41.66666666666674 17.08333333333337)" stroke="none"><path fill="#40c057" d="M -0.83,-1.87 Q -0.83,-1.87 1.35,-2.74 3.55,-3.61 4.83,-4.46 6.11,-5.32 6.64,-5.51 7.18,-5.71 7.40,-5.81 7.63,-5.92 7.87,-5.97 8.11,-6.02 8.36,-6.01 8.61,-6.00 8.85,-5.93 9.09,-5.86 9.31,-5.74 9.52,-5.62 9.71,-5.44 9.89,-5.27 10.02,-5.06 10.15,-4.85 10.23,-4.61 10.31,-4.38 10.33,-4.13 10.35,-3.88 10.31,-3.63 10.27,-3.39 10.18,-3.16 10.08,-2.93 9.93,-2.73 9.78,-2.53 9.59,-2.37 9.39,-2.21 9.31,-0.13 9.23,1.93 8.54,3.76 7.84,5.60 6.74,7.44 5.63,9.28 4.72,11.50 3.81,13.73 3.22,15.11 2.63,16.48 2.14,18.11 1.65,19.74 1.28,21.04 0.91,22.33 0.99,23.77 1.06,25.20 1.07,26.33 1.08,27.46 1.10,27.71 1.12,27.97 1.08,28.30 1.04,28.63 0.92,28.95 0.80,29.26 0.61,29.54 0.41,29.81 0.16,30.04 -0.08,30.26 -0.38,30.41 -0.68,30.57 -1.01,30.65 -1.33,30.73 -1.67,30.73 -2.01,30.73 -2.33,30.64 -2.66,30.56 -2.96,30.40 -3.25,30.25 -3.50,30.02 -3.76,29.80 -3.95,29.52 -4.14,29.24 -4.25,28.93 -4.37,28.61 -4.41,28.28 -4.45,27.94 -2.85,25.48 -1.25,23.02 -0.39,22.04 0.45,21.07 1.60,20.14 2.76,19.21 4.41,17.86 6.07,16.50 8.03,14.75 9.99,13.00 11.33,11.89 12.68,10.78 14.54,9.64 16.40,8.50 17.95,7.69 19.49,6.87 21.15,6.26 22.82,5.66 23.66,4.83 24.50,4.00 26.08,3.11 27.66,2.21 28.75,1.67 29.84,1.14 30.02,0.86 30.20,0.58 30.48,0.46 30.77,0.34 31.07,0.30 31.38,0.26 31.69,0.29 31.99,0.32 32.28,0.42 32.58,0.52 32.83,0.69 33.09,0.86 33.30,1.09 33.51,1.31 33.66,1.58 33.81,1.85 33.89,2.15 33.97,2.45 33.98,2.76 33.99,3.07 33.92,3.37 33.85,3.67 33.72,3.94 33.58,4.22 33.38,4.46 33.18,4.69 32.93,4.87 32.68,5.06 31.89,6.53 31.09,8.00 29.80,10.24 28.51,12.48 27.48,14.78 26.45,17.09 25.23,19.57 24.02,22.04 22.53,25.00 21.04,27.96 20.51,29.42 19.98,30.88 20.04,31.57 20.10,32.26 19.99,32.46 19.88,32.66 19.72,32.82 19.57,32.99 19.38,33.11 19.19,33.24 18.98,33.31 18.76,33.39 18.54,33.41 18.31,33.43 18.09,33.40 17.86,33.36 17.65,33.28 17.44,33.19 17.26,33.06 17.08,32.93 16.93,32.75 16.79,32.58 16.69,32.38 16.59,32.17 16.54,31.95 16.49,31.73 16.50,31.50 16.50,31.28 16.56,31.06 16.62,30.84 19.32,29.54 22.02,28.24 24.53,26.73 27.04,25.22 29.51,23.19 31.97,21.16 35.00,18.83 38.03,16.49 40.04,15.02 42.06,13.55 43.15,12.78 44.25,12.01 46.54,11.24 48.83,10.47 50.65,9.70 52.47,8.93 53.53,8.47 54.59,8.00 56.01,7.54 57.43,7.08 57.77,6.86 58.11,6.63 58.35,6.60 58.59,6.56 58.83,6.59 59.07,6.61 59.30,6.69 59.52,6.77 59.73,6.90 59.93,7.03 60.09,7.21 60.26,7.39 60.38,7.60 60.49,7.81 60.56,8.04 60.62,8.28 60.63,8.52 60.64,8.76 60.58,9.00 60.53,9.23 60.42,9.45 60.32,9.67 60.16,9.85 60.01,10.04 59.81,10.18 59.62,10.32 59.39,10.41 59.17,10.50 57.83,12.39 56.49,14.27 54.80,17.28 53.11,20.29 51.37,23.07 49.63,25.86 47.43,28.98 45.22,32.09 43.81,34.11 42.40,36.13 41.96,37.18 41.52,38.24 41.57,38.78 41.61,39.33 41.48,39.50 41.36,39.68 41.19,39.83 41.03,39.97 40.83,40.07 40.64,40.17 40.43,40.22 40.21,40.27 40.00,40.27 39.78,40.27 39.57,40.21 39.35,40.16 39.16,40.05 38.97,39.95 38.81,39.80 38.65,39.66 38.52,39.48 38.40,39.30 38.32,39.09 38.25,38.89 38.22,38.67 38.20,38.45 38.23,38.23 38.26,38.02 38.34,37.81 38.42,37.61 41.37,36.53 44.32,35.46 46.93,34.25 49.54,33.04 52.82,31.33 56.11,29.62 59.22,28.17 62.34,26.71 64.40,25.85 66.46,24.99 68.60,24.37 70.73,23.75 72.40,23.38 74.06,23.02 76.36,22.47 78.66,21.93 81.05,21.13 83.45,20.34 83.72,20.30 84.00,20.27 84.26,20.33 84.53,20.39 84.77,20.53 85.01,20.67 85.19,20.88 85.36,21.08 85.47,21.34 85.57,21.59 85.59,21.87 85.60,22.14 85.53,22.41 85.46,22.67 85.31,22.90 85.16,23.13 84.94,23.30 84.72,23.46 84.46,23.55 84.20,23.64 83.93,23.65 83.65,23.65 83.39,23.56 83.13,23.48 82.91,23.31 82.69,23.15 82.53,22.92 82.38,22.69 82.30,22.43 82.23,22.16 82.24,21.89 82.25,21.61 82.35,21.36 82.45,21.10 82.63,20.89 82.81,20.68 83.04,20.54 83.28,20.40 83.54,20.33 83.81,20.27 84.09,20.30 84.36,20.33 84.61,20.44 84.86,20.56 85.06,20.75 85.26,20.93 85.39,21.17 85.52,21.42 85.57,21.69 85.61,21.96 85.57,22.23 85.53,22.50 85.40,22.75 85.27,22.99 85.08,23.18 84.88,23.37 84.63,23.49 84.38,23.60 84.38,23.60 84.38,23.60 81.88,24.20 79.37,24.80 76.96,25.43 74.55,26.06 73.03,26.22 71.50,26.37 69.52,26.95 67.54,27.54 65.54,28.40 63.55,29.26 60.50,30.72 57.46,32.18 54.14,33.96 50.82,35.74 48.05,37.09 45.27,38.44 43.44,38.88 41.61,39.33 41.48,39.50 41.36,39.68 41.19,39.83 41.03,39.97 40.83,40.07 40.64,40.17 40.43,40.22 40.22,40.27 40.00,40.27 39.78,40.27 39.57,40.21 39.35,40.16 39.16,40.05 38.97,39.95 38.81,39.80 38.65,39.66 38.52,39.48 38.40,39.30 38.32,39.09 38.25,38.89 38.22,38.67 38.20,38.45 38.23,38.23 38.26,38.02 38.34,37.81 38.42,37.61 38.48,37.22 38.55,36.82 39.30,35.67 40.04,34.51 41.42,32.46 42.80,30.41 44.90,27.34 47.01,24.26 48.64,21.50 50.26,18.74 51.99,15.46 53.72,12.18 55.92,9.41 58.11,6.63 58.35,6.60 58.59,6.56 58.83,6.59 59.07,6.61 59.30,6.69 59.52,6.77 59.73,6.90 59.93,7.03 60.09,7.21 60.26,7.39 60.38,7.60 60.49,7.81 60.56,8.04 60.62,8.28 60.63,8.52 60.64,8.76 60.58,9.00 60.53,9.23 60.43,9.45 60.32,9.67 60.16,9.85 60.01,10.04 59.81,10.18 59.62,10.32 59.39,10.41 59.17,10.50 58.80,10.61 58.43,10.71 56.05,11.23 53.67,11.74 51.75,12.56 49.84,13.39 47.85,14.11 45.86,14.83 44.79,15.31 43.71,15.79 41.74,17.26 39.77,18.74 36.81,21.07 33.85,23.41 31.24,25.61 28.63,27.81 25.96,29.48 23.29,31.16 21.69,31.71 20.10,32.26 19.99,32.46 19.88,32.66 19.72,32.82 19.57,32.99 19.38,33.11 19.19,33.24 18.98,33.31 18.76,33.39 18.54,33.41 18.31,33.43 18.09,33.40 17.86,33.36 17.65,33.28 17.44,33.19 17.26,33.06 17.08,32.93 16.93,32.75 16.79,32.58 16.69,32.38 16.59,32.17 16.54,31.95 16.49,31.73 16.50,31.51 16.50,31.28 16.56,31.06 16.62,30.84 16.72,30.26 16.82,29.67 17.52,28.13 18.22,26.59 19.61,23.62 21.01,20.65 22.07,18.20 23.14,15.74 24.08,13.20 25.03,10.67 26.14,8.28 27.25,5.89 28.72,3.23 30.20,0.58 30.48,0.46 30.77,0.34 31.07,0.30 31.38,0.26 31.69,0.29 31.99,0.32 32.28,0.42 32.58,0.52 32.83,0.69 33.09,0.86 33.30,1.09 33.51,1.31 33.66,1.58 33.81,1.85 33.89,2.15 33.97,2.45 33.98,2.76 33.99,3.07 33.92,3.37 33.85,3.67 33.72,3.94 33.58,4.22 33.38,4.46 33.18,4.69 32.93,4.87 32.68,5.05 32.56,5.21 32.43,5.36 31.07,6.00 29.71,6.64 28.40,6.89 27.09,7.14 25.63,8.21 24.17,9.29 22.68,9.79 21.19,10.28 19.81,10.92 18.43,11.57 16.80,12.74 15.18,13.91 13.96,14.86 12.73,15.80 10.91,17.76 9.08,19.71 7.46,21.43 5.83,23.16 4.27,24.41 2.71,25.66 1.92,26.81 1.12,27.97 1.08,28.30 1.04,28.63 0.92,28.95 0.80,29.26 0.61,29.54 0.41,29.81 0.16,30.04 -0.08,30.26 -0.38,30.41 -0.68,30.57 -1.01,30.65 -1.33,30.73 -1.67,30.73 -2.01,30.73 -2.33,30.64 -2.66,30.56 -2.96,30.40 -3.25,30.25 -3.50,30.02 -3.76,29.80 -3.95,29.52 -4.14,29.24 -4.25,28.93 -4.37,28.61 -4.41,28.28 -4.45,27.94 -4.43,27.69 -4.40,27.44 -4.33,25.76 -4.27,24.07 -4.05,22.58 -3.83,21.09 -3.26,19.95 -2.68,18.82 -1.74,16.80 -0.79,14.79 -0.14,13.64 0.50,12.49 1.38,9.92 2.27,7.35 3.13,5.78 3.98,4.21 4.54,2.54 5.09,0.87 5.46,-0.33 5.83,-1.53 6.50,-3.62 7.17,-5.71 7.40,-5.81 7.63,-5.92 7.87,-5.97 8.11,-6.02 8.36,-6.01 8.61,-6.00 8.85,-5.93 9.09,-5.86 9.31,-5.74 9.52,-5.62 9.71,-5.44 9.89,-5.27 10.02,-5.06 10.15,-4.85 10.23,-4.61 10.31,-4.38 10.33,-4.13 10.35,-3.88 10.31,-3.63 10.27,-3.39 10.18,-3.16 10.08,-2.93 9.93,-2.73 9.78,-2.53 9.59,-2.37 9.39,-2.21 8.74,-2.13 8.09,-2.05 6.58,-1.13 5.07,-0.21 2.95,0.82 0.83,1.87 0.59,1.95 0.36,2.02 0.11,2.03 -0.13,2.05 -0.37,2.00 -0.62,1.96 -0.84,1.85 -1.07,1.75 -1.26,1.60 -1.46,1.44 -1.61,1.25 -1.76,1.05 -1.86,0.82 -1.96,0.60 -2.01,0.35 -2.05,0.11 -2.03,-0.13 -2.02,-0.38 -1.94,-0.61 -1.87,-0.85 -1.74,-1.06 -1.61,-1.27 -1.43,-1.45 -1.26,-1.62 -1.04,-1.75 -0.83,-1.87 -0.83,-1.87 L -0.83,-1.87 Z"/></g><g stroke-linecap="round" transform="translate(42.751953125 69.91221020609692) rotate(0 270 70)"><path d="M1.83 -0.92 L541.07 -1.25 L541.38 141.72 L-0.17 141.74" stroke="none" stroke-width="0" fill="#868e96"/><path d="M0.11 0.66 C122.25 -1.26, 243.84 -1.88, 540.17 -0.05 M-0.32 0.35 C169.58 1.26, 338.97 1.93, 540.03 -0.07 M541.22 -0.45 C537.79 43.75, 538.2 87.47, 538.55 140.75 M540.71 -0.58 C540.29 28.09, 540.91 57.21, 540.05 139.65 M540.39 139.79 C409.82 137.88, 280.21 138.21, -0.71 140.7 M540.27 140.04 C397.56 138.82, 254.72 138.38, 0.33 139.81 M0.96 140.12 C0.61 88.9, -1.2 33.81, -1.7 1.98 M0.58 139.13 C0.97 98.27, 0.67 55.64, -0.33 0.48" stroke="#000" stroke-width="1" fill="none"/></g><g transform="translate(47.751953125 91.91221020609692) rotate(0 263.6962890625 48)"><text x="0" y="0" font-family="Helvetica, Segoe UI Emoji" font-size="20px" fill="#000" text-anchor="start" style="white-space: pre;" direction="ltr" dominant-baseline="text-before-edge">4. Потребитель пробуждается, получая номер </text><text x="0" y="24" font-family="Helvetica, Segoe UI Emoji" font-size="20px" fill="#000" text-anchor="start" style="white-space: pre;" direction="ltr" dominant-baseline="text-before-edge">последнего слота, записанного продюсером, и начинает</text><text x="0" y="48" font-family="Helvetica, Segoe UI Emoji" font-size="20px" fill="#000" text-anchor="start" style="white-space: pre;" direction="ltr" dominant-baseline="text-before-edge">чтение из буфера с позиции, которая им (потребителем)</text><text x="0" y="72" font-family="Helvetica, Segoe UI Emoji" font-size="20px" fill="#000" text-anchor="start" style="white-space: pre;" direction="ltr" dominant-baseline="text-before-edge">ожидалась (nextToRead - 1).</text></g><g stroke-linecap="round"><g transform="translate(1022.751953125 729.9122102060969) rotate(0 -60 -10)"><path d="M0.83 1.03 C-19.29 -2.01, -99.94 -15.55, -120.1 -18.96 M-0.19 0.52 C-20.54 -2.76, -100.98 -16.86, -121.11 -20.53" stroke="#000000" stroke-width="1" fill="none"/></g><g transform="translate(1022.751953125 729.9122102060969) rotate(0 -60 -10)"><path d="M-89.84 -25.87 C-100.3 -23.9, -111.56 -21.33, -123 -21.57 M-92.47 -25.12 C-102.71 -24.47, -112.17 -21.57, -121.63 -21.32" stroke="#000000" stroke-width="1" fill="none"/></g><g transform="translate(1022.751953125 729.9122102060969) rotate(0 -60 -10)"><path d="M-93.44 -5.66 C-102.5 -10.87, -112.49 -15.44, -123 -21.57 M-96.07 -4.91 C-104.92 -11.6, -113.07 -16.04, -121.63 -21.32" stroke="#000000" stroke-width="1" fill="none"/></g></g><mask/><g stroke-linecap="round"><g transform="translate(982.751953125 409.9122102060969) rotate(0 -350 140)"><path d="M-0.48 1.2 C-86.98 10.94, -402.54 13.26, -519.13 59.59 C-635.72 105.92, -669.91 242.35, -700.02 279.18 M1.47 0.78 C-85.09 11.2, -402.58 14.37, -519.62 60.91 C-636.67 107.46, -670.83 243.84, -700.8 280.06" stroke="#40c057" stroke-width="1" fill="none"/></g><g transform="translate(982.751953125 409.9122102060969) rotate(0 -350 140)"><path d="M-694.1 251.88 C-697.84 258.84, -699.87 267.71, -699.94 280.83 M-696.77 250.22 C-698.59 260.36, -700.02 270.21, -699.91 279.4" stroke="#40c057" stroke-width="1" fill="none"/></g><g transform="translate(982.751953125 409.9122102060969) rotate(0 -350 140)"><path d="M-676.16 261.83 C-685.12 265.88, -692.28 271.9, -699.94 280.83 M-678.83 260.17 C-686.73 266.99, -694.25 273.47, -699.91 279.4" stroke="#40c057" stroke-width="1" fill="none"/></g></g><mask/></svg>