<svg version="1.1" xmlns="http://www.w3.org/2000/svg" viewBox="0 0 1460 1065.5729838873979" width="1460" height="1065.5729838873979">
  <!-- svg-source:excalidraw -->
  
  <defs>
    <style class="style-fonts">
      @font-face {
        font-family: "Virgil";
        src: url("https://excalidraw.com/Virgil.woff2");
      }
      @font-face {
        font-family: "Cascadia";
        src: url("https://excalidraw.com/Cascadia.woff2");
      }
    </style>
  </defs>
  <g transform="translate(543.9052734375 591.8723286126021) rotate(0 55.01953125 12)"><text x="0" y="0" font-family="Helvetica, Segoe UI Emoji" font-size="20px" fill="#fd7e14" text-anchor="start" style="white-space: pre;" direction="ltr" dominant-baseline="text-before-edge">nextToClaim</text></g><g transform="translate(483.9052734375 691.8723286126021) rotate(0 73.9111328125 12)"><text x="0" y="0" font-family="Helvetica, Segoe UI Emoji" font-size="20px" fill="#000000" text-anchor="start" style="white-space: pre;" direction="ltr" dominant-baseline="text-before-edge">consumerBarrier</text></g><g transform="translate(983.9052734375 651.8723286126021) rotate(0 53.369140625 12)"><text x="0" y="0" font-family="Helvetica, Segoe UI Emoji" font-size="20px" fill="#40c057" text-anchor="start" style="white-space: pre;" direction="ltr" dominant-baseline="text-before-edge">nextToRead</text></g><g transform="translate(1003.9052734375 711.8723286126021) rotate(0 69.47265625 12)"><text x="0" y="0" font-family="Helvetica, Segoe UI Emoji" font-size="20px" fill="#000000" text-anchor="start" style="white-space: pre;" direction="ltr" dominant-baseline="text-before-edge">producerBarrier</text></g><g stroke-linecap="round"><g transform="translate(344.8341345281642 379.99732861260225) rotate(0 220.16141817456491 329.83618830748935)"><path d="M-1.09 -0.84 C9.67 55.33, 31.16 243.5, 65.52 337.62 C99.89 431.75, 142.54 510.25, 205.1 563.91 C267.66 617.57, 401.8 643.64, 440.87 659.59 M0.54 1.34 C11.58 57.58, 33.73 244.77, 67.68 338.74 C101.63 432.71, 141.93 511.51, 204.22 565.16 C266.51 618.81, 401.89 644.84, 441.41 660.65" stroke="#fd7e14" stroke-width="1" fill="none"/></g><g transform="translate(344.8341345281642 379.99732861260225) rotate(0 220.16141817456491 329.83618830748935)"><path d="M410.05 660.44 C421.42 661.51, 433.83 662.22, 441.27 659.38 M410.61 662 C419.98 662.36, 429.06 660.25, 441.29 660.33" stroke="#fd7e14" stroke-width="1" fill="none"/></g><g transform="translate(344.8341345281642 379.99732861260225) rotate(0 220.16141817456491 329.83618830748935)"><path d="M416.07 640.82 C425.27 649.24, 435.41 657.36, 441.27 659.38 M416.63 642.38 C424.11 648.63, 431.4 652.35, 441.29 660.33" stroke="#fd7e14" stroke-width="1" fill="none"/></g></g><mask/><g stroke-linecap="round" transform="translate(785.0197101306171 611.8723286126021) rotate(0 20.636420546431296 21.850327637397868)"><path d="M-1.75 -1.33 C14.14 0.06, 29.94 0.15, 40 -0.05 M-0.19 -0.38 C11.2 0.14, 19.84 0.23, 40.95 0.03 M40.91 0.13 C40.08 15.91, 39.8 32.03, 41.54 42.36 M40.51 0.42 C42.26 10.82, 41.39 23.32, 41.74 43.87 M40.09 43.65 C26.07 44.45, 12.79 42.41, 1.12 43.06 M41.12 43.57 C30.84 43.78, 22.01 43.86, -0.99 42.83 M0.07 42.24 C-1.67 29.94, -1.85 14.16, 1.17 -0.78 M0.6 43.62 C0.05 28.54, 0.52 12.04, -0.86 0.12" stroke="#000000" stroke-width="2" fill="none"/></g><g stroke-linecap="round" transform="translate(785.0197101306171 691.8723286126021) rotate(0 20.636420546431296 21.850327637397868)"><path d="M-1.33 -0.37 C8.4 1.28, 17.11 -0.91, 41.22 -1.01 M-0.38 0.9 C15.88 -0.68, 32.05 -0.24, 41.3 0.66 M41.4 -1.2 C40.77 11.65, 40.89 26.53, 39.93 42.99 M41.69 0.7 C40.52 15.79, 41.47 32.38, 41.44 44.01 M41.22 42.16 C30.01 42.31, 16.29 44.58, -0.64 42.34 M41.14 42.84 C27.68 43.52, 13.72 42.64, -0.87 44.28 M-1.46 42.19 C1.59 27.26, 1.45 15.37, -0.78 1.34 M-0.08 44.14 C0.65 27.54, 0.19 8.68, 0.12 -0.37" stroke="#000000" stroke-width="2" fill="none"/></g><g stroke-linecap="round" transform="translate(785.0197101306171 651.8723286126021) rotate(0 20.636420546431296 21.850327637397868)"><path d="M-0.37 -0.23 C10.42 0.14, 17.73 0.22, 40.26 1.79 M0.9 -0.21 C8.14 0.04, 17.47 0.19, 41.93 0 M40.07 -0.09 C39.71 9.05, 41.46 16.71, 40.56 45 M41.97 -0.73 C40.77 13.11, 41.4 25.96, 41.58 43.53 M39.73 44.12 C24.38 42.06, 10.92 43.05, -1.36 44.5 M40.41 44.14 C32.34 44.16, 22.65 42.78, 0.58 44.08 M-1.51 45.59 C-1.7 29.33, 1.16 10.67, 1.34 1.82 M0.44 44.58 C0.66 28.7, -1.13 12.98, -0.37 0.86" stroke="#000000" stroke-width="2" fill="none"/></g><g transform="translate(845.0197101306171 616.6723286126021) rotate(0 5.5615234375 12)"><text x="0" y="0" font-family="Helvetica, Segoe UI Emoji" font-size="20px" fill="#000000" text-anchor="start" style="white-space: pre;" direction="ltr" dominant-baseline="text-before-edge">2</text></g><g transform="translate(845.0197101306171 656.6723286126021) rotate(0 5.5615234375 12)"><text x="0" y="0" font-family="Helvetica, Segoe UI Emoji" font-size="20px" fill="#000000" text-anchor="start" style="white-space: pre;" direction="ltr" dominant-baseline="text-before-edge">1</text></g><g stroke-linecap="round" transform="translate(785.0197101306171 771.8723286126021) rotate(0 20.636420546431296 21.850327637397868)"><path d="M-0.14 -1.28 C11.56 -1.2, 25.03 -1.88, 40.9 -0.77 M41.03 -0.64 C41.24 18.36, 41.19 32.21, 40.91 43.83 M41.3 43.97 C30.02 42.68, 22.76 43.3, -1.52 44.54 M0.43 44.63 C0.65 28.15, -0.02 12.97, -1.19 -0.05" stroke="#000000" stroke-width="2.5" fill="none" stroke-dasharray="1.5 8"/></g><g stroke-linecap="round" transform="translate(785.0197101306171 731.8723286126021) rotate(0 20.636420546431296 21.850327637397868)"><path d="M-1.28 -0.05 C10.91 1.82, 22.14 -0.34, 40.51 1.8 M40.63 0.06 C42.26 12.2, 39.07 24.01, 41.4 42.5 M41.54 42.36 C28.36 45.01, 16.78 42.19, 0.84 45.1 M0.93 44.03 C0.7 33.46, 1.7 22.72, -0.05 -1.54" stroke="#000000" stroke-width="2.5" fill="none" stroke-dasharray="1.5 8"/></g><g transform="translate(845.0197101306171 736.6723286126021) rotate(0 22.24609375 12)"><text x="0" y="0" font-family="Helvetica, Segoe UI Emoji" font-size="20px" fill="#000000" text-anchor="start" style="white-space: pre;" direction="ltr" dominant-baseline="text-before-edge">255u</text></g><g transform="translate(845.0197101306171 696.6723286126021) rotate(0 5.5615234375 12)"><text x="0" y="0" font-family="Helvetica, Segoe UI Emoji" font-size="20px" fill="#000000" text-anchor="start" style="white-space: pre;" direction="ltr" dominant-baseline="text-before-edge">0</text></g><g transform="translate(845.0197101306171 776.6723286126021) rotate(0 22.24609375 12)"><text x="0" y="0" font-family="Helvetica, Segoe UI Emoji" font-size="20px" fill="#000000" text-anchor="start" style="white-space: pre;" direction="ltr" dominant-baseline="text-before-edge">254u</text></g><g stroke-linecap="round" transform="translate(785.0197101306171 811.8723286126021) rotate(0 20.636420546431296 21.850327637397868)"><path d="M-1.69 -0.37 C11.5 1.43, 24.12 -1.89, 41.03 -0.64 M39.4 -0.37 C41.69 12.04, 41.47 25, 41.3 43.97 M41.18 42.18 C32.5 45.37, 20.59 43.63, 0.43 44.63 M1.63 42.52 C-0.19 28.33, 0.28 14.89, -1.63 1.12" stroke="#000000" stroke-width="2.5" fill="none" stroke-dasharray="1.5 8"/></g><g stroke-linecap="round" transform="translate(785.0197101306171 851.8723286126021) rotate(0 20.636420546431296 21.850327637397868)"><path d="M-0.37 -0.77 C12.1 -0.07, 19.08 0.1, 40.63 0.06 M40.91 0.13 C40.08 15.91, 39.8 32.03, 41.54 42.36 M39.76 44.54 C31.77 42.21, 19.12 44.11, 0.93 44.03 M-1.19 43.65 C-1.46 29.64, -1.08 13.13, 1.12 -0.64" stroke="#000000" stroke-width="2.5" fill="none" stroke-dasharray="1.5 8"/></g><g transform="translate(845.0197101306171 816.6723286126021) rotate(0 22.24609375 12)"><text x="0" y="0" font-family="Helvetica, Segoe UI Emoji" font-size="20px" fill="#000000" text-anchor="start" style="white-space: pre;" direction="ltr" dominant-baseline="text-before-edge">253u</text></g><g transform="translate(845.0197101306171 856.6723286126021) rotate(0 22.24609375 12)"><text x="0" y="0" font-family="Helvetica, Segoe UI Emoji" font-size="20px" fill="#000000" text-anchor="start" style="white-space: pre;" direction="ltr" dominant-baseline="text-before-edge">252u</text></g><g stroke-linecap="round" transform="translate(785.0197101306171 891.8723286126021) rotate(0 20.636420546431296 21.850327637397868)"><path d="M-0.42 -1.52 C11.37 -1.01, 23.29 0.95, 41.28 -1.87 M41.18 -1.48 C41.33 12.58, 39.96 23.91, 42.58 43.6 M39.8 43.36 C32.45 44.92, 23.1 44.61, -0.34 45.33 M0.42 42.55 C-1.61 34.3, -0.63 21.3, 0.8 -1.73" stroke="#000000" stroke-width="2.5" fill="none" stroke-dasharray="1.5 8"/></g><g stroke-linecap="round" transform="translate(785.0197101306171 931.8723286126021) rotate(0 20.636420546431296 21.850327637397868)"><path d="M-1.52 -0.25 C10.16 0.15, 22.92 0.1, 39.4 -0.37 M39.79 0.03 C41.28 12.04, 40.3 28.08, 41.18 42.18 M40.94 44.13 C28.09 43.73, 13.67 43.06, 1.63 42.52 M-1.15 42.07 C1.46 30.07, -1.02 18.51, -1.73 -0.31" stroke="#000000" stroke-width="2.5" fill="none" stroke-dasharray="1.5 8"/></g><g transform="translate(845.0197101306171 896.6723286126021) rotate(0 22.24609375 12)"><text x="0" y="0" font-family="Helvetica, Segoe UI Emoji" font-size="20px" fill="#000000" text-anchor="start" style="white-space: pre;" direction="ltr" dominant-baseline="text-before-edge">251u</text></g><g transform="translate(845.0197101306171 936.6723286126023) rotate(0 22.24609375 12)"><text x="0" y="0" font-family="Helvetica, Segoe UI Emoji" font-size="20px" fill="#000000" text-anchor="start" style="white-space: pre;" direction="ltr" dominant-baseline="text-before-edge">240u</text></g><g stroke-linecap="round" transform="translate(785.0197101306171 971.8723286126021) rotate(0 20.636420546431296 21.850327637397868)"><path d="M0.06 1.32 C9.26 -1.74, 18.13 0.26, 40.07 -0.09 M39.93 -0.71 C42.58 9.78, 39.76 20.6, 42.68 42.23 M41.6 44.32 C29.25 45.52, 16.71 43.84, -1.54 44.12 M-0.64 42.34 C1.16 31.38, 0.04 22.24, -1.72 0.88" stroke="#000000" stroke-width="2.5" fill="none" stroke-dasharray="1.5 8"/></g><g stroke-linecap="round" transform="translate(785.0197101306171 1011.8723286126021) rotate(0 20.636420546431296 21.850327637397868)"><path d="M1.32 0.01 C10 -0.38, 23.87 -1.21, 41.18 -1.48 M40.56 1.3 C41.23 11.65, 42.17 27.74, 39.8 43.36 M41.9 43.36 C29.63 42.58, 14.68 42.23, 0.42 42.55 M-1.36 44.5 C-1.97 33.83, -0.51 22.86, 0.88 -0.22" stroke="#000000" stroke-width="2.5" fill="none" stroke-dasharray="1.5 8"/></g><g transform="translate(845.0197101306171 976.6723286126023) rotate(0 22.24609375 12)"><text x="0" y="0" font-family="Helvetica, Segoe UI Emoji" font-size="20px" fill="#000000" text-anchor="start" style="white-space: pre;" direction="ltr" dominant-baseline="text-before-edge">239u</text></g><g transform="translate(845.0197101306171 1016.6723286126023) rotate(0 22.24609375 12)"><text x="0" y="0" font-family="Helvetica, Segoe UI Emoji" font-size="20px" fill="#000000" text-anchor="start" style="white-space: pre;" direction="ltr" dominant-baseline="text-before-edge">238u</text></g><g stroke-linecap="round" transform="translate(785.0197101306171 491.87232861260213) rotate(0 20.636420546431296 21.850327637397868)"><path d="M-0.37 0.13 C13.91 0.3, 28.74 0.41, 41.54 -1.34 M-0.76 0.42 C11.61 -0.71, 21.65 0.24, 41.74 0.16 M40.09 -0.05 C39.66 14.89, 40.05 27.32, 42.4 43.06 M41.12 -0.13 C40.59 10.58, 41.34 20.79, 40.28 42.83 M41.34 42.24 C24.99 45.87, 10.03 45.74, 1.17 42.92 M41.88 43.62 C26.57 44.8, 11.9 44.34, -0.86 43.82 M0.8 45.49 C-0.18 31.28, 0.69 22.54, 0.35 0.93 M0.96 42.73 C1.06 35.68, 1 25.42, 0.17 0.3" stroke="#000000" stroke-width="2" fill="none"/></g><g stroke-linecap="round" transform="translate(785.0197101306171 571.8723286126021) rotate(0 20.636420546431296 21.850327637397868)"><path d="M0.13 -1.2 C12.31 -1.4, 24.83 0.34, 39.93 -0.71 M0.42 0.7 C14.34 0.14, 30.36 0.78, 41.44 0.31 M41.22 -1.54 C42.04 11.21, 40 25.85, 40.63 42.34 M41.14 -0.86 C41.34 14.75, 41.41 28.73, 40.4 44.28 M39.81 42.19 C29.23 42.03, 15.16 44.89, -0.78 45.04 M41.19 44.14 C26.03 44.87, 9.43 43.09, 0.12 43.34 M1.79 43.9 C-1.01 27.91, 1.76 10.34, 0.93 -1.96 M-0.97 44.34 C1.12 35.32, -0.3 25.92, 0.3 -0.53" stroke="#000000" stroke-width="2" fill="none"/></g><g stroke-linecap="round" transform="translate(785.0197101306171 531.8723286126021) rotate(0 20.636420546431296 21.850327637397868)"><path d="M-1.2 -0.09 C7.05 0, 17.32 -1.37, 40.56 1.3 M0.7 -0.73 C12.01 0.04, 24.82 -0.01, 41.58 -0.17 M39.73 0.42 C39.86 15.04, 42.14 32.69, 39.91 44.5 M40.41 0.44 C41.09 9.85, 40.21 17.8, 41.85 44.08 M39.76 45.59 C24.36 45.15, 11.99 42.62, 1.34 45.52 M41.71 44.58 C27.63 44.08, 11.28 43.79, -0.37 44.56 M0.2 42.79 C0.89 31.43, 0.17 16.36, -1.96 -1.89 M0.64 44.51 C0.17 33.1, -0.25 24.03, -0.53 -0.39" stroke="#000000" stroke-width="2" fill="none"/></g><g transform="translate(845.0197101306171 496.6723286126021) rotate(0 5.5615234375 12)"><text x="0" y="0" font-family="Helvetica, Segoe UI Emoji" font-size="20px" fill="#000000" text-anchor="start" style="white-space: pre;" direction="ltr" dominant-baseline="text-before-edge">5</text></g><g transform="translate(845.0197101306171 536.6723286126021) rotate(0 5.5615234375 12)"><text x="0" y="0" font-family="Helvetica, Segoe UI Emoji" font-size="20px" fill="#000000" text-anchor="start" style="white-space: pre;" direction="ltr" dominant-baseline="text-before-edge">4</text></g><g transform="translate(845.0197101306171 576.6723286126021) rotate(0 5.5615234375 12)"><text x="0" y="0" font-family="Helvetica, Segoe UI Emoji" font-size="20px" fill="#000000" text-anchor="start" style="white-space: pre;" direction="ltr" dominant-baseline="text-before-edge">3</text></g><g stroke-linecap="round" transform="translate(785.0197101306171 371.87232861260213) rotate(0 20.636420546431296 21.850327637397868)"><path d="M0.27 -1.34 C11.48 1.3, 24.29 -1.52, 42.11 1.4 M0.46 0.16 C9.66 -0.26, 19.51 -0.68, 41.25 -0.77 M42.4 -0.64 C39.66 14.82, 39.29 27.72, 41.01 41.98 M40.28 -0.87 C41.8 15.41, 41.91 30.1, 40.54 42.95 M42.44 42.92 C26.33 45.88, 9.78 45.27, -0.17 44.58 M40.41 43.82 C24.89 44.73, 9.47 44.27, 0.9 43.8 M0.35 44.63 C-2.19 30.68, -1.66 23.38, -1.95 1.29 M0.17 44 C-0.79 26.65, -0.09 10.85, -0.68 0.87" stroke="#000000" stroke-width="2" fill="none"/></g><g stroke-linecap="round" transform="translate(785.0197101306171 451.87232861260213) rotate(0 20.636420546431296 21.850327637397868)"><path d="M-1.34 -0.71 C10.63 -0.15, 17.14 0.78, 42.68 -1.47 M0.16 0.31 C11.52 0.62, 22.78 -0.22, 40.5 0.21 M40.63 -1.36 C41.72 8.87, 40.61 20.93, 39.55 44.58 M40.4 0.58 C41.87 13.31, 41.53 24.51, 40.52 44.64 M40.49 45.04 C34.18 45, 24.67 43.78, 0.88 45.46 M41.39 43.34 C25.95 43.58, 9.3 44.24, 0.1 43.25 M0.93 41.74 C-2.3 26.83, 1.52 10.86, 1.29 1.63 M0.3 43.17 C-0.12 28.18, 0.74 11.65, 0.87 0.26" stroke="#000000" stroke-width="2" fill="none"/></g><g stroke-linecap="round" transform="translate(785.0197101306171 411.87232861260213) rotate(0 20.636420546431296 21.850327637397868)"><path d="M-0.71 1.3 C12.34 -1.24, 25.71 1.68, 39.8 -0.34 M0.31 -0.17 C14.09 -0.66, 26.52 -0.84, 41.48 -0.58 M39.91 0.8 C39.79 9.25, 41.25 17.39, 42.15 43.48 M41.85 0.38 C41.53 15.39, 40.11 29.95, 42.22 42.86 M42.61 45.52 C26.33 44.75, 9.1 44.42, 1.76 45.54 M40.91 44.56 C27.41 44.15, 13.96 43.85, -0.45 44.23 M-1.96 41.81 C-1.5 28.44, -2.02 10.62, 1.63 1.18 M-0.53 43.31 C0.09 33.75, -0.75 23.73, 0.26 0.22" stroke="#000000" stroke-width="2" fill="none"/></g><g transform="translate(845.0197101306171 376.6723286126021) rotate(0 5.5615234375 12)"><text x="0" y="0" font-family="Helvetica, Segoe UI Emoji" font-size="20px" fill="#000000" text-anchor="start" style="white-space: pre;" direction="ltr" dominant-baseline="text-before-edge">8</text></g><g transform="translate(845.0197101306171 416.6723286126021) rotate(0 5.5615234375 12)"><text x="0" y="0" font-family="Helvetica, Segoe UI Emoji" font-size="20px" fill="#000000" text-anchor="start" style="white-space: pre;" direction="ltr" dominant-baseline="text-before-edge">7</text></g><g transform="translate(845.0197101306171 456.6723286126021) rotate(0 5.5615234375 12)"><text x="0" y="0" font-family="Helvetica, Segoe UI Emoji" font-size="20px" fill="#000000" text-anchor="start" style="white-space: pre;" direction="ltr" dominant-baseline="text-before-edge">6</text></g><g stroke-linecap="round" transform="translate(785.0197101306171 251.87232861260213) rotate(0 20.636420546431296 21.850327637397868)"><path d="M0.84 1.4 C13.6 -0.02, 30.57 1.24, 41.6 0.62 M-0.03 -0.77 C11.89 -0.33, 22.54 0.81, 40.95 -0.68 M41.01 -1.72 C41.77 14.63, 41.92 27.74, 39.53 44.86 M40.54 -0.75 C42.52 13.91, 42.45 30.09, 40.88 44.37 M41.11 44.58 C26.91 45.79, 9.85 42.23, 0.24 42.97 M42.17 43.8 C24.9 44.4, 10.37 44.04, 0.46 42.72 M-1.95 44.99 C1.94 35.91, -0.92 26.09, 0.6 -1.06 M-0.68 44.57 C0.19 32.53, 0.34 19.96, 0.14 -0.4" stroke="#000000" stroke-width="2" fill="none"/></g><g stroke-linecap="round" transform="translate(785.0197101306171 331.87232861260213) rotate(0 20.636420546431296 21.850327637397868)"><path d="M1.4 -1.47 C11.84 0.26, 25.29 0.16, 41.9 -0.34 M-0.77 0.21 C15.16 -0.8, 32.04 -0.31, 40.59 0.4 M39.55 0.88 C40.98 10.36, 39.22 16.93, 42.43 44.45 M40.52 0.94 C40.45 17, 41.87 31.86, 41.94 44.61 M42.16 45.46 C28.55 44.5, 10.42 43.91, -0.73 45.41 M41.37 43.25 C28.46 45, 14.75 44.53, -0.98 42.75 M1.29 45.33 C0.76 32.48, -0.09 24.33, -1.06 -0.79 M0.87 43.96 C0.01 30.28, -1.17 16.18, -0.4 0.61" stroke="#000000" stroke-width="2" fill="none"/></g><g stroke-linecap="round" transform="translate(785.0197101306171 291.87232861260213) rotate(0 20.636420546431296 21.850327637397868)"><path d="M-1.47 -0.34 C9.68 0.64, 18.83 0.33, 40.93 1.63 M0.21 -0.58 C9.12 0.88, 19.55 -0.36, 41.67 -0.86 M42.15 -0.22 C42.24 10.44, 39.47 26.02, 42.02 45.08 M42.22 -0.84 C41.83 13.85, 40.56 27.2, 42.18 44.23 M43.04 45.54 C27.23 42.16, 11.77 43.15, 1.71 44.17 M40.82 44.23 C28.18 43.91, 13.68 42.76, -0.95 42.99 M1.63 44.88 C-0.81 26.72, 1.03 8.02, -0.79 0.33 M0.26 43.92 C0.71 27.56, 0.44 12.94, 0.61 -0.38" stroke="#000000" stroke-width="2" fill="none"/></g><g transform="translate(845.0197101306171 256.6723286126021) rotate(0 10.380859375 12)"><text x="0" y="0" font-family="Helvetica, Segoe UI Emoji" font-size="20px" fill="#000000" text-anchor="start" style="white-space: pre;" direction="ltr" dominant-baseline="text-before-edge">11</text></g><g transform="translate(845.0197101306171 296.6723286126021) rotate(0 11.123046875 12)"><text x="0" y="0" font-family="Helvetica, Segoe UI Emoji" font-size="20px" fill="#000000" text-anchor="start" style="white-space: pre;" direction="ltr" dominant-baseline="text-before-edge">10</text></g><g transform="translate(845.0197101306171 336.6723286126021) rotate(0 5.5615234375 12)"><text x="0" y="0" font-family="Helvetica, Segoe UI Emoji" font-size="20px" fill="#000000" text-anchor="start" style="white-space: pre;" direction="ltr" dominant-baseline="text-before-edge">9</text></g><g stroke-linecap="round" transform="translate(785.0197101306171 211.87232861260213) rotate(0 20.636420546431296 21.850327637397868)"><path d="M0.33 0.62 C11.35 1.44, 22.19 -0.24, 39.73 0.42 M-0.32 -0.68 C10.41 -1.1, 19.86 -0.37, 40.41 0.44 M39.53 1.16 C42.25 14, 41.57 23.78, 39.76 45.59 M40.88 0.67 C42.56 9.96, 42.26 18.77, 41.71 44.58 M41.52 42.97 C26.8 43.81, 9.7 45.14, 0.2 42.79 M41.74 42.72 C25.74 43.06, 13.06 42.8, 0.64 44.51 M0.6 42.64 C-0.52 28.35, 1.22 10.97, 1.75 0.52 M0.14 43.3 C0.43 29.25, 0.42 16.42, 0.36 0.82" stroke="#000000" stroke-width="2" fill="none"/></g><g stroke-linecap="round" transform="translate(785.0197101306171 171.87232861260213) rotate(0 20.636420546431296 21.850327637397868)"><path d="M0.62 -0.34 C14.9 -1.25, 26.49 -1.61, 41.69 -1.15 M-0.68 0.4 C8.16 -0.02, 17.92 -0.73, 41.71 -0.11 M42.43 0.75 C42.22 15.42, 39.38 29.19, 43.16 42.02 M41.94 0.91 C42.06 17.55, 41.45 34.33, 42.15 44.62 M40.54 45.41 C27.64 44.55, 14.86 43.95, -0.91 44.77 M40.29 42.75 C24.33 44.85, 7.84 44.54, 0.81 44.29 M-1.06 42.91 C0.26 34.23, -1.44 24.61, 0.52 0.44 M-0.4 44.31 C0.04 29.4, 1.28 14.25, 0.82 0.47" stroke="#000000" stroke-width="2" fill="none"/></g><g transform="translate(845.0197101306171 176.6723286126021) rotate(0 11.123046875 12)"><text x="0" y="0" font-family="Helvetica, Segoe UI Emoji" font-size="20px" fill="#000000" text-anchor="start" style="white-space: pre;" direction="ltr" dominant-baseline="text-before-edge">13</text></g><g transform="translate(845.0197101306171 216.6723286126021) rotate(0 11.123046875 12)"><text x="0" y="0" font-family="Helvetica, Segoe UI Emoji" font-size="20px" fill="#000000" text-anchor="start" style="white-space: pre;" direction="ltr" dominant-baseline="text-before-edge">12</text></g><g stroke-linecap="round" transform="translate(785.0197101306171 11.872328612602132) rotate(0 20.636420546431296 21.850327637397868)"><path d="M-1.19 -0.05 C12.13 0.08, 26.19 -1.96, 42.4 -0.64 M-0.16 -0.13 C8.71 0.8, 19.04 0.87, 40.28 -0.87 M41.34 -1.46 C39.93 17.54, 39.75 33.05, 42.44 42.92 M41.88 -0.08 C42.11 16.92, 42.59 32.49, 40.41 43.82 M42.07 45.49 C30.6 42.89, 20.6 45.66, 0.35 44.63 M42.23 42.73 C33.57 44.22, 25.18 42.79, 0.17 44 M0.95 42.34 C1.92 33.41, 0.61 22.91, -1.93 0.29 M0.6 44.56 C0.09 33.15, 0.21 20.35, -0.32 0.51" stroke="#000000" stroke-width="2" fill="none"/></g><g stroke-linecap="round" transform="translate(785.0197101306171 51.87232861260213) rotate(0 20.636420546431296 21.850327637397868)"><path d="M-0.05 -1.54 C12.09 -0.91, 21.73 1.37, 40.63 -1.36 M-0.13 -0.86 C14.47 -0.05, 28.58 -0.93, 40.4 0.58 M39.81 -1.51 C43.46 13.07, 43.33 30.67, 40.49 45.04 M41.19 0.44 C42.39 18, 41.92 33.29, 41.39 43.34 M43.06 43.9 C24.45 44.93, 11.3 44.21, 0.93 41.74 M40.3 44.34 C33.61 44.69, 23.71 44.26, 0.3 43.17 M-1.36 45.45 C0.44 32.75, 0.75 18.99, 0.29 -0.79 M0.86 44.06 C0.99 28.4, -0.44 11.82, 0.51 -0.29" stroke="#000000" stroke-width="2" fill="none"/></g><g transform="translate(845.0197101306171 16.672328612602087) rotate(0 22.24609375 12)"><text x="0" y="0" font-family="Helvetica, Segoe UI Emoji" font-size="20px" fill="#000000" text-anchor="start" style="white-space: pre;" direction="ltr" dominant-baseline="text-before-edge">255u</text></g><g transform="translate(845.0197101306171 56.67232861260209) rotate(0 22.24609375 12)"><text x="0" y="0" font-family="Helvetica, Segoe UI Emoji" font-size="20px" fill="#000000" text-anchor="start" style="white-space: pre;" direction="ltr" dominant-baseline="text-before-edge">254u</text></g><g stroke-linecap="round"><g transform="translate(785.0197101306171 171.50965364353988) rotate(0 0 -40)"><path d="M0.58 -1.61 C0.21 -14.32, -2.03 -65.04, -2.28 -78.43" stroke="#000000" stroke-width="1.5" fill="none" stroke-dasharray="8 9"/></g></g><mask/><g stroke-linecap="round"><g transform="translate(825.0197101306171 171.50965364353988) rotate(0 0 -40)"><path d="M-1.61 -2.28 C-0.99 -15.86, 1.62 -68.13, 1.57 -80.89" stroke="#000000" stroke-width="1.5" fill="none" stroke-dasharray="8 9"/></g></g><mask/><g stroke-linecap="round"><g transform="translate(865.0197101306171 151.50965364353988) rotate(0 0 -30)"><path d="M-2.28 1.57 C-2.52 -8.48, -1.46 -51.24, -0.89 -61.9" stroke="#000000" stroke-width="1.5" fill="none" stroke-dasharray="1.5 7"/></g></g><mask/><g stroke-linecap="round"><g transform="translate(623.9052734375 711.8723286126021) rotate(0 80 20)"><path d="M1.57 -0.89 C1.52 3.01, -27.91 14.38, -1.9 21.12 C24.1 27.86, 130.66 36.82, 157.58 39.56 M-1.02 -3.85 C-0.03 -0.6, -23.89 9, 3.46 16.72 C30.82 24.43, 137.01 38.74, 163.1 42.44" stroke="#000000" stroke-width="1" fill="none"/></g><g transform="translate(623.9052734375 711.8723286126021) rotate(0 80 20)"><path d="M132.48 45.96 C142.58 43.38, 147.47 44.79, 159.66 44.19 M132.02 49.84 C142.92 48.84, 150.71 44.19, 161.59 44.32" stroke="#000000" stroke-width="1" fill="none"/></g><g transform="translate(623.9052734375 711.8723286126021) rotate(0 80 20)"><path d="M135.33 25.64 C144.41 28.02, 148.6 34.35, 159.66 44.19 M134.87 29.52 C145.16 34.33, 152.12 35.55, 161.59 44.32" stroke="#000000" stroke-width="1" fill="none"/></g></g><mask/><g stroke-linecap="round"><g transform="translate(565.3242658856511 610.1367933149103) rotate(0 109.29050377592444 50.86776764884593)"><path d="M-0.89 -1.9 C19.44 7.72, 83.2 42.11, 119.7 59.32 C156.21 76.53, 202.07 94.09, 218.14 101.36 M3.82 3.23 C24.08 12.98, 82.69 44.79, 118.07 61.63 C153.45 78.47, 199.87 98.28, 216.1 104.27" stroke="#fd7e14" stroke-width="1" fill="none"/></g><g transform="translate(565.3242658856511 610.1367933149103) rotate(0 109.29050377592444 50.86776764884593)"><path d="M183.39 104.91 C189.23 103.09, 198.71 100.48, 217.86 103.82 M187.28 104.06 C198.01 104.24, 205.7 103, 217.99 102.59" stroke="#fd7e14" stroke-width="1" fill="none"/></g><g transform="translate(565.3242658856511 610.1367933149103) rotate(0 109.29050377592444 50.86776764884593)"><path d="M191.02 85.86 C195.4 88.16, 203.22 89.71, 217.86 103.82 M194.91 85.01 C202.58 91.75, 207.59 97.2, 217.99 102.59" stroke="#fd7e14" stroke-width="1" fill="none"/></g></g><mask/><g stroke-linecap="round"><g transform="translate(1003.9052734375 671.8723286126021) rotate(0 -68.5 19.75)"><path d="M-1.9 1.12 C-12.57 4.53, -39.84 13.57, -62.42 19.56 C-85 25.56, -125.15 33.82, -137.37 37.09 M2.26 -0.74 C-7.7 3.19, -33.72 16.35, -57.33 22.95 C-80.94 29.56, -126.52 35.78, -139.38 38.89" stroke="#40c057" stroke-width="1" fill="none"/></g><g transform="translate(1003.9052734375 671.8723286126021) rotate(0 -68.5 19.75)"><path d="M-111.98 20.14 C-123.49 28.16, -135.5 35.9, -139.83 40.94 M-112.83 24.97 C-118.96 25.5, -125.72 31.92, -141.07 40.65" stroke="#40c057" stroke-width="1" fill="none"/></g><g transform="translate(1003.9052734375 671.8723286126021) rotate(0 -68.5 19.75)"><path d="M-108.18 40.3 C-120.92 41.09, -134.28 41.65, -139.83 40.94 M-109.03 45.14 C-115.57 41.66, -123.09 44.03, -141.07 40.65" stroke="#40c057" stroke-width="1" fill="none"/></g></g><mask/><g stroke-linecap="round"><g transform="translate(1043.9052734375 731.8723286126021) rotate(0 -69.25 10)"><path d="M1.12 -2.42 C-21.89 1.17, -115.27 15.69, -138.94 19.63 M-1.72 2.44 C-25.05 6.65, -119.13 20.73, -141.41 23.05" stroke="#000000" stroke-width="1" fill="none"/></g><g transform="translate(1043.9052734375 731.8723286126021) rotate(0 -69.25 10)"><path d="M-118.26 8.58 C-122.66 9.69, -127.5 16.39, -139.36 19.09 M-113.42 9.27 C-121.77 10.85, -124.09 13.62, -139.66 24.23" stroke="#000000" stroke-width="1" fill="none"/></g><g transform="translate(1043.9052734375 731.8723286126021) rotate(0 -69.25 10)"><path d="M-115.58 28.93 C-120.42 24.6, -125.98 25.85, -139.36 19.09 M-110.75 29.62 C-119.9 26.88, -122.79 25.32, -139.66 24.23" stroke="#000000" stroke-width="1" fill="none"/></g></g><mask/><g stroke-linecap="round"><g transform="translate(1190 450) rotate(0 -33.04736328125 140.93616430630107)"><path d="M-2.42 -0.44 C-2.76 9.39, 6.44 13.09, -3.97 60.09 C-14.38 107.09, -54.75 245.06, -64.86 281.56" stroke="#40c057" stroke-width="1.5" fill="none" stroke-dasharray="1.5 7"/></g><g transform="translate(1190 450) rotate(0 -33.04736328125 140.93616430630107)"><path d="M-67.65 251.1 C-69.73 260.37, -66.23 267.61, -68.83 278.08" stroke="#40c057" stroke-width="1.5" fill="none" stroke-dasharray="1.5 5"/></g><g transform="translate(1190 450) rotate(0 -33.04736328125 140.93616430630107)"><path d="M-47.91 256.71 C-54.61 264.34, -55.7 270.27, -68.83 278.08" stroke="#40c057" stroke-width="1.5" fill="none" stroke-dasharray="1.5 5"/></g></g><mask/><g stroke-linecap="round"><g transform="translate(422.4840844961486 405.7531895737574) rotate(0 40.71059447067569 153.05956951942235)"><path d="M-0.44 -0.37 C12.54 51.26, 65.42 256.03, 79.01 307.35" stroke="#fd7e14" stroke-width="1.5" fill="none" stroke-dasharray="1.5 7"/></g><g transform="translate(422.4840844961486 405.7531895737574) rotate(0 40.71059447067569 153.05956951942235)"><path d="M61.43 279.22 C69.09 290.66, 75.18 295.54, 75.53 309.67" stroke="#fd7e14" stroke-width="1.5" fill="none" stroke-dasharray="1.5 5"/></g><g transform="translate(422.4840844961486 405.7531895737574) rotate(0 40.71059447067569 153.05956951942235)"><path d="M81.29 274.04 C82.11 287.18, 81.45 293.82, 75.53 309.67" stroke="#fd7e14" stroke-width="1.5" fill="none" stroke-dasharray="1.5 5"/></g></g><mask/><g stroke-linecap="round" transform="translate(10 490) rotate(0 131 41)"><path d="M0.42 0.05 L263.14 1.19 L263.74 83.37 L-1.4 82" stroke="none" stroke-width="0" fill="#868e96"/><path d="M0.7 -0.18 C75.33 0.22, 147.63 2.72, 262.6 1.1 M0.75 -0.67 C80.21 2.04, 158.72 2.11, 262.72 0.42 M263.76 1.84 C262.77 27.83, 262.18 58.37, 263.71 82.47 M261.55 0.53 C263.67 28.04, 263.2 54.76, 261.05 81.29 M263.29 82.94 C157.22 83.61, 54.89 82.5, -0.63 82.26 M262.21 82.18 C171.31 83.05, 80.08 83.51, 0.49 81.7 M1.65 82.95 C-1.91 51.85, 0.32 22.42, 1.59 -1.69 M0.97 81.19 C-0.89 63.06, -0.37 44.69, 0.03 -0.47" stroke="#000" stroke-width="1" fill="none"/></g><g transform="translate(15 507) rotate(0 118.486328125 24)"><text x="0" y="0" font-family="Helvetica, Segoe UI Emoji" font-size="20px" fill="#000" text-anchor="start" style="white-space: pre;" direction="ltr" dominant-baseline="text-before-edge">bufferSize = 8</text><text x="0" y="24" font-family="Helvetica, Segoe UI Emoji" font-size="20px" fill="#000" text-anchor="start" style="white-space: pre;" direction="ltr" dominant-baseline="text-before-edge">indexMask = bufferSize - 1</text></g><g stroke-linecap="round" transform="translate(130.62499999999977 315.7092323650925) rotate(0 222 37.5)"><path d="M-0.76 -1.3 L443.42 0.01 L442.02 73.86 L-0.81 73.95" stroke="none" stroke-width="0" fill="#fd7e14"/><path d="M-0.74 0.93 C162.99 2.47, 328.22 1.22, 444.66 0.9 M0.22 0.43 C157.14 0.39, 312.95 0.24, 443.82 0.42 M444.2 -0.91 C445.37 26.12, 444.64 49.45, 442.04 73.11 M444.64 0.81 C445.31 16.53, 444.89 34.59, 443.47 74.61 M444.86 75.25 C303.69 73.91, 161.99 73.65, -0.39 75.6 M444.18 75.41 C327.87 76.59, 211.11 77.14, -0.14 75.39 M-0.39 76.95 C-1.05 57.55, -0.72 42.42, -1.47 0.06 M0.57 75.6 C0.71 56.75, -0.86 37.12, 0.35 0.16" stroke="#000000" stroke-width="1" fill="none"/></g><g transform="translate(135.62499999999977 329.2092323650925) rotate(0 205.4736328125 24)"><text x="0" y="0" font-family="Helvetica, Segoe UI Emoji" font-size="20px" fill="#000000" text-anchor="start" style="white-space: pre;" direction="ltr" dominant-baseline="text-before-edge">producer:</text><text x="0" y="24" font-family="Helvetica, Segoe UI Emoji" font-size="20px" fill="#000000" text-anchor="start" style="white-space: pre;" direction="ltr" dominant-baseline="text-before-edge">wait_until_published(nextToClaim - bufferSize)</text></g><g stroke-linecap="round" transform="translate(950 370) rotate(0 161 41)"><path d="M-1.48 1.2 L323.21 0.28 L321.64 82.25 L-1.64 80.32" stroke="none" stroke-width="0" fill="#40c057"/><path d="M-1.14 0.71 C72.53 -0.14, 144.31 -0.17, 320.83 0.77 M0.15 -0.21 C103.12 1.18, 206.18 0.54, 322.3 -0.69 M321.31 1.86 C322.93 22.43, 323.13 46.16, 321.81 80.08 M322.45 -0.57 C321.31 26.03, 321.7 52.69, 322.15 81.6 M321.84 81.37 C238.03 84.2, 154.62 83.22, -1.01 82.95 M321.85 82.22 C230.6 82.72, 139.7 83.54, -0.06 81.37 M1.46 80.02 C-1.05 64.34, -1.77 47.61, 1.22 -0.51 M0.21 82.45 C0.94 54.28, -0.22 25.34, -0.61 -0.42" stroke="#000" stroke-width="1" fill="none"/></g><g transform="translate(955 387) rotate(0 150.0927734375 24)"><text x="0" y="0" font-family="Helvetica, Segoe UI Emoji" font-size="20px" fill="#000" text-anchor="start" style="white-space: pre;" direction="ltr" dominant-baseline="text-before-edge">consumer:</text><text x="0" y="24" font-family="Helvetica, Segoe UI Emoji" font-size="20px" fill="#000" text-anchor="start" style="white-space: pre;" direction="ltr" dominant-baseline="text-before-edge">wait_until_published(nextToRead)</text></g><g stroke-linecap="round" transform="translate(30 730.5167389341511) rotate(0 150 150)"><path d="M106.54 5.36 C120.16 -1.22, 138.9 -0.42, 154.47 0.09 C170.04 0.61, 185.43 3.38, 199.98 8.45 C214.53 13.51, 229.34 21.22, 241.77 30.5 C254.21 39.78, 265.98 51.39, 274.61 64.11 C283.23 76.82, 289.45 91.69, 293.51 106.78 C297.57 121.88, 299.39 139.03, 298.96 154.67 C298.53 170.31, 295.79 186.18, 290.91 200.61 C286.03 215.04, 278.88 229.16, 269.69 241.24 C260.5 253.32, 248.65 264.36, 235.77 273.1 C222.89 281.84, 207.51 289.3, 192.4 293.68 C177.29 298.06, 160.49 299.6, 145.11 299.38 C129.73 299.16, 114.68 297.54, 100.15 292.36 C85.61 287.17, 70.04 277.85, 57.89 268.26 C45.74 258.66, 35.71 247.3, 27.24 234.78 C18.78 222.25, 11.49 207.86, 7.09 193.11 C2.68 178.36, 0.66 161.73, 0.8 146.26 C0.94 130.8, 2.9 114.93, 7.92 100.33 C12.95 85.74, 21.39 70.88, 30.94 58.69 C40.49 46.51, 51.88 36.05, 65.21 27.22 C78.53 18.39, 102.64 9.11, 110.89 5.72 C119.13 2.32, 114.14 4.4, 114.69 6.83 M81.8 17.81 C93.46 8.88, 108.66 3.83, 123.69 0.94 C138.72 -1.95, 156.26 -2, 171.98 0.46 C187.7 2.93, 204.23 8.44, 218.02 15.72 C231.8 23, 243.97 33.48, 254.7 44.12 C265.42 54.76, 275.12 66.17, 282.36 79.54 C289.61 92.91, 295.43 108.77, 298.17 124.36 C300.91 139.94, 301.06 157.88, 298.81 173.07 C296.57 188.25, 291.77 201.59, 284.69 215.48 C277.62 229.38, 267.41 245.19, 256.36 256.45 C245.31 267.71, 231.86 275.92, 218.4 283.04 C204.95 290.17, 190.75 296.57, 175.65 299.18 C160.55 301.79, 143.16 301.1, 127.79 298.68 C112.43 296.26, 97.13 291.55, 83.46 284.65 C69.78 277.76, 56.77 268.41, 45.73 257.3 C34.69 246.18, 24.73 231.73, 17.22 217.99 C9.71 204.24, 3.34 189.74, 0.66 174.82 C-2.01 159.91, -1.23 143.69, 1.15 128.5 C3.53 113.31, 7.81 97.8, 14.95 83.68 C22.1 69.56, 33.34 55, 44.04 43.77 C54.74 32.54, 73.08 20.36, 79.15 16.3 C85.23 12.23, 78.84 16.95, 80.48 19.39" stroke="#000000" stroke-width="1" fill="none"/></g><g stroke-linecap="round" transform="translate(90 790.5167389341511) rotate(0 90 90)"><path d="M57.16 6.58 C66.72 1.48, 79.34 0.85, 90.61 0.84 C101.89 0.82, 114.17 2.21, 124.79 6.49 C135.42 10.76, 146.22 18.05, 154.38 26.48 C162.54 34.9, 169.44 46.46, 173.74 57.04 C178.05 67.62, 180.47 78.45, 180.24 89.97 C180 101.49, 176.97 115.45, 172.32 126.16 C167.68 136.88, 160.4 146.25, 152.37 154.27 C144.34 162.29, 134.71 169.98, 124.15 174.3 C113.59 178.62, 100.56 180.4, 89.03 180.19 C77.5 179.98, 65.41 177.55, 54.95 173.05 C44.49 168.55, 34.32 161.56, 26.27 153.17 C18.23 144.79, 11.2 133.4, 6.66 122.72 C2.13 112.04, -0.98 100.36, -0.95 89.1 C-0.92 77.83, 2.28 65.63, 6.85 55.12 C11.42 44.62, 17.71 34.46, 26.46 26.07 C35.21 17.69, 53.69 8.17, 59.37 4.83 C65.05 1.5, 60.3 4.54, 60.53 6.04 M133.78 10.76 C143.77 14.54, 152.04 24.16, 159.24 33.2 C166.44 42.24, 173.72 53.71, 176.99 65 C180.26 76.3, 180.39 89.59, 178.85 100.96 C177.32 112.33, 173.31 123.28, 167.77 133.22 C162.23 143.15, 154.53 153.57, 145.6 160.59 C136.67 167.6, 125.02 172.38, 114.18 175.31 C103.34 178.23, 92 179.4, 80.56 178.14 C69.11 176.88, 55.51 173.06, 45.51 167.74 C35.51 162.42, 27.4 155.2, 20.54 146.22 C13.68 137.24, 7.78 124.89, 4.35 113.88 C0.91 102.87, -0.93 91.48, -0.05 80.16 C0.82 68.84, 3.84 55.93, 9.6 45.93 C15.35 35.93, 25.38 26.97, 34.47 20.16 C43.57 13.35, 53.08 8.26, 64.17 5.09 C75.25 1.92, 89.69 0.23, 100.99 1.13 C112.29 2.03, 126.86 8.57, 131.96 10.47 C137.05 12.36, 132.16 11.24, 131.55 12.51" stroke="#000000" stroke-width="1" fill="none"/></g><g stroke-linecap="round"><g transform="translate(30 890.5167389341511) rotate(0 30 0)"><path d="M0.84 0.51 C10.61 0.32, 49.98 -0.67, 59.8 -0.67 M-0.18 -0.26 C9.31 -0.35, 48.91 0.73, 58.75 0.51" stroke="#000000" stroke-width="1" fill="none"/></g></g><mask/><g stroke-linecap="round"><g transform="translate(270 870.5167389341511) rotate(0 30 0)"><path d="M-0.07 0.67 C9.78 0.49, 49.6 -0.04, 59.63 -0.31 M-1.57 -0.03 C8.05 -0.1, 48.32 1.08, 58.48 1.06" stroke="#000000" stroke-width="1" fill="none"/></g></g><mask/><g stroke-linecap="round"><g transform="translate(170 790.5167389341511) rotate(0 0 -30)"><path d="M0.97 -0.88 C0.76 -11.08, -0.53 -50.74, -0.64 -60.72 M0.03 1.27 C0.14 -8.83, 1.78 -49.38, 1.74 -59.55" stroke="#000000" stroke-width="1" fill="none"/></g></g><mask/><g stroke-linecap="round"><g transform="translate(190 1030.5167389341511) rotate(0 0 -30)"><path d="M0.43 1.13 C0.45 -8.76, -0.37 -49.38, -0.55 -59.73 M-0.8 0.67 C-0.93 -9.56, -1.63 -51.57, -1.79 -61.71" stroke="#000000" stroke-width="1" fill="none"/></g></g><mask/><g stroke-linecap="round"><g transform="translate(250 930.5167389341511) rotate(0 20 30)"><path d="M0.55 -0.24 C7.01 9.56, 33.17 49.28, 39.64 59.2 M-0.63 -1.42 C5.57 8.48, 32.02 50.04, 38.51 60.31" stroke="#000000" stroke-width="1" fill="none"/></g></g><mask/><g stroke-linecap="round"><g transform="translate(110 830.5167389341511) rotate(0 -20 -30)"><path d="M0.23 -0.44 C-6.48 -10.15, -32.6 -49.4, -39.37 -59.22 M-1.12 -1.72 C-8 -11.68, -33.28 -50.99, -39.98 -60.93" stroke="#000000" stroke-width="1" fill="none"/></g></g><mask/><g stroke-linecap="round"><g transform="translate(230 810.5167389341511) rotate(0 30 -20)"><path d="M-0.89 0.75 C9.07 -5.96, 50.32 -33.66, 60.39 -40.37 M0.85 0.1 C10.62 -6.44, 50.03 -32.08, 59.64 -39.02" stroke="#000000" stroke-width="1" fill="none"/></g></g><mask/><g stroke-linecap="round"><g transform="translate(130 950.5167389341511) rotate(0 -30 20)"><path d="M-1.07 -0.76 C-11.28 5.81, -51.1 32.27, -60.85 39.08 M0.57 1.46 C-9.31 8.18, -48.47 33.47, -58.59 40.14" stroke="#000000" stroke-width="1" fill="none"/></g></g><mask/><g transform="translate(230 710.5167389341511) rotate(0 5.5615234375 12)"><text x="0" y="0" font-family="Helvetica, Segoe UI Emoji" font-size="20px" fill="#000000" text-anchor="start" style="white-space: pre;" direction="ltr" dominant-baseline="text-before-edge">0</text></g><g transform="translate(341.23167783186364 804.7706719365237) rotate(0 5.5615234375 12)"><text x="0" y="0" font-family="Helvetica, Segoe UI Emoji" font-size="20px" fill="#000000" text-anchor="start" style="white-space: pre;" direction="ltr" dominant-baseline="text-before-edge">1</text></g><g transform="translate(336.177241995249 927.340740974428) rotate(0 5.5615234375 12)"><text x="0" y="0" font-family="Helvetica, Segoe UI Emoji" font-size="20px" fill="#000000" text-anchor="start" style="white-space: pre;" direction="ltr" dominant-baseline="text-before-edge">2</text></g><g transform="translate(250 1030.5167389341511) rotate(0 5.5615234375 12)"><text x="0" y="0" font-family="Helvetica, Segoe UI Emoji" font-size="20px" fill="#000000" text-anchor="start" style="white-space: pre;" direction="ltr" dominant-baseline="text-before-edge">3</text></g><g transform="translate(110 1030.5167389341511) rotate(0 5.5615234375 12)"><text x="0" y="0" font-family="Helvetica, Segoe UI Emoji" font-size="20px" fill="#000000" text-anchor="start" style="white-space: pre;" direction="ltr" dominant-baseline="text-before-edge">4</text></g><g transform="translate(10 950.5167389341511) rotate(0 5.5615234375 12)"><text x="0" y="0" font-family="Helvetica, Segoe UI Emoji" font-size="20px" fill="#000000" text-anchor="start" style="white-space: pre;" direction="ltr" dominant-baseline="text-before-edge">5</text></g><g transform="translate(10 810.5167389341511) rotate(0 5.5615234375 12)"><text x="0" y="0" font-family="Helvetica, Segoe UI Emoji" font-size="20px" fill="#000000" text-anchor="start" style="white-space: pre;" direction="ltr" dominant-baseline="text-before-edge">6</text></g><g transform="translate(98.61875767436254 710) rotate(0 5.5615234375 12)"><text x="0" y="0" font-family="Helvetica, Segoe UI Emoji" font-size="20px" fill="#000000" text-anchor="start" style="white-space: pre;" direction="ltr" dominant-baseline="text-before-edge">7</text></g><g stroke-linecap="round" transform="translate(10 10) rotate(0 260 70)"><path d="M0.72 1.68 L521.16 -0.57 L518.76 139.66 L-1.39 140.71" stroke="none" stroke-width="0" fill="#868e96"/><path d="M0.78 -0.03 C197.62 0.98, 396.42 1.26, 519.42 -0.44 M-0.03 0.24 C147.38 -0.31, 295.01 -0.18, 519.74 0.27 M518.96 1.69 C520.35 35.14, 521.97 65.88, 518.85 139.53 M519.5 0.21 C519.38 34.38, 519.48 69.79, 520.18 139.89 M519.72 140.73 C414.97 140.25, 310.66 140.14, -0.51 140.1 M519.81 140.12 C387.43 141.12, 255.25 140.83, -0.02 139.74 M-0.43 141.75 C1.92 86.67, 1.43 36.67, 1.02 1.35 M-0.53 140.69 C0.23 99.66, 0.44 59.46, 0.66 -0.39" stroke="#000" stroke-width="1" fill="none"/></g><g transform="translate(15 32) rotate(0 251.2744140625 48)"><text x="0" y="0" font-family="Helvetica, Segoe UI Emoji" font-size="20px" fill="#000" text-anchor="start" style="white-space: pre;" direction="ltr" dominant-baseline="text-before-edge">1. Начальное состояние, продюсер захватывает слот </text><text x="0" y="24" font-family="Helvetica, Segoe UI Emoji" font-size="20px" fill="#000" text-anchor="start" style="white-space: pre;" direction="ltr" dominant-baseline="text-before-edge">в буфере, запрашивая в барьере потребителя номер </text><text x="0" y="48" font-family="Helvetica, Segoe UI Emoji" font-size="20px" fill="#000" text-anchor="start" style="white-space: pre;" direction="ltr" dominant-baseline="text-before-edge">предшествующий позиции для захвата на размер </text><text x="0" y="72" font-family="Helvetica, Segoe UI Emoji" font-size="20px" fill="#000" text-anchor="start" style="white-space: pre;" direction="ltr" dominant-baseline="text-before-edge">буфера.</text></g><g stroke-linecap="round" transform="translate(950 110) rotate(0 250 60)"><path d="M1.59 -0.64 L498.43 0.84 L501.62 119.34 L-1.14 118.68" stroke="none" stroke-width="0" fill="#868e96"/><path d="M-0.34 0.39 C163.13 -0.95, 325.8 -0.79, 500.68 -0.55 M0.26 -0.29 C119.63 1.53, 239.28 1.01, 499.66 0.24 M498.21 0.73 C498.7 42.6, 498.46 82.42, 499.69 121.77 M499.05 0.49 C499.83 41.3, 499.43 81.64, 500.17 120.46 M499.32 119.39 C371.41 121.16, 243.1 120.02, -0.08 119.37 M500.26 120.03 C321.5 122.13, 142.84 121.7, 0.07 119.7 M0.83 118.74 C0.84 75.66, -0.58 34.44, -1.62 -0.09 M0.57 119.69 C-0.52 95.22, -0.4 71.18, -0.72 0.29" stroke="#000" stroke-width="1" fill="none"/></g><g transform="translate(955 146) rotate(0 230.09765625 24)"><text x="0" y="0" font-family="Helvetica, Segoe UI Emoji" font-size="20px" fill="#000" text-anchor="start" style="white-space: pre;" direction="ltr" dominant-baseline="text-before-edge">Потребитель запрашивает в барьере продюсера </text><text x="0" y="24" font-family="Helvetica, Segoe UI Emoji" font-size="20px" fill="#000" text-anchor="start" style="white-space: pre;" direction="ltr" dominant-baseline="text-before-edge">позицию для чтения.</text></g></svg>