<svg version="1.1" xmlns="http://www.w3.org/2000/svg" viewBox="0 0 1420 1069.0925151373979" width="1420" height="1069.0925151373979">
  <!-- svg-source:excalidraw -->
  
  <defs>
    <style class="style-fonts">
      @font-face {
        font-family: "Virgil";
        src: url("https://excalidraw.com/Virgil.woff2");
      }
      @font-face {
        font-family: "Cascadia";
        src: url("https://excalidraw.com/Cascadia.woff2");
      }
    </style>
  </defs>
  <g transform="translate(569.4091796875 595.3918598626021) rotate(0 55.01953125 12)"><text x="0" y="0" font-family="Helvetica, Segoe UI Emoji" font-size="20px" fill="#fd7e14" text-anchor="start" style="white-space: pre;" direction="ltr" dominant-baseline="text-before-edge">nextToClaim</text></g><g transform="translate(509.4091796875 695.3918598626021) rotate(0 73.9111328125 12)"><text x="0" y="0" font-family="Helvetica, Segoe UI Emoji" font-size="20px" fill="#000000" text-anchor="start" style="white-space: pre;" direction="ltr" dominant-baseline="text-before-edge">consumerBarrier</text></g><g transform="translate(1009.4091796875 655.3918598626021) rotate(0 53.369140625 12)"><text x="0" y="0" font-family="Helvetica, Segoe UI Emoji" font-size="20px" fill="#40c057" text-anchor="start" style="white-space: pre;" direction="ltr" dominant-baseline="text-before-edge">nextToRead</text></g><g transform="translate(1029.4091796875 715.3918598626021) rotate(0 69.47265625 12)"><text x="0" y="0" font-family="Helvetica, Segoe UI Emoji" font-size="20px" fill="#000000" text-anchor="start" style="white-space: pre;" direction="ltr" dominant-baseline="text-before-edge">producerBarrier</text></g><g stroke-linecap="round"><g transform="translate(465.22075866357625 350) rotate(0 172.38962066821188 180)"><path d="M-0.81 -0.58 C-0.1 19.39, -6.43 69.25, 4.33 119.27 C15.09 169.28, 7.01 259.21, 63.73 299.49 C120.45 339.78, 297.66 350.74, 344.64 360.99 M0.97 1.73 C1.47 21.89, -7.7 70.61, 3.15 120.42 C14 170.22, 9.13 260.79, 66.08 300.54 C123.02 340.3, 298.39 349.34, 344.82 358.95" stroke="#fd7e14" stroke-width="1" fill="none"/></g><g transform="translate(465.22075866357625 350) rotate(0 172.38962066821188 180)"><path d="M314.55 364.64 C323.35 361.85, 332.75 361.39, 346.46 360.37 M315.17 364.77 C327.48 362.99, 338.47 360.22, 344.25 358.65" stroke="#fd7e14" stroke-width="1" fill="none"/></g><g transform="translate(465.22075866357625 350) rotate(0 172.38962066821188 180)"><path d="M317.27 344.3 C325.13 347.76, 333.7 353.56, 346.46 360.37 M317.89 344.43 C328.97 350.38, 338.92 355.35, 344.25 358.65" stroke="#fd7e14" stroke-width="1" fill="none"/></g></g><mask/><g stroke-linecap="round" transform="translate(810.5236163806171 615.3918598626021) rotate(0 20.6364205464313 21.850327637397868)"><path d="M-0.75 -1.22 C8.68 -0.65, 20.63 1.84, 42.7 1.61 M-0.62 0.76 C8.32 0.75, 16.34 -0.43, 40.98 0.29 M42.33 -0.57 C41.06 10.37, 40.05 19.49, 40.9 44.22 M40.98 -0.26 C40.48 9.98, 40.31 20.43, 40.59 43.07 M41.09 44.5 C27.29 43.32, 13.03 44.74, -0.72 41.9 M40.46 43.42 C27.41 44.01, 14.54 43.7, 0.49 43 M0.32 44.68 C0.1 25.91, -1.1 11.63, 0.83 1.23 M0.62 42.76 C0.51 32.02, 1.07 19.79, 0.28 -0.16" stroke="#000000" stroke-width="2" fill="none"/></g><g stroke-linecap="round" transform="translate(810.5236163806171 695.3918598626021) rotate(0 20.6364205464313 21.850327637397868)"><path d="M0 0 C0 0, 0 0, 0 0 M0 0 C0 0, 0 0, 0 0 M-0.99 13.19 C4.92 6.93, 5.89 5.99, 9.62 -0.31 M-0.19 12.73 C3.98 7.32, 7.91 2.93, 10.86 -0.3 M-0.79 22.85 C6.03 17.27, 14.27 9.68, 21.02 -0.04 M0.48 23.78 C4.53 18.32, 7.68 14.87, 20.85 0.36 M0.55 37.32 C9.11 27.75, 15.5 18.61, 32.01 -0.1 M-0.64 37.24 C7.36 27.61, 15.76 16.78, 32.74 0.32 M2.12 45.3 C12.48 32.94, 21.85 23.21, 40.26 -0.7 M3.07 46.86 C17.67 28.12, 32.81 12.29, 41.26 1.36 M14.13 47.82 C20.42 34.75, 30.85 27.64, 42.3 11.31 M12.39 46.46 C22.39 36.01, 32.43 24.35, 42 12.68 M23.92 45.26 C29.36 38.71, 36.43 30.91, 42.23 24.23 M23.85 44.98 C27.72 40.5, 33.6 36.46, 42.83 23.78 M34.05 46.72 C35.15 44.14, 36.38 43.22, 41.63 38.34 M34.09 45.77 C36.5 43.23, 37.86 41.59, 41.35 37.86" stroke="#fd7e14" stroke-width="1" fill="none"/><path d="M-1.22 -1.75 C8.75 -0.07, 20.84 1.58, 42.88 -1.96 M0.76 -0.01 C12.19 -0.07, 22.6 -0.04, 41.57 -0.78 M40.71 -0.61 C42.35 15.5, 41.76 33.86, 41.79 42.19 M41.01 -0.46 C41.39 9.16, 42.02 18.89, 40.65 44.29 M42.07 44.54 C26.01 45.07, 12.61 42.94, -1.8 44.25 M41 43.36 C27.98 43.68, 14.35 43.86, -0.7 44.58 M0.98 43.59 C-0.46 31.39, 2.21 22.55, 1.23 -0.65 M-0.94 43.81 C0.05 35.28, -0.49 25.81, -0.16 -0.5" stroke="#000000" stroke-width="2" fill="none"/></g><g stroke-linecap="round" transform="translate(810.5236163806171 655.3918598626021) rotate(0 20.6364205464313 21.850327637397868)"><path d="M-1.75 -0.85 C10.16 1.9, 22.21 1.86, 39.31 -0.39 M-0.01 0.61 C10.64 -0.88, 21.62 -0.02, 40.49 0.92 M40.66 0.67 C39.88 17.24, 41.13 34.85, 39.77 42.18 M40.81 0.16 C40.52 13.45, 40.47 24.7, 41.86 44.29 M42.12 43.26 C29.65 44.84, 14.5 42.06, 0.55 44.16 M40.93 43.73 C26.44 43.3, 11.47 42.89, 0.88 43.22 M-0.11 42.86 C-1.38 36.28, 0.76 26.45, -0.65 -1.84 M0.11 43.71 C0.4 30.44, 0.01 18.06, -0.5 -0.02" stroke="#000000" stroke-width="2" fill="none"/></g><g transform="translate(870.5236163806171 620.1918598626021) rotate(0 5.5615234375 12)"><text x="0" y="0" font-family="Helvetica, Segoe UI Emoji" font-size="20px" fill="#000000" text-anchor="start" style="white-space: pre;" direction="ltr" dominant-baseline="text-before-edge">2</text></g><g transform="translate(870.5236163806171 660.1918598626021) rotate(0 5.5615234375 12)"><text x="0" y="0" font-family="Helvetica, Segoe UI Emoji" font-size="20px" fill="#000000" text-anchor="start" style="white-space: pre;" direction="ltr" dominant-baseline="text-before-edge">1</text></g><g stroke-linecap="round" transform="translate(810.5236163806171 775.3918598626021) rotate(0 20.6364205464313 21.850327637397868)"><path d="M1.64 1.42 C10.38 -1.92, 17.17 -0.64, 40.04 1.52 M40.13 -0.59 C42.12 11.53, 43.37 28.02, 42.33 43.13 M41.35 43.33 C30.67 41.86, 17.5 43.16, -0.58 43.18 M1.58 42.34 C-1.32 33.8, 1.11 21.85, -0.18 0.8" stroke="#000000" stroke-width="2.5" fill="none" stroke-dasharray="1.5 8"/></g><g stroke-linecap="round" transform="translate(810.5236163806171 735.3918598626021) rotate(0 20.6364205464313 21.850327637397868)"><path d="M1.42 1.61 C8.67 -0.72, 20.59 -1.57, 42.8 -0.01 M40.68 0.59 C39.57 17.59, 42.99 32.57, 40.71 43.09 M40.9 44.22 C26.01 42.2, 13.55 43.14, -0.52 42.77 M-1.36 42.45 C1.46 31.09, 0.59 15.93, 0.8 0.84" stroke="#000000" stroke-width="2.5" fill="none" stroke-dasharray="1.5 8"/></g><g transform="translate(870.5236163806171 740.1918598626021) rotate(0 22.24609375 12)"><text x="0" y="0" font-family="Helvetica, Segoe UI Emoji" font-size="20px" fill="#000000" text-anchor="start" style="white-space: pre;" direction="ltr" dominant-baseline="text-before-edge">255u</text></g><g transform="translate(870.5236163806171 700.1918598626021) rotate(0 5.5615234375 12)"><text x="0" y="0" font-family="Helvetica, Segoe UI Emoji" font-size="20px" fill="#000000" text-anchor="start" style="white-space: pre;" direction="ltr" dominant-baseline="text-before-edge">0</text></g><g transform="translate(870.5236163806171 780.1918598626021) rotate(0 22.24609375 12)"><text x="0" y="0" font-family="Helvetica, Segoe UI Emoji" font-size="20px" fill="#000000" text-anchor="start" style="white-space: pre;" direction="ltr" dominant-baseline="text-before-edge">254u</text></g><g stroke-linecap="round" transform="translate(810.5236163806171 815.3918598626021) rotate(0 20.6364205464313 21.850327637397868)"><path d="M-0.69 -1.23 C17.22 0.07, 32.6 -0.56, 40.13 -0.59 M43.13 1.05 C40.36 13.78, 41.6 27.17, 41.35 43.33 M41.07 43.12 C27.3 42.46, 14.69 42.13, 1.58 42.34 M0.31 43.52 C0.54 34.18, -0.7 24.37, 0.98 -0.72" stroke="#000000" stroke-width="2.5" fill="none" stroke-dasharray="1.5 8"/></g><g stroke-linecap="round" transform="translate(810.5236163806171 855.3918598626021) rotate(0 20.6364205464313 21.850327637397868)"><path d="M-1.23 1.52 C8.32 1.35, 16.01 -1, 40.68 0.59 M42.33 -0.57 C41.06 10.37, 40.05 19.49, 40.9 44.22 M40.69 43.18 C31.07 43.97, 21.46 45.24, -1.36 42.45 M-0.18 44.5 C0.59 27.56, 1.15 13.29, -0.72 -1.8" stroke="#000000" stroke-width="2.5" fill="none" stroke-dasharray="1.5 8"/></g><g transform="translate(870.5236163806171 820.1918598626021) rotate(0 22.24609375 12)"><text x="0" y="0" font-family="Helvetica, Segoe UI Emoji" font-size="20px" fill="#000000" text-anchor="start" style="white-space: pre;" direction="ltr" dominant-baseline="text-before-edge">253u</text></g><g transform="translate(870.5236163806171 860.1918598626021) rotate(0 22.24609375 12)"><text x="0" y="0" font-family="Helvetica, Segoe UI Emoji" font-size="20px" fill="#000000" text-anchor="start" style="white-space: pre;" direction="ltr" dominant-baseline="text-before-edge">252u</text></g><g stroke-linecap="round" transform="translate(810.5236163806171 895.3918598626021) rotate(0 20.6364205464313 21.850327637397868)"><path d="M1.21 -0.64 C8.69 -0.59, 20.26 -1.56, 43.11 1.86 M41.94 -1.62 C41.23 15.04, 41.67 29.32, 39.75 43.5 M41.59 42.44 C31.66 42.15, 17.65 44.69, 1.18 44.01 M-0.44 45.11 C0.8 30.27, -1.98 18.84, 0.46 1.34" stroke="#000000" stroke-width="2.5" fill="none" stroke-dasharray="1.5 8"/></g><g stroke-linecap="round" transform="translate(810.5236163806171 935.3918598626021) rotate(0 20.6364205464313 21.850327637397868)"><path d="M-0.64 -1.14 C14.93 0.34, 29.49 1.58, 43.13 1.05 M39.65 0.08 C40.77 12.39, 39.63 22.22, 41.07 43.12 M40.01 45.28 C28.6 42.51, 19.84 44.95, 0.31 43.52 M1.41 44.68 C-0.91 27.05, 0.37 14.45, 1.34 -1.62" stroke="#000000" stroke-width="2.5" fill="none" stroke-dasharray="1.5 8"/></g><g transform="translate(870.5236163806171 900.1918598626021) rotate(0 22.24609375 12)"><text x="0" y="0" font-family="Helvetica, Segoe UI Emoji" font-size="20px" fill="#000000" text-anchor="start" style="white-space: pre;" direction="ltr" dominant-baseline="text-before-edge">251u</text></g><g transform="translate(870.5236163806171 940.1918598626023) rotate(0 22.24609375 12)"><text x="0" y="0" font-family="Helvetica, Segoe UI Emoji" font-size="20px" fill="#000000" text-anchor="start" style="white-space: pre;" direction="ltr" dominant-baseline="text-before-edge">240u</text></g><g stroke-linecap="round" transform="translate(810.5236163806171 975.3918598626021) rotate(0 20.6364205464313 21.850327637397868)"><path d="M0.59 -1.56 C12.89 1.98, 23.16 -0.45, 40.66 0.67 M41.79 -1.51 C39.77 9.37, 40.71 18.62, 40.34 44.01 M40.02 44.88 C32.67 43.73, 21.52 44.22, 0.84 43.26 M-1.8 44.25 C0.24 28.86, -1.83 10.78, -0.68 0.06" stroke="#000000" stroke-width="2.5" fill="none" stroke-dasharray="1.5 8"/></g><g stroke-linecap="round" transform="translate(810.5236163806171 1015.3918598626021) rotate(0 20.6364205464313 21.850327637397868)"><path d="M-1.56 1.83 C11.88 0.93, 19.49 -0.73, 41.94 -1.62 M39.77 -1.52 C40.99 12.7, 40.67 25.64, 41.59 42.44 M42.46 44.88 C25.95 43.26, 10.8 44.29, -0.44 45.11 M0.55 44.16 C1.5 26.84, -0.4 12.53, 0.06 0.62" stroke="#000000" stroke-width="2.5" fill="none" stroke-dasharray="1.5 8"/></g><g transform="translate(870.5236163806171 980.1918598626023) rotate(0 22.24609375 12)"><text x="0" y="0" font-family="Helvetica, Segoe UI Emoji" font-size="20px" fill="#000000" text-anchor="start" style="white-space: pre;" direction="ltr" dominant-baseline="text-before-edge">239u</text></g><g transform="translate(870.5236163806171 1020.1918598626023) rotate(0 22.24609375 12)"><text x="0" y="0" font-family="Helvetica, Segoe UI Emoji" font-size="20px" fill="#000000" text-anchor="start" style="white-space: pre;" direction="ltr" dominant-baseline="text-before-edge">238u</text></g><g stroke-linecap="round" transform="translate(810.5236163806171 495.39185986260213) rotate(0 20.6364205464313 21.850327637397868)"><path d="M1.05 -0.57 C8.56 0.28, 16.71 -0.3, 40.9 0.52 M-0.29 -0.26 C8.81 0.2, 17.92 0.83, 40.59 -0.63 M41.09 0.8 C42.38 15.25, 42.94 32.37, 40.55 41.9 M40.46 -0.28 C41.03 14.34, 41.68 28.35, 41.77 43 M41.59 44.68 C25.16 42.49, 7.95 45.15, 0.83 44.93 M41.89 42.76 C30.34 43.67, 19.85 43.14, 0.28 43.54 M-1.75 44.77 C-0.58 30.87, -1.65 23.57, 1.73 -1.89 M-0.94 44.33 C-0.03 30.98, 0.1 18.29, 0.5 0.29" stroke="#000000" stroke-width="2" fill="none"/></g><g stroke-linecap="round" transform="translate(810.5236163806171 575.3918598626021) rotate(0 20.6364205464313 21.850327637397868)"><path d="M-0.57 -0.61 C16.84 -1.84, 32.42 -0.59, 41.79 -1.51 M-0.26 -0.46 C9.4 -0.51, 19.27 -0.56, 40.65 0.59 M42.07 0.84 C40.9 17.1, 42.32 30.66, 39.47 44.25 M41 -0.34 C41.59 14.42, 41.28 28.7, 40.58 44.58 M42.25 43.59 C30.05 42.45, 22.33 44.6, 1.23 43.05 M40.33 43.81 C32.7 44.62, 23.58 44.24, -0.16 43.2 M1.07 43.11 C-1.93 29.03, 1.69 19.41, -1.89 -0.29 M0.63 43.77 C-0.15 29.81, -0.37 16.03, 0.29 0.78" stroke="#000000" stroke-width="2" fill="none"/></g><g stroke-linecap="round" transform="translate(810.5236163806171 535.3918598626021) rotate(0 20.6364205464313 21.850327637397868)"><path d="M-0.61 0.67 C14.59 0.2, 32.05 0.63, 39.77 -1.52 M-0.46 0.16 C11.33 0.9, 23.24 -0.52, 41.86 0.59 M42.12 -0.44 C42.64 14.77, 40.51 25.78, 41.82 44.16 M40.93 0.03 C41.23 15.75, 41.41 31.38, 42.15 43.22 M41.16 42.86 C31.23 45.72, 24.66 45.13, -0.65 41.86 M41.38 43.71 C29.91 42.79, 17.49 43.15, -0.5 43.68 M-0.59 41.79 C-1.27 32.07, 2.12 15.14, -0.29 0.45 M0.07 43.45 C0.61 31.17, 0.91 19.87, 0.78 0.16" stroke="#000000" stroke-width="2" fill="none"/></g><g transform="translate(870.5236163806171 500.1918598626021) rotate(0 5.5615234375 12)"><text x="0" y="0" font-family="Helvetica, Segoe UI Emoji" font-size="20px" fill="#000000" text-anchor="start" style="white-space: pre;" direction="ltr" dominant-baseline="text-before-edge">5</text></g><g transform="translate(870.5236163806171 540.1918598626021) rotate(0 5.5615234375 12)"><text x="0" y="0" font-family="Helvetica, Segoe UI Emoji" font-size="20px" fill="#000000" text-anchor="start" style="white-space: pre;" direction="ltr" dominant-baseline="text-before-edge">4</text></g><g transform="translate(870.5236163806171 580.1918598626021) rotate(0 5.5615234375 12)"><text x="0" y="0" font-family="Helvetica, Segoe UI Emoji" font-size="20px" fill="#000000" text-anchor="start" style="white-space: pre;" direction="ltr" dominant-baseline="text-before-edge">3</text></g><g stroke-linecap="round" transform="translate(810.5236163806171 375.39185986260213) rotate(0 20.6364205464313 21.850327637397868)"><path d="M-0.37 0.52 C12.25 -1.54, 27.32 -0.6, 40.75 -0.93 M-0.68 -0.63 C13.62 0.27, 26.21 -0.42, 41.67 0.42 M40.55 -1.8 C42.13 12.6, 42.92 22.68, 40.72 43.02 M41.77 -0.7 C42.29 12.75, 40.52 26.63, 41.76 43.65 M42.11 44.93 C29.98 42.24, 19.82 45.31, -1.88 43.92 M41.56 43.54 C28.36 43.46, 16.49 42.61, 0.53 43.4 M1.73 41.81 C0.07 35.21, -0.12 23.96, 1.25 0.14 M0.5 43.99 C0.69 31.85, -0.81 19.57, -0.7 0.72" stroke="#000000" stroke-width="2" fill="none"/></g><g stroke-linecap="round" transform="translate(810.5236163806171 455.39185986260213) rotate(0 20.6364205464313 21.850327637397868)"><path d="M0.52 -1.51 C7.52 -0.13, 17.5 -0.44, 40.34 0.31 M-0.63 0.59 C10.37 0.44, 19.47 0.68, 41.69 -0.22 M39.47 0.55 C41.94 17.52, 39.87 31.81, 40.59 43.76 M40.58 0.88 C40.67 13.58, 41.31 29.42, 41.22 43.28 M42.5 43.05 C29.77 43.7, 23.18 41.99, 0.22 43.72 M41.11 43.2 C26.12 43.87, 10.14 44.35, -0.3 42.74 M-1.89 43.41 C0.07 33.73, -2.25 25.97, 0.14 -0.5 M0.29 44.48 C0.37 29.01, 0.1 15.05, 0.72 0.86" stroke="#000000" stroke-width="2" fill="none"/></g><g stroke-linecap="round" transform="translate(810.5236163806171 415.39185986260213) rotate(0 20.6364205464313 21.850327637397868)"><path d="M-1.51 -1.52 C12.34 -0.69, 24.57 -1.04, 41.59 -1.26 M0.59 0.59 C15.79 0.17, 31.67 0.68, 41.05 0.7 M41.82 0.46 C42.45 13.62, 40.56 29.8, 41.33 44.32 M42.15 -0.48 C40.6 12.04, 41.98 23.7, 40.85 43.04 M40.62 41.86 C24.97 45.19, 7.12 44.17, 0.02 45.03 M40.77 43.68 C31.11 42.76, 21.37 43.34, -0.96 42.87 M-0.29 44.15 C-0.86 24.98, 0.87 10.15, -0.5 0.39 M0.78 43.86 C-0.94 32.57, -0.92 22.37, 0.86 -0.82" stroke="#000000" stroke-width="2" fill="none"/></g><g transform="translate(870.5236163806171 380.1918598626021) rotate(0 5.5615234375 12)"><text x="0" y="0" font-family="Helvetica, Segoe UI Emoji" font-size="20px" fill="#000000" text-anchor="start" style="white-space: pre;" direction="ltr" dominant-baseline="text-before-edge">8</text></g><g transform="translate(870.5236163806171 420.1918598626021) rotate(0 5.5615234375 12)"><text x="0" y="0" font-family="Helvetica, Segoe UI Emoji" font-size="20px" fill="#000000" text-anchor="start" style="white-space: pre;" direction="ltr" dominant-baseline="text-before-edge">7</text></g><g transform="translate(870.5236163806171 460.1918598626021) rotate(0 5.5615234375 12)"><text x="0" y="0" font-family="Helvetica, Segoe UI Emoji" font-size="20px" fill="#000000" text-anchor="start" style="white-space: pre;" direction="ltr" dominant-baseline="text-before-edge">6</text></g><g stroke-linecap="round" transform="translate(810.5236163806171 255.39185986260213) rotate(0 20.6364205464313 21.850327637397868)"><path d="M-0.52 -0.93 C9.56 -1.14, 20.06 -1.24, 40.02 1.18 M0.4 0.42 C14.6 0.74, 30.13 -0.32, 40.37 0.28 M40.72 -0.68 C41.62 14.72, 41 29.2, 39.88 45.45 M41.76 -0.05 C40.46 10.34, 41.79 22.4, 41.89 43.38 M39.39 43.92 C32.71 45.29, 23.05 44.52, -0.32 42.7 M41.81 43.4 C28.03 42.51, 17.55 44.21, -0.94 43.55 M1.25 43.84 C-0.4 30.01, -0.85 16.52, 0.57 1.56 M-0.7 44.42 C1.18 29.08, -0.29 17.07, -0.63 -0.17" stroke="#000000" stroke-width="2" fill="none"/></g><g stroke-linecap="round" transform="translate(810.5236163806171 335.39185986260213) rotate(0 20.6364205464313 21.850327637397868)"><path d="M-0.93 0.31 C10.7 1.68, 22.56 -1.15, 42.46 1.18 M0.42 -0.22 C13.73 0.32, 25.69 -1.07, 41.55 0.23 M40.59 0.06 C41.54 15.47, 41.9 30.68, 43.03 42.73 M41.22 -0.42 C40.68 10.15, 41.76 19.09, 40.95 42.78 M41.49 43.72 C30.57 42.26, 17.77 42.99, -1 43.66 M40.98 42.74 C27.85 44.77, 16.95 42.98, -0.15 43.92 M0.14 43.2 C0.8 30.69, 1.4 20.16, 1.56 0.32 M0.72 44.56 C-0.77 33.14, 1.03 23.15, -0.17 0.92" stroke="#000000" stroke-width="2" fill="none"/></g><g stroke-linecap="round" transform="translate(810.5236163806171 295.39185986260213) rotate(0 20.6364205464313 21.850327637397868)"><path d="M0.31 -1.26 C12.76 -1.17, 21.12 1.37, 42.45 0.31 M-0.22 0.7 C12.49 -0.54, 23.1 0.1, 41.5 0.67 M41.33 0.62 C40.59 10.56, 39.76 20.91, 40.3 41.93 M40.85 -0.66 C42.4 14.22, 42.1 27.28, 40.35 43.62 M41.29 45.03 C25.29 44.31, 11.08 42.74, -0.04 43.8 M40.32 42.87 C33.35 44.45, 22.78 43.43, 0.22 43.46 M-0.5 44.09 C-1.23 35.69, 0.3 27.25, 0.32 -1.44 M0.86 42.88 C-0.29 32.03, -0.33 18.23, 0.92 -0.72" stroke="#000000" stroke-width="2" fill="none"/></g><g transform="translate(870.5236163806171 260.1918598626021) rotate(0 10.380859375 12)"><text x="0" y="0" font-family="Helvetica, Segoe UI Emoji" font-size="20px" fill="#000000" text-anchor="start" style="white-space: pre;" direction="ltr" dominant-baseline="text-before-edge">11</text></g><g transform="translate(870.5236163806171 300.1918598626021) rotate(0 11.123046875 12)"><text x="0" y="0" font-family="Helvetica, Segoe UI Emoji" font-size="20px" fill="#000000" text-anchor="start" style="white-space: pre;" direction="ltr" dominant-baseline="text-before-edge">10</text></g><g transform="translate(870.5236163806171 340.1918598626021) rotate(0 5.5615234375 12)"><text x="0" y="0" font-family="Helvetica, Segoe UI Emoji" font-size="20px" fill="#000000" text-anchor="start" style="white-space: pre;" direction="ltr" dominant-baseline="text-before-edge">9</text></g><g stroke-linecap="round" transform="translate(810.5236163806171 215.39185986260213) rotate(0 20.6364205464313 21.850327637397868)"><path d="M-1.25 1.18 C10.96 0.59, 19.38 1.08, 42.12 -0.44 M-0.9 0.28 C15.51 0.82, 29.76 -0.13, 40.93 0.03 M39.88 1.75 C40.18 12.69, 41.47 29.9, 41.16 42.86 M41.89 -0.32 C40.75 10.15, 42.29 19.53, 41.38 43.71 M40.95 42.7 C26.1 43.92, 9.26 44.88, -0.59 41.79 M40.33 43.55 C32.53 43.82, 22.41 44.68, 0.07 43.45 M0.57 45.26 C0.53 28.29, 0 14.35, 1.44 1.73 M-0.63 43.53 C1.19 33.45, -0.16 24.23, 0.87 -0.45" stroke="#000000" stroke-width="2" fill="none"/></g><g stroke-linecap="round" transform="translate(810.5236163806171 175.39185986260213) rotate(0 20.6364205464313 21.850327637397868)"><path d="M1.18 1.18 C15.95 0.07, 32.07 1.1, 40.83 1.41 M0.28 0.23 C15.06 -0.44, 28.51 0.03, 41.3 0.31 M43.03 -0.97 C39.72 12.2, 42.46 23.65, 40.43 42.39 M40.95 -0.92 C41.37 17.7, 40.51 34.28, 41.28 44.37 M40.27 43.66 C31.16 41.89, 21.91 43.04, -1.91 42.04 M41.13 43.92 C25.12 42.37, 10.08 43.38, -0.25 43.9 M1.56 44.02 C-1.66 32.46, -1.63 23.09, 1.73 -1.64 M-0.17 44.62 C-1.15 32.8, -0.84 23.59, -0.45 -0.03" stroke="#000000" stroke-width="2" fill="none"/></g><g transform="translate(870.5236163806171 180.1918598626021) rotate(0 11.123046875 12)"><text x="0" y="0" font-family="Helvetica, Segoe UI Emoji" font-size="20px" fill="#000000" text-anchor="start" style="white-space: pre;" direction="ltr" dominant-baseline="text-before-edge">13</text></g><g transform="translate(870.5236163806171 220.1918598626021) rotate(0 11.123046875 12)"><text x="0" y="0" font-family="Helvetica, Segoe UI Emoji" font-size="20px" fill="#000000" text-anchor="start" style="white-space: pre;" direction="ltr" dominant-baseline="text-before-edge">12</text></g><g stroke-linecap="round" transform="translate(810.5236163806171 15.391859862602132) rotate(0 20.6364205464313 21.850327637397868)"><path d="M-0.18 0.8 C15.67 -0.51, 31.05 0.91, 40.55 -1.8 M-0.81 -0.28 C13.18 -0.25, 27.35 -0.56, 41.77 -0.7 M41.59 0.98 C40.95 16.1, 39.75 35.71, 42.11 44.93 M41.89 -0.94 C40.98 11.7, 41.54 22.86, 41.56 43.54 M39.52 44.77 C30.37 41.81, 18.99 45.43, 1.73 41.81 M40.33 44.33 C29.57 43.35, 17.92 43.12, 0.5 43.99 M-0.21 42.29 C1.37 28.91, -1.71 9.46, 1.96 -1.27 M-0.42 43.29 C0.46 30.9, -0.43 18.31, 0.4 0.29" stroke="#000000" stroke-width="2" fill="none"/></g><g stroke-linecap="round" transform="translate(810.5236163806171 55.39185986260213) rotate(0 20.6364205464313 21.850327637397868)"><path d="M0.8 0.84 C14.38 1.44, 30.61 -0.69, 39.47 0.55 M-0.28 -0.34 C13.35 0.64, 26.36 0.83, 40.58 0.88 M42.25 -0.11 C40.04 9.68, 42.7 22.82, 42.5 43.05 M40.33 0.11 C41.24 9.76, 40.71 18.46, 41.11 43.2 M42.34 43.11 C27.07 41.68, 18.4 45.07, -1.89 43.41 M41.9 43.77 C27.72 43.51, 14.19 43.81, 0.29 44.48 M-1.41 45.14 C2.04 28.26, -0.89 18.05, -1.27 -0.35 M-0.41 44.57 C-0.14 26.53, -0.37 9.82, 0.29 -0.34" stroke="#000000" stroke-width="2" fill="none"/></g><g transform="translate(870.5236163806171 20.191859862602087) rotate(0 22.24609375 12)"><text x="0" y="0" font-family="Helvetica, Segoe UI Emoji" font-size="20px" fill="#000000" text-anchor="start" style="white-space: pre;" direction="ltr" dominant-baseline="text-before-edge">255u</text></g><g transform="translate(870.5236163806171 60.19185986260209) rotate(0 22.24609375 12)"><text x="0" y="0" font-family="Helvetica, Segoe UI Emoji" font-size="20px" fill="#000000" text-anchor="start" style="white-space: pre;" direction="ltr" dominant-baseline="text-before-edge">254u</text></g><g stroke-linecap="round"><g transform="translate(810.5236163806171 175.02918489353988) rotate(0 0 -40)"><path d="M-0.62 1.97 C-0.58 -11.73, 1.68 -67.48, 1.37 -81.01" stroke="#000000" stroke-width="1.5" fill="none" stroke-dasharray="8 9"/></g></g><mask/><g stroke-linecap="round"><g transform="translate(850.5236163806171 175.02918489353988) rotate(0 0 -40)"><path d="M1.97 1.37 C1.6 -12.29, -0.81 -69.07, -1.01 -82.52" stroke="#000000" stroke-width="1.5" fill="none" stroke-dasharray="8 9"/></g></g><mask/><g stroke-linecap="round"><g transform="translate(890.5236163806171 155.02918489353988) rotate(0 0 -30)"><path d="M1.37 -1.01 C1.05 -11.21, -2.4 -49.71, -2.52 -59.23" stroke="#000000" stroke-width="1.5" fill="none" stroke-dasharray="1.5 7"/></g></g><mask/><g stroke-linecap="round"><g transform="translate(649.4091796875 715.3918598626021) rotate(0 80 20)"><path d="M-1.01 -2.52 C-1.21 0.69, -26.38 13.93, 0.77 20.64 C27.92 27.35, 135.47 34.67, 161.88 37.74 M3.63 2.28 C2.95 4.46, -27.29 9.75, -1.05 15.97 C25.19 22.2, 134.35 35.42, 161.09 39.62" stroke="#000000" stroke-width="1" fill="none"/></g><g transform="translate(649.4091796875 715.3918598626021) rotate(0 80 20)"><path d="M128.15 47.03 C143.47 46.48, 150.18 40.36, 159.72 39.73 M130.36 47.68 C140.53 41.77, 151.52 42.44, 160.98 38.77" stroke="#000000" stroke-width="1" fill="none"/></g><g transform="translate(649.4091796875 715.3918598626021) rotate(0 80 20)"><path d="M130.96 26.7 C145.43 33.66, 151.11 35.06, 159.72 39.73 M133.17 27.35 C142.29 28.2, 152.36 35.59, 160.98 38.77" stroke="#000000" stroke-width="1" fill="none"/></g></g><mask/><g stroke-linecap="round"><g transform="translate(590.8281721356511 613.6563245649103) rotate(0 109.58591393217444 28.17183771754486)"><path d="M-2.52 0.77 C13.88 7.31, 63.24 29.09, 99.81 38.22 C136.38 47.35, 197.17 52.53, 216.91 55.57 M1.3 -1.28 C17.27 4.56, 61.05 24.3, 97.92 34.23 C134.79 44.15, 202.45 54.11, 222.51 58.25" stroke="#fd7e14" stroke-width="1" fill="none"/></g><g transform="translate(590.8281721356511 613.6563245649103) rotate(0 109.58591393217444 28.17183771754486)"><path d="M194.06 64.31 C205.98 58.9, 212.5 58.98, 222.62 59.49 M194.71 62.43 C199.17 62.73, 209.95 60.91, 221.67 56.94" stroke="#fd7e14" stroke-width="1" fill="none"/></g><g transform="translate(590.8281721356511 613.6563245649103) rotate(0 109.58591393217444 28.17183771754486)"><path d="M197.66 44.11 C208.18 45.68, 213.44 52.8, 222.62 59.49 M198.32 42.23 C201.99 47.97, 211.79 51.64, 221.67 56.94" stroke="#fd7e14" stroke-width="1" fill="none"/></g></g><mask/><g stroke-linecap="round"><g transform="translate(1029.4091796875 675.3918598626021) rotate(0 -68.5 19.75)"><path d="M0.77 0.64 C-8.75 4.01, -35.03 11.42, -58.12 17.74 C-81.22 24.05, -124.64 34.77, -137.78 38.54 M-2.25 -1.48 C-11.88 2.4, -36.39 13.03, -59.35 20.14 C-82.3 27.24, -127.18 37.25, -140.01 41.14" stroke="#40c057" stroke-width="1" fill="none"/></g><g transform="translate(1029.4091796875 675.3918598626021) rotate(0 -68.5 19.75)"><path d="M-114.42 26.75 C-125.38 27.6, -130.02 33.32, -138.77 40.01 M-116.3 22.3 C-123.87 31.44, -132.92 35.58, -141.32 42.95" stroke="#40c057" stroke-width="1" fill="none"/></g><g transform="translate(1029.4091796875 675.3918598626021) rotate(0 -68.5 19.75)"><path d="M-109.23 46.6 C-121.2 42.24, -127.21 42.73, -138.77 40.01 M-111.11 42.15 C-120.21 44.45, -131.07 41.65, -141.32 42.95" stroke="#40c057" stroke-width="1" fill="none"/></g></g><mask/><g stroke-linecap="round"><g transform="translate(1069.4091796875 735.3918598626021) rotate(0 -69.25 10)"><path d="M0.64 1.88 C-22.4 4.95, -117.42 16.19, -140.76 19.22 M-2.46 0.42 C-24.41 3.84, -112.37 18.63, -135.59 22.43" stroke="#000000" stroke-width="1" fill="none"/></g><g transform="translate(1069.4091796875 735.3918598626021) rotate(0 -69.25 10)"><path d="M-106.78 4.46 C-115.97 9.54, -120.23 15.24, -136.72 24.4 M-111.23 8.01 C-114.24 10.72, -122.08 12.91, -133.77 23.26" stroke="#000000" stroke-width="1" fill="none"/></g><g transform="translate(1069.4091796875 735.3918598626021) rotate(0 -69.25 10)"><path d="M-103.42 24.7 C-113.43 25.55, -118.39 27, -136.72 24.4 M-107.87 28.25 C-112.01 26.27, -120.62 23.8, -133.77 23.26" stroke="#000000" stroke-width="1" fill="none"/></g></g><mask/><g stroke-linecap="round"><g transform="translate(1215.50390625 453.51953125) rotate(0 -33.04736328125 140.93616430630107)"><path d="M1.88 -2.26 C1.02 7.89, 6.94 14.04, -4.37 61.54 C-15.69 109.04, -55.6 245.79, -66.02 282.74" stroke="#40c057" stroke-width="1.5" fill="none" stroke-dasharray="1.5 7"/></g><g transform="translate(1215.50390625 453.51953125) rotate(0 -33.04736328125 140.93616430630107)"><path d="M-71.36 251.7 C-68.66 262.7, -65.37 271.26, -64.05 279.95" stroke="#40c057" stroke-width="1.5" fill="none" stroke-dasharray="1.5 5"/></g><g transform="translate(1215.50390625 453.51953125) rotate(0 -33.04736328125 140.93616430630107)"><path d="M-51.63 257.35 C-55.42 266.76, -58.59 273.48, -64.05 279.95" stroke="#40c057" stroke-width="1.5" fill="none" stroke-dasharray="1.5 5"/></g></g><mask/><g stroke-linecap="round" transform="translate(10 410) rotate(0 131 41)"><path d="M0.6 -0.08 L262.43 -0.6 L262.26 80.15 L-1.85 82.91" stroke="none" stroke-width="0" fill="#868e96"/><path d="M-0.54 0.05 C96.64 0.13, 193.07 -0.53, 263.4 -0.77 M-0.04 -0.34 C54.85 -0.29, 111.09 -0.53, 261.74 -0.73 M262.22 0.02 C263.84 22.86, 263.07 47.49, 261 81.96 M261.7 -0.96 C260.45 25.88, 262.15 49.11, 261.85 82.22 M262.11 81.6 C190.04 82.55, 118.24 83.76, 1.24 82.25 M262.57 82.69 C201.65 80.05, 143.39 80.02, -0.14 82.74 M1.73 81.1 C0.28 61.93, 1.15 45.17, -0.67 -0.17 M-0.62 81.81 C0.42 59.27, 0.15 34.68, 0.01 -1" stroke="#000" stroke-width="1" fill="none"/></g><g transform="translate(15 427) rotate(0 118.486328125 24)"><text x="0" y="0" font-family="Helvetica, Segoe UI Emoji" font-size="20px" fill="#000" text-anchor="start" style="white-space: pre;" direction="ltr" dominant-baseline="text-before-edge">bufferSize = 8</text><text x="0" y="24" font-family="Helvetica, Segoe UI Emoji" font-size="20px" fill="#000" text-anchor="start" style="white-space: pre;" direction="ltr" dominant-baseline="text-before-edge">indexMask = bufferSize - 1</text></g><g stroke-linecap="round" transform="translate(330 230) rotate(0 177 53)"><path d="M0.43 -0.6 L354.26 -1.85 L352.15 106.91 L-0.82 106.86" stroke="none" stroke-width="0" fill="#fd7e14"/><path d="M0.4 -0.36 C97.01 -0.96, 193.88 -0.69, 352.86 0.2 M-0.42 0.58 C123.74 1.36, 246.74 0.37, 353.95 0.4 M355.33 -1.05 C354.68 21.51, 353.11 43.63, 354.1 104.25 M353.17 0.85 C354.55 36.5, 353.54 75.12, 353.76 105.06 M354.25 105.39 C226.3 105.8, 98.32 105.63, -0.93 105.86 M353.47 105.61 C273.38 107.56, 191.4 108.56, -0.46 105.73 M-0.06 104.63 C-0.11 79.1, -1.59 50.88, -0.24 -0.86 M0.07 106.87 C0.45 79.7, 0.67 52.65, 0.3 -0.04" stroke="#000000" stroke-width="1" fill="none"/></g><g transform="translate(335 247) rotate(0 129.78515625 36)"><text x="0" y="0" font-family="Helvetica, Segoe UI Emoji" font-size="20px" fill="#000000" text-anchor="start" style="white-space: pre;" direction="ltr" dominant-baseline="text-before-edge">producer:</text><text x="0" y="24" font-family="Helvetica, Segoe UI Emoji" font-size="20px" fill="#000000" text-anchor="start" style="white-space: pre;" direction="ltr" dominant-baseline="text-before-edge">claimed = 0</text><text x="0" y="48" font-family="Helvetica, Segoe UI Emoji" font-size="20px" fill="#000000" text-anchor="start" style="white-space: pre;" direction="ltr" dominant-baseline="text-before-edge">index = calimed &amp; indexMask</text></g><g stroke-linecap="round" transform="translate(975.50390625 373.51953125) rotate(0 161 41)"><path d="M0.26 -1.85 L320.15 0.91 L321.18 82.86 L-0.88 80.86" stroke="none" stroke-width="0" fill="#40c057"/><path d="M0.69 -0.97 C98.74 -0.04, 193.79 0.85, 322.68 -0.08 M0.29 0.43 C82.78 -2.68, 165.96 -1.61, 321.35 0.08 M322.57 -0.32 C321.54 24.62, 322.65 47.59, 323.07 81.41 M322.87 -0.94 C321.17 16.98, 321.08 32.58, 322.63 82.07 M322.69 82.4 C234.57 81.15, 143.97 80.78, -0.98 83 M322.68 81.56 C197.5 81.3, 72.75 80.36, -0.28 82.6 M0.81 82.57 C-0.65 60.94, -0.22 39.36, -1.06 -1.23 M-0.2 81.88 C-0.04 57.98, 0.24 35.91, 0.22 -0.3" stroke="#000" stroke-width="1" fill="none"/></g><g transform="translate(980.50390625 390.51953125) rotate(0 150.0927734375 24)"><text x="0" y="0" font-family="Helvetica, Segoe UI Emoji" font-size="20px" fill="#000" text-anchor="start" style="white-space: pre;" direction="ltr" dominant-baseline="text-before-edge">consumer:</text><text x="0" y="24" font-family="Helvetica, Segoe UI Emoji" font-size="20px" fill="#000" text-anchor="start" style="white-space: pre;" direction="ltr" dominant-baseline="text-before-edge">wait_until_published(nextToRead)</text></g><g stroke-linecap="round" transform="translate(55.50390625 693.51953125) rotate(0 150 150)"><path d="M114.51 4.32 C128.27 -1.64, 144.88 -1.46, 160.36 -0.27 C175.84 0.92, 192.91 5.58, 207.4 11.46 C221.88 17.33, 235.76 25.1, 247.27 34.97 C258.78 44.85, 268.29 57.68, 276.46 70.7 C284.62 83.72, 292.36 98.07, 296.24 113.08 C300.12 128.1, 300.82 145.31, 299.72 160.79 C298.62 176.27, 295.41 191.68, 289.62 205.96 C283.83 220.25, 275.14 234.6, 264.98 246.5 C254.83 258.4, 241.88 269.31, 228.72 277.35 C215.56 285.39, 200.86 291.09, 186.03 294.75 C171.2 298.41, 155.33 300.42, 139.75 299.32 C124.17 298.21, 106.82 293.75, 92.56 288.13 C78.3 282.51, 66.01 275.41, 54.19 265.57 C42.38 255.73, 29.95 242.38, 21.68 229.07 C13.42 215.77, 8.31 200.61, 4.6 185.74 C0.9 170.87, -1.64 155.26, -0.55 139.84 C0.53 124.43, 5.1 107.76, 11.11 93.26 C17.12 78.77, 25.47 64.59, 35.5 52.86 C45.52 41.14, 56.27 31.34, 71.28 22.91 C86.29 14.48, 114.9 5.52, 125.56 2.29 C136.23 -0.93, 135.08 1.01, 135.25 3.57 M214.18 12.79 C228.66 17.14, 240.56 30.63, 251.48 41.17 C262.41 51.7, 272.24 62.53, 279.74 75.99 C287.25 89.45, 293.39 106.69, 296.49 121.94 C299.58 137.18, 300.17 152.25, 298.29 167.48 C296.42 182.71, 291.51 199.35, 285.24 213.31 C278.96 227.27, 270.98 240.02, 260.65 251.24 C250.31 262.46, 236.91 273.13, 223.25 280.64 C209.6 288.15, 194.01 293.3, 178.72 296.3 C163.44 299.31, 146.77 300.14, 131.55 298.68 C116.33 297.23, 101.33 294.01, 87.4 287.56 C73.46 281.12, 59.32 270.99, 47.95 260.04 C36.58 249.09, 26.63 235.34, 19.19 221.89 C11.76 208.43, 6.33 194.28, 3.35 179.3 C0.38 164.33, -0.41 147.59, 1.35 132.02 C3.12 116.46, 7.76 99.75, 13.93 85.9 C20.11 72.06, 28.05 59.95, 38.4 48.94 C48.74 37.93, 62.41 27.64, 76 19.82 C89.6 12, 104.96 5.08, 119.98 2.05 C135 -0.98, 150.62 -0.43, 166.13 1.63 C181.64 3.7, 205.48 12.07, 213.04 14.43 C220.6 16.78, 212.54 13.6, 211.49 15.77" stroke="#000000" stroke-width="1" fill="none"/></g><g stroke-linecap="round" transform="translate(115.50390625 753.51953125) rotate(0 90 90)"><path d="M51.35 8.27 C60.48 2.41, 73.26 1.43, 84.8 1.02 C96.35 0.62, 109.75 2.28, 120.62 5.83 C131.49 9.38, 141.59 14.61, 150.02 22.31 C158.46 30.01, 166.4 41.48, 171.22 52.03 C176.04 62.57, 178.35 74.1, 178.95 85.57 C179.54 97.04, 178.57 110.03, 174.79 120.87 C171.01 131.71, 163.97 142.31, 156.24 150.63 C148.52 158.95, 138.72 165.92, 128.43 170.81 C118.14 175.69, 106.1 179.19, 94.52 179.94 C82.93 180.69, 69.78 179.33, 58.92 175.31 C48.06 171.29, 37.87 163.46, 29.36 155.81 C20.85 148.17, 12.59 139.82, 7.87 129.45 C3.14 119.08, 1.45 105.17, 0.98 93.6 C0.52 82.03, 1.4 70.83, 5.07 60.02 C8.74 49.21, 14.29 37.63, 22.99 28.71 C31.69 19.79, 50.7 10.21, 57.26 6.48 C63.81 2.76, 61.92 4.91, 62.3 6.38 M101.72 0.76 C112.34 1.08, 124.59 8, 134.86 13.68 C145.13 19.36, 156.43 25.58, 163.34 34.83 C170.25 44.09, 173.84 57.92, 176.3 69.21 C178.77 80.49, 179.39 91.61, 178.13 102.55 C176.88 113.48, 174.59 125.03, 168.79 134.84 C162.98 144.66, 152.51 154.49, 143.31 161.43 C134.11 168.38, 124.59 173.76, 113.56 176.53 C102.53 179.3, 88.63 179.51, 77.15 178.06 C65.67 176.61, 54.63 173.54, 44.68 167.83 C34.73 162.12, 24.46 153.18, 17.45 143.81 C10.44 134.44, 5.5 122.88, 2.61 111.62 C-0.27 100.36, -1.5 87.51, 0.12 76.27 C1.74 65.03, 6.1 53.95, 12.31 44.18 C18.52 34.41, 28.15 24.54, 37.36 17.65 C46.57 10.75, 56.9 5.53, 67.56 2.81 C78.22 0.1, 95.49 1.33, 101.31 1.37 C107.13 1.4, 102.53 1.58, 102.49 3.02" stroke="#000000" stroke-width="1" fill="none"/></g><g stroke-linecap="round"><g transform="translate(55.50390625 853.51953125) rotate(0 30 0)"><path d="M-0.58 -1.06 C9.59 -1.14, 50.1 0.49, 60.19 0.59 M1.31 0.99 C11.42 1.08, 49.71 -1.15, 59.34 -1.23" stroke="#000000" stroke-width="1" fill="none"/></g></g><mask/><g stroke-linecap="round"><g transform="translate(295.50390625 833.51953125) rotate(0 30 0)"><path d="M-1.06 0.19 C8.86 0.28, 50.49 0.1, 60.59 -0.07 M0.58 -0.75 C10.3 -0.42, 50.3 1.29, 59.94 1.44" stroke="#000000" stroke-width="1" fill="none"/></g></g><mask/><g stroke-linecap="round"><g transform="translate(195.50390625 753.51953125) rotate(0 0 -30)"><path d="M0.19 0.59 C0.28 -9.32, 0.1 -50.59, -0.07 -60.51 M-1.17 -0.15 C-1.2 -9.81, -1.52 -49.15, -1.05 -59.24" stroke="#000000" stroke-width="1" fill="none"/></g></g><mask/><g stroke-linecap="round"><g transform="translate(215.50390625 993.51953125) rotate(0 0 -30)"><path d="M0.59 -0.07 C0.68 -10.23, -0.59 -50.88, -0.51 -60.79 M-0.57 -1.15 C-0.58 -11.19, -1.96 -49.59, -1.72 -59.67" stroke="#000000" stroke-width="1" fill="none"/></g></g><mask/><g stroke-linecap="round"><g transform="translate(275.50390625 893.51953125) rotate(0 20 30)"><path d="M-0.07 -0.51 C6.44 9.58, 32.45 50.88, 39.21 61.09 M-1.56 -1.82 C5.31 7.9, 34.58 49.44, 41.51 59.54" stroke="#000000" stroke-width="1" fill="none"/></g></g><mask/><g stroke-linecap="round"><g transform="translate(135.50390625 793.51953125) rotate(0 -20 -30)"><path d="M-0.51 -0.79 C-7.09 -10.7, -32.45 -49.57, -38.91 -59.5 M1.43 1.41 C-5.27 -8.85, -32.44 -51.25, -39.28 -61.36" stroke="#000000" stroke-width="1" fill="none"/></g></g><mask/><g stroke-linecap="round"><g transform="translate(255.50390625 773.51953125) rotate(0 30 -20)"><path d="M-0.79 1.09 C9.3 -5.37, 50.43 -32.23, 60.5 -39.26 M1 0.62 C10.98 -6.14, 50.21 -34.17, 59.81 -41" stroke="#000000" stroke-width="1" fill="none"/></g></g><mask/><g stroke-linecap="round"><g transform="translate(155.50390625 913.51953125) rotate(0 -30 20)"><path d="M1.09 0.5 C-8.7 7.23, -48.9 33.04, -59.26 39.61 M0.2 -0.28 C-9.64 6.69, -49.99 34.04, -59.83 40.94" stroke="#000000" stroke-width="1" fill="none"/></g></g><mask/><g transform="translate(255.50390625 673.51953125) rotate(0 5.5615234375 12)"><text x="0" y="0" font-family="Helvetica, Segoe UI Emoji" font-size="20px" fill="#000000" text-anchor="start" style="white-space: pre;" direction="ltr" dominant-baseline="text-before-edge">0</text></g><g transform="translate(366.73558408186364 767.7734642523726) rotate(0 5.5615234375 12)"><text x="0" y="0" font-family="Helvetica, Segoe UI Emoji" font-size="20px" fill="#000000" text-anchor="start" style="white-space: pre;" direction="ltr" dominant-baseline="text-before-edge">1</text></g><g transform="translate(361.681148245249 890.3435332902768) rotate(0 5.5615234375 12)"><text x="0" y="0" font-family="Helvetica, Segoe UI Emoji" font-size="20px" fill="#000000" text-anchor="start" style="white-space: pre;" direction="ltr" dominant-baseline="text-before-edge">2</text></g><g transform="translate(275.50390625 993.51953125) rotate(0 5.5615234375 12)"><text x="0" y="0" font-family="Helvetica, Segoe UI Emoji" font-size="20px" fill="#000000" text-anchor="start" style="white-space: pre;" direction="ltr" dominant-baseline="text-before-edge">3</text></g><g transform="translate(135.50390625 993.51953125) rotate(0 5.5615234375 12)"><text x="0" y="0" font-family="Helvetica, Segoe UI Emoji" font-size="20px" fill="#000000" text-anchor="start" style="white-space: pre;" direction="ltr" dominant-baseline="text-before-edge">4</text></g><g transform="translate(35.50390625 913.51953125) rotate(0 5.5615234375 12)"><text x="0" y="0" font-family="Helvetica, Segoe UI Emoji" font-size="20px" fill="#000000" text-anchor="start" style="white-space: pre;" direction="ltr" dominant-baseline="text-before-edge">5</text></g><g transform="translate(35.50390625 773.51953125) rotate(0 5.5615234375 12)"><text x="0" y="0" font-family="Helvetica, Segoe UI Emoji" font-size="20px" fill="#000000" text-anchor="start" style="white-space: pre;" direction="ltr" dominant-baseline="text-before-edge">6</text></g><g transform="translate(124.12266392436254 673.0027923158489) rotate(0 5.5615234375 12)"><text x="0" y="0" font-family="Helvetica, Segoe UI Emoji" font-size="20px" fill="#000000" text-anchor="start" style="white-space: pre;" direction="ltr" dominant-baseline="text-before-edge">7</text></g><g stroke-linecap="round"><g transform="translate(410.39783242750593 350) rotate(0 -89.97920060233616 170.27605131504873)"><path d="M0.12 0.26 C-29.76 56.94, -149.84 284.41, -180 341.27 M-1.28 -0.65 C-31.25 56.2, -151.44 282.82, -180.97 339.53" stroke="#fd7e14" stroke-width="1" fill="none"/></g><g transform="translate(410.39783242750593 350) rotate(0 -89.97920060233616 170.27605131504873)"><path d="M-176.49 309.73 C-176.4 315.36, -177.08 323.89, -180.88 338.71 M-177.59 309.3 C-177.72 317.13, -178.75 325.48, -181.26 340.17" stroke="#fd7e14" stroke-width="1" fill="none"/></g><g transform="translate(410.39783242750593 350) rotate(0 -89.97920060233616 170.27605131504873)"><path d="M-158.33 319.29 C-162.65 322.66, -167.65 328.91, -180.88 338.71 M-159.43 318.86 C-164.15 324.21, -169.82 330.12, -181.26 340.17" stroke="#fd7e14" stroke-width="1" fill="none"/></g></g><mask/><g transform="translate(204.85896622270707 713.8267620349422) rotate(0 41.66666666666674 17.08333333333337)" stroke="none"><path fill="#fd7e14" d="M -0.83,-1.87 Q -0.83,-1.87 1.35,-2.74 3.55,-3.61 4.83,-4.46 6.11,-5.32 6.64,-5.51 7.18,-5.71 7.40,-5.81 7.63,-5.92 7.87,-5.97 8.11,-6.02 8.36,-6.01 8.61,-6.00 8.85,-5.93 9.09,-5.86 9.31,-5.74 9.52,-5.62 9.71,-5.44 9.89,-5.27 10.02,-5.06 10.15,-4.85 10.23,-4.61 10.31,-4.38 10.33,-4.13 10.35,-3.88 10.31,-3.63 10.27,-3.39 10.18,-3.16 10.08,-2.93 9.93,-2.73 9.78,-2.53 9.59,-2.37 9.39,-2.21 9.31,-0.13 9.23,1.93 8.54,3.76 7.84,5.60 6.74,7.44 5.63,9.28 4.72,11.50 3.81,13.73 3.22,15.11 2.63,16.48 2.14,18.11 1.65,19.74 1.28,21.04 0.91,22.33 0.99,23.77 1.06,25.20 1.07,26.33 1.08,27.46 1.10,27.71 1.12,27.97 1.08,28.30 1.04,28.63 0.92,28.95 0.80,29.26 0.61,29.54 0.41,29.81 0.16,30.04 -0.08,30.26 -0.38,30.41 -0.68,30.57 -1.01,30.65 -1.33,30.73 -1.67,30.73 -2.01,30.73 -2.33,30.64 -2.66,30.56 -2.96,30.40 -3.25,30.25 -3.50,30.02 -3.76,29.80 -3.95,29.52 -4.14,29.24 -4.25,28.93 -4.37,28.61 -4.41,28.28 -4.45,27.94 -2.85,25.48 -1.25,23.02 -0.39,22.04 0.45,21.07 1.60,20.14 2.76,19.21 4.41,17.86 6.07,16.50 8.03,14.75 9.99,13.00 11.33,11.89 12.68,10.78 14.54,9.64 16.40,8.50 17.95,7.69 19.49,6.87 21.15,6.26 22.82,5.66 23.66,4.83 24.50,4.00 26.08,3.11 27.66,2.21 28.75,1.67 29.84,1.14 30.02,0.86 30.20,0.58 30.48,0.46 30.77,0.34 31.07,0.30 31.38,0.26 31.69,0.29 31.99,0.32 32.28,0.42 32.58,0.52 32.83,0.69 33.09,0.86 33.30,1.09 33.51,1.31 33.66,1.58 33.81,1.85 33.89,2.15 33.97,2.45 33.98,2.76 33.99,3.07 33.92,3.37 33.85,3.67 33.72,3.94 33.58,4.22 33.38,4.46 33.18,4.69 32.93,4.87 32.68,5.06 31.89,6.53 31.09,8.00 29.80,10.24 28.51,12.48 27.48,14.78 26.45,17.09 25.23,19.57 24.02,22.04 22.53,25.00 21.04,27.96 20.51,29.42 19.98,30.88 20.04,31.57 20.10,32.26 19.99,32.46 19.88,32.66 19.72,32.82 19.57,32.99 19.38,33.11 19.19,33.24 18.98,33.31 18.76,33.39 18.54,33.41 18.31,33.43 18.09,33.40 17.86,33.36 17.65,33.28 17.44,33.19 17.26,33.06 17.08,32.93 16.93,32.75 16.79,32.58 16.69,32.38 16.59,32.17 16.54,31.95 16.49,31.73 16.50,31.50 16.50,31.28 16.56,31.06 16.62,30.84 19.32,29.54 22.02,28.24 24.53,26.73 27.04,25.22 29.51,23.19 31.97,21.16 35.00,18.83 38.03,16.49 40.04,15.02 42.06,13.55 43.15,12.78 44.25,12.01 46.54,11.24 48.83,10.47 50.65,9.70 52.47,8.93 53.53,8.47 54.59,8.00 56.01,7.54 57.43,7.08 57.77,6.86 58.11,6.63 58.35,6.60 58.59,6.56 58.83,6.59 59.07,6.61 59.30,6.69 59.52,6.77 59.73,6.90 59.93,7.03 60.09,7.21 60.26,7.39 60.38,7.60 60.49,7.81 60.56,8.04 60.62,8.28 60.63,8.52 60.64,8.76 60.58,9.00 60.53,9.23 60.42,9.45 60.32,9.67 60.16,9.85 60.01,10.04 59.81,10.18 59.62,10.32 59.39,10.41 59.17,10.50 57.83,12.39 56.49,14.27 54.80,17.28 53.11,20.29 51.37,23.07 49.63,25.86 47.43,28.98 45.22,32.09 43.81,34.11 42.40,36.13 41.96,37.18 41.52,38.24 41.57,38.78 41.61,39.33 41.48,39.50 41.36,39.68 41.19,39.83 41.03,39.97 40.83,40.07 40.64,40.17 40.43,40.22 40.21,40.27 40.00,40.27 39.78,40.27 39.57,40.21 39.35,40.16 39.16,40.05 38.97,39.95 38.81,39.80 38.65,39.66 38.52,39.48 38.40,39.30 38.32,39.09 38.25,38.89 38.22,38.67 38.20,38.45 38.23,38.23 38.26,38.02 38.34,37.81 38.42,37.61 41.37,36.53 44.32,35.46 46.93,34.25 49.54,33.04 52.82,31.33 56.11,29.62 59.22,28.17 62.34,26.71 64.40,25.85 66.46,24.99 68.60,24.37 70.73,23.75 72.40,23.38 74.06,23.02 76.36,22.47 78.66,21.93 81.05,21.13 83.45,20.34 83.72,20.30 84.00,20.27 84.26,20.33 84.53,20.39 84.77,20.53 85.01,20.67 85.19,20.88 85.36,21.08 85.47,21.34 85.57,21.59 85.59,21.87 85.60,22.14 85.53,22.41 85.46,22.67 85.31,22.90 85.16,23.13 84.94,23.30 84.72,23.46 84.46,23.55 84.20,23.64 83.93,23.65 83.65,23.65 83.39,23.56 83.13,23.48 82.91,23.31 82.69,23.15 82.53,22.92 82.38,22.69 82.30,22.43 82.23,22.16 82.24,21.89 82.25,21.61 82.35,21.36 82.45,21.10 82.63,20.89 82.81,20.68 83.04,20.54 83.28,20.40 83.54,20.33 83.81,20.27 84.09,20.30 84.36,20.33 84.61,20.44 84.86,20.56 85.06,20.75 85.26,20.93 85.39,21.17 85.52,21.42 85.57,21.69 85.61,21.96 85.57,22.23 85.53,22.50 85.40,22.75 85.27,22.99 85.08,23.18 84.88,23.37 84.63,23.49 84.38,23.60 84.38,23.60 84.38,23.60 81.88,24.20 79.37,24.80 76.96,25.43 74.55,26.06 73.03,26.22 71.50,26.37 69.52,26.95 67.54,27.54 65.54,28.40 63.55,29.26 60.50,30.72 57.46,32.18 54.14,33.96 50.82,35.74 48.05,37.09 45.27,38.44 43.44,38.88 41.61,39.33 41.48,39.50 41.36,39.68 41.19,39.83 41.03,39.97 40.83,40.07 40.64,40.17 40.43,40.22 40.22,40.27 40.00,40.27 39.78,40.27 39.57,40.21 39.35,40.16 39.16,40.05 38.97,39.95 38.81,39.80 38.65,39.66 38.52,39.48 38.40,39.30 38.32,39.09 38.25,38.89 38.22,38.67 38.20,38.45 38.23,38.23 38.26,38.02 38.34,37.81 38.42,37.61 38.48,37.22 38.55,36.82 39.30,35.67 40.04,34.51 41.42,32.46 42.80,30.41 44.90,27.34 47.01,24.26 48.64,21.50 50.26,18.74 51.99,15.46 53.72,12.18 55.92,9.41 58.11,6.63 58.35,6.60 58.59,6.56 58.83,6.59 59.07,6.61 59.30,6.69 59.52,6.77 59.73,6.90 59.93,7.03 60.09,7.21 60.26,7.39 60.38,7.60 60.49,7.81 60.56,8.04 60.62,8.28 60.63,8.52 60.64,8.76 60.58,9.00 60.53,9.23 60.43,9.45 60.32,9.67 60.16,9.85 60.01,10.04 59.81,10.18 59.62,10.32 59.39,10.41 59.17,10.50 58.80,10.61 58.43,10.71 56.05,11.23 53.67,11.74 51.75,12.56 49.84,13.39 47.85,14.11 45.86,14.83 44.79,15.31 43.71,15.79 41.74,17.26 39.77,18.74 36.81,21.07 33.85,23.41 31.24,25.61 28.63,27.81 25.96,29.48 23.29,31.16 21.69,31.71 20.10,32.26 19.99,32.46 19.88,32.66 19.72,32.82 19.57,32.99 19.38,33.11 19.19,33.24 18.98,33.31 18.76,33.39 18.54,33.41 18.31,33.43 18.09,33.40 17.86,33.36 17.65,33.28 17.44,33.19 17.26,33.06 17.08,32.93 16.93,32.75 16.79,32.58 16.69,32.38 16.59,32.17 16.54,31.95 16.49,31.73 16.50,31.51 16.50,31.28 16.56,31.06 16.62,30.84 16.72,30.26 16.82,29.67 17.52,28.13 18.22,26.59 19.61,23.62 21.01,20.65 22.07,18.20 23.14,15.74 24.08,13.20 25.03,10.67 26.14,8.28 27.25,5.89 28.72,3.23 30.20,0.58 30.48,0.46 30.77,0.34 31.07,0.30 31.38,0.26 31.69,0.29 31.99,0.32 32.28,0.42 32.58,0.52 32.83,0.69 33.09,0.86 33.30,1.09 33.51,1.31 33.66,1.58 33.81,1.85 33.89,2.15 33.97,2.45 33.98,2.76 33.99,3.07 33.92,3.37 33.85,3.67 33.72,3.94 33.58,4.22 33.38,4.46 33.18,4.69 32.93,4.87 32.68,5.05 32.56,5.21 32.43,5.36 31.07,6.00 29.71,6.64 28.40,6.89 27.09,7.14 25.63,8.21 24.17,9.29 22.68,9.79 21.19,10.28 19.81,10.92 18.43,11.57 16.80,12.74 15.18,13.91 13.96,14.86 12.73,15.80 10.91,17.76 9.08,19.71 7.46,21.43 5.83,23.16 4.27,24.41 2.71,25.66 1.92,26.81 1.12,27.97 1.08,28.30 1.04,28.63 0.92,28.95 0.80,29.26 0.61,29.54 0.41,29.81 0.16,30.04 -0.08,30.26 -0.38,30.41 -0.68,30.57 -1.01,30.65 -1.33,30.73 -1.67,30.73 -2.01,30.73 -2.33,30.64 -2.66,30.56 -2.96,30.40 -3.25,30.25 -3.50,30.02 -3.76,29.80 -3.95,29.52 -4.14,29.24 -4.25,28.93 -4.37,28.61 -4.41,28.28 -4.45,27.94 -4.43,27.69 -4.40,27.44 -4.33,25.76 -4.27,24.07 -4.05,22.58 -3.83,21.09 -3.26,19.95 -2.68,18.82 -1.74,16.80 -0.79,14.79 -0.14,13.64 0.50,12.49 1.38,9.92 2.27,7.35 3.13,5.78 3.98,4.21 4.54,2.54 5.09,0.87 5.46,-0.33 5.83,-1.53 6.50,-3.62 7.17,-5.71 7.40,-5.81 7.63,-5.92 7.87,-5.97 8.11,-6.02 8.36,-6.01 8.61,-6.00 8.85,-5.93 9.09,-5.86 9.31,-5.74 9.52,-5.62 9.71,-5.44 9.89,-5.27 10.02,-5.06 10.15,-4.85 10.23,-4.61 10.31,-4.38 10.33,-4.13 10.35,-3.88 10.31,-3.63 10.27,-3.39 10.18,-3.16 10.08,-2.93 9.93,-2.73 9.78,-2.53 9.59,-2.37 9.39,-2.21 8.74,-2.13 8.09,-2.05 6.58,-1.13 5.07,-0.21 2.95,0.82 0.83,1.87 0.59,1.95 0.36,2.02 0.11,2.03 -0.13,2.05 -0.37,2.00 -0.62,1.96 -0.84,1.85 -1.07,1.75 -1.26,1.60 -1.46,1.44 -1.61,1.25 -1.76,1.05 -1.86,0.82 -1.96,0.60 -2.01,0.35 -2.05,0.11 -2.03,-0.13 -2.02,-0.38 -1.94,-0.61 -1.87,-0.85 -1.74,-1.06 -1.61,-1.27 -1.43,-1.45 -1.26,-1.62 -1.04,-1.75 -0.83,-1.87 -0.83,-1.87 L -0.83,-1.87 Z"/></g><g stroke-linecap="round" transform="translate(10 10) rotate(0 270 60)"><path d="M1.46 0.71 L540.64 0.71 L538.65 118.25 L0.06 119.93" stroke="none" stroke-width="0" fill="#868e96"/><path d="M0.65 0.03 C152.72 -1.4, 306.36 -1.31, 540.37 -0.03 M0.15 -0.24 C129.03 -0.5, 257.96 -0.36, 540.29 -0.38 M540.1 0.08 C539.52 36.84, 541.06 70.18, 538.9 118.46 M539.91 0.94 C540.12 37.89, 539.12 74.81, 540.92 119.57 M540.51 120.17 C420.35 120.02, 302.42 119.52, 0.27 119.7 M540.08 120.26 C388.14 120.48, 236.9 121.19, -0.2 120.28 M0.33 119.87 C0.82 86.69, 2.27 48.84, 1.9 1.77 M-0.32 119.57 C1.73 92.59, 1.5 66.34, 0.68 -0.44" stroke="#000" stroke-width="1" fill="none"/></g><g transform="translate(15 34) rotate(0 249.169921875 36)"><text x="0" y="0" font-family="Helvetica, Segoe UI Emoji" font-size="20px" fill="#000" text-anchor="start" style="white-space: pre;" direction="ltr" dominant-baseline="text-before-edge">2. Т.к. продюсер запрашивал в барьере потребителя </text><text x="0" y="24" font-family="Helvetica, Segoe UI Emoji" font-size="20px" fill="#000" text-anchor="start" style="white-space: pre;" direction="ltr" dominant-baseline="text-before-edge">предшествующий номер, то он захватывает слот без </text><text x="0" y="48" font-family="Helvetica, Segoe UI Emoji" font-size="20px" fill="#000" text-anchor="start" style="white-space: pre;" direction="ltr" dominant-baseline="text-before-edge">приостановки и начинает в него запись.</text></g><g stroke-linecap="round" transform="translate(970 130) rotate(0 220 70)"><path d="M0.16 0.85 L438.73 -1.72 L440.35 140.45 L-1.05 139.23" stroke="none" stroke-width="0" fill="#868e96"/><path d="M-0.29 0.12 C117.86 1.16, 235.44 0.35, 439.4 0.23 M0.39 -0.18 C143.09 0.12, 286.22 0.68, 440.34 0.06 M438.91 0.33 C441.66 48.04, 441.22 94.66, 441.06 140.32 M439.15 0.53 C439.94 43.91, 438.6 88.67, 440.05 139.33 M440.27 139.02 C330.13 137.74, 222.37 138.34, 0.42 139.28 M439.74 139.6 C297.87 138.08, 155.37 138.57, -0.45 139.56 M1.44 138.34 C-1.68 95.37, 1.51 53.53, 1 -0.38 M0.97 140.89 C0.08 103.91, -0.49 66.96, 0.14 -0.49" stroke="#000" stroke-width="1" fill="none"/></g><g transform="translate(975 152) rotate(0 205.6103515625 48)"><text x="0" y="0" font-family="Helvetica, Segoe UI Emoji" font-size="20px" fill="#000" text-anchor="start" style="white-space: pre;" direction="ltr" dominant-baseline="text-before-edge">Позиция барьера продюсера предшествует </text><text x="0" y="24" font-family="Helvetica, Segoe UI Emoji" font-size="20px" fill="#000" text-anchor="start" style="white-space: pre;" direction="ltr" dominant-baseline="text-before-edge">запрашиваемой потребителем, поэтому </text><text x="0" y="48" font-family="Helvetica, Segoe UI Emoji" font-size="20px" fill="#000" text-anchor="start" style="white-space: pre;" direction="ltr" dominant-baseline="text-before-edge">потребитель ожидает пока продюсер не </text><text x="0" y="72" font-family="Helvetica, Segoe UI Emoji" font-size="20px" fill="#000" text-anchor="start" style="white-space: pre;" direction="ltr" dominant-baseline="text-before-edge">сдвинет свой барьер вперед.</text></g></svg>