<svg version="1.1" xmlns="http://www.w3.org/2000/svg" viewBox="0 0 1138.9453125 1063.7006552747957" width="1138.9453125" height="1063.7006552747957">
  <!-- svg-source:excalidraw -->
  
  <defs>
    <style class="style-fonts">
      @font-face {
        font-family: "Virgil";
        src: url("https://excalidraw.com/Virgil.woff2");
      }
      @font-face {
        font-family: "Cascadia";
        src: url("https://excalidraw.com/Cascadia.woff2");
      }
    </style>
  </defs>
  <g transform="translate(610.6787341001003 243.60814013739787) rotate(0 55.01953125 12)"><text x="0" y="0" font-family="Helvetica, Segoe UI Emoji" font-size="20px" fill="#fd7e14" text-anchor="start" style="white-space: pre;" direction="ltr" dominant-baseline="text-before-edge">nextToClaim</text></g><g transform="translate(494.3359606626003 690.0000000000001) rotate(0 73.9111328125 12)"><text x="0" y="0" font-family="Helvetica, Segoe UI Emoji" font-size="20px" fill="#000000" text-anchor="start" style="white-space: pre;" direction="ltr" dominant-baseline="text-before-edge">consumerBarrier</text></g><g transform="translate(994.3359606626003 650.0000000000001) rotate(0 53.369140625 12)"><text x="0" y="0" font-family="Helvetica, Segoe UI Emoji" font-size="20px" fill="#40c057" text-anchor="start" style="white-space: pre;" direction="ltr" dominant-baseline="text-before-edge">nextToRead</text></g><g transform="translate(990 270) rotate(0 69.47265625 12)"><text x="0" y="0" font-family="Helvetica, Segoe UI Emoji" font-size="20px" fill="#000000" text-anchor="start" style="white-space: pre;" direction="ltr" dominant-baseline="text-before-edge">producerBarrier</text></g><g stroke-linecap="round" transform="translate(795.4503973557174 690.0000000000001) rotate(0 20.6364205464313 21.850327637397868)"><path d="M1.44 -0.94 L40.56 -1.84 L42.33 41.8 L-0.03 44.2" stroke="none" stroke-width="0" fill="#40c057"/><path d="M-1.77 0.98 C11.64 1.98, 23.83 -0.04, 39.9 -1.47 M-0.44 -0.24 C13.44 -0.41, 28.39 0.48, 40.53 0.64 M39.3 0.63 C39.51 10.76, 41.43 20.83, 42.3 44.46 M40.79 -0.16 C41.92 15.86, 40.44 32.63, 41.56 43.15 M40.93 43.97 C28.65 45.27, 13.77 45.57, 1.79 43.58 M41.04 43.99 C30.71 42.98, 21.4 44.45, 0.44 42.86 M-0.6 42.22 C-1.24 27.23, -0.86 10.06, 1.05 1.87 M0.88 43.72 C-0.15 31.52, -0.91 19.47, -0.62 0.49" stroke="#000000" stroke-width="2" fill="none"/></g><g stroke-linecap="round" transform="translate(795.4503973557174 650.0000000000001) rotate(0 20.6364205464313 21.850327637397868)"><path d="M0 0 C0 0, 0 0, 0 0 M0 0 C0 0, 0 0, 0 0 M-0.87 13.3 C2.98 6.75, 8.89 3.38, 10.04 -0.18 M-0.65 12.55 C4.45 8.34, 8.02 3.49, 10.7 0 M2 24.69 C8.91 14.93, 14.65 6.09, 23.23 0.77 M0.13 23.57 C7.17 16.84, 13.39 9.42, 21.97 -0.41 M1.35 35.06 C13.2 22.88, 23.93 8.75, 30.27 0.05 M-1.23 37.22 C12.25 22.26, 23.34 9.47, 31.47 -0.36 M3.99 46.94 C10.51 37.32, 19.98 25.34, 40.45 -0.03 M3.3 45.7 C11.21 37.2, 18.5 26.47, 41.83 1.11 M11.32 45.43 C23.32 32.23, 31.97 21.2, 43.48 11.23 M13.46 46.26 C24.71 34.27, 35.02 21.76, 41.45 12.28 M24.09 45.48 C27.69 39.35, 35.09 32.84, 43 24.99 M23.34 45.54 C29.08 41.12, 33.33 34.49, 41.99 24.13 M33.53 45.01 C35.65 43.94, 37.47 40.82, 41.41 38.2 M34 45.47 C36.52 43.38, 38.58 40.58, 41.18 37.42" stroke="#40c057" stroke-width="1" fill="none"/><path d="M0.98 -1.26 C17.93 -1.62, 32.15 -1, 39.8 0.72 M-0.24 -0.43 C9.71 0.83, 20.8 -0.57, 41.91 -0.67 M41.91 -1.78 C42.07 13.5, 41.96 27.78, 42.03 45.31 M41.11 0.83 C40.43 10.66, 40.58 22.91, 40.72 44.11 M41.54 45.13 C33.65 44.25, 24.85 45.42, -0.12 42.54 M41.56 43.12 C28.32 43.71, 17.69 44.05, -0.85 44.4 M-1.48 42.78 C-0.7 26.83, -1.7 12.1, 1.87 -0.42 M0.02 43.77 C0.11 27.74, 0.25 12.54, 0.49 0.72" stroke="#000000" stroke-width="2" fill="none"/></g><g transform="translate(855.4503973557174 614.8000000000001) rotate(0 5.5615234375 12)"><text x="0" y="0" font-family="Helvetica, Segoe UI Emoji" font-size="20px" fill="#000000" text-anchor="start" style="white-space: pre;" direction="ltr" dominant-baseline="text-before-edge">2</text></g><g transform="translate(855.4503973557174 654.8000000000001) rotate(0 5.5615234375 12)"><text x="0" y="0" font-family="Helvetica, Segoe UI Emoji" font-size="20px" fill="#000000" text-anchor="start" style="white-space: pre;" direction="ltr" dominant-baseline="text-before-edge">1</text></g><g stroke-linecap="round" transform="translate(795.4503973557174 770.0000000000001) rotate(0 20.6364205464313 21.850327637397868)"><path d="M-1.98 -0.32 C13.04 -1.82, 29.54 -1.41, 40.91 -0.87 M42.57 0.81 C39.59 13.35, 39.75 24.28, 42.31 41.73 M41.4 44.16 C28.61 44.57, 15.5 43, -0.33 42.74 M-1.3 42.45 C0.21 30.18, 0.45 17.28, 0.42 -0.34" stroke="#000000" stroke-width="2.5" fill="none" stroke-dasharray="1.5 8"/></g><g stroke-linecap="round" transform="translate(795.4503973557174 730.0000000000001) rotate(0 20.6364205464313 21.850327637397868)"><path d="M-0.32 -1.37 C8.3 1.13, 18.49 0.04, 40.4 -0.47 M42.08 -1.5 C42.33 9.9, 41.18 23.52, 39.3 44.33 M41.73 44.72 C33.33 45.34, 23.05 43.4, -0.96 43.38 M-1.25 44.28 C-0.77 27.78, -1.25 10.65, -0.34 0.27" stroke="#000000" stroke-width="2.5" fill="none" stroke-dasharray="1.5 8"/></g><g transform="translate(855.4503973557174 734.8000000000001) rotate(0 22.24609375 12)"><text x="0" y="0" font-family="Helvetica, Segoe UI Emoji" font-size="20px" fill="#000000" text-anchor="start" style="white-space: pre;" direction="ltr" dominant-baseline="text-before-edge">255u</text></g><g transform="translate(855.4503973557174 694.8000000000001) rotate(0 5.5615234375 12)"><text x="0" y="0" font-family="Helvetica, Segoe UI Emoji" font-size="20px" fill="#000000" text-anchor="start" style="white-space: pre;" direction="ltr" dominant-baseline="text-before-edge">0</text></g><g transform="translate(855.4503973557174 774.8000000000001) rotate(0 22.24609375 12)"><text x="0" y="0" font-family="Helvetica, Segoe UI Emoji" font-size="20px" fill="#000000" text-anchor="start" style="white-space: pre;" direction="ltr" dominant-baseline="text-before-edge">254u</text></g><g stroke-linecap="round" transform="translate(795.4503973557174 810.0000000000001) rotate(0 20.6364205464313 21.850327637397868)"><path d="M-1.06 -0.37 C8.68 -0.62, 18.25 -1.12, 42.57 0.81 M41.39 1.04 C39.58 10.48, 39.77 20.26, 41.4 44.16 M40.45 43.37 C25.82 43.72, 13.94 42.49, -1.3 42.45 M-1.59 44.12 C-0.1 29.6, 1.67 16.44, 0.62 1.78" stroke="#000000" stroke-width="2.5" fill="none" stroke-dasharray="1.5 8"/></g><g stroke-linecap="round" transform="translate(795.4503973557174 850.0000000000001) rotate(0 20.6364205464313 21.850327637397868)"><path d="M-0.37 -0.87 C8.87 -0.64, 17.71 1.52, 42.08 -1.5 M42.31 -1.98 C41.61 14.1, 41.55 31.9, 41.73 44.72 M40.94 42.74 C27.02 45.19, 11.85 42.23, -1.25 44.28 M0.42 43.36 C0.09 34.44, 1.31 22.93, 1.78 1.79" stroke="#000000" stroke-width="2.5" fill="none" stroke-dasharray="1.5 8"/></g><g transform="translate(855.4503973557174 814.8000000000001) rotate(0 22.24609375 12)"><text x="0" y="0" font-family="Helvetica, Segoe UI Emoji" font-size="20px" fill="#000000" text-anchor="start" style="white-space: pre;" direction="ltr" dominant-baseline="text-before-edge">253u</text></g><g transform="translate(855.4503973557174 854.8000000000001) rotate(0 22.24609375 12)"><text x="0" y="0" font-family="Helvetica, Segoe UI Emoji" font-size="20px" fill="#000000" text-anchor="start" style="white-space: pre;" direction="ltr" dominant-baseline="text-before-edge">252u</text></g><g stroke-linecap="round" transform="translate(795.4503973557174 890.0000000000001) rotate(0 20.6364205464313 21.850327637397868)"><path d="M-0.85 -0.98 C12.92 0.91, 21.75 1.37, 39.93 0.12 M39.49 0.57 C40.97 15.83, 41.86 31.5, 42.88 42.88 M42.93 42.16 C28.28 42.39, 18.46 42.53, 0.81 42.11 M1.43 45.18 C0.69 31.46, 1.86 15.53, -1.16 -0.14" stroke="#000000" stroke-width="2.5" fill="none" stroke-dasharray="1.5 8"/></g><g stroke-linecap="round" transform="translate(795.4503973557174 930.0000000000001) rotate(0 20.6364205464313 21.850327637397868)"><path d="M-0.98 1.3 C11.39 -1.32, 22.43 -1.16, 41.39 1.04 M41.84 0.13 C41.87 9.82, 42.17 19.2, 40.45 43.37 M39.73 42.4 C29.62 44.62, 19.36 44.86, -1.59 44.12 M1.48 44.32 C1.72 33.13, -0.18 17.82, -0.14 0.63" stroke="#000000" stroke-width="2.5" fill="none" stroke-dasharray="1.5 8"/></g><g transform="translate(855.4503973557174 894.8000000000001) rotate(0 22.24609375 12)"><text x="0" y="0" font-family="Helvetica, Segoe UI Emoji" font-size="20px" fill="#000000" text-anchor="start" style="white-space: pre;" direction="ltr" dominant-baseline="text-before-edge">251u</text></g><g transform="translate(855.4503973557174 934.8000000000003) rotate(0 22.24609375 12)"><text x="0" y="0" font-family="Helvetica, Segoe UI Emoji" font-size="20px" fill="#000000" text-anchor="start" style="white-space: pre;" direction="ltr" dominant-baseline="text-before-edge">240u</text></g><g stroke-linecap="round" transform="translate(795.4503973557174 970.0000000000001) rotate(0 20.6364205464313 21.850327637397868)"><path d="M-1.5 1.27 C9.03 -0.04, 21.77 -2.14, 41.91 -1.78 M42.3 0.76 C42.91 13.54, 40.97 27.76, 40.96 45.36 M41.85 42.59 C32.88 41.85, 23.29 43.1, 0.27 45.13 M1.79 43.58 C-1.29 27.21, 0.49 10.54, 0.57 -1.15" stroke="#000000" stroke-width="2.5" fill="none" stroke-dasharray="1.5 8"/></g><g stroke-linecap="round" transform="translate(795.4503973557174 1010.0000000000001) rotate(0 20.6364205464313 21.850327637397868)"><path d="M1.27 -1.34 C15.19 1.34, 28.15 0.94, 39.49 0.57 M42.03 1.61 C40.55 13.06, 40.41 26.46, 42.93 42.16 M40.17 44.51 C29.98 44.24, 21.53 44.09, 1.43 45.18 M-0.12 42.54 C-0.53 29.87, -0.85 15.35, -1.15 -1.71" stroke="#000000" stroke-width="2.5" fill="none" stroke-dasharray="1.5 8"/></g><g transform="translate(855.4503973557174 974.8000000000003) rotate(0 22.24609375 12)"><text x="0" y="0" font-family="Helvetica, Segoe UI Emoji" font-size="20px" fill="#000000" text-anchor="start" style="white-space: pre;" direction="ltr" dominant-baseline="text-before-edge">239u</text></g><g transform="translate(855.4503973557174 1014.8000000000003) rotate(0 22.24609375 12)"><text x="0" y="0" font-family="Helvetica, Segoe UI Emoji" font-size="20px" fill="#000000" text-anchor="start" style="white-space: pre;" direction="ltr" dominant-baseline="text-before-edge">238u</text></g><g stroke-linecap="round" transform="translate(795.4503973557174 490.0000000000001) rotate(0 20.6364205464313 21.850327637397868)"><path d="M1.65 -1.66 L43.08 1.14 L42.64 42.45 L1.57 42.22" stroke="none" stroke-width="0" fill="#fd7e14"/><path d="M1.04 -1.98 C15.64 -1.81, 30.58 0.1, 41.73 1.02 M-0.17 -0.48 C13.78 1, 27.11 -0.48, 40.65 0.29 M41.69 -0.34 C41.72 12.13, 42.93 22, 43.05 45.49 M41.59 -0.23 C41.3 12.28, 40.16 25.81, 41.89 44.14 M43.18 43.1 C30.9 43.08, 23.2 43.46, -1.28 44.75 M41.06 44.58 C25.06 43.97, 8.82 43.21, 0.16 43.08 M-0.71 41.86 C0.75 26.54, -0.34 13.69, -1.88 -1.54 M0.19 44.59 C-0.41 33.22, 0.03 21.74, 0.85 -0.2" stroke="#000000" stroke-width="2" fill="none"/></g><g stroke-linecap="round" transform="translate(795.4503973557174 570.0000000000001) rotate(0 20.6364205464313 21.850327637397868)"><path d="M-1.66 1.81 L42.41 1.37 L40.02 45.28 L-1.49 43.08" stroke="none" stroke-width="0" fill="#fd7e14"/><path d="M-1.98 0.63 C7.83 0.36, 19.37 0.24, 42.3 0.76 M-0.48 -0.16 C16.53 -0.7, 30.76 -0.56, 41.56 -0.55 M40.93 0.27 C42.36 16.37, 41.54 31.55, 43.06 43.58 M41.04 0.28 C40.67 9.72, 41.34 21.77, 41.71 42.86 M40.67 42.22 C25.07 43.81, 10.17 42.81, 1.05 45.57 M42.16 43.72 C29.82 43.63, 17.54 43.78, -0.62 44.19 M-1.84 44.76 C-1.7 27.42, 0.71 9.32, -1.54 -1.15 M0.89 42.89 C0.31 34.28, -0.58 26.47, -0.2 0.82" stroke="#000000" stroke-width="2" fill="none"/></g><g stroke-linecap="round" transform="translate(795.4503973557174 530.0000000000001) rotate(0 20.6364205464313 21.850327637397868)"><path d="M1.81 1.14 L42.64 -1.25 L42.85 42.22 L-0.62 44.49" stroke="none" stroke-width="0" fill="#fd7e14"/><path d="M0.63 -1.78 C13.21 0.54, 25.72 1.43, 42.03 1.61 M-0.16 0.83 C9.91 -0.45, 20.74 0.49, 40.72 0.41 M41.54 1.43 C42.85 10.26, 43.15 21.06, 41.16 42.54 M41.56 -0.58 C40.56 12.91, 42.03 26.07, 40.43 44.4 M39.79 42.78 C25.57 43.03, 9.15 44.63, 1.87 43.28 M41.3 43.77 C26.87 43.37, 12.59 43.44, 0.49 44.42 M1.06 41.8 C0.13 33.15, -1.72 20.06, -1.15 -1.86 M-0.81 43.81 C-0.46 31.8, 0.77 21.26, 0.82 -0.83" stroke="#000000" stroke-width="2" fill="none"/></g><g transform="translate(855.4503973557174 494.80000000000007) rotate(0 5.5615234375 12)"><text x="0" y="0" font-family="Helvetica, Segoe UI Emoji" font-size="20px" fill="#000000" text-anchor="start" style="white-space: pre;" direction="ltr" dominant-baseline="text-before-edge">5</text></g><g transform="translate(855.4503973557174 534.8000000000001) rotate(0 5.5615234375 12)"><text x="0" y="0" font-family="Helvetica, Segoe UI Emoji" font-size="20px" fill="#000000" text-anchor="start" style="white-space: pre;" direction="ltr" dominant-baseline="text-before-edge">4</text></g><g transform="translate(855.4503973557174 574.8000000000001) rotate(0 5.5615234375 12)"><text x="0" y="0" font-family="Helvetica, Segoe UI Emoji" font-size="20px" fill="#000000" text-anchor="start" style="white-space: pre;" direction="ltr" dominant-baseline="text-before-edge">3</text></g><g stroke-linecap="round" transform="translate(795.4503973557174 370.0000000000001) rotate(0 20.6364205464313 21.850327637397868)"><path d="M1.57 -1.49 L40.65 0.79 L42.32 42.96 L-0.18 45.08" stroke="none" stroke-width="0" fill="#fd7e14"/><path d="M0.46 1.02 C9.45 1.58, 16.57 -0.36, 40.31 -0.32 M-0.62 0.29 C15.25 0.67, 30.82 0.48, 41.1 0.14 M43.05 1.79 C41.48 15.08, 41.46 33.11, 40.82 44.27 M41.89 0.44 C40.05 11.3, 41.64 22.14, 40.97 42.96 M39.99 44.75 C32.66 43.17, 21.31 43.17, 1.77 43.75 M41.43 43.08 C29.11 44.13, 15.5 43.06, -0.92 44.23 M-1.88 42.17 C-1.14 32.89, -0.9 26.18, 1.78 -1.63 M0.85 43.51 C0.99 29.27, 1.07 17.07, 0.68 -0.63" stroke="#000000" stroke-width="2" fill="none"/></g><g stroke-linecap="round" transform="translate(795.4503973557174 450.0000000000001) rotate(0 20.6364205464313 21.850327637397868)"><path d="M-1.49 -0.62 L42.06 1.05 L40.53 43.52 L1.38 45.19" stroke="none" stroke-width="0" fill="#fd7e14"/><path d="M1.02 0.76 C15.17 -0.92, 26.79 -1.05, 40.96 1.66 M0.29 -0.55 C9.61 -0.54, 18.61 0.09, 41.41 0.72 M43.06 -0.12 C40.25 16.21, 42.03 32.24, 41.84 42.55 M41.71 -0.85 C42.02 10.11, 42.27 18.45, 40.53 43.24 M42.33 45.57 C29.06 44.43, 17.27 45.2, 0.05 43.83 M40.65 44.19 C29.53 43.3, 15.99 42.85, 0.53 42.75 M-1.54 42.55 C-1.97 29.74, 0.27 19.38, -1.63 0.23 M-0.2 44.52 C-0.49 33.15, 0.91 21.47, -0.63 0.79" stroke="#000000" stroke-width="2" fill="none"/></g><g stroke-linecap="round" transform="translate(795.4503973557174 410.0000000000001) rotate(0 20.6364205464313 21.850327637397868)"><path d="M-0.62 0.79 L42.32 -0.74 L41.1 45.08 L1.49 44.41" stroke="none" stroke-width="0" fill="#fd7e14"/><path d="M0.76 1.61 C11.82 -0.54, 24.34 -0.53, 42.93 -1.54 M-0.55 0.41 C8.91 0.09, 19.23 0.02, 41.99 0.74 M41.16 -1.16 C41.53 15.09, 41.2 29.49, 40.12 41.99 M40.43 0.7 C42.28 14.5, 41.24 26.36, 40.81 43.56 M43.14 43.28 C31 43.5, 20.52 43.97, 0.13 43.74 M41.76 44.42 C31.27 43.09, 21.29 43.97, -0.95 43.69 M-1.15 41.84 C-0.5 29.87, 2.19 13.65, 0.23 -0.76 M0.82 42.87 C0.53 34.54, 0.31 23.62, 0.79 -0.74" stroke="#000000" stroke-width="2" fill="none"/></g><g transform="translate(855.4503973557174 374.80000000000007) rotate(0 5.5615234375 12)"><text x="0" y="0" font-family="Helvetica, Segoe UI Emoji" font-size="20px" fill="#000000" text-anchor="start" style="white-space: pre;" direction="ltr" dominant-baseline="text-before-edge">8</text></g><g transform="translate(855.4503973557174 414.80000000000007) rotate(0 5.5615234375 12)"><text x="0" y="0" font-family="Helvetica, Segoe UI Emoji" font-size="20px" fill="#000000" text-anchor="start" style="white-space: pre;" direction="ltr" dominant-baseline="text-before-edge">7</text></g><g transform="translate(855.4503973557174 454.80000000000007) rotate(0 5.5615234375 12)"><text x="0" y="0" font-family="Helvetica, Segoe UI Emoji" font-size="20px" fill="#000000" text-anchor="start" style="white-space: pre;" direction="ltr" dominant-baseline="text-before-edge">6</text></g><g stroke-linecap="round" transform="translate(795.4503973557174 250) rotate(0 20.6364205464313 21.850327637397868)"><path d="M-0.96 -0.32 C17.36 -1.47, 30.11 -1.18, 41.85 -1.11 M-0.17 0.14 C14.77 0.66, 28.43 0.8, 42.17 -0.06 M40.82 0.57 C40.09 8.87, 41.44 22.39, 42.15 42.01 M40.97 -0.74 C41.13 16.04, 41.32 31.72, 41.8 44.63 M43.04 43.75 C29.89 43.66, 16.85 43.94, -1.24 44.68 M40.35 44.23 C24.97 43.54, 10.82 42.62, -0.77 43.13 M1.78 42.07 C0.42 33.9, -1.35 27.32, -0.39 1.65 M0.68 43.07 C0.39 33.48, -0.71 25.13, 0.53 -0.37" stroke="#000000" stroke-width="2" fill="none"/></g><g stroke-linecap="round" transform="translate(795.4503973557174 330) rotate(0 20.6364205464313 21.850327637397868)"><path d="M-0.32 1.66 C9.14 -1.1, 20.12 0.77, 40.17 0.81 M0.14 0.72 C9.84 0.38, 19.09 0.96, 41.21 -0.58 M41.84 -1.15 C39.7 13.01, 42.65 26.51, 39.58 45.11 M40.53 -0.46 C41.55 16.05, 41.05 33.18, 42.21 43.49 M41.32 43.83 C26.89 42.68, 12.75 42.82, 0.98 45.14 M41.8 42.75 C30.82 43.57, 19.46 42.55, -0.58 42.77 M-1.63 43.93 C-0.84 31.03, 1.62 21.06, 1.65 -1.66 M-0.63 44.49 C-0.99 26.32, 0.14 10.09, -0.37 -0.09" stroke="#000000" stroke-width="2" fill="none"/></g><g stroke-linecap="round" transform="translate(795.4503973557174 290) rotate(0 20.6364205464313 21.850327637397868)"><path d="M1.66 -1.54 C10.4 -1.18, 23.97 -1.04, 42.09 -1.59 M0.72 0.74 C13.55 0.84, 27.38 -0.11, 40.69 -0.07 M40.12 -1.71 C41.37 15.72, 42.05 27.27, 42.68 45.17 M40.81 -0.14 C40.87 16.65, 41.67 35.51, 41.06 44.2 M41.4 43.74 C28.37 44.03, 16.98 44.69, 1.44 42.76 M40.32 43.69 C30.6 42.98, 18.66 43.34, -0.93 43.25 M0.23 42.94 C-1.94 31.46, -0.78 17.47, -1.66 1.81 M0.79 42.96 C-0.61 28.5, 0.23 12.14, -0.09 0.69" stroke="#000000" stroke-width="2" fill="none"/></g><g transform="translate(855.4503973557174 254.80000000000018) rotate(0 10.380859375 12)"><text x="0" y="0" font-family="Helvetica, Segoe UI Emoji" font-size="20px" fill="#000000" text-anchor="start" style="white-space: pre;" direction="ltr" dominant-baseline="text-before-edge">11</text></g><g transform="translate(855.4503973557174 294.8000000000002) rotate(0 11.123046875 12)"><text x="0" y="0" font-family="Helvetica, Segoe UI Emoji" font-size="20px" fill="#000000" text-anchor="start" style="white-space: pre;" direction="ltr" dominant-baseline="text-before-edge">10</text></g><g transform="translate(855.4503973557174 334.8000000000002) rotate(0 5.5615234375 12)"><text x="0" y="0" font-family="Helvetica, Segoe UI Emoji" font-size="20px" fill="#000000" text-anchor="start" style="white-space: pre;" direction="ltr" dominant-baseline="text-before-edge">9</text></g><g stroke-linecap="round" transform="translate(795.4503973557174 210) rotate(0 20.6364205464313 21.850327637397868)"><path d="M0.58 -1.11 C10.01 -1.33, 18.82 -0.09, 41.54 1.43 M0.89 -0.06 C14.86 -0.44, 31.2 -0.6, 41.56 -0.58 M42.15 -1.69 C42.72 10.85, 43.23 18.15, 39.79 42.78 M41.8 0.93 C40.95 12.98, 40.95 25.86, 41.3 43.77 M40.03 44.68 C30.25 42.83, 15.63 41.93, 1.06 41.8 M40.51 43.13 C28.02 42.86, 16.81 44.21, -0.81 43.81 M-0.39 45.35 C-1.32 34.06, 1.48 22.16, -1.25 1.57 M0.53 43.33 C0.05 34.53, 0.88 24.32, -0.98 0.64" stroke="#000000" stroke-width="2" fill="none"/></g><g stroke-linecap="round" transform="translate(795.4503973557174 170) rotate(0 20.6364205464313 21.850327637397868)"><path d="M-1.11 0.81 C8.11 0.3, 19.06 0.15, 42.71 1.48 M-0.06 -0.58 C13.59 -0.06, 27.09 -0.08, 40.7 -0.85 M39.58 1.41 C43.02 15.46, 40.94 25.61, 40.35 43.41 M42.21 -0.21 C41.49 11.72, 41.88 23.87, 41.34 43.72 M42.26 45.14 C30.8 42.74, 20.37 44.5, -1.9 43.67 M40.7 42.77 C27.4 43.57, 15.32 42.57, 0.11 43.32 M1.65 42.04 C1.44 35.11, 1 23, 1.57 -1.49 M-0.37 43.61 C0.52 32.7, 0.18 19.23, 0.64 0.66" stroke="#000000" stroke-width="2" fill="none"/></g><g transform="translate(855.4503973557174 174.80000000000018) rotate(0 11.123046875 12)"><text x="0" y="0" font-family="Helvetica, Segoe UI Emoji" font-size="20px" fill="#000000" text-anchor="start" style="white-space: pre;" direction="ltr" dominant-baseline="text-before-edge">13</text></g><g transform="translate(855.4503973557174 214.80000000000018) rotate(0 11.123046875 12)"><text x="0" y="0" font-family="Helvetica, Segoe UI Emoji" font-size="20px" fill="#000000" text-anchor="start" style="white-space: pre;" direction="ltr" dominant-baseline="text-before-edge">12</text></g><g stroke-linecap="round" transform="translate(795.4503973557174 10) rotate(0 20.6364205464313 21.850327637397868)"><path d="M0.42 -0.34 C10.37 1.76, 21.68 0.95, 43.05 1.79 M0.31 -0.23 C12.42 -0.55, 23.42 0.13, 41.89 0.44 M43.18 -0.6 C40.1 8.49, 41.29 18.29, 39.99 44.75 M41.06 0.88 C41.21 17.26, 41.2 33.7, 41.43 43.08 M40.56 41.86 C27.92 41.6, 12.42 44.01, -1.88 42.17 M41.46 44.59 C30.45 43.63, 20.88 42.74, 0.85 43.51 M1.14 45.07 C-0.89 28.57, -1.12 9.66, 0.79 1.05 M0.74 44.05 C-0.94 32.84, 0.7 21.71, 0.29 0.5" stroke="#000000" stroke-width="2" fill="none"/></g><g stroke-linecap="round" transform="translate(795.4503973557174 50) rotate(0 20.6364205464313 21.850327637397868)"><path d="M-0.34 0.27 C15.49 1.4, 28.73 1.7, 43.06 -0.12 M-0.23 0.28 C9.41 -0.98, 20.08 0.49, 41.71 -0.85 M40.67 -1.48 C40.67 15.89, 41.05 31.08, 42.33 45.57 M42.16 0.02 C41.55 12.22, 40.8 24.55, 40.65 44.19 M39.43 44.76 C24.02 43.53, 11.07 41.68, -1.54 42.55 M42.16 42.89 C32.85 43.4, 23.42 44.63, -0.2 44.52 M1.37 42.45 C1.18 32.74, -1.02 25.53, 1.05 -0.74 M0.35 42.72 C0.33 31.64, 0.69 18.55, 0.5 0.08" stroke="#000000" stroke-width="2" fill="none"/></g><g transform="translate(855.4503973557174 14.800000000000182) rotate(0 22.24609375 12)"><text x="0" y="0" font-family="Helvetica, Segoe UI Emoji" font-size="20px" fill="#000000" text-anchor="start" style="white-space: pre;" direction="ltr" dominant-baseline="text-before-edge">255u</text></g><g transform="translate(855.4503973557174 54.80000000000018) rotate(0 22.24609375 12)"><text x="0" y="0" font-family="Helvetica, Segoe UI Emoji" font-size="20px" fill="#000000" text-anchor="start" style="white-space: pre;" direction="ltr" dominant-baseline="text-before-edge">254u</text></g><g stroke-linecap="round"><g transform="translate(795.4503973557174 169.63732503093797) rotate(0 0 -40)"><path d="M2.01 2.08 C2.23 -10.9, 0.78 -63.8, 0.87 -77.51" stroke="#000000" stroke-width="1.5" fill="none" stroke-dasharray="8 9"/></g></g><mask/><g stroke-linecap="round"><g transform="translate(835.4503973557174 169.63732503093797) rotate(0 0 -40)"><path d="M2.08 0.87 C2.43 -12.38, 2.87 -63.75, 2.49 -77.5" stroke="#000000" stroke-width="1.5" fill="none" stroke-dasharray="8 9"/></g></g><mask/><g stroke-linecap="round"><g transform="translate(875.4503973557174 149.63732503093797) rotate(0 0 -30)"><path d="M0.87 2.49 C0.95 -7.88, 2.92 -49.72, 2.5 -60.16" stroke="#000000" stroke-width="1.5" fill="none" stroke-dasharray="1.5 7"/></g></g><mask/><g stroke-linecap="round"><g transform="translate(634.3359606626003 710.0000000000001) rotate(0 80.29541015625 -5.684341886080802e-14)"><path d="M2.49 2.5 C12.22 2.09, 34.11 -1.35, 60.43 -1.62 C86.74 -1.89, 143.81 0.47, 160.4 0.88 M0.4 1.39 C9.55 1.23, 31.75 2.05, 58.1 1.12 C84.45 0.2, 141.48 -4.63, 158.49 -4.18" stroke="#000000" stroke-width="1" fill="none"/></g><g transform="translate(634.3359606626003 710.0000000000001) rotate(0 80.29541015625 -5.684341886080802e-14)"><path d="M134.21 6.74 C138.67 2.03, 152.66 -2.78, 159.63 -6.48 M131.52 5.28 C138 5.71, 144.48 1.24, 157.01 -5.1" stroke="#000000" stroke-width="1" fill="none"/></g><g transform="translate(634.3359606626003 710.0000000000001) rotate(0 80.29541015625 -5.684341886080802e-14)"><path d="M133.56 -13.77 C138.39 -10.81, 152.63 -7.96, 159.63 -6.48 M130.87 -15.23 C137.53 -10.41, 144.15 -10.48, 157.01 -5.1" stroke="#000000" stroke-width="1" fill="none"/></g></g><mask/><g stroke-linecap="round"><g transform="translate(691.3990141874607 274.0000000000001) rotate(0 49.63985995631981 34.80407006869888)"><path d="M2.5 -0.16 C5.3 7.66, 1.38 37.9, 17.66 49.42 C33.93 60.94, 86.42 65.87, 100.16 68.97 M0.42 -2.72 C4.06 6.78, 6.78 40.54, 23.18 52.94 C39.58 65.35, 85.84 68.93, 98.82 71.73" stroke="#fd7e14" stroke-width="1" fill="none"/></g><g transform="translate(691.3990141874607 274.0000000000001) rotate(0 49.63985995631981 34.80407006869888)"><path d="M69.16 75.22 C78.76 76.35, 87.85 74.31, 96.52 68.31 M67.7 78.95 C79.92 77.39, 86.97 72.2, 97.9 71.44" stroke="#fd7e14" stroke-width="1" fill="none"/></g><g transform="translate(691.3990141874607 274.0000000000001) rotate(0 49.63985995631981 34.80407006869888)"><path d="M72.31 54.94 C81.23 62.83, 89.28 67.51, 96.52 68.31 M70.85 58.67 C82.34 63.43, 88.41 64.52, 97.9 71.44" stroke="#fd7e14" stroke-width="1" fill="none"/></g></g><mask/><g stroke-linecap="round"><g transform="translate(987.6787341001003 669.9122102060969) rotate(0 -48.83936705005016 -19.956105103048458)"><path d="M-0.51 1.12 C-6.6 -5.82, -21.53 -33.71, -37.62 -40.6 C-53.71 -47.49, -87.17 -40.35, -97.06 -40.23 M1.42 0.66 C-4.72 -5.61, -22.05 -32.8, -38.54 -39.43 C-55.02 -46.05, -87.86 -39.19, -97.5 -39.08" stroke="#40c057" stroke-width="1" fill="none"/></g><g transform="translate(987.6787341001003 669.9122102060969) rotate(0 -48.83936705005016 -19.956105103048458)"><path d="M-68.6 -51.97 C-77.13 -48.45, -82.14 -45.62, -97.46 -38.55 M-70.95 -52.6 C-76.31 -48.24, -83.7 -45.37, -96.59 -39.71" stroke="#40c057" stroke-width="1" fill="none"/></g><g transform="translate(987.6787341001003 669.9122102060969) rotate(0 -48.83936705005016 -19.956105103048458)"><path d="M-66.58 -31.55 C-75.7 -32.29, -81.13 -33.71, -97.46 -38.55 M-68.93 -32.18 C-74.93 -32.68, -82.81 -34.67, -96.59 -39.71" stroke="#40c057" stroke-width="1" fill="none"/></g></g><mask/><g stroke-linecap="round" transform="translate(10 470) rotate(0 131 41)"><path d="M-0.89 1.97 L262.84 -0.12 L261.9 80.83 L-0.28 80.97" stroke="none" stroke-width="0" fill="#868e96"/><path d="M-0.11 0.5 C101.65 1.66, 203.11 -0.15, 262.16 0.99 M0.59 0.76 C89.88 -2.06, 179.86 -1.58, 261.78 -0.51 M262.99 -0.42 C264.53 28.97, 262.9 57.88, 260.62 82.32 M261.53 -0.35 C261.48 20.04, 261.45 39, 262.25 81.06 M261.28 82.3 C204.93 78.76, 145.21 79.45, -1.23 83.35 M262.72 82.45 C189.06 79.77, 115.66 79.67, -0.25 82.31 M1.38 83.49 C1.01 51.13, 1.58 25.5, 1.99 0.58 M0.56 82.48 C-0.65 54.13, 0.24 25.16, -0.33 -0.23" stroke="#000" stroke-width="1" fill="none"/></g><g transform="translate(15 487) rotate(0 118.486328125 24)"><text x="0" y="0" font-family="Helvetica, Segoe UI Emoji" font-size="20px" fill="#000" text-anchor="start" style="white-space: pre;" direction="ltr" dominant-baseline="text-before-edge">bufferSize = 8</text><text x="0" y="24" font-family="Helvetica, Segoe UI Emoji" font-size="20px" fill="#000" text-anchor="start" style="white-space: pre;" direction="ltr" dominant-baseline="text-before-edge">indexMask = bufferSize - 1</text></g><g stroke-linecap="round" transform="translate(40.430687225100314 688.127671387398) rotate(0 150 150)"><path d="M88.27 12.64 C100.75 4.42, 118.32 3.35, 133.76 1.7 C149.2 0.04, 166 -0.17, 180.9 2.72 C195.8 5.6, 209.9 11.39, 223.16 19.01 C236.42 26.62, 250.02 36.86, 260.48 48.42 C270.93 59.98, 279.29 74.29, 285.87 88.36 C292.45 102.43, 298.04 117.62, 299.97 132.85 C301.91 148.08, 300.57 164.56, 297.48 179.74 C294.38 194.92, 289.1 210.44, 281.42 223.92 C273.73 237.41, 263.03 250.18, 251.37 260.64 C239.72 271.1, 225.65 280.19, 211.48 286.67 C197.3 293.15, 181.44 297.89, 166.32 299.53 C151.2 301.17, 135.87 299.83, 120.77 296.51 C105.68 293.19, 89.22 287.31, 75.75 279.61 C62.27 271.92, 50.29 261.56, 39.91 250.36 C29.53 239.16, 20.12 226.45, 13.48 212.42 C6.83 198.39, 1.86 181.72, 0.02 166.17 C-1.82 150.62, -0.72 134.1, 2.44 119.12 C5.61 104.14, 11.16 89.72, 19.01 76.29 C26.87 62.86, 37.21 49.48, 49.58 38.57 C61.96 27.65, 85.05 15.11, 93.25 10.82 C101.45 6.52, 97.89 10.26, 98.79 12.77 M90.49 11.82 C102.93 3.39, 120.89 0.96, 136.02 -0.35 C151.14 -1.65, 166.19 0.62, 181.22 3.98 C196.26 7.33, 212.83 11.95, 226.24 19.8 C239.65 27.65, 251.33 39.35, 261.68 51.05 C272.04 62.75, 282.34 75.87, 288.36 89.99 C294.37 104.11, 296.22 120.26, 297.77 135.79 C299.31 151.32, 300.55 168.12, 297.6 183.19 C294.65 198.26, 287.99 213.09, 280.08 226.2 C272.16 239.32, 261.56 251.58, 250.11 261.88 C238.66 272.17, 225.69 281.51, 211.39 287.95 C197.08 294.4, 179.73 298.93, 164.29 300.53 C148.86 302.13, 133.81 301.11, 118.77 297.57 C103.73 294.03, 87.6 286.98, 74.05 279.3 C60.51 271.61, 47.62 262.93, 37.51 251.46 C27.4 239.98, 19.52 224.98, 13.39 210.45 C7.25 195.92, 2.39 179.77, 0.69 164.29 C-1.01 148.8, -0.28 132.56, 3.18 117.54 C6.64 102.51, 13.44 87.53, 21.44 74.15 C29.44 60.78, 39.66 47.62, 51.17 37.31 C62.69 26.99, 83.81 15.97, 90.52 12.24 C97.24 8.52, 90.55 12.39, 91.46 14.97" stroke="#000000" stroke-width="1" fill="none"/></g><g stroke-linecap="round" transform="translate(100.43068722510031 748.127671387398) rotate(0 90 90)"><path d="M93.66 0.82 C104.64 0.06, 118.83 4.96, 129.29 9.63 C139.76 14.31, 148.94 20.55, 156.44 28.88 C163.94 37.22, 170.44 48.79, 174.31 59.62 C178.17 70.45, 180.03 82.22, 179.62 93.86 C179.21 105.51, 176.76 118.93, 171.85 129.49 C166.94 140.06, 158.8 149.55, 150.17 157.24 C141.53 164.93, 130.8 171.87, 120.03 175.65 C109.26 179.44, 96.95 180.79, 85.52 179.95 C74.09 179.12, 61.81 175.66, 51.46 170.63 C41.11 165.6, 31.04 158.03, 23.42 149.75 C15.79 141.48, 9.69 131.73, 5.72 120.96 C1.76 110.19, -0.7 96.64, -0.36 85.14 C-0.02 73.65, 2.92 62.29, 7.76 51.97 C12.6 41.65, 19.96 31.19, 28.67 23.24 C37.38 15.3, 48.78 8.22, 60.01 4.29 C71.24 0.37, 89.71 0.1, 96.05 -0.32 C102.38 -0.73, 97.96 0.06, 98.01 1.8 M53.18 8.64 C62.57 3.35, 76.92 1.4, 88.39 1.24 C99.85 1.09, 111.11 3.51, 121.97 7.71 C132.83 11.92, 145.27 18.49, 153.55 26.46 C161.84 34.43, 167.47 45.23, 171.7 55.53 C175.92 65.82, 178.45 76.8, 178.88 88.21 C179.3 99.63, 178.38 113.28, 174.23 124.01 C170.09 134.73, 161.93 144.28, 154.01 152.57 C146.09 160.86, 137.05 169.43, 126.69 173.75 C116.33 178.08, 103.34 178.38, 91.85 178.52 C80.35 178.67, 68.24 178.55, 57.73 174.63 C47.23 170.71, 37.06 163.14, 28.79 155 C20.52 146.85, 12.91 136.25, 8.12 125.78 C3.33 115.31, 0.24 103.81, 0.07 92.17 C-0.11 80.52, 2.62 66.64, 7.07 55.91 C11.51 45.17, 18.7 35.93, 26.73 27.76 C34.77 19.58, 50.64 10.1, 55.3 6.87 C59.96 3.63, 54.03 6.78, 54.71 8.35" stroke="#000000" stroke-width="1" fill="none"/></g><g stroke-linecap="round"><g transform="translate(40.430687225100314 848.127671387398) rotate(0 30 0)"><path d="M-1.03 0.12 C9.04 0.32, 50.74 0.41, 60.74 0.53 M0.64 -0.86 C10.58 -0.96, 50.07 -1.29, 60.19 -1.32" stroke="#000000" stroke-width="1" fill="none"/></g></g><mask/><g stroke-linecap="round"><g transform="translate(280.4306872251003 828.127671387398) rotate(0 30 0)"><path d="M0.12 0.74 C10.32 0.74, 50.41 -1.04, 60.53 -1.01 M-1.28 0.09 C8.88 0.29, 49.56 0.17, 59.86 -0.01" stroke="#000000" stroke-width="1" fill="none"/></g></g><mask/><g stroke-linecap="round"><g transform="translate(180.4306872251003 748.127671387398) rotate(0 0 -30)"><path d="M0.74 0.53 C0.74 -9.35, -1.04 -49.26, -1.01 -59.16 M-0.33 -0.24 C0.13 -10.46, 1.01 -50.78, 1.16 -60.84" stroke="#000000" stroke-width="1" fill="none"/></g></g><mask/><g stroke-linecap="round"><g transform="translate(200.4306872251003 988.127671387398) rotate(0 0 -30)"><path d="M0.53 -1.01 C0.65 -10.99, 0.74 -49.23, 0.84 -59.12 M-0.65 1.07 C-0.63 -9.3, 0.06 -50.73, 0.34 -60.78" stroke="#000000" stroke-width="1" fill="none"/></g></g><mask/><g stroke-linecap="round"><g transform="translate(260.4306872251003 888.127671387398) rotate(0 20 30)"><path d="M-1.01 0.84 C5.68 10.95, 34.11 51.44, 40.88 61.15 M0.65 0.24 C7.2 9.99, 34.06 49.67, 40.4 59.63" stroke="#000000" stroke-width="1" fill="none"/></g></g><mask/><g stroke-linecap="round"><g transform="translate(120.43068722510031 788.127671387398) rotate(0 -20 -30)"><path d="M0.84 0.88 C-5.72 -9.01, -31.9 -50.12, -38.85 -60.36 M-0.17 0.3 C-6.84 -9.33, -32.82 -49.04, -39.2 -59.01" stroke="#000000" stroke-width="1" fill="none"/></g></g><mask/><g stroke-linecap="round"><g transform="translate(240.4306872251003 768.127671387398) rotate(0 30 -20)"><path d="M0.88 1.15 C10.99 -5.81, 49.88 -34, 59.64 -40.89 M-0.11 0.7 C9.9 -6.2, 48.75 -33.21, 58.5 -39.82" stroke="#000000" stroke-width="1" fill="none"/></g></g><mask/><g stroke-linecap="round"><g transform="translate(140.4306872251003 908.127671387398) rotate(0 -30 20)"><path d="M1.15 -0.36 C-9.14 6.07, -50.67 32.77, -60.89 39.45 M0.29 -1.6 C-9.7 4.91, -48.42 33.62, -58.64 40.69" stroke="#000000" stroke-width="1" fill="none"/></g></g><mask/><g transform="translate(240.4306872251003 668.127671387398) rotate(0 5.5615234375 12)"><text x="0" y="0" font-family="Helvetica, Segoe UI Emoji" font-size="20px" fill="#000000" text-anchor="start" style="white-space: pre;" direction="ltr" dominant-baseline="text-before-edge">0</text></g><g transform="translate(351.66236505696395 762.3816043897706) rotate(0 5.5615234375 12)"><text x="0" y="0" font-family="Helvetica, Segoe UI Emoji" font-size="20px" fill="#000000" text-anchor="start" style="white-space: pre;" direction="ltr" dominant-baseline="text-before-edge">1</text></g><g transform="translate(346.6079292203493 884.9516734276748) rotate(0 5.5615234375 12)"><text x="0" y="0" font-family="Helvetica, Segoe UI Emoji" font-size="20px" fill="#000000" text-anchor="start" style="white-space: pre;" direction="ltr" dominant-baseline="text-before-edge">2</text></g><g transform="translate(260.4306872251003 988.127671387398) rotate(0 5.5615234375 12)"><text x="0" y="0" font-family="Helvetica, Segoe UI Emoji" font-size="20px" fill="#000000" text-anchor="start" style="white-space: pre;" direction="ltr" dominant-baseline="text-before-edge">3</text></g><g transform="translate(120.43068722510031 988.127671387398) rotate(0 5.5615234375 12)"><text x="0" y="0" font-family="Helvetica, Segoe UI Emoji" font-size="20px" fill="#000000" text-anchor="start" style="white-space: pre;" direction="ltr" dominant-baseline="text-before-edge">4</text></g><g transform="translate(20.430687225100314 908.127671387398) rotate(0 5.5615234375 12)"><text x="0" y="0" font-family="Helvetica, Segoe UI Emoji" font-size="20px" fill="#000000" text-anchor="start" style="white-space: pre;" direction="ltr" dominant-baseline="text-before-edge">5</text></g><g transform="translate(20.430687225100314 768.127671387398) rotate(0 5.5615234375 12)"><text x="0" y="0" font-family="Helvetica, Segoe UI Emoji" font-size="20px" fill="#000000" text-anchor="start" style="white-space: pre;" direction="ltr" dominant-baseline="text-before-edge">6</text></g><g transform="translate(109.04944489946286 667.6109324532468) rotate(0 5.5615234375 12)"><text x="0" y="0" font-family="Helvetica, Segoe UI Emoji" font-size="20px" fill="#000000" text-anchor="start" style="white-space: pre;" direction="ltr" dominant-baseline="text-before-edge">7</text></g><g stroke-linecap="round" transform="translate(27.678734100100314 69.91221020609692) rotate(0 251.5 80.5)"><path d="M-1.94 -1.62 L503.15 1.52 L501.98 162.74 L-1.94 161.69" stroke="none" stroke-width="0" fill="#868e96"/><path d="M0.4 -0.17 C178.1 0.44, 354.84 0.44, 502.45 0.13 M-0.19 -0.14 C119.28 -1.24, 238.91 -1.45, 503.1 -0.38 M502.09 0.38 C503.86 34.31, 502.3 71.12, 501.45 162.7 M503.91 0.57 C505.01 44.53, 505.11 89.57, 502.69 161.39 M503.55 161.6 C325.94 160.04, 148.82 161.35, 0.8 161.23 M503.23 161.19 C326.5 161.43, 150.58 161.33, -0.13 160.91 M-0.12 160.9 C-2.76 119.62, -2.61 80.25, -0.53 1.54 M0.53 160.64 C-0.82 122.92, -2.05 84.24, -0.43 0.69" stroke="#000" stroke-width="1" fill="none"/></g><g transform="translate(32.678734100100314 90.41221020609692) rotate(0 235.380859375 60)"><text x="0" y="0" font-family="Helvetica, Segoe UI Emoji" font-size="20px" fill="#000" text-anchor="start" style="white-space: pre;" direction="ltr" dominant-baseline="text-before-edge">7. Также продюсер не может захватить слот </text><text x="0" y="24" font-family="Helvetica, Segoe UI Emoji" font-size="20px" fill="#000" text-anchor="start" style="white-space: pre;" direction="ltr" dominant-baseline="text-before-edge">опережающий более чем на размер буфера </text><text x="0" y="48" font-family="Helvetica, Segoe UI Emoji" font-size="20px" fill="#000" text-anchor="start" style="white-space: pre;" direction="ltr" dominant-baseline="text-before-edge">позициию барьера потребителя. При попытке </text><text x="0" y="72" font-family="Helvetica, Segoe UI Emoji" font-size="20px" fill="#000" text-anchor="start" style="white-space: pre;" direction="ltr" dominant-baseline="text-before-edge">захвата продюсер приостанавливается на вызове </text><text x="0" y="96" font-family="Helvetica, Segoe UI Emoji" font-size="20px" fill="#000" text-anchor="start" style="white-space: pre;" direction="ltr" dominant-baseline="text-before-edge">wait_until_published барьера потребителя.</text></g><g stroke-linecap="round"><g transform="translate(990 290) rotate(0 -60 50)"><path d="M-0.25 1.06 C-20.2 17.64, -100.02 83.73, -119.97 100.08 M1.82 0.57 C-18.27 17.31, -100.48 85.08, -120.9 101.66" stroke="#000000" stroke-width="1" fill="none"/></g><g transform="translate(990 290) rotate(0 -60 50)"><path d="M-103.83 75.9 C-109.61 83.07, -115.4 90.55, -122.15 102.64 M-106.52 76.39 C-112.36 85.38, -116.85 94.06, -121.67 101.08" stroke="#000000" stroke-width="1" fill="none"/></g><g transform="translate(990 290) rotate(0 -60 50)"><path d="M-90.83 91.78 C-100.31 94.48, -109.73 97.54, -122.15 102.64 M-93.51 92.26 C-104.12 95.31, -113.45 98.08, -121.67 101.08" stroke="#000000" stroke-width="1" fill="none"/></g></g><mask/><g stroke-linecap="round" transform="translate(130 290) rotate(0 222 53)"><path d="M1.52 -1.02 L445.74 -1.94 L444.69 106.46 L-0.86 104.46" stroke="none" stroke-width="0" fill="#fd7e14"/><path d="M0.02 0.06 C155.18 -2.62, 310.48 -2.55, 444.49 0.71 M0.26 -0.47 C112.3 2.14, 224.14 1.64, 443.72 -0.46 M442.37 0.23 C443.44 25.43, 445.9 53.57, 445.65 104.34 M443.37 0.79 C443.86 41.09, 445 83.32, 443.63 105.91 M443.04 106.63 C280.76 107.76, 116.51 107.27, 0.08 106.04 M444.43 106.15 C286.03 104.56, 127.32 104.51, 0.48 106.21 M-0.28 104.97 C1.5 74.31, 1.6 42.51, 1.42 -0.69 M0.8 105.09 C1.37 68.19, 1.07 30.26, -0.81 0.07" stroke="#000000" stroke-width="1" fill="none"/></g><g transform="translate(135 319) rotate(0 205.4736328125 24)"><text x="0" y="0" font-family="Helvetica, Segoe UI Emoji" font-size="20px" fill="#000000" text-anchor="start" style="white-space: pre;" direction="ltr" dominant-baseline="text-before-edge">producer:</text><text x="0" y="24" font-family="Helvetica, Segoe UI Emoji" font-size="20px" fill="#000000" text-anchor="start" style="white-space: pre;" direction="ltr" dominant-baseline="text-before-edge">wait_until_published(nextToClaim - bufferSize)</text></g><g stroke-linecap="round" transform="translate(795.6787341001003 608.6081401373979) rotate(0 20.6364205464313 21.850327637397868)"><path d="M1.74 -1.94 L41.96 0.46 L40.42 42.16 L1.37 42.87" stroke="none" stroke-width="0" fill="#fd7e14"/><path d="M0.04 -1.38 C16.35 -1.27, 33.04 1.41, 40.33 -0.71 M-0.01 0.25 C7.65 -0.37, 16.59 -0.54, 40.82 0.19 M40.52 -1.55 C42.62 16.62, 42.56 32.35, 43.08 44.84 M40.53 -0.31 C41.39 16.63, 40.63 32.12, 41.96 44.44 M42.59 45.69 C28.01 44.97, 13.76 44.04, 1.13 44.65 M41.91 43.37 C31.06 43.38, 22.29 44.25, -0.06 43.65 M1.45 43.17 C1.61 31.99, 1.48 21.92, 1.05 -0.71 M0.99 43.27 C0.34 28.22, -1.16 14.76, 0.76 -0.51" stroke="#000000" stroke-width="2" fill="none"/></g><g transform="translate(188.60319806835594 711.5352559906532) rotate(0 13.651698319247487 -6.992333285468192)" stroke="none"><path fill="#fd7e14" d="M -0.50,-2.00 Q -0.50,-2.00 1.81,-2.48 4.14,-2.96 6.02,-3.52 7.91,-4.08 10.63,-5.04 13.35,-6.00 15.21,-6.93 17.07,-7.87 18.32,-8.43 19.58,-9.00 21.37,-10.55 23.16,-12.10 24.23,-13.41 25.31,-14.71 25.56,-14.91 25.81,-15.11 26.10,-15.22 26.40,-15.32 26.72,-15.33 27.04,-15.34 27.34,-15.24 27.65,-15.15 27.90,-14.96 28.16,-14.77 28.35,-14.51 28.53,-14.25 28.62,-13.95 28.71,-13.64 28.70,-13.32 28.69,-13.01 28.58,-12.71 28.47,-12.41 28.27,-12.16 28.07,-11.92 27.80,-11.75 27.53,-11.58 27.22,-11.50 26.91,-11.43 26.59,-11.46 26.27,-11.48 25.98,-11.61 25.69,-11.74 25.46,-11.95 25.22,-12.17 25.07,-12.45 24.91,-12.72 24.85,-13.04 24.80,-13.35 24.84,-13.66 24.89,-13.98 25.03,-14.26 25.17,-14.55 25.40,-14.77 25.63,-14.99 25.91,-15.13 26.20,-15.27 26.51,-15.31 26.83,-15.36 27.14,-15.29 27.45,-15.23 27.73,-15.07 28.00,-14.91 28.22,-14.68 28.43,-14.44 28.55,-14.14 28.67,-13.85 28.70,-13.53 28.72,-13.22 28.64,-12.91 28.56,-12.60 28.39,-12.33 28.22,-12.07 28.22,-12.07 28.22,-12.07 26.86,-10.70 25.50,-9.33 23.15,-7.52 20.80,-5.70 19.66,-5.41 18.51,-5.11 16.51,-4.02 14.51,-2.92 11.76,-1.82 9.00,-0.72 7.02,-0.02 5.04,0.66 2.77,1.33 0.50,2.00 0.25,2.03 0.00,2.07 -0.24,2.04 -0.48,2.01 -0.72,1.92 -0.95,1.83 -1.16,1.69 -1.36,1.55 -1.53,1.36 -1.70,1.18 -1.81,0.96 -1.93,0.74 -1.99,0.49 -2.05,0.25 -2.05,0.00 -2.05,-0.24 -1.99,-0.48 -1.93,-0.72 -1.82,-0.94 -1.70,-1.17 -1.54,-1.35 -1.37,-1.54 -1.17,-1.68 -0.96,-1.83 -0.73,-1.91 -0.50,-2.00 -0.50,-2.00 L -0.50,-2.00 Z"/></g><g transform="translate(215.9065947068508 697.5505894197169) rotate(0 15.31653957769231 26.63746013511701)" stroke="none"><path fill="#fd7e14" d="M 7.68,6.10 Q 7.68,6.10 2.09,12.27 -3.49,18.45 -5.95,22.29 -8.41,26.13 -11.15,30.90 -13.89,35.67 -16.46,39.58 -19.02,43.49 -18.93,43.95 -18.84,44.42 -19.72,45.42 -20.61,46.42 -21.70,47.18 -22.79,47.93 -24.04,48.41 -25.28,48.88 -26.60,49.04 -27.92,49.20 -29.24,49.05 -30.56,48.89 -31.81,48.42 -33.05,47.95 -34.15,47.19 -35.24,46.44 -36.13,45.44 -37.01,44.45 -37.63,43.27 -38.25,42.09 -38.57,40.80 -38.89,39.51 -38.89,38.18 -38.89,36.85 -38.58,35.56 -38.26,34.27 -37.64,33.09 -37.03,31.91 -31.81,28.65 -26.58,25.39 -20.92,23.40 -15.26,21.40 -9.85,17.70 -4.44,14.01 1.03,10.25 6.51,6.50 10.77,3.58 15.03,0.65 16.84,-0.22 18.66,-1.11 20.13,-1.57 21.60,-2.03 23.14,-2.12 24.67,-2.21 26.19,-1.94 27.70,-1.66 29.11,-1.03 30.51,-0.40 31.73,0.54 32.94,1.49 33.89,2.71 34.84,3.92 35.47,5.32 36.10,6.73 36.38,8.24 36.66,9.76 36.57,11.30 36.47,12.83 36.02,14.30 35.56,15.77 34.76,17.09 33.96,18.41 32.88,19.50 31.79,20.59 30.47,21.39 29.15,22.18 26.08,28.05 23.01,33.92 20.67,37.51 18.33,41.11 15.06,45.11 11.79,49.12 8.02,52.24 4.25,55.36 2.83,56.20 1.42,57.04 -0.14,57.52 -1.72,58.00 -3.36,58.09 -5.00,58.17 -6.62,57.87 -8.24,57.56 -9.73,56.87 -11.23,56.19 -12.52,55.16 -13.80,54.14 -14.81,52.84 -15.82,51.54 -16.48,50.03 -17.15,48.53 -17.43,46.91 -17.72,45.28 -17.61,43.64 -17.49,42.00 -16.99,40.43 -16.49,38.87 -15.63,37.46 -14.77,36.06 -13.60,34.91 -12.43,33.75 -5.37,30.50 1.68,27.25 7.48,24.30 13.28,21.34 21.28,18.13 29.28,14.93 34.40,13.04 39.52,11.15 46.57,12.59 53.62,14.04 56.39,20.47 59.15,26.90 57.93,31.20 56.71,35.50 52.40,38.91 48.10,42.33 44.65,45.29 41.20,48.25 37.05,50.76 32.90,53.26 29.02,56.55 25.15,59.83 23.91,61.27 22.67,62.70 21.32,63.69 19.96,64.68 18.41,65.32 16.86,65.96 15.20,66.21 13.54,66.46 11.87,66.31 10.20,66.15 8.61,65.60 7.02,65.05 5.62,64.14 4.21,63.23 3.06,62.00 1.91,60.78 1.09,59.32 0.26,57.85 -0.17,56.23 -0.62,54.62 -0.67,52.94 -0.72,51.26 -0.36,49.62 -0.01,47.98 0.72,46.47 1.46,44.96 2.53,43.67 3.61,42.39 7.84,40.12 12.07,37.85 17.06,35.59 22.05,33.33 25.90,31.28 29.75,29.23 34.12,27.36 38.49,25.49 44.77,23.93 51.05,22.38 53.58,21.98 56.12,21.57 58.39,21.60 60.66,21.63 62.80,22.39 64.94,23.14 66.73,24.54 68.52,25.94 69.77,27.83 71.02,29.73 71.59,31.93 72.17,34.12 72.02,36.39 71.86,38.65 71.00,40.75 70.13,42.85 68.63,44.56 67.14,46.27 65.18,47.41 63.22,48.56 60.99,49.01 58.77,49.47 56.51,49.20 54.26,48.92 52.21,47.94 50.17,46.96 48.54,45.37 46.91,43.79 45.88,41.77 44.84,39.75 44.50,37.50 44.17,35.26 44.57,33.02 44.96,30.78 46.06,28.79 47.15,26.80 48.82,25.26 50.49,23.73 52.56,22.80 54.63,21.88 56.89,21.66 59.15,21.45 61.36,21.97 63.58,22.48 65.50,23.68 67.43,24.88 68.88,26.63 70.33,28.38 71.14,30.50 71.95,32.62 72.04,34.89 72.13,37.16 71.49,39.34 70.85,41.52 69.55,43.38 68.25,45.24 66.43,46.59 64.60,47.94 62.44,48.63 60.28,49.33 60.28,49.33 60.28,49.33 56.19,49.78 52.10,50.23 47.66,51.99 43.22,53.76 38.88,56.00 34.54,58.24 28.61,60.47 22.67,62.70 21.32,63.69 19.96,64.68 18.41,65.32 16.86,65.96 15.20,66.21 13.54,66.46 11.87,66.31 10.20,66.16 8.61,65.61 7.02,65.06 5.62,64.14 4.21,63.23 3.06,62.00 1.91,60.78 1.09,59.32 0.26,57.85 -0.17,56.24 -0.62,54.62 -0.67,52.94 -0.72,51.26 -0.36,49.62 -0.01,47.98 0.72,46.47 1.46,44.96 2.53,43.68 3.61,42.39 6.74,39.53 9.86,36.68 13.90,33.60 17.93,30.52 22.76,27.72 27.59,24.92 32.40,23.58 37.21,22.23 38.27,30.55 39.32,38.87 32.76,41.74 26.21,44.62 20.05,47.82 13.89,51.02 9.07,53.19 4.25,55.36 2.84,56.20 1.42,57.04 -0.14,57.52 -1.72,58.00 -3.36,58.09 -5.00,58.17 -6.62,57.87 -8.24,57.56 -9.73,56.87 -11.23,56.19 -12.52,55.16 -13.80,54.14 -14.81,52.84 -15.81,51.54 -16.48,50.03 -17.15,48.53 -17.43,46.91 -17.72,45.29 -17.61,43.64 -17.49,42.00 -16.99,40.44 -16.49,38.87 -15.63,37.47 -14.77,36.06 -13.60,34.91 -12.43,33.75 -12.06,33.32 -11.70,32.89 -7.31,29.44 -2.91,26.00 -0.19,22.29 2.52,18.58 6.49,13.01 10.46,7.45 14.56,3.16 18.66,-1.11 20.13,-1.57 21.60,-2.03 23.13,-2.12 24.67,-2.21 26.19,-1.94 27.70,-1.66 29.11,-1.03 30.51,-0.40 31.72,0.54 32.94,1.49 33.89,2.71 34.84,3.92 35.47,5.32 36.10,6.73 36.38,8.24 36.66,9.76 36.57,11.29 36.47,12.83 36.02,14.30 35.56,15.77 34.76,17.09 33.97,18.41 32.88,19.50 31.79,20.59 30.47,21.39 29.15,22.18 29.13,21.32 29.11,20.45 23.82,23.90 18.52,27.35 14.74,29.48 10.96,31.62 6.58,33.93 2.19,36.24 -2.62,39.08 -7.44,41.91 -13.14,43.17 -18.84,44.42 -19.72,45.42 -20.60,46.42 -21.70,47.18 -22.79,47.93 -24.04,48.41 -25.28,48.88 -26.60,49.04 -27.92,49.20 -29.24,49.05 -30.56,48.89 -31.81,48.42 -33.05,47.95 -34.15,47.19 -35.24,46.44 -36.13,45.44 -37.01,44.45 -37.63,43.27 -38.25,42.10 -38.57,40.80 -38.89,39.51 -38.89,38.18 -38.89,36.85 -38.58,35.56 -38.26,34.27 -37.64,33.09 -37.03,31.91 -37.12,32.02 -37.21,32.12 -33.84,28.24 -30.47,24.35 -26.91,19.95 -23.35,15.56 -20.26,11.57 -17.18,7.58 -12.43,0.74 -7.68,-6.10 -6.84,-6.93 -5.99,-7.76 -4.98,-8.36 -3.96,-8.97 -2.83,-9.31 -1.70,-9.66 -0.52,-9.72 0.65,-9.78 1.81,-9.56 2.98,-9.34 4.05,-8.85 5.13,-8.36 6.05,-7.62 6.98,-6.89 7.70,-5.95 8.42,-5.01 8.90,-3.93 9.38,-2.85 9.59,-1.69 9.79,-0.52 9.71,0.65 9.63,1.83 9.27,2.95 8.91,4.08 8.29,5.09 7.68,6.10 7.68,6.10 L 7.68,6.10 Z"/></g><g transform="translate(269.18151497708493 760.1486207372419) rotate(0 29.301206148628694 23.640745869916316)" stroke="none"><path fill="#40c057" d="M -0.68,-2.04 Q -0.68,-2.04 1.05,-2.58 2.78,-3.12 6.10,-3.86 9.42,-4.60 12.34,-5.26 15.26,-5.92 17.05,-6.42 18.84,-6.92 21.10,-7.10 23.35,-7.29 24.85,-7.46 26.35,-7.63 27.90,-8.03 29.46,-8.42 30.21,-8.88 30.97,-9.33 31.24,-9.39 31.51,-9.45 31.79,-9.45 32.07,-9.44 32.34,-9.37 32.61,-9.30 32.86,-9.17 33.11,-9.03 33.31,-8.85 33.52,-8.66 33.67,-8.42 33.83,-8.19 33.92,-7.93 34.02,-7.66 34.05,-7.39 34.08,-7.11 34.04,-6.83 34.00,-6.55 33.90,-6.29 33.79,-6.03 33.63,-5.81 33.47,-5.58 33.26,-5.40 33.04,-5.21 32.79,-5.09 32.55,-4.96 30.37,-3.23 28.20,-1.49 25.95,0.26 23.71,2.02 21.55,3.54 19.39,5.06 16.37,7.21 13.34,9.36 12.16,10.48 10.98,11.59 9.93,12.67 8.88,13.75 7.76,14.77 6.64,15.79 5.58,16.38 4.52,16.98 3.54,17.77 2.56,18.56 2.13,19.00 1.70,19.44 1.43,19.62 1.16,19.79 0.85,19.89 0.54,20.00 0.22,20.02 -0.09,20.05 -0.41,20.00 -0.73,19.94 -1.03,19.82 -1.32,19.69 -1.58,19.50 -1.84,19.30 -2.04,19.05 -2.25,18.80 -2.39,18.51 -2.53,18.22 -2.59,17.91 -2.66,17.59 -2.64,17.27 -2.63,16.94 -2.54,16.63 -2.45,16.32 -2.29,16.04 -2.13,15.76 -1.90,15.53 -1.68,15.30 -0.02,15.43 1.63,15.57 4.50,15.37 7.36,15.18 9.55,15.07 11.75,14.97 14.44,14.77 17.13,14.57 19.41,14.33 21.68,14.09 22.85,13.86 24.03,13.63 25.85,13.39 27.66,13.16 29.67,13.07 31.67,12.99 32.89,12.86 34.10,12.73 36.82,12.43 39.54,12.12 41.15,11.90 42.77,11.68 43.42,11.72 44.07,11.76 44.31,11.76 44.56,11.76 44.80,11.83 45.04,11.89 45.26,12.01 45.48,12.13 45.66,12.29 45.85,12.46 45.98,12.67 46.12,12.87 46.21,13.10 46.29,13.34 46.32,13.58 46.35,13.83 46.31,14.08 46.28,14.32 46.19,14.55 46.10,14.78 45.95,14.99 45.81,15.19 45.62,15.35 45.43,15.51 45.21,15.62 44.99,15.74 44.75,15.79 44.51,15.85 42.34,17.48 40.17,19.12 37.28,21.07 34.40,23.03 32.64,24.38 30.88,25.74 29.93,26.48 28.98,27.23 26.78,28.41 24.59,29.59 22.11,30.85 19.63,32.10 18.40,32.76 17.17,33.42 16.02,34.22 14.87,35.02 13.80,35.53 12.73,36.03 12.00,36.36 11.27,36.68 11.00,36.71 10.74,36.74 10.47,36.71 10.21,36.68 9.96,36.58 9.71,36.49 9.49,36.34 9.27,36.19 9.10,35.99 8.92,35.79 8.79,35.55 8.67,35.32 8.61,35.06 8.54,34.80 8.54,34.54 8.54,34.27 8.60,34.01 8.67,33.75 8.79,33.52 8.91,33.28 9.09,33.08 9.27,32.88 9.49,32.73 9.71,32.58 9.95,32.48 10.20,32.39 11.84,31.90 13.48,31.42 15.81,30.89 18.14,30.37 19.41,29.88 20.67,29.39 22.27,28.96 23.87,28.53 25.04,28.13 26.22,27.73 28.62,27.47 31.01,27.21 32.80,27.05 34.58,26.89 36.52,26.65 38.46,26.41 40.00,26.27 41.53,26.14 42.61,26.10 43.69,26.06 44.91,26.04 46.14,26.03 49.53,26.19 52.92,26.36 54.76,26.41 56.60,26.46 57.17,26.59 57.73,26.71 58.01,26.74 58.29,26.78 58.55,26.88 58.80,26.97 59.03,27.13 59.26,27.29 59.45,27.50 59.63,27.70 59.76,27.95 59.89,28.20 59.95,28.47 60.02,28.74 60.02,29.01 60.02,29.29 59.95,29.56 59.89,29.83 59.76,30.08 59.63,30.32 59.45,30.53 59.26,30.74 59.03,30.90 58.80,31.05 58.55,31.15 58.29,31.25 58.01,31.28 57.73,31.32 57.21,32.28 56.69,33.24 54.01,35.06 51.33,36.88 48.90,38.52 46.47,40.16 45.11,41.26 43.76,42.37 42.03,43.17 40.31,43.98 38.50,45.15 36.69,46.32 34.66,47.40 32.63,48.47 30.54,49.50 28.45,50.53 27.37,51.11 26.30,51.69 24.55,52.57 22.80,53.45 20.36,54.23 17.91,55.02 16.78,55.44 15.65,55.87 15.43,55.92 15.21,55.96 14.98,55.96 14.76,55.95 14.54,55.89 14.32,55.83 14.13,55.72 13.93,55.61 13.77,55.45 13.60,55.30 13.48,55.11 13.36,54.92 13.28,54.71 13.21,54.50 13.19,54.27 13.17,54.05 13.20,53.83 13.24,53.60 13.32,53.40 13.41,53.19 13.54,53.01 13.68,52.82 13.85,52.68 14.02,52.54 14.22,52.44 14.43,52.34 18.08,51.95 21.73,51.56 23.81,51.25 25.90,50.94 27.00,50.67 28.10,50.40 29.40,50.25 30.70,50.09 32.02,50.00 33.34,49.90 35.18,49.75 37.01,49.61 38.82,49.66 40.62,49.71 42.92,49.83 45.21,49.95 46.38,49.88 47.55,49.81 51.61,50.02 55.66,50.24 56.02,50.33 56.37,50.41 56.68,50.60 56.99,50.79 57.22,51.07 57.45,51.35 57.58,51.69 57.71,52.03 57.73,52.40 57.74,52.76 57.64,53.11 57.54,53.46 57.33,53.75 57.12,54.05 56.83,54.27 56.53,54.48 56.19,54.60 55.84,54.71 55.48,54.70 55.12,54.70 54.77,54.57 54.43,54.45 54.14,54.23 53.86,54.01 53.66,53.70 53.46,53.40 53.37,53.05 53.27,52.69 53.30,52.33 53.32,51.97 53.46,51.63 53.60,51.30 53.84,51.02 54.08,50.75 54.39,50.57 54.71,50.38 55.06,50.31 55.42,50.24 55.78,50.28 56.14,50.33 56.47,50.48 56.80,50.64 57.06,50.90 57.32,51.15 57.48,51.47 57.65,51.80 57.70,52.16 57.76,52.52 57.69,52.87 57.63,53.23 57.45,53.55 57.28,53.87 57.01,54.12 56.74,54.36 56.41,54.51 56.08,54.66 55.72,54.69 55.36,54.73 55.36,54.73 55.36,54.73 51.45,54.40 47.55,54.07 46.38,54.00 45.21,53.93 42.92,54.05 40.62,54.18 38.83,54.23 37.03,54.28 35.23,54.17 33.43,54.06 32.17,54.02 30.91,53.98 29.75,53.95 28.60,53.93 27.51,53.97 26.43,54.01 24.29,54.43 22.14,54.84 18.89,55.35 15.65,55.87 15.43,55.92 15.21,55.96 14.98,55.96 14.76,55.95 14.54,55.89 14.32,55.83 14.13,55.72 13.93,55.61 13.77,55.45 13.60,55.30 13.48,55.11 13.36,54.92 13.28,54.71 13.21,54.50 13.19,54.27 13.17,54.05 13.20,53.83 13.24,53.60 13.32,53.40 13.41,53.19 13.54,53.01 13.68,52.82 13.85,52.68 14.02,52.54 14.22,52.44 14.43,52.34 15.62,52.09 16.82,51.85 18.96,51.05 21.09,50.25 22.92,49.20 24.75,48.16 25.77,47.81 26.80,47.47 28.76,46.33 30.71,45.19 32.80,43.85 34.89,42.51 36.87,41.57 38.85,40.63 40.23,40.11 41.60,39.59 43.04,38.48 44.48,37.37 46.83,35.61 49.17,33.85 51.41,32.16 53.65,30.47 55.69,28.59 57.73,26.71 58.01,26.74 58.29,26.78 58.54,26.87 58.80,26.97 59.03,27.13 59.26,27.29 59.45,27.50 59.63,27.70 59.76,27.95 59.89,28.20 59.95,28.47 60.02,28.74 60.02,29.01 60.02,29.29 59.95,29.56 59.89,29.83 59.76,30.08 59.63,30.32 59.45,30.53 59.26,30.74 59.03,30.90 58.81,31.05 58.55,31.15 58.29,31.25 58.01,31.28 57.73,31.32 57.13,31.06 56.53,30.80 54.73,30.85 52.92,30.91 49.53,31.07 46.14,31.24 44.92,31.22 43.70,31.20 42.63,31.17 41.57,31.14 40.08,31.03 38.58,30.93 36.75,30.87 34.91,30.80 33.26,30.93 31.60,31.06 29.51,31.49 27.43,31.91 26.15,32.22 24.88,32.53 23.42,32.87 21.97,33.21 20.55,33.63 19.14,34.04 16.96,34.75 14.78,35.45 13.03,36.07 11.27,36.68 11.00,36.71 10.74,36.74 10.47,36.71 10.21,36.68 9.96,36.58 9.71,36.49 9.49,36.34 9.27,36.19 9.10,35.99 8.92,35.79 8.79,35.55 8.67,35.32 8.61,35.06 8.54,34.80 8.54,34.54 8.54,34.27 8.60,34.01 8.67,33.75 8.79,33.52 8.91,33.28 9.09,33.08 9.27,32.88 9.49,32.73 9.71,32.58 9.95,32.48 10.20,32.39 10.18,32.39 10.15,32.39 11.53,32.12 12.90,31.85 14.32,31.04 15.75,30.23 16.97,29.79 18.19,29.36 20.58,28.05 22.97,26.75 25.96,25.04 28.96,23.33 30.75,21.85 32.54,20.37 35.30,18.36 38.06,16.35 41.06,14.05 44.07,11.76 44.31,11.76 44.56,11.76 44.80,11.83 45.04,11.89 45.26,12.01 45.48,12.13 45.66,12.29 45.85,12.46 45.98,12.67 46.12,12.87 46.21,13.10 46.29,13.34 46.32,13.58 46.35,13.83 46.31,14.08 46.28,14.32 46.19,14.55 46.10,14.78 45.95,14.99 45.81,15.19 45.62,15.35 45.44,15.51 45.21,15.62 44.99,15.74 44.75,15.79 44.51,15.85 43.82,15.65 43.13,15.45 41.59,15.57 40.05,15.69 37.15,16.19 34.25,16.69 33.06,16.65 31.87,16.62 30.02,16.74 28.17,16.87 26.31,17.13 24.46,17.39 23.31,17.43 22.15,17.47 19.84,17.86 17.54,18.25 14.86,18.64 12.18,19.03 9.85,19.41 7.51,19.79 3.32,19.83 -0.86,19.87 0.42,19.65 1.70,19.44 1.43,19.62 1.16,19.79 0.85,19.89 0.54,20.00 0.22,20.02 -0.09,20.05 -0.41,20.00 -0.73,19.94 -1.03,19.82 -1.32,19.69 -1.58,19.50 -1.84,19.30 -2.04,19.05 -2.25,18.80 -2.39,18.51 -2.53,18.22 -2.59,17.91 -2.66,17.59 -2.64,17.27 -2.63,16.94 -2.54,16.63 -2.45,16.32 -2.29,16.04 -2.13,15.76 -1.90,15.53 -1.68,15.30 -0.34,14.31 0.99,13.33 2.53,12.85 4.07,12.38 5.23,11.74 6.39,11.10 7.57,10.08 8.74,9.05 10.10,7.93 11.46,6.80 14.42,4.57 17.37,2.35 19.36,0.78 21.36,-0.77 23.47,-2.67 25.59,-4.57 28.28,-6.95 30.97,-9.33 31.24,-9.39 31.51,-9.45 31.79,-9.45 32.07,-9.44 32.34,-9.37 32.61,-9.30 32.86,-9.17 33.11,-9.03 33.31,-8.85 33.52,-8.66 33.67,-8.42 33.83,-8.19 33.92,-7.93 34.02,-7.66 34.05,-7.39 34.08,-7.11 34.04,-6.83 34.00,-6.55 33.90,-6.29 33.80,-6.03 33.63,-5.81 33.47,-5.58 33.26,-5.40 33.05,-5.21 32.80,-5.09 32.55,-4.96 31.47,-4.62 30.40,-4.27 28.48,-4.18 26.57,-4.08 25.12,-4.07 23.68,-4.06 21.72,-3.82 19.76,-3.58 17.93,-3.07 16.11,-2.57 13.23,-1.76 10.35,-0.96 7.22,-0.06 4.10,0.82 2.39,1.43 0.68,2.04 0.42,2.09 0.17,2.14 -0.08,2.13 -0.34,2.12 -0.59,2.05 -0.84,1.97 -1.06,1.84 -1.29,1.71 -1.48,1.54 -1.66,1.36 -1.80,1.14 -1.94,0.92 -2.02,0.67 -2.10,0.42 -2.12,0.17 -2.15,-0.08 -2.10,-0.34 -2.06,-0.59 -1.96,-0.83 -1.86,-1.07 -1.70,-1.28 -1.55,-1.49 -1.35,-1.65 -1.14,-1.81 -0.91,-1.93 -0.68,-2.04 -0.68,-2.04 L -0.68,-2.04 Z"/></g><g transform="translate(329.78173678447627 844.7225566662385) rotate(0 -27.303396638494974 34.96166642734113)" stroke="none"><path fill="#fd7e14" d="M -0.39,10.25 Q -0.39,10.25 -5.37,10.12 -10.35,9.99 -14.85,10.00 -19.35,10.01 -24.65,10.25 -29.96,10.49 -34.32,10.80 -38.69,11.11 -39.32,11.38 -39.96,11.65 -41.38,11.47 -42.81,11.30 -44.16,10.79 -45.50,10.28 -46.69,9.46 -47.87,8.64 -48.82,7.57 -49.78,6.49 -50.45,5.21 -51.11,3.94 -51.46,2.54 -51.80,1.15 -51.80,-0.28 -51.80,-1.72 -51.46,-3.12 -51.11,-4.51 -50.44,-5.79 -49.77,-7.06 -48.82,-8.14 -47.86,-9.21 -46.68,-10.03 -45.49,-10.85 -44.15,-11.36 -42.80,-11.87 -41.38,-12.04 -39.95,-12.21 -32.66,-7.78 -25.37,-3.35 -21.32,-0.45 -17.26,2.43 -12.21,5.18 -7.16,7.93 -5.59,8.70 -4.02,9.48 -2.46,9.83 -0.91,10.19 0.50,10.91 1.92,11.62 3.12,12.66 4.33,13.69 5.25,14.99 6.18,16.28 6.76,17.76 7.35,19.24 7.57,20.82 7.78,22.39 7.62,23.97 7.45,25.56 6.91,27.05 6.37,28.55 5.49,29.87 4.60,31.19 3.43,32.27 2.26,33.34 0.86,34.10 -0.53,34.86 -2.07,35.27 -3.61,35.67 -5.20,35.70 -6.79,35.72 -12.85,35.58 -18.92,35.43 -25.61,34.55 -32.30,33.67 -37.51,33.59 -42.72,33.51 -47.05,33.60 -51.38,33.69 -45.93,27.81 -40.48,21.92 -40.63,16.97 -40.79,12.02 -36.65,13.89 -32.52,15.77 -27.89,17.93 -23.27,20.09 -19.12,22.44 -14.98,24.80 -11.11,26.81 -7.23,28.81 -6.34,29.17 -5.44,29.52 -3.89,30.30 -2.34,31.07 -1.02,32.20 0.29,33.32 1.31,34.73 2.32,36.14 2.97,37.75 3.61,39.35 3.86,41.07 4.10,42.79 3.93,44.52 3.75,46.24 3.17,47.88 2.59,49.51 1.63,50.96 0.67,52.40 -0.59,53.58 -1.87,54.75 -3.39,55.59 -4.91,56.43 -6.58,56.88 -8.26,57.32 -9.99,57.36 -11.73,57.39 -13.42,57.01 -15.11,56.63 -22.26,58.29 -29.41,59.95 -33.93,60.12 -38.46,60.30 -43.33,60.37 -48.20,60.45 -49.47,60.66 -50.74,60.86 -52.48,60.65 -54.22,60.44 -55.86,59.82 -57.50,59.20 -58.94,58.21 -60.38,57.21 -61.54,55.90 -62.71,54.59 -63.52,53.04 -64.34,51.49 -64.76,49.79 -65.18,48.08 -65.18,46.33 -65.18,44.58 -64.76,42.88 -64.34,41.18 -63.53,39.62 -62.71,38.07 -61.55,36.76 -60.39,35.45 -58.95,34.45 -57.51,33.46 -55.87,32.84 -54.23,32.21 -52.49,32.00 -50.75,31.79 -44.01,36.12 -37.26,40.46 -33.37,42.44 -29.47,44.42 -25.56,46.65 -21.65,48.89 -18.34,49.90 -15.03,50.91 -13.39,51.51 -11.76,52.10 -10.31,53.07 -8.87,54.04 -7.70,55.32 -6.53,56.61 -5.70,58.14 -4.87,59.67 -4.43,61.35 -3.99,63.03 -3.97,64.77 -3.95,66.51 -4.34,68.21 -4.74,69.90 -5.52,71.45 -6.31,73.00 -7.45,74.32 -8.58,75.63 -10.00,76.64 -11.42,77.65 -13.04,78.29 -14.65,78.92 -16.38,79.16 -18.10,79.39 -19.83,79.20 -21.56,79.01 -25.22,81.33 -28.88,83.65 -29.65,83.96 -30.43,84.26 -32.75,84.56 -35.08,84.85 -37.38,84.39 -39.68,83.92 -41.71,82.75 -43.74,81.58 -45.29,79.82 -46.84,78.06 -47.74,75.89 -48.65,73.73 -48.82,71.39 -48.99,69.05 -48.40,66.78 -47.81,64.51 -46.53,62.54 -45.25,60.58 -43.40,59.13 -41.56,57.68 -39.35,56.89 -37.14,56.10 -34.80,56.06 -32.45,56.02 -30.22,56.73 -27.98,57.44 -26.09,58.83 -24.20,60.21 -22.85,62.13 -21.50,64.05 -20.83,66.30 -20.17,68.55 -20.25,70.89 -20.34,73.23 -21.17,75.43 -22.00,77.62 -23.49,79.44 -24.97,81.25 -26.96,82.49 -28.95,83.74 -31.23,84.28 -33.51,84.82 -35.85,84.61 -38.18,84.40 -40.33,83.45 -42.48,82.50 -44.21,80.92 -45.94,79.34 -47.07,77.28 -48.21,75.23 -48.62,72.92 -49.04,70.62 -48.70,68.29 -48.37,65.97 -47.30,63.88 -46.24,61.79 -44.57,60.15 -42.89,58.51 -40.78,57.49 -38.67,56.46 -38.67,56.46 -38.67,56.47 -33.44,55.17 -28.22,53.88 -21.62,52.39 -15.03,50.91 -13.39,51.50 -11.76,52.10 -10.32,53.07 -8.87,54.04 -7.70,55.32 -6.53,56.61 -5.70,58.14 -4.87,59.67 -4.43,61.35 -3.99,63.03 -3.97,64.77 -3.95,66.51 -4.34,68.20 -4.74,69.90 -5.52,71.45 -6.31,73.00 -7.45,74.32 -8.58,75.63 -10.00,76.64 -11.42,77.65 -13.04,78.28 -14.65,78.92 -16.38,79.16 -18.10,79.39 -19.83,79.20 -21.56,79.02 -25.98,77.77 -30.41,76.52 -34.94,73.91 -39.47,71.30 -44.45,68.34 -49.43,65.38 -54.83,61.63 -60.24,57.89 -55.49,59.37 -50.74,60.86 -52.48,60.65 -54.22,60.44 -55.86,59.82 -57.50,59.20 -58.94,58.21 -60.38,57.21 -61.54,55.90 -62.71,54.59 -63.52,53.04 -64.34,51.49 -64.76,49.79 -65.18,48.09 -65.18,46.33 -65.18,44.58 -64.76,42.88 -64.34,41.18 -63.53,39.63 -62.71,38.07 -61.55,36.76 -60.39,35.45 -58.95,34.45 -57.51,33.46 -55.87,32.84 -54.23,32.21 -52.49,32.00 -50.75,31.79 -48.34,31.63 -45.93,31.48 -41.63,31.53 -37.33,31.57 -32.17,31.42 -27.01,31.27 -21.80,30.28 -16.58,29.29 -11.01,29.41 -5.44,29.52 -3.89,30.30 -2.34,31.07 -1.02,32.20 0.29,33.32 1.31,34.73 2.32,36.13 2.97,37.74 3.61,39.35 3.86,41.07 4.10,42.79 3.93,44.51 3.75,46.24 3.17,47.87 2.59,49.51 1.63,50.95 0.67,52.40 -0.59,53.58 -1.87,54.75 -3.39,55.59 -4.91,56.43 -6.58,56.88 -8.26,57.32 -9.99,57.36 -11.73,57.39 -13.42,57.01 -15.11,56.63 -16.45,56.05 -17.78,55.47 -21.56,53.50 -25.33,51.54 -30.31,48.42 -35.30,45.30 -39.62,43.08 -43.94,40.87 -49.86,38.01 -55.78,35.15 -60.87,26.59 -65.97,18.03 -58.65,12.14 -51.33,6.26 -46.75,6.39 -42.17,6.52 -37.72,6.72 -33.28,6.92 -28.20,7.58 -23.12,8.25 -17.89,8.86 -12.67,9.47 -8.34,9.47 -4.02,9.48 -2.47,9.83 -0.92,10.19 0.49,10.90 1.91,11.62 3.12,12.66 4.33,13.69 5.25,14.99 6.18,16.28 6.76,17.76 7.35,19.24 7.57,20.82 7.78,22.39 7.62,23.97 7.45,25.55 6.91,27.05 6.37,28.55 5.49,29.87 4.60,31.19 3.43,32.27 2.26,33.34 0.86,34.10 -0.53,34.86 -2.07,35.27 -3.60,35.67 -5.19,35.70 -6.78,35.72 -10.91,34.17 -15.03,32.62 -19.32,29.94 -23.61,27.26 -27.74,24.61 -31.87,21.97 -35.91,16.81 -39.95,11.65 -41.38,11.47 -42.81,11.30 -44.16,10.79 -45.50,10.28 -46.69,9.46 -47.87,8.64 -48.82,7.57 -49.78,6.49 -50.45,5.22 -51.11,3.94 -51.46,2.54 -51.80,1.15 -51.80,-0.28 -51.80,-1.72 -51.46,-3.12 -51.11,-4.51 -50.44,-5.79 -49.77,-7.06 -48.82,-8.14 -47.86,-9.21 -46.68,-10.03 -45.50,-10.85 -44.15,-11.36 -42.81,-11.87 -41.38,-12.04 -39.95,-12.21 -39.68,-12.33 -39.42,-12.44 -34.60,-12.11 -29.78,-11.78 -24.38,-11.44 -18.97,-11.10 -14.26,-10.93 -9.55,-10.75 -4.58,-10.50 0.39,-10.25 1.61,-10.05 2.83,-9.86 3.97,-9.37 5.11,-8.89 6.10,-8.15 7.09,-7.41 7.87,-6.45 8.66,-5.49 9.19,-4.38 9.72,-3.26 9.97,-2.05 10.22,-0.84 10.17,0.39 10.13,1.62 9.78,2.81 9.44,4.00 8.83,5.07 8.21,6.14 7.35,7.04 6.50,7.93 5.45,8.59 4.41,9.26 3.24,9.65 2.06,10.04 0.83,10.15 -0.39,10.25 -0.39,10.25 L -0.39,10.25 Z"/></g><g transform="translate(244.54186435210147 924.6349370715895) rotate(0 3.995619020267611 22.30887286316056)" stroke="none"><path fill="#fd7e14" d="M -1.15,-10.41 Q -1.15,-10.41 4.00,-11.01 9.17,-11.60 13.77,-12.25 18.37,-12.91 21.33,-13.44 24.29,-13.97 25.68,-13.94 27.07,-13.91 28.41,-13.55 29.75,-13.19 30.96,-12.52 32.18,-11.85 33.20,-10.91 34.22,-9.97 34.98,-8.81 35.75,-7.65 36.21,-6.34 36.68,-5.04 36.82,-3.66 36.96,-2.27 36.76,-0.90 36.57,0.46 36.05,1.75 35.53,3.04 34.72,4.16 33.91,5.29 32.85,6.19 31.79,7.09 30.55,7.71 29.31,8.33 27.95,8.63 26.60,8.94 20.20,12.58 13.80,16.22 7.06,19.17 0.32,22.12 -4.04,24.05 -8.41,25.99 -13.37,28.84 -18.32,31.70 -20.58,21.86 -22.84,12.01 -18.03,11.31 -13.22,10.62 -4.94,10.88 3.32,11.14 10.89,11.18 18.45,11.22 22.82,11.12 27.18,11.02 29.37,9.54 31.56,8.06 33.05,7.44 34.55,6.82 36.14,6.58 37.74,6.33 39.35,6.48 40.96,6.63 42.49,7.15 44.02,7.68 45.37,8.56 46.73,9.44 47.84,10.61 48.94,11.79 49.74,13.20 50.53,14.61 50.97,16.16 51.40,17.72 51.45,19.33 51.50,20.95 51.16,22.53 50.82,24.11 50.11,25.56 49.40,27.02 48.37,28.26 47.33,29.50 46.03,30.46 44.73,31.41 40.10,32.96 35.47,34.51 30.31,36.32 25.15,38.12 19.84,39.92 14.53,41.72 9.89,43.19 5.25,44.66 1.08,46.31 -3.08,47.95 -8.31,50.87 -13.54,53.79 -19.86,56.92 -26.19,60.05 -28.38,60.44 -30.56,60.83 -32.76,60.50 -34.96,60.17 -36.94,59.16 -38.92,58.14 -40.47,56.55 -42.02,54.96 -42.98,52.95 -43.95,50.95 -44.22,48.74 -44.49,46.53 -44.04,44.36 -43.59,42.18 -42.47,40.26 -41.35,38.34 -39.68,36.87 -38.00,35.41 -35.95,34.56 -33.90,33.71 -31.68,33.56 -29.46,33.41 -27.31,33.97 -25.16,34.54 -23.30,35.76 -21.44,36.98 -20.07,38.73 -18.70,40.48 -17.97,42.58 -17.23,44.68 -17.20,46.90 -17.17,49.12 -17.85,51.24 -18.53,53.36 -19.85,55.14 -21.17,56.93 -22.99,58.21 -24.81,59.48 -26.95,60.10 -29.08,60.73 -31.30,60.64 -33.53,60.55 -35.60,59.75 -37.68,58.96 -39.39,57.54 -41.11,56.13 -42.28,54.24 -43.45,52.35 -43.96,50.18 -44.47,48.02 -44.26,45.81 -44.05,43.59 -43.14,41.56 -42.24,39.53 -40.73,37.90 -39.22,36.26 -37.27,35.19 -35.32,34.12 -35.32,34.13 -35.33,34.13 -30.54,31.64 -25.75,29.14 -21.57,26.91 -17.39,24.67 -13.02,22.79 -8.65,20.91 -4.01,19.44 0.62,17.98 5.72,16.20 10.82,14.43 16.07,12.81 21.31,11.20 26.44,9.63 31.56,8.06 33.05,7.44 34.55,6.82 36.14,6.58 37.74,6.33 39.35,6.48 40.96,6.63 42.49,7.15 44.01,7.68 45.37,8.56 46.73,9.44 47.84,10.61 48.94,11.79 49.74,13.20 50.53,14.60 50.97,16.16 51.40,17.72 51.45,19.33 51.50,20.95 51.16,22.53 50.82,24.11 50.11,25.56 49.40,27.01 48.37,28.26 47.33,29.50 46.03,30.45 44.73,31.41 43.30,32.24 41.86,33.08 34.51,35.00 27.16,36.92 22.78,36.81 18.41,36.69 10.76,36.69 3.11,36.69 -1.55,36.75 -6.23,36.81 -10.48,36.75 -14.74,36.70 -19.00,36.43 -23.25,36.17 -27.53,34.33 -31.80,32.49 -34.70,25.20 -37.61,17.91 -34.37,13.60 -31.13,9.30 -27.05,7.21 -22.96,5.11 -18.15,3.11 -13.33,1.11 -8.13,-0.72 -2.93,-2.57 3.62,-5.41 10.19,-8.25 17.24,-11.11 24.29,-13.97 25.68,-13.94 27.07,-13.91 28.41,-13.55 29.75,-13.19 30.96,-12.52 32.18,-11.85 33.20,-10.91 34.22,-9.97 34.98,-8.81 35.75,-7.65 36.21,-6.34 36.68,-5.04 36.82,-3.66 36.96,-2.28 36.76,-0.90 36.57,0.46 36.05,1.75 35.53,3.04 34.72,4.16 33.91,5.29 32.85,6.19 31.79,7.09 30.55,7.71 29.31,8.33 27.95,8.63 26.60,8.94 25.79,8.96 24.98,8.99 18.24,9.15 11.50,9.30 6.32,9.86 1.15,10.41 -0.10,10.40 -1.36,10.39 -2.59,10.07 -3.81,9.76 -4.93,9.16 -6.04,8.56 -6.98,7.71 -7.91,6.87 -8.62,5.82 -9.33,4.77 -9.76,3.59 -10.20,2.40 -10.34,1.14 -10.48,-0.10 -10.31,-1.36 -10.15,-2.61 -9.69,-3.78 -9.23,-4.96 -8.50,-5.99 -7.77,-7.03 -6.82,-7.86 -5.86,-8.68 -4.74,-9.26 -3.61,-9.83 -2.38,-10.12 -1.15,-10.41 -1.15,-10.41 L -1.15,-10.41 Z"/></g><g transform="translate(118.01392871029554 933.9580481188806) rotate(0 33.96276167227427 17.647317339514984)" stroke="none"><path fill="#fd7e14" d="M -1.46,-9.54 Q -1.46,-9.54 6.04,-10.37 13.56,-11.21 18.80,-12.72 24.04,-14.24 27.98,-15.38 31.92,-16.52 33.22,-16.61 34.51,-16.69 35.79,-16.47 37.07,-16.25 38.26,-15.73 39.45,-15.20 40.48,-14.41 41.51,-13.62 42.32,-12.60 43.13,-11.59 43.67,-10.41 44.21,-9.23 44.46,-7.95 44.70,-6.68 44.64,-5.38 44.57,-4.08 44.19,-2.84 43.82,-1.59 43.15,-0.48 42.49,0.63 41.58,1.56 40.67,2.48 39.57,3.16 38.46,3.85 37.22,4.24 35.99,4.64 32.24,8.01 28.49,11.38 22.37,14.33 16.26,17.28 11.11,19.59 5.95,21.91 2.06,24.23 -1.83,26.56 -3.13,27.03 -4.43,27.51 -5.80,27.65 -7.18,27.80 -8.55,27.61 -9.92,27.43 -11.20,26.92 -12.49,26.41 -13.61,25.61 -14.74,24.81 -15.64,23.76 -16.54,22.71 -17.17,21.48 -17.79,20.25 -18.10,18.90 -18.41,17.55 -18.39,16.17 -18.37,14.79 -18.02,13.45 -17.67,12.12 -17.01,10.90 -16.35,9.69 -15.42,8.67 -14.49,7.64 -13.34,6.88 -12.19,6.11 -6.26,5.77 -0.32,5.44 7.22,4.52 14.78,3.60 20.34,2.89 25.89,2.18 31.00,0.71 36.10,-0.75 40.72,-2.43 45.35,-4.11 49.39,-5.79 53.44,-7.48 54.96,-7.73 56.48,-7.98 58.02,-7.86 59.56,-7.75 61.03,-7.26 62.50,-6.78 63.80,-5.95 65.11,-5.13 66.18,-4.02 67.26,-2.91 68.03,-1.58 68.81,-0.24 69.24,1.23 69.68,2.71 69.74,4.26 69.81,5.80 69.51,7.31 69.20,8.83 68.54,10.23 67.89,11.62 66.91,12.82 65.94,14.02 64.71,14.95 63.48,15.88 62.06,16.49 60.64,17.10 54.82,20.61 49.01,24.11 44.45,27.02 39.90,29.93 36.07,32.45 32.25,34.98 31.20,36.51 30.16,38.04 28.86,39.04 27.57,40.03 26.07,40.69 24.57,41.35 22.96,41.64 21.34,41.92 19.71,41.80 18.08,41.69 16.52,41.19 14.96,40.69 13.57,39.83 12.17,38.98 11.02,37.81 9.88,36.64 9.04,35.23 8.21,33.83 7.73,32.26 7.26,30.69 7.17,29.06 7.09,27.42 7.40,25.81 7.70,24.21 8.39,22.72 9.07,21.23 10.09,19.95 11.11,18.67 20.18,16.19 29.25,13.71 33.83,13.07 38.40,12.42 43.90,10.64 49.39,8.85 54.20,7.25 59.01,5.66 64.07,3.85 69.13,2.04 70.10,1.68 71.07,1.31 72.66,0.90 74.25,0.49 75.89,0.47 77.54,0.44 79.14,0.82 80.74,1.19 82.21,1.94 83.67,2.68 84.92,3.76 86.16,4.83 87.12,6.17 88.07,7.52 88.67,9.05 89.27,10.58 89.49,12.21 89.71,13.84 89.53,15.47 89.36,17.11 88.79,18.65 88.23,20.20 87.31,21.56 86.39,22.93 85.18,24.03 83.96,25.14 82.51,25.92 81.07,26.70 78.55,30.57 76.03,34.43 72.88,37.71 69.73,41.00 66.35,44.60 62.97,48.21 60.15,50.30 57.33,52.39 55.81,53.16 54.28,53.93 52.62,54.31 50.96,54.70 49.25,54.67 47.54,54.64 45.89,54.21 44.24,53.78 42.74,52.96 41.25,52.15 39.99,51.00 38.73,49.85 37.78,48.43 36.83,47.01 36.25,45.40 35.67,43.80 35.49,42.10 35.31,40.41 35.54,38.72 35.77,37.02 36.40,35.44 37.03,33.85 38.02,32.46 39.01,31.07 40.30,29.96 41.60,28.85 47.95,28.08 54.30,27.30 60.39,26.62 66.47,25.94 68.75,26.12 71.04,26.31 73.15,27.22 75.26,28.13 76.97,29.66 78.68,31.20 79.81,33.20 80.94,35.20 81.37,37.45 81.80,39.71 81.49,41.98 81.18,44.26 80.15,46.31 79.13,48.37 77.51,49.99 75.88,51.62 73.83,52.64 71.77,53.65 69.49,53.96 67.22,54.27 64.96,53.84 62.71,53.40 60.71,52.27 58.71,51.14 57.18,49.43 55.65,47.72 54.74,45.61 53.83,43.50 53.65,41.21 53.46,38.92 54.02,36.69 54.58,34.47 55.81,32.53 57.05,30.60 58.84,29.16 60.63,27.72 62.79,26.93 64.95,26.14 67.24,26.08 69.54,26.02 71.73,26.70 73.93,27.37 75.79,28.71 77.65,30.06 78.99,31.92 80.33,33.79 81.00,35.98 81.68,38.18 81.61,40.47 81.55,42.77 80.75,44.92 79.96,47.08 78.52,48.87 77.08,50.66 75.14,51.89 73.21,53.13 70.98,53.68 68.75,54.23 68.75,54.23 68.75,54.23 64.57,54.53 60.39,54.83 53.93,54.76 47.47,54.70 52.40,53.54 57.33,52.39 55.81,53.16 54.28,53.93 52.62,54.31 50.96,54.70 49.25,54.67 47.55,54.64 45.90,54.21 44.25,53.78 42.75,52.96 41.25,52.15 39.99,51.00 38.73,49.85 37.78,48.43 36.83,47.01 36.25,45.41 35.67,43.80 35.49,42.10 35.31,40.41 35.54,38.72 35.77,37.03 36.40,35.44 37.03,33.85 38.02,32.46 39.01,31.07 40.30,29.96 41.60,28.85 42.18,28.42 42.77,27.99 46.41,24.80 50.05,21.61 53.08,18.58 56.11,15.56 59.32,12.05 62.53,8.54 66.80,4.93 71.07,1.32 72.66,0.90 74.25,0.49 75.89,0.47 77.54,0.44 79.14,0.82 80.74,1.19 82.21,1.94 83.67,2.68 84.92,3.76 86.16,4.83 87.11,6.17 88.07,7.51 88.67,9.04 89.27,10.57 89.49,12.20 89.71,13.83 89.53,15.47 89.36,17.10 88.79,18.65 88.23,20.19 87.31,21.56 86.40,22.92 85.18,24.03 83.96,25.14 82.52,25.92 81.07,26.70 80.61,26.73 80.16,26.76 74.64,28.61 69.13,30.47 64.50,31.82 59.86,33.17 55.58,34.17 51.30,35.16 46.96,36.46 42.62,37.75 36.39,37.89 30.16,38.04 28.86,39.03 27.57,40.03 26.07,40.69 24.57,41.35 22.96,41.64 21.35,41.92 19.71,41.80 18.08,41.69 16.52,41.19 14.96,40.69 13.57,39.83 12.17,38.98 11.03,37.81 9.88,36.64 9.04,35.23 8.21,33.83 7.73,32.26 7.26,30.69 7.17,29.06 7.09,27.42 7.40,25.82 7.70,24.21 8.39,22.72 9.07,21.23 10.09,19.95 11.11,18.67 12.37,17.36 13.62,16.06 17.65,13.23 21.67,10.40 26.04,7.64 30.42,4.88 36.85,1.26 43.28,-2.35 48.36,-4.92 53.43,-7.48 54.96,-7.73 56.48,-7.98 58.02,-7.86 59.56,-7.75 61.03,-7.26 62.49,-6.78 63.80,-5.95 65.11,-5.13 66.18,-4.02 67.26,-2.91 68.03,-1.58 68.81,-0.24 69.24,1.23 69.68,2.71 69.74,4.26 69.81,5.80 69.51,7.31 69.20,8.83 68.55,10.22 67.89,11.62 66.91,12.82 65.94,14.02 64.71,14.95 63.48,15.88 62.06,16.49 60.64,17.10 59.33,17.20 58.01,17.30 52.83,19.05 47.64,20.80 42.75,21.61 37.86,22.42 33.58,23.38 29.30,24.35 23.54,25.37 17.79,26.39 12.26,27.20 6.73,28.01 2.44,27.28 -1.83,26.56 -3.13,27.03 -4.43,27.50 -5.80,27.65 -7.18,27.80 -8.55,27.61 -9.92,27.43 -11.20,26.92 -12.49,26.41 -13.61,25.61 -14.74,24.81 -15.64,23.76 -16.54,22.71 -17.16,21.48 -17.79,20.25 -18.10,18.90 -18.41,17.55 -18.39,16.17 -18.37,14.79 -18.02,13.45 -17.67,12.12 -17.01,10.90 -16.35,9.69 -15.42,8.67 -14.49,7.65 -13.34,6.88 -12.19,6.11 -7.75,4.02 -3.31,1.92 1.43,-0.35 6.17,-2.63 10.73,-5.08 15.29,-7.53 19.57,-10.10 23.84,-12.66 27.88,-14.59 31.92,-16.52 33.21,-16.61 34.51,-16.69 35.79,-16.47 37.07,-16.25 38.26,-15.73 39.45,-15.20 40.48,-14.41 41.51,-13.62 42.32,-12.60 43.13,-11.59 43.67,-10.41 44.21,-9.23 44.46,-7.95 44.70,-6.68 44.64,-5.38 44.57,-4.08 44.19,-2.84 43.82,-1.60 43.16,-0.48 42.49,0.63 41.58,1.56 40.67,2.48 39.57,3.16 38.46,3.85 37.22,4.24 35.99,4.64 39.15,1.16 42.31,-2.31 35.51,1.34 28.71,5.00 22.51,5.81 16.30,6.61 8.88,8.08 1.46,9.54 0.30,9.58 -0.85,9.62 -1.99,9.38 -3.13,9.13 -4.18,8.63 -5.23,8.12 -6.12,7.37 -7.02,6.63 -7.71,5.69 -8.40,4.75 -8.85,3.68 -9.30,2.60 -9.47,1.45 -9.65,0.30 -9.55,-0.85 -9.44,-2.01 -9.07,-3.11 -8.69,-4.21 -8.06,-5.19 -7.43,-6.17 -6.58,-6.97 -5.73,-7.77 -4.72,-8.34 -3.71,-8.92 -2.58,-9.23 -1.46,-9.54 -1.46,-9.54 L -1.46,-9.54 Z"/></g><g transform="translate(52.75215137925886 874.0237628148672) rotate(0 37.958380692541766 18.646222094581958)" stroke="none"><path fill="#fd7e14" d="M -3.74,-9.54 Q -3.74,-9.54 1.62,-11.61 7.00,-13.68 11.00,-15.19 15.01,-16.69 20.06,-18.62 25.12,-20.55 27.80,-21.69 30.47,-22.84 31.84,-22.98 33.22,-23.13 34.58,-22.94 35.95,-22.75 37.24,-22.24 38.52,-21.73 39.65,-20.93 40.77,-20.13 41.67,-19.08 42.57,-18.04 43.19,-16.80 43.82,-15.57 44.13,-14.22 44.44,-12.88 44.41,-11.50 44.39,-10.12 44.04,-8.78 43.69,-7.44 43.03,-6.23 42.37,-5.02 41.44,-4.00 40.51,-2.98 39.36,-2.21 38.21,-1.45 36.91,-0.98 35.61,-0.51 31.78,6.45 27.96,13.41 22.82,18.62 17.68,23.84 15.96,26.16 14.24,28.47 13.12,29.41 12.00,30.34 10.69,30.98 9.38,31.62 7.96,31.93 6.53,32.24 5.07,32.20 3.62,32.16 2.21,31.77 0.81,31.38 -0.46,30.66 -1.73,29.95 -2.79,28.95 -3.86,27.95 -4.65,26.73 -5.44,25.51 -5.92,24.13 -6.40,22.75 -6.53,21.30 -6.67,19.85 -6.45,18.40 -6.23,16.96 -5.68,15.61 -5.12,14.26 -4.26,13.09 -3.40,11.91 4.42,8.51 12.25,5.11 18.49,2.39 24.72,-0.32 30.38,-2.81 36.05,-5.30 46.51,-3.70 56.96,-2.10 57.03,6.79 57.10,15.70 53.96,20.86 50.82,26.02 46.92,31.29 43.01,36.56 39.60,41.04 36.20,45.52 32.89,48.91 29.59,52.30 28.17,53.18 26.75,54.07 25.17,54.59 23.58,55.11 21.92,55.23 20.25,55.36 18.60,55.08 16.96,54.80 15.42,54.14 13.89,53.48 12.56,52.46 11.23,51.45 10.19,50.15 9.14,48.85 8.43,47.34 7.72,45.83 7.40,44.19 7.07,42.55 7.15,40.88 7.23,39.22 7.70,37.62 8.18,36.01 9.02,34.57 9.86,33.13 11.03,31.93 12.19,30.74 18.78,28.51 25.36,26.27 31.19,24.82 37.01,23.37 43.04,21.84 49.06,20.32 54.47,19.16 59.89,18.01 65.55,17.04 71.20,16.07 72.14,15.92 73.08,15.77 74.57,15.78 76.07,15.79 77.52,16.15 78.97,16.52 80.29,17.22 81.61,17.92 82.72,18.91 83.84,19.91 84.68,21.14 85.53,22.38 86.05,23.78 86.57,25.18 86.75,26.66 86.92,28.15 86.73,29.63 86.55,31.12 86.01,32.51 85.47,33.91 84.62,35.13 83.76,36.36 82.64,37.35 81.52,38.33 80.19,39.02 78.86,39.71 77.41,40.06 75.96,40.41 69.91,44.11 63.86,47.80 58.45,51.03 53.04,54.26 49.36,56.41 45.68,58.56 47.13,57.52 48.58,56.47 47.21,58.08 45.84,59.68 44.04,60.77 42.23,61.86 40.17,62.31 38.11,62.76 36.01,62.54 33.91,62.31 32.00,61.42 30.09,60.53 28.55,59.08 27.02,57.63 26.04,55.77 25.05,53.90 24.71,51.82 24.37,49.74 24.71,47.66 25.05,45.58 26.04,43.71 27.03,41.85 28.56,40.40 30.09,38.95 32.01,38.07 33.92,37.18 36.02,36.95 38.12,36.73 40.18,37.18 42.24,37.63 44.04,38.72 45.85,39.81 47.21,41.42 48.58,43.03 49.36,44.99 50.14,46.95 50.25,49.05 50.37,51.16 49.80,53.19 49.24,55.22 48.05,56.97 46.87,58.71 45.19,59.99 43.51,61.27 41.51,61.94 39.51,62.61 37.40,62.61 35.29,62.61 33.29,61.94 31.29,61.26 29.61,59.98 27.94,58.71 26.75,56.96 25.57,55.21 25.01,53.18 24.44,51.15 24.56,49.04 24.67,46.94 25.45,44.98 26.24,43.02 26.24,43.02 26.23,43.02 31.86,38.32 37.49,33.62 41.26,31.57 45.03,29.52 51.68,25.93 58.33,22.35 65.70,19.06 73.08,15.77 74.57,15.78 76.07,15.79 77.52,16.15 78.97,16.52 80.29,17.22 81.61,17.92 82.72,18.91 83.84,19.91 84.68,21.14 85.53,22.38 86.05,23.78 86.57,25.18 86.75,26.66 86.92,28.15 86.73,29.63 86.55,31.12 86.01,32.51 85.47,33.91 84.62,35.13 83.77,36.36 82.64,37.35 81.52,38.33 80.19,39.02 78.86,39.71 77.41,40.06 75.96,40.41 75.01,40.44 74.06,40.47 69.65,40.89 65.25,41.31 60.72,42.44 56.20,43.58 50.54,45.64 44.89,47.70 37.24,50.00 29.59,52.30 28.17,53.18 26.76,54.07 25.17,54.59 23.58,55.11 21.92,55.23 20.25,55.36 18.61,55.08 16.96,54.80 15.43,54.14 13.89,53.48 12.56,52.47 11.24,51.45 10.19,50.15 9.14,48.86 8.43,47.34 7.72,45.83 7.40,44.19 7.07,42.55 7.15,40.89 7.23,39.22 7.70,37.62 8.18,36.02 9.02,34.57 9.86,33.13 11.03,31.94 12.19,30.74 14.01,28.96 15.83,27.17 20.09,22.29 24.34,17.41 27.16,13.78 29.99,10.16 34.26,10.30 38.52,10.45 42.80,13.87 47.08,17.30 42.78,18.51 38.48,19.72 32.93,21.93 27.38,24.13 20.81,26.30 14.24,28.47 13.12,29.41 12.01,30.34 10.70,30.98 9.39,31.62 7.96,31.93 6.53,32.24 5.08,32.20 3.62,32.16 2.21,31.77 0.81,31.38 -0.46,30.67 -1.73,29.95 -2.79,28.95 -3.85,27.95 -4.65,26.73 -5.44,25.51 -5.92,24.13 -6.40,22.75 -6.53,21.30 -6.67,19.85 -6.45,18.40 -6.23,16.96 -5.68,15.61 -5.12,14.26 -4.26,13.09 -3.40,11.91 -0.76,9.18 1.87,6.44 6.37,2.41 10.87,-1.61 16.11,-7.20 21.36,-12.79 25.91,-17.81 30.47,-22.84 31.84,-22.98 33.22,-23.13 34.58,-22.94 35.95,-22.75 37.24,-22.24 38.52,-21.74 39.64,-20.93 40.77,-20.13 41.67,-19.08 42.57,-18.04 43.19,-16.80 43.82,-15.57 44.13,-14.23 44.44,-12.88 44.41,-11.50 44.39,-10.12 44.04,-8.78 43.69,-7.45 43.03,-6.23 42.37,-5.02 41.44,-4.00 40.51,-2.98 39.36,-2.21 38.21,-1.45 36.91,-0.98 35.61,-0.51 32.03,0.35 28.44,1.22 21.44,3.24 14.44,5.26 9.09,7.40 3.74,9.54 2.55,9.85 1.35,10.16 0.12,10.17 -1.11,10.18 -2.31,9.90 -3.52,9.62 -4.62,9.06 -5.72,8.50 -6.65,7.69 -7.59,6.88 -8.30,5.87 -9.01,4.87 -9.47,3.72 -9.92,2.57 -10.08,1.34 -10.25,0.12 -10.11,-1.10 -9.98,-2.33 -9.55,-3.49 -9.13,-4.65 -8.44,-5.68 -7.75,-6.70 -6.83,-7.53 -5.92,-8.36 -4.83,-8.95 -3.74,-9.54 -3.74,-9.54 L -3.74,-9.54 Z"/></g><g transform="translate(70.0665004670849 764.8101762608874) rotate(0 4.328587271956565 31.29901565876247)" stroke="none"><path fill="#fd7e14" d="M -2.35,-10.02 Q -2.35,-10.02 4.19,-11.36 10.75,-12.70 12.71,-13.14 14.66,-13.59 15.89,-13.73 17.12,-13.86 18.35,-13.70 19.58,-13.54 20.73,-13.09 21.88,-12.64 22.89,-11.92 23.91,-11.21 24.72,-10.27 25.53,-9.34 26.09,-8.24 26.65,-7.13 26.94,-5.93 27.22,-4.72 27.21,-3.49 27.20,-2.25 26.89,-1.05 26.58,0.14 25.99,1.23 25.40,2.32 24.57,3.24 23.74,4.15 22.72,4.85 21.69,5.54 20.53,5.96 19.37,6.39 14.86,11.17 10.35,15.95 6.74,18.30 3.14,20.66 -1.16,13.79 -5.47,6.93 0.59,6.88 6.66,6.82 12.36,6.62 18.05,6.42 21.98,5.83 25.90,5.24 27.42,4.95 28.95,4.66 30.49,4.75 32.04,4.83 33.52,5.28 35.00,5.73 36.33,6.52 37.66,7.32 38.76,8.40 39.87,9.49 40.68,10.81 41.49,12.13 41.96,13.61 42.43,15.08 42.53,16.63 42.63,18.17 42.37,19.70 42.10,21.22 41.47,22.64 40.84,24.05 39.90,25.28 38.95,26.50 37.74,27.47 36.53,28.43 35.12,29.07 33.71,29.72 27.46,33.11 21.22,36.51 15.04,39.95 8.87,43.39 3.84,46.92 -1.18,50.45 -5.02,53.75 -8.87,57.05 -12.35,49.48 -15.83,41.92 -19.83,40.48 -23.84,39.05 -15.86,36.93 -7.88,34.81 -1.57,33.02 4.72,31.22 9.76,29.83 14.79,28.44 24.75,30.35 34.71,32.25 33.87,40.98 33.03,49.71 28.19,53.18 23.35,56.66 17.81,59.14 12.26,61.61 7.88,64.11 3.51,66.61 0.29,69.52 -2.92,72.44 -5.72,75.33 -8.52,78.23 -9.93,79.09 -11.34,79.96 -12.91,80.46 -14.49,80.97 -16.13,81.08 -17.78,81.20 -19.41,80.91 -21.04,80.63 -22.55,79.96 -24.06,79.30 -25.37,78.29 -26.68,77.28 -27.71,75.99 -28.74,74.70 -29.43,73.19 -30.13,71.69 -30.44,70.07 -30.75,68.45 -30.66,66.80 -30.58,65.15 -30.10,63.56 -29.62,61.98 -28.78,60.56 -27.93,59.14 -26.77,57.96 -25.62,56.78 -15.72,55.69 -5.82,54.60 1.06,54.42 7.95,54.25 10.34,54.18 12.73,54.10 14.84,54.42 16.95,54.73 18.84,55.70 20.74,56.67 22.23,58.19 23.72,59.72 24.64,61.64 25.56,63.56 25.83,65.67 26.09,67.78 25.66,69.87 25.24,71.96 24.17,73.80 23.10,75.64 21.49,77.05 19.89,78.45 17.92,79.27 15.96,80.09 13.83,80.23 11.71,80.38 9.64,79.84 7.58,79.30 5.80,78.13 4.02,76.97 2.71,75.29 1.39,73.61 0.68,71.60 -0.02,69.60 -0.05,67.47 -0.08,65.34 0.56,63.31 1.21,61.28 2.47,59.56 3.73,57.85 5.48,56.63 7.22,55.40 9.27,54.80 11.31,54.20 13.44,54.29 15.57,54.37 17.56,55.13 19.55,55.89 21.19,57.24 22.84,58.60 23.96,60.41 25.09,62.21 25.58,64.29 26.07,66.36 25.87,68.48 25.67,70.60 24.81,72.55 23.94,74.50 22.50,76.06 21.06,77.63 19.19,78.66 17.32,79.68 15.23,80.06 13.13,80.44 13.13,80.44 13.13,80.44 7.43,80.50 1.73,80.56 -3.39,79.39 -8.52,78.22 -9.93,79.09 -11.34,79.96 -12.91,80.46 -14.48,80.97 -16.13,81.08 -17.78,81.20 -19.41,80.91 -21.04,80.63 -22.55,79.96 -24.06,79.30 -25.37,78.29 -26.68,77.28 -27.71,75.99 -28.74,74.70 -29.43,73.20 -30.13,71.69 -30.44,70.07 -30.75,68.45 -30.66,66.80 -30.58,65.15 -30.10,63.56 -29.62,61.98 -28.78,60.56 -27.93,59.14 -26.78,57.96 -25.62,56.78 -22.62,53.81 -19.62,50.83 -15.12,47.64 -10.62,44.44 -5.10,41.43 0.42,38.42 5.26,35.60 10.09,32.78 14.42,31.27 18.74,29.76 17.79,38.19 16.83,46.63 19.26,50.40 21.68,54.17 17.24,55.33 12.81,56.50 6.00,58.53 -0.80,60.56 -7.81,62.51 -14.82,64.45 -21.36,63.40 -27.89,62.34 -28.04,50.75 -28.20,39.17 -24.84,36.50 -21.48,33.82 -15.46,29.27 -9.43,24.71 -3.28,21.09 2.85,17.46 9.63,13.84 16.41,10.23 21.15,7.73 25.90,5.24 27.42,4.95 28.94,4.66 30.49,4.75 32.04,4.83 33.52,5.28 35.00,5.73 36.33,6.52 37.66,7.31 38.76,8.40 39.87,9.49 40.68,10.81 41.49,12.13 41.96,13.60 42.43,15.08 42.53,16.62 42.64,18.17 42.37,19.69 42.10,21.22 41.47,22.64 40.85,24.05 39.90,25.28 38.95,26.50 37.74,27.47 36.53,28.43 35.12,29.07 33.71,29.72 33.14,29.80 32.57,29.89 27.41,30.47 22.24,31.05 16.64,30.92 11.05,30.80 3.96,30.16 -3.11,29.52 -7.47,28.06 -11.84,26.60 -12.77,15.89 -13.70,5.18 -8.29,1.90 -2.89,-1.36 2.06,-4.95 7.01,-8.53 10.84,-11.06 14.66,-13.59 15.89,-13.73 17.12,-13.86 18.35,-13.70 19.58,-13.54 20.73,-13.09 21.88,-12.64 22.89,-11.92 23.91,-11.21 24.72,-10.27 25.53,-9.34 26.09,-8.24 26.65,-7.13 26.94,-5.93 27.22,-4.72 27.21,-3.49 27.20,-2.25 26.89,-1.05 26.58,0.14 25.99,1.23 25.40,2.32 24.57,3.24 23.74,4.15 22.72,4.85 21.69,5.54 20.53,5.96 19.37,6.39 17.32,6.48 15.28,6.57 8.82,8.30 2.35,10.02 1.12,10.16 -0.10,10.30 -1.34,10.14 -2.57,9.97 -3.72,9.52 -4.88,9.07 -5.89,8.35 -6.91,7.63 -7.72,6.70 -8.54,5.76 -9.10,4.65 -9.67,3.55 -9.95,2.34 -10.24,1.13 -10.22,-0.10 -10.21,-1.35 -9.90,-2.55 -9.59,-3.75 -9.00,-4.84 -8.41,-5.94 -7.58,-6.86 -6.74,-7.78 -5.72,-8.47 -4.69,-9.17 -3.52,-9.60 -2.35,-10.02 -2.35,-10.02 L -2.35,-10.02 Z"/></g><g transform="translate(96.03802409882417 734.8430336088807) rotate(0 38.29134894423072 -2.3307777618227306)" stroke="none"><path fill="#fd7e14" d="M -5.15,-9.12 Q -5.15,-9.12 -0.76,-11.64 3.62,-14.17 9.05,-16.34 14.48,-18.52 18.52,-20.02 22.56,-21.51 23.87,-21.80 25.19,-22.08 26.53,-22.05 27.87,-22.01 29.16,-21.65 30.46,-21.29 31.63,-20.63 32.80,-19.98 33.78,-19.06 34.76,-18.14 35.49,-17.01 36.22,-15.89 36.66,-14.62 37.10,-13.35 37.23,-12.02 37.35,-10.68 37.15,-9.35 36.95,-8.02 36.44,-6.78 35.93,-5.54 35.14,-4.46 34.34,-3.37 33.31,-2.51 32.28,-1.65 31.08,-1.06 29.87,-0.47 28.51,6.11 27.16,12.69 24.73,18.02 22.31,23.35 21.24,26.18 20.18,29.02 19.35,30.24 18.52,31.46 17.43,32.44 16.33,33.43 15.03,34.12 13.73,34.82 12.31,35.18 10.88,35.54 9.40,35.55 7.93,35.56 6.50,35.22 5.07,34.88 3.76,34.20 2.45,33.53 1.34,32.56 0.23,31.59 -0.61,30.38 -1.45,29.18 -1.98,27.80 -2.52,26.43 -2.71,24.97 -2.89,23.51 -2.73,22.04 -2.56,20.58 -2.05,19.20 -1.53,17.82 4.42,12.35 10.39,6.88 15.24,1.66 20.10,-3.56 23.99,-8.15 27.89,-12.73 30.32,-16.25 32.76,-19.76 35.26,-23.29 37.76,-26.82 38.52,-27.02 39.28,-27.22 40.32,-28.40 41.36,-29.59 42.65,-30.49 43.94,-31.40 45.41,-31.97 46.88,-32.53 48.45,-32.73 50.01,-32.93 51.58,-32.75 53.14,-32.57 54.62,-32.02 56.10,-31.47 57.40,-30.58 58.71,-29.69 59.76,-28.52 60.81,-27.34 61.55,-25.95 62.29,-24.56 62.68,-23.03 63.07,-21.50 63.07,-19.92 63.08,-18.35 62.72,-16.81 62.35,-15.28 61.62,-13.88 60.90,-12.48 57.80,-6.99 54.71,-1.50 52.60,2.50 50.50,6.52 49.57,11.49 48.63,16.47 46.41,21.68 44.19,26.89 44.59,28.16 44.99,29.43 44.37,30.92 43.75,32.41 42.79,33.71 41.84,35.01 40.60,36.04 39.36,37.07 37.90,37.77 36.45,38.48 34.88,38.81 33.30,39.15 31.69,39.10 30.08,39.05 28.52,38.61 26.97,38.18 25.57,37.38 24.16,36.59 22.99,35.48 21.82,34.37 20.94,33.02 20.07,31.66 19.55,30.14 19.02,28.61 18.88,27.00 18.73,25.40 18.98,23.80 19.23,22.21 22.48,17.95 25.73,13.69 29.03,10.04 32.33,6.38 35.30,2.68 38.27,-1.01 40.91,-4.95 43.55,-8.89 46.06,-13.78 48.56,-18.68 52.20,-23.57 55.85,-28.46 58.60,-32.34 61.35,-36.21 65.30,-39.29 69.26,-42.37 68.66,-42.09 68.06,-41.82 69.52,-42.62 70.98,-43.42 72.59,-43.86 74.20,-44.29 75.87,-44.32 77.53,-44.35 79.16,-43.99 80.78,-43.62 82.28,-42.88 83.77,-42.13 85.04,-41.05 86.31,-39.97 87.28,-38.62 88.25,-37.27 88.88,-35.72 89.50,-34.18 89.73,-32.53 89.97,-30.88 89.80,-29.22 89.63,-27.56 89.07,-25.99 88.51,-24.42 87.59,-23.03 86.67,-21.64 85.45,-20.51 84.22,-19.38 84.91,-13.77 85.59,-8.16 84.77,-3.43 83.96,1.29 83.28,4.83 82.60,8.37 82.08,10.46 81.56,12.55 80.40,14.37 79.23,16.19 77.55,17.54 75.87,18.89 73.85,19.64 71.82,20.38 69.67,20.44 67.51,20.50 65.45,19.86 63.39,19.23 61.64,17.97 59.88,16.72 58.62,14.96 57.37,13.21 56.73,11.15 56.10,9.09 56.16,6.93 56.22,4.78 56.96,2.75 57.70,0.73 59.05,-0.94 60.40,-2.63 62.22,-3.79 64.04,-4.95 66.13,-5.47 68.23,-5.99 70.38,-5.82 72.53,-5.64 74.51,-4.79 76.49,-3.94 78.09,-2.50 79.70,-1.06 80.76,0.81 81.82,2.69 82.23,4.81 82.64,6.93 82.35,9.06 82.05,11.20 81.10,13.13 80.14,15.06 78.61,16.59 77.09,18.12 75.15,19.07 73.22,20.03 71.09,20.32 68.95,20.61 66.83,20.21 64.71,19.80 62.83,18.74 60.96,17.68 59.52,16.07 58.08,14.47 57.22,12.49 56.37,10.50 56.20,8.35 56.02,6.20 56.02,6.21 56.02,6.21 57.02,2.00 58.02,-2.20 59.06,-7.12 60.10,-12.04 60.68,-16.27 61.27,-20.51 64.66,-31.16 68.06,-41.82 69.52,-42.62 70.98,-43.42 72.59,-43.85 74.20,-44.29 75.87,-44.32 77.53,-44.35 79.16,-43.99 80.78,-43.62 82.27,-42.88 83.77,-42.13 85.04,-41.05 86.30,-39.97 87.28,-38.62 88.25,-37.27 88.88,-35.72 89.50,-34.18 89.73,-32.53 89.97,-30.88 89.80,-29.22 89.63,-27.56 89.07,-25.99 88.51,-24.42 87.59,-23.03 86.67,-21.64 85.45,-20.51 84.22,-19.38 81.45,-16.73 78.68,-14.07 74.78,-9.34 70.88,-4.61 67.87,0.14 64.85,4.90 61.46,9.46 58.06,14.03 55.01,18.23 51.97,22.43 48.48,25.93 44.99,29.43 44.37,30.92 43.75,32.41 42.80,33.71 41.84,35.01 40.60,36.04 39.36,37.07 37.91,37.77 36.46,38.48 34.88,38.81 33.30,39.15 31.69,39.10 30.08,39.05 28.52,38.61 26.97,38.18 25.57,37.38 24.16,36.59 22.99,35.48 21.82,34.37 20.94,33.02 20.07,31.66 19.55,30.14 19.02,28.61 18.88,27.01 18.73,25.40 18.98,23.81 19.22,22.21 19.86,19.51 20.50,16.80 23.24,11.12 25.98,5.44 26.93,0.75 27.88,-3.93 30.16,-8.98 32.44,-14.03 35.86,-20.62 39.28,-27.22 40.32,-28.40 41.35,-29.59 42.65,-30.49 43.94,-31.40 45.41,-31.97 46.88,-32.53 48.45,-32.73 50.01,-32.93 51.58,-32.75 53.14,-32.57 54.62,-32.02 56.10,-31.47 57.40,-30.58 58.71,-29.69 59.76,-28.52 60.81,-27.34 61.55,-25.95 62.29,-24.56 62.68,-23.03 63.07,-21.50 63.07,-19.93 63.08,-18.35 62.72,-16.82 62.35,-15.28 61.62,-13.88 60.90,-12.48 59.38,-11.57 57.86,-10.65 53.99,-6.03 50.13,-1.41 46.13,3.21 42.14,7.84 37.40,12.64 32.67,17.44 26.43,23.23 20.18,29.02 19.35,30.24 18.52,31.46 17.43,32.44 16.33,33.43 15.03,34.12 13.73,34.82 12.31,35.18 10.88,35.54 9.41,35.55 7.93,35.56 6.50,35.22 5.07,34.88 3.76,34.20 2.45,33.53 1.34,32.56 0.23,31.59 -0.61,30.38 -1.45,29.18 -1.98,27.80 -2.52,26.43 -2.70,24.97 -2.89,23.51 -2.73,22.04 -2.56,20.58 -2.05,19.20 -1.53,17.82 -0.48,15.86 0.57,13.91 3.83,7.66 7.08,1.42 10.54,-4.95 13.99,-11.33 18.28,-16.42 22.56,-21.51 23.87,-21.80 25.18,-22.08 26.53,-22.05 27.87,-22.01 29.16,-21.65 30.46,-21.29 31.63,-20.64 32.80,-19.98 33.78,-19.06 34.76,-18.14 35.49,-17.02 36.22,-15.89 36.66,-14.62 37.10,-13.35 37.23,-12.02 37.35,-10.68 37.15,-9.35 36.95,-8.02 36.44,-6.78 35.93,-5.54 35.14,-4.46 34.34,-3.37 33.31,-2.51 32.28,-1.65 31.08,-1.06 29.87,-0.47 25.98,0.39 22.09,1.27 18.04,2.74 13.98,4.21 9.57,6.67 5.15,9.12 3.99,9.61 2.82,10.09 1.57,10.28 0.32,10.47 -0.93,10.36 -2.19,10.25 -3.38,9.84 -4.58,9.43 -5.64,8.74 -6.70,8.05 -7.57,7.14 -8.43,6.22 -9.06,5.12 -9.68,4.02 -10.02,2.80 -10.36,1.58 -10.40,0.32 -10.44,-0.93 -10.17,-2.17 -9.91,-3.41 -9.36,-4.54 -8.80,-5.68 -8.00,-6.65 -7.19,-7.62 -6.17,-8.37 -5.15,-9.12 -5.15,-9.12 L -5.15,-9.12 Z"/></g><g stroke-linecap="round"><g transform="translate(550 410) rotate(0 120 130)"><path d="M1.11 1.01 C11.05 31.09, 19.11 137.37, 58.93 180.57 C98.75 223.77, 209.95 247.08, 240.04 260.22 M0.23 0.5 C10.59 30.21, 21.24 135.23, 61.08 178.75 C100.93 222.27, 209.57 248.08, 239.3 261.65" stroke="#fd7e14" stroke-width="1" fill="none"/></g><g transform="translate(550 410) rotate(0 120 130)"><path d="M210.99 260.1 C217.49 261.62, 224.12 260.66, 238.26 260.9 M209.09 262.34 C214.77 262.75, 222.12 261.92, 239.33 262.43" stroke="#fd7e14" stroke-width="1" fill="none"/></g><g transform="translate(550 410) rotate(0 120 130)"><path d="M217.86 240.76 C222.72 247.01, 227.7 250.71, 238.26 260.9 M215.96 243 C220.27 247.35, 226.21 250.49, 239.33 262.43" stroke="#fd7e14" stroke-width="1" fill="none"/></g></g><mask/><g stroke-linecap="round"><g transform="translate(470 410) rotate(0 29.892857142857167 139.50000000000006)"><path d="M0.22 -0.5 C9.98 45.92, 49.42 231.93, 59.16 278.55" stroke="#fd7e14" stroke-width="1.5" fill="none" stroke-dasharray="1.5 7"/></g><g transform="translate(470 410) rotate(0 29.892857142857167 139.50000000000006)"><path d="M42.48 252.04 C48.08 260.02, 54.78 269.9, 58.73 279.48" stroke="#fd7e14" stroke-width="1.5" fill="none" stroke-dasharray="1.5 5"/></g><g transform="translate(470 410) rotate(0 29.892857142857167 139.50000000000006)"><path d="M62.56 247.81 C61.18 257.29, 60.9 268.65, 58.73 279.48" stroke="#fd7e14" stroke-width="1.5" fill="none" stroke-dasharray="1.5 5"/></g></g><mask/></svg>