<svg version="1.1" xmlns="http://www.w3.org/2000/svg" viewBox="0 0 1307.50390625 1069.0925151373976" width="1307.50390625" height="1069.0925151373976">
  <!-- svg-source:excalidraw -->
  
  <defs>
    <style class="style-fonts">
      @font-face {
        font-family: "Virgil";
        src: url("https://excalidraw.com/Virgil.woff2");
      }
      @font-face {
        font-family: "Cascadia";
        src: url("https://excalidraw.com/Cascadia.woff2");
      }
    </style>
  </defs>
  <g transform="translate(569.4091796875 595.391859862602) rotate(0 55.01953125 12)"><text x="0" y="0" font-family="Helvetica, Segoe UI Emoji" font-size="20px" fill="#fd7e14" text-anchor="start" style="white-space: pre;" direction="ltr" dominant-baseline="text-before-edge">nextToClaim</text></g><g transform="translate(509.4091796875 695.391859862602) rotate(0 73.9111328125 12)"><text x="0" y="0" font-family="Helvetica, Segoe UI Emoji" font-size="20px" fill="#000000" text-anchor="start" style="white-space: pre;" direction="ltr" dominant-baseline="text-before-edge">consumerBarrier</text></g><g transform="translate(1009.4091796875 655.391859862602) rotate(0 53.369140625 12)"><text x="0" y="0" font-family="Helvetica, Segoe UI Emoji" font-size="20px" fill="#40c057" text-anchor="start" style="white-space: pre;" direction="ltr" dominant-baseline="text-before-edge">nextToRead</text></g><g transform="translate(1029.4091796875 715.391859862602) rotate(0 69.47265625 12)"><text x="0" y="0" font-family="Helvetica, Segoe UI Emoji" font-size="20px" fill="#000000" text-anchor="start" style="white-space: pre;" direction="ltr" dominant-baseline="text-before-edge">producerBarrier</text></g><g stroke-linecap="round"><g transform="translate(457.0399589435067 362.66666666666663) rotate(0 176.4800205282467 173.66666666666663)"><path d="M1.05 -0.91 C3.15 17.19, 0.39 64.5, 13.13 107.7 C25.87 150.9, 20.79 218.18, 77.5 258.29 C134.21 298.4, 307.57 333.49, 353.42 348.37 M0.14 1.22 C2.06 19.03, -0.54 62.68, 12.27 105.77 C25.09 148.86, 20.08 219.66, 77.02 259.76 C133.96 299.85, 307.65 331.64, 353.91 346.35" stroke="#fd7e14" stroke-width="1" fill="none"/></g><g transform="translate(457.0399589435067 362.66666666666663) rotate(0 176.4800205282467 173.66666666666663)"><path d="M322.54 349.65 C334.85 348.98, 344.89 347.82, 355.63 345.72 M324.13 350.15 C333.25 348.96, 342.6 348.12, 353.51 347.2" stroke="#fd7e14" stroke-width="1" fill="none"/></g><g transform="translate(457.0399589435067 362.66666666666663) rotate(0 176.4800205282467 173.66666666666663)"><path d="M327.58 329.76 C338.03 335.91, 346.35 341.52, 355.63 345.72 M329.17 330.26 C336.72 335.37, 344.48 340.82, 353.51 347.2" stroke="#fd7e14" stroke-width="1" fill="none"/></g></g><mask/><g stroke-linecap="round" transform="translate(810.5236163806171 615.391859862602) rotate(0 20.6364205464313 21.850327637397868)"><path d="M0.28 0.61 C10.12 0.79, 19.2 2.03, 40.64 0.31 M0.78 -0.23 C13.39 -0.33, 26.2 -0.42, 42.13 -0.73 M41.36 0.78 C41.42 12.85, 40.79 24.59, 39.77 43.18 M41.17 -0.65 C41.37 9.46, 41.15 19.93, 40.93 43.86 M42.77 45.67 C31.28 43.83, 18.67 43.41, -0.8 43.27 M40.82 43.5 C27.35 44.09, 14.36 43.62, -0.99 44.25 M1.86 42.33 C-0.03 34.33, 0.11 23.01, -1.93 1.02 M0.42 43.66 C-0.91 34.37, -0.32 23.46, 0.01 0.76" stroke="#000000" stroke-width="2" fill="none"/></g><g stroke-linecap="round" transform="translate(810.5236163806171 695.391859862602) rotate(0 20.6364205464313 21.850327637397868)"><path d="M1.92 -0.84 L40.84 1.93 L40.24 43.66 L0.81 43.3" stroke="none" stroke-width="0" fill="#fd7e14"/><path d="M0.61 0.9 C16.46 0.7, 33.68 -0.69, 41.59 0.15 M-0.23 0.69 C14.11 0.49, 28.42 0.53, 40.54 -0.16 M42.06 0.45 C41.83 9.93, 41.15 18.74, 40.75 42.34 M40.62 -0.17 C40.99 15.39, 41.32 31.2, 41.43 43.43 M43.24 44.97 C27.47 43.93, 12.77 43.21, -0.43 44.27 M41.07 43.33 C31.9 43.71, 21.42 42.53, 0.54 42.99 M-1.37 43.96 C0.7 28.11, -0.62 9.79, 1.02 -1.31 M-0.04 43.06 C1.17 27.89, 0.5 12.2, 0.76 0.89" stroke="#000000" stroke-width="2" fill="none"/></g><g stroke-linecap="round" transform="translate(810.5236163806171 655.391859862602) rotate(0 20.6364205464313 21.850327637397868)"><path d="M0.9 0.48 C10.01 1.6, 17.86 0.19, 41.43 0.98 M0.69 -0.3 C13.48 -0.3, 26.19 -0.64, 41.11 -0.68 M41.72 0.43 C41.11 14.13, 39.79 28.24, 39.92 44.92 M41.1 -0.69 C40.84 16.74, 40.89 34.35, 41 44.16 M42.54 44.18 C32.33 44.17, 22.75 43.68, 0.57 42.55 M40.9 44.34 C31.58 43.78, 20.52 44.16, -0.71 44.36 M0.26 44.34 C-0.01 30.57, -2.34 19.83, -1.31 1.21 M-0.64 44.62 C-0.24 33.38, -0.17 23.34, 0.89 0.96" stroke="#000000" stroke-width="2" fill="none"/></g><g transform="translate(870.5236163806171 620.191859862602) rotate(0 5.5615234375 12)"><text x="0" y="0" font-family="Helvetica, Segoe UI Emoji" font-size="20px" fill="#000000" text-anchor="start" style="white-space: pre;" direction="ltr" dominant-baseline="text-before-edge">2</text></g><g transform="translate(870.5236163806171 660.191859862602) rotate(0 5.5615234375 12)"><text x="0" y="0" font-family="Helvetica, Segoe UI Emoji" font-size="20px" fill="#000000" text-anchor="start" style="white-space: pre;" direction="ltr" dominant-baseline="text-before-edge">1</text></g><g stroke-linecap="round" transform="translate(810.5236163806171 775.391859862602) rotate(0 20.6364205464313 21.850327637397868)"><path d="M1.72 -0.63 C14.55 0, 29.46 -0.02, 42.83 -0.46 M40.49 1.7 C39.68 15.8, 39.77 32.81, 41.36 44.48 M41.02 42.2 C27.45 42.3, 15.89 45.48, -0.21 42.4 M-0.71 43.02 C0.62 30.81, 1.22 17.3, 1.49 1.97" stroke="#000000" stroke-width="2.5" fill="none" stroke-dasharray="1.5 8"/></g><g stroke-linecap="round" transform="translate(810.5236163806171 735.391859862602) rotate(0 20.6364205464313 21.850327637397868)"><path d="M-0.63 0.31 C13.53 0.63, 26.89 1.21, 40.82 1.38 M42.98 -1.46 C41.31 10.44, 42.21 23.71, 42.06 44.15 M39.77 43.18 C26.65 44.87, 16.57 43.44, -1.3 43.35 M-0.68 44.02 C-0.38 34.51, -1.54 24.97, 1.97 1.27" stroke="#000000" stroke-width="2.5" fill="none" stroke-dasharray="1.5 8"/></g><g transform="translate(870.5236163806171 740.191859862602) rotate(0 22.24609375 12)"><text x="0" y="0" font-family="Helvetica, Segoe UI Emoji" font-size="20px" fill="#000000" text-anchor="start" style="white-space: pre;" direction="ltr" dominant-baseline="text-before-edge">255u</text></g><g transform="translate(870.5236163806171 700.191859862602) rotate(0 5.5615234375 12)"><text x="0" y="0" font-family="Helvetica, Segoe UI Emoji" font-size="20px" fill="#000000" text-anchor="start" style="white-space: pre;" direction="ltr" dominant-baseline="text-before-edge">0</text></g><g transform="translate(870.5236163806171 780.191859862602) rotate(0 22.24609375 12)"><text x="0" y="0" font-family="Helvetica, Segoe UI Emoji" font-size="20px" fill="#000000" text-anchor="start" style="white-space: pre;" direction="ltr" dominant-baseline="text-before-edge">254u</text></g><g stroke-linecap="round" transform="translate(810.5236163806171 815.391859862602) rotate(0 20.6364205464313 21.850327637397868)"><path d="M0.14 1.56 C12.57 1.17, 25.46 1.41, 40.49 1.7 M41.85 0.09 C41.99 10.36, 41.63 19.63, 41.02 42.2 M43.1 43.49 C28.66 43.6, 17.28 43.18, -0.71 43.02 M-1.71 45.19 C2.09 31.15, 0.6 15.99, 0.06 -0.8" stroke="#000000" stroke-width="2.5" fill="none" stroke-dasharray="1.5 8"/></g><g stroke-linecap="round" transform="translate(810.5236163806171 855.391859862602) rotate(0 20.6364205464313 21.850327637397868)"><path d="M1.56 -0.46 C14.07 -0.62, 27.01 -0.81, 42.98 -1.46 M41.36 0.78 C41.42 12.85, 40.79 24.59, 39.77 43.18 M41.07 42.4 C31.34 42.71, 21.34 43.37, -0.68 44.02 M1.49 45.67 C1.07 32.26, -0.28 19.92, -0.8 -0.43" stroke="#000000" stroke-width="2.5" fill="none" stroke-dasharray="1.5 8"/></g><g transform="translate(870.5236163806171 820.191859862602) rotate(0 22.24609375 12)"><text x="0" y="0" font-family="Helvetica, Segoe UI Emoji" font-size="20px" fill="#000000" text-anchor="start" style="white-space: pre;" direction="ltr" dominant-baseline="text-before-edge">253u</text></g><g transform="translate(870.5236163806171 860.191859862602) rotate(0 22.24609375 12)"><text x="0" y="0" font-family="Helvetica, Segoe UI Emoji" font-size="20px" fill="#000000" text-anchor="start" style="white-space: pre;" direction="ltr" dominant-baseline="text-before-edge">252u</text></g><g stroke-linecap="round" transform="translate(810.5236163806171 895.391859862602) rotate(0 20.6364205464313 21.850327637397868)"><path d="M-0.59 1.62 C14.82 1.42, 29.74 -0.6, 39.9 0.58 M41.7 -0.19 C41.19 11.8, 40.92 25.25, 42.49 45.52 M39.9 42.93 C28.61 42.95, 17.68 43.08, 0.92 41.99 M0.48 43.62 C-0.37 26.53, -0.86 11.53, -1.15 -1.21" stroke="#000000" stroke-width="2.5" fill="none" stroke-dasharray="1.5 8"/></g><g stroke-linecap="round" transform="translate(810.5236163806171 935.391859862602) rotate(0 20.6364205464313 21.850327637397868)"><path d="M1.62 -0.79 C13.15 -1.34, 22.57 -1.25, 41.85 0.09 M41.09 -0.25 C39.87 14.3, 40.01 30.87, 43.1 43.49 M40.5 42.99 C30.89 43.74, 21.33 44.34, -1.71 45.19 M-0.08 43.76 C-1.07 25.86, 0.29 7.73, -1.21 -0.9" stroke="#000000" stroke-width="2.5" fill="none" stroke-dasharray="1.5 8"/></g><g transform="translate(870.5236163806171 900.191859862602) rotate(0 22.24609375 12)"><text x="0" y="0" font-family="Helvetica, Segoe UI Emoji" font-size="20px" fill="#000000" text-anchor="start" style="white-space: pre;" direction="ltr" dominant-baseline="text-before-edge">251u</text></g><g transform="translate(870.5236163806171 940.1918598626022) rotate(0 22.24609375 12)"><text x="0" y="0" font-family="Helvetica, Segoe UI Emoji" font-size="20px" fill="#000000" text-anchor="start" style="white-space: pre;" direction="ltr" dominant-baseline="text-before-edge">240u</text></g><g stroke-linecap="round" transform="translate(810.5236163806171 975.391859862602) rotate(0 20.6364205464313 21.850327637397868)"><path d="M-1.46 -0.32 C14.35 0.23, 31.52 0.43, 41.72 0.43 M40.75 -1.36 C42.44 14.52, 41.01 24.1, 40.92 42.33 M41.59 43.16 C31.41 41.85, 21.19 45.53, 1.27 44.18 M-0.43 44.27 C-1.16 29.56, -0.92 17.43, -0.74 1.27" stroke="#000000" stroke-width="2.5" fill="none" stroke-dasharray="1.5 8"/></g><g stroke-linecap="round" transform="translate(810.5236163806171 1015.391859862602) rotate(0 20.6364205464313 21.850327637397868)"><path d="M-0.32 -1.37 C11.34 0.39, 22.31 0.75, 41.7 -0.19 M39.92 1.22 C42.77 12.35, 39.64 24.77, 39.9 42.93 M40.73 44.62 C28.64 45.26, 21.4 45.03, 0.48 43.62 M0.57 42.55 C-1.04 29.55, -0.23 16.47, 1.27 0.39" stroke="#000000" stroke-width="2.5" fill="none" stroke-dasharray="1.5 8"/></g><g transform="translate(870.5236163806171 980.1918598626022) rotate(0 22.24609375 12)"><text x="0" y="0" font-family="Helvetica, Segoe UI Emoji" font-size="20px" fill="#000000" text-anchor="start" style="white-space: pre;" direction="ltr" dominant-baseline="text-before-edge">239u</text></g><g transform="translate(870.5236163806171 1020.1918598626022) rotate(0 22.24609375 12)"><text x="0" y="0" font-family="Helvetica, Segoe UI Emoji" font-size="20px" fill="#000000" text-anchor="start" style="white-space: pre;" direction="ltr" dominant-baseline="text-before-edge">238u</text></g><g stroke-linecap="round" transform="translate(810.5236163806171 495.391859862602) rotate(0 20.6364205464313 21.850327637397868)"><path d="M0.09 0.78 C12.18 0.31, 23.27 -0.37, 39.77 -0.52 M-0.1 -0.65 C9.41 -1.06, 18.77 -0.73, 40.93 0.16 M42.77 1.97 C42.74 12.4, 41.39 23.9, 40.48 43.27 M40.82 -0.2 C40.65 14.99, 41.21 28.87, 40.28 44.25 M43.13 42.33 C32.09 44.27, 22.77 42.95, -1.93 44.72 M41.69 43.66 C30.96 44.37, 21.87 43.7, 0.01 44.46 M-0.43 45.63 C-1.45 26.67, 0.39 9.32, -0.41 0.06 M-0.54 43.78 C-0.67 28.4, 0.51 11.89, -0.41 -0.03" stroke="#000000" stroke-width="2" fill="none"/></g><g stroke-linecap="round" transform="translate(810.5236163806171 575.391859862602) rotate(0 20.6364205464313 21.850327637397868)"><path d="M0.78 0.45 C9.98 -0.21, 18.86 -1.52, 40.75 -1.36 M-0.65 -0.17 C14.21 -0.34, 29.44 -0.3, 41.43 -0.27 M43.24 1.27 C41.38 15.04, 40.96 29.44, 40.85 44.27 M41.07 -0.37 C41.65 10.79, 41.17 20.21, 41.82 42.99 M39.91 43.96 C26.81 44.48, 10.39 42.16, 1.02 42.39 M41.24 43.06 C27.31 43.82, 11.75 43.88, 0.76 44.59 M1.93 42.67 C0.14 27.21, -0.22 8.7, 0.06 1.27 M0.08 43.43 C0.39 27.54, -0.24 9.14, -0.03 -0.09" stroke="#000000" stroke-width="2" fill="none"/></g><g stroke-linecap="round" transform="translate(810.5236163806171 535.391859862602) rotate(0 20.6364205464313 21.850327637397868)"><path d="M0.45 0.43 C13.39 -0.41, 25.66 -0.68, 39.92 1.22 M-0.17 -0.69 C15.76 -0.09, 31.94 0.43, 41 0.46 M42.54 0.48 C41.52 9.44, 40.8 18.34, 41.84 42.55 M40.9 0.64 C41.27 10.63, 40.09 21.48, 40.56 44.36 M41.54 44.34 C29.91 42.74, 15.84 44.44, -1.31 44.91 M40.63 44.62 C31.24 43.93, 21.33 44.45, 0.89 44.66 M-1.03 43.66 C0.9 32.02, -0.32 21.21, 1.27 1.81 M-0.28 44.29 C1.14 28.61, -0.18 13.59, -0.09 -0.97" stroke="#000000" stroke-width="2" fill="none"/></g><g transform="translate(870.5236163806171 500.191859862602) rotate(0 5.5615234375 12)"><text x="0" y="0" font-family="Helvetica, Segoe UI Emoji" font-size="20px" fill="#000000" text-anchor="start" style="white-space: pre;" direction="ltr" dominant-baseline="text-before-edge">5</text></g><g transform="translate(870.5236163806171 540.191859862602) rotate(0 5.5615234375 12)"><text x="0" y="0" font-family="Helvetica, Segoe UI Emoji" font-size="20px" fill="#000000" text-anchor="start" style="white-space: pre;" direction="ltr" dominant-baseline="text-before-edge">4</text></g><g transform="translate(870.5236163806171 580.191859862602) rotate(0 5.5615234375 12)"><text x="0" y="0" font-family="Helvetica, Segoe UI Emoji" font-size="20px" fill="#000000" text-anchor="start" style="white-space: pre;" direction="ltr" dominant-baseline="text-before-edge">3</text></g><g stroke-linecap="round" transform="translate(810.5236163806171 375.391859862602) rotate(0 20.6364205464313 21.850327637397868)"><path d="M-1.5 -0.52 C11.9 1.27, 28.34 -0.15, 39.97 -0.35 M-0.34 0.16 C9.28 0.61, 18.25 0.89, 42.26 0.63 M40.48 -0.43 C41.82 13, 40.04 27.4, 40.87 42.96 M40.28 0.54 C40.65 16.55, 41.2 32.72, 40.59 43.83 M39.34 44.72 C26.26 44.77, 12.72 44.4, -0.07 42.41 M41.28 44.46 C26 44.76, 8.54 43.58, 0.97 43.19 M-0.41 43.76 C1.09 32.5, 0.71 16.59, 0.16 -0.55 M-0.41 43.67 C-0.49 27.07, -0.65 13.32, 0.91 -0.28" stroke="#000000" stroke-width="2" fill="none"/></g><g stroke-linecap="round" transform="translate(810.5236163806171 455.391859862602) rotate(0 20.6364205464313 21.850327637397868)"><path d="M-0.52 -1.36 C13.21 2.13, 23.79 -0.99, 40.92 -1.37 M0.16 -0.27 C11.25 -0.71, 22.32 1.12, 41.91 0.24 M40.85 0.57 C40.14 11.72, 40.38 25.46, 40.53 44.97 M41.82 -0.71 C42 13.8, 42.28 27.22, 41.4 44.02 M42.29 42.39 C29.29 42.14, 15.72 43.23, -1.29 45.53 M42.03 44.59 C30.09 43.28, 16.77 44.67, -0.51 43.68 M0.06 44.97 C1.9 29.71, -0.99 14.11, -0.55 1.17 M-0.03 43.61 C-0.94 26.37, 0.96 10.46, -0.28 -0.66" stroke="#000000" stroke-width="2" fill="none"/></g><g stroke-linecap="round" transform="translate(810.5236163806171 415.391859862602) rotate(0 20.6364205464313 21.850327637397868)"><path d="M-1.36 1.22 C13.68 -0.1, 22.42 -0.24, 39.9 -0.77 M-0.27 0.46 C10.07 0.68, 22.83 0.57, 41.51 -0.04 M41.84 -1.15 C39.89 12.34, 40.69 25.75, 42.55 44.09 M40.56 0.66 C40.69 14.77, 40.16 27.8, 41.59 43.9 M39.96 44.91 C29.13 44.75, 19.26 42.62, 1.83 43.58 M42.16 44.66 C27.48 43.8, 15.48 43.5, -0.02 44.1 M1.27 45.51 C0.97 30.4, 0.25 18.7, 1.17 1.81 M-0.09 42.74 C-0.08 31.75, 1.09 17.64, -0.66 0.44" stroke="#000000" stroke-width="2" fill="none"/></g><g transform="translate(870.5236163806171 380.191859862602) rotate(0 5.5615234375 12)"><text x="0" y="0" font-family="Helvetica, Segoe UI Emoji" font-size="20px" fill="#000000" text-anchor="start" style="white-space: pre;" direction="ltr" dominant-baseline="text-before-edge">8</text></g><g transform="translate(870.5236163806171 420.191859862602) rotate(0 5.5615234375 12)"><text x="0" y="0" font-family="Helvetica, Segoe UI Emoji" font-size="20px" fill="#000000" text-anchor="start" style="white-space: pre;" direction="ltr" dominant-baseline="text-before-edge">7</text></g><g transform="translate(870.5236163806171 460.191859862602) rotate(0 5.5615234375 12)"><text x="0" y="0" font-family="Helvetica, Segoe UI Emoji" font-size="20px" fill="#000000" text-anchor="start" style="white-space: pre;" direction="ltr" dominant-baseline="text-before-edge">6</text></g><g stroke-linecap="round" transform="translate(810.5236163806171 255.3918598626019) rotate(0 20.6364205464313 21.850327637397868)"><path d="M-1.3 -0.35 C13.52 -0.73, 29.09 -0.64, 41.59 -0.54 M0.98 0.63 C14.52 -0.35, 28.59 -0.71, 41.06 0.28 M40.87 -0.74 C42.28 10.98, 41.34 19.22, 42.36 42.28 M40.59 0.13 C41.52 16.18, 40.86 31.01, 41.78 43.04 M41.2 42.41 C28.22 43.76, 11.99 43.89, 1.52 45.47 M42.24 43.19 C24.92 44.02, 8.4 43.41, 0.03 44.33 M0.16 43.15 C0.98 28.44, -0.29 8.73, -0.06 -0.19 M0.91 43.42 C-0.55 35.25, -0.62 25.92, -0.57 -0.02" stroke="#000000" stroke-width="2" fill="none"/></g><g stroke-linecap="round" transform="translate(810.5236163806171 335.3918598626019) rotate(0 20.6364205464313 21.850327637397868)"><path d="M-0.35 -1.37 C15.37 -0.44, 31.6 0.59, 40.73 0.92 M0.63 0.24 C8.82 -0.38, 17.32 -0.62, 41.56 -0.57 M40.53 1.27 C41.46 10.8, 39.1 22.02, 39.85 45.02 M41.4 0.32 C41.88 12.1, 40.71 25.4, 40.62 44.31 M39.98 45.53 C31.18 44.17, 21.34 45.21, 1.77 45.62 M40.76 43.68 C31.03 43.9, 19.77 44.13, 0.63 44.61 M-0.55 44.87 C2.05 28.56, -0.59 13.56, -0.19 -1.93 M-0.28 43.04 C0.03 30.98, -0.41 19.16, -0.02 -0.77" stroke="#000000" stroke-width="2" fill="none"/></g><g stroke-linecap="round" transform="translate(810.5236163806171 295.3918598626019) rotate(0 20.6364205464313 21.850327637397868)"><path d="M-1.37 -0.77 C11.25 -0.61, 24.23 -0.47, 42.19 -1.71 M0.24 -0.04 C15.49 -0.66, 30.71 0.02, 40.7 -0.61 M42.55 0.39 C41.52 9.16, 42.27 20.86, 42.59 43.4 M41.59 0.2 C40.63 16.21, 41.48 33.69, 41.88 43.12 M43.1 43.58 C27.65 43.46, 14.58 45.21, 1.92 42.86 M41.25 44.1 C29.58 43.28, 18.32 44.12, 0.91 44.14 M1.17 45.51 C-0.13 32.12, -0.09 22, -1.93 -0.52 M-0.66 44.14 C-1.13 26.47, -0.97 9.22, -0.77 -0.56" stroke="#000000" stroke-width="2" fill="none"/></g><g transform="translate(870.5236163806171 260.1918598626021) rotate(0 10.380859375 12)"><text x="0" y="0" font-family="Helvetica, Segoe UI Emoji" font-size="20px" fill="#000000" text-anchor="start" style="white-space: pre;" direction="ltr" dominant-baseline="text-before-edge">11</text></g><g transform="translate(870.5236163806171 300.1918598626021) rotate(0 11.123046875 12)"><text x="0" y="0" font-family="Helvetica, Segoe UI Emoji" font-size="20px" fill="#000000" text-anchor="start" style="white-space: pre;" direction="ltr" dominant-baseline="text-before-edge">10</text></g><g transform="translate(870.5236163806171 340.1918598626021) rotate(0 5.5615234375 12)"><text x="0" y="0" font-family="Helvetica, Segoe UI Emoji" font-size="20px" fill="#000000" text-anchor="start" style="white-space: pre;" direction="ltr" dominant-baseline="text-before-edge">9</text></g><g stroke-linecap="round" transform="translate(810.5236163806171 215.3918598626019) rotate(0 20.6364205464313 21.850327637397868)"><path d="M0.32 -0.54 C11.71 -1.57, 23.07 2.11, 42.54 0.48 M-0.21 0.28 C11.64 -0.44, 23.98 -0.04, 40.9 0.64 M42.36 -1.42 C42.66 13.65, 43.21 26.54, 41.54 44.34 M41.78 -0.66 C41.73 13.39, 41.54 27.9, 40.63 44.62 M42.8 45.47 C31.05 42.86, 16.56 45.64, -1.03 43.66 M41.3 44.33 C28.13 44.06, 12.63 43.7, -0.28 44.29 M-0.06 43.51 C-1.91 26.11, 1.91 11.37, -0.55 -1.33 M-0.57 43.68 C-0.44 28.12, 1.29 13.36, -0.02 -0.79" stroke="#000000" stroke-width="2" fill="none"/></g><g stroke-linecap="round" transform="translate(810.5236163806171 175.3918598626019) rotate(0 20.6364205464313 21.850327637397868)"><path d="M-0.54 0.92 C9.22 1.43, 23.81 1.2, 41.75 -0.08 M0.28 -0.57 C11.9 -0.36, 24.81 -0.28, 41.91 0.19 M39.85 1.32 C40.54 15.7, 39.47 27.94, 41.91 44.09 M40.62 0.61 C40.27 12.04, 40.81 22.59, 42.19 43.64 M43.05 45.62 C27.05 43.58, 16.45 42.99, -0.04 44.51 M41.91 44.61 C30.17 43.17, 18.26 43.44, 0.58 44.61 M-0.19 41.77 C-0.34 32.69, 2 17.36, -1.33 0.87 M-0.02 42.93 C-0.56 34.78, -0.3 23.89, -0.79 0.85" stroke="#000000" stroke-width="2" fill="none"/></g><g transform="translate(870.5236163806171 180.1918598626021) rotate(0 11.123046875 12)"><text x="0" y="0" font-family="Helvetica, Segoe UI Emoji" font-size="20px" fill="#000000" text-anchor="start" style="white-space: pre;" direction="ltr" dominant-baseline="text-before-edge">13</text></g><g transform="translate(870.5236163806171 220.1918598626021) rotate(0 11.123046875 12)"><text x="0" y="0" font-family="Helvetica, Segoe UI Emoji" font-size="20px" fill="#000000" text-anchor="start" style="white-space: pre;" direction="ltr" dominant-baseline="text-before-edge">12</text></g><g stroke-linecap="round" transform="translate(810.5236163806171 15.391859862601905) rotate(0 20.6364205464313 21.850327637397868)"><path d="M1.49 1.97 C12.53 0.83, 22.44 0.41, 40.48 -0.43 M-0.45 -0.2 C13.18 0.89, 27.3 0.42, 40.28 0.54 M43.13 -1.37 C41.82 10.64, 41.95 19.33, 39.34 44.72 M41.69 -0.04 C40.89 11.16, 41.48 20.72, 41.28 44.46 M40.84 45.63 C24.2 43.49, 10 43.12, -0.41 43.76 M40.73 43.78 C26 44.47, 12.18 43.83, -0.41 43.67 M1.89 45.52 C-0.13 29.67, 1.3 16.82, 0 -1.15 M0.97 43.4 C0.32 29.88, 1.18 17.95, -0.42 0.09" stroke="#000000" stroke-width="2" fill="none"/></g><g stroke-linecap="round" transform="translate(810.5236163806171 55.391859862601905) rotate(0 20.6364205464313 21.850327637397868)"><path d="M1.97 1.27 C14.76 -0.39, 28.62 -1.11, 40.85 0.57 M-0.2 -0.37 C10.65 0.38, 20.18 -0.8, 41.82 -0.71 M39.91 0.26 C41.84 16.38, 40.52 30.05, 42.29 42.39 M41.24 -0.64 C41.93 15.7, 41.26 31.52, 42.03 44.59 M43.2 42.67 C24.9 44.42, 8.2 43.2, 0.06 44.97 M41.36 43.43 C25.73 44.39, 8.98 43.07, -0.03 43.61 M1.82 43.15 C-1.22 35.68, -1.36 25.92, -1.15 -0.03 M-0.3 43.68 C-0.54 34.79, 0.56 23.76, 0.09 -0.18" stroke="#000000" stroke-width="2" fill="none"/></g><g transform="translate(870.5236163806171 20.191859862602087) rotate(0 22.24609375 12)"><text x="0" y="0" font-family="Helvetica, Segoe UI Emoji" font-size="20px" fill="#000000" text-anchor="start" style="white-space: pre;" direction="ltr" dominant-baseline="text-before-edge">255u</text></g><g transform="translate(870.5236163806171 60.19185986260209) rotate(0 22.24609375 12)"><text x="0" y="0" font-family="Helvetica, Segoe UI Emoji" font-size="20px" fill="#000000" text-anchor="start" style="white-space: pre;" direction="ltr" dominant-baseline="text-before-edge">254u</text></g><g stroke-linecap="round"><g transform="translate(810.5236163806171 175.02918489353988) rotate(0 0 -40)"><path d="M0.67 -0.11 C0.22 -13.93, 0.3 -67.93, 0.09 -81.12" stroke="#000000" stroke-width="1.5" fill="none" stroke-dasharray="8 9"/></g></g><mask/><g stroke-linecap="round"><g transform="translate(850.5236163806171 175.02918489353988) rotate(0 0 -40)"><path d="M-0.11 0.09 C-0.59 -13.46, -1.27 -66.98, -1.12 -80.6" stroke="#000000" stroke-width="1.5" fill="none" stroke-dasharray="8 9"/></g></g><mask/><g stroke-linecap="round"><g transform="translate(890.5236163806171 155.02918489353988) rotate(0 0 -30)"><path d="M0.09 -1.12 C-0.13 -10.96, -0.32 -49.11, -0.6 -59.2" stroke="#000000" stroke-width="1.5" fill="none" stroke-dasharray="1.5 7"/></g></g><mask/><g stroke-linecap="round"><g transform="translate(649.4091796875 715.391859862602) rotate(0 80 20)"><path d="M-1.12 -0.6 C-0.96 2.45, -25.78 11.83, 0.8 18.39 C27.37 24.95, 131.87 35.31, 158.31 38.74 M3.47 -3.39 C3.33 -0.01, -27.8 13.72, -1.01 21.15 C25.78 28.57, 137.43 37.85, 164.22 41.16" stroke="#000000" stroke-width="1" fill="none"/></g><g transform="translate(649.4091796875 715.391859862602) rotate(0 80 20)"><path d="M134.27 49.61 C141.43 44.12, 150.54 43.56, 162.74 43.71 M136.21 47.05 C145.71 46.41, 155.54 43.01, 164.48 41.8" stroke="#000000" stroke-width="1" fill="none"/></g><g transform="translate(649.4091796875 715.391859862602) rotate(0 80 20)"><path d="M136.37 29.2 C142.93 29.73, 151.41 35.22, 162.74 43.71 M138.32 26.64 C147.21 32.47, 156.37 35.59, 164.48 41.8" stroke="#000000" stroke-width="1" fill="none"/></g></g><mask/><g stroke-linecap="round"><g transform="translate(590.8281721356511 613.6563245649102) rotate(0 109.58591393217444 28.17183771754486)"><path d="M-0.6 0.8 C15.65 6.76, 61.14 25.49, 97.56 34.65 C133.98 43.81, 197.81 51.86, 217.91 55.77 M4.27 -1.24 C21.43 5.15, 67.9 27.39, 103.09 37.36 C138.28 47.33, 196.24 55.96, 215.42 58.57" stroke="#fd7e14" stroke-width="1" fill="none"/></g><g transform="translate(590.8281721356511 613.6563245649102) rotate(0 109.58591393217444 28.17183771754486)"><path d="M187.16 62.3 C192.56 61.1, 203.07 59.59, 217.96 59.34 M184.61 65.92 C195.15 64.23, 203.39 60.73, 216.05 58.97" stroke="#fd7e14" stroke-width="1" fill="none"/></g><g transform="translate(590.8281721356511 613.6563245649102) rotate(0 109.58591393217444 28.17183771754486)"><path d="M190.16 42 C194.49 46.94, 204.09 51.58, 217.96 59.34 M187.61 45.62 C196.8 50.39, 204.09 53.31, 216.05 58.97" stroke="#fd7e14" stroke-width="1" fill="none"/></g></g><mask/><g stroke-linecap="round"><g transform="translate(1029.4091796875 675.391859862602) rotate(0 -68.5 19.75)"><path d="M0.8 -1.61 C-9.3 1.61, -38.63 12.06, -61.69 18.74 C-84.76 25.42, -125.32 34.91, -137.57 38.46 M-2.22 3.69 C-11.3 7.33, -33.3 15.46, -56.21 21.68 C-79.12 27.9, -126.78 37.47, -139.69 41.01" stroke="#40c057" stroke-width="1" fill="none"/></g><g transform="translate(1029.4091796875 675.391859862602) rotate(0 -68.5 19.75)"><path d="M-116.9 22.15 C-123 28.17, -129.2 35.81, -138.92 41.67 M-113.28 24.26 C-117.6 26.15, -124.25 31.46, -139.3 40.33" stroke="#40c057" stroke-width="1" fill="none"/></g><g transform="translate(1029.4091796875 675.391859862602) rotate(0 -68.5 19.75)"><path d="M-112.2 42.12 C-119.44 42.98, -126.87 45.42, -138.92 41.67 M-108.58 44.24 C-114.07 42.04, -121.66 43.33, -139.3 40.33" stroke="#40c057" stroke-width="1" fill="none"/></g></g><mask/><g stroke-linecap="round"><g transform="translate(1016.7425130208334 732.7251931959354) rotate(0 -43.25 11)"><path d="M-1.61 -1.69 C-16.14 1.74, -73.44 17.18, -87.76 21.43 M2.71 3.56 C-12.25 7.36, -75.25 22.14, -90.69 24.75" stroke="#000000" stroke-width="1" fill="none"/></g><g transform="translate(1016.7425130208334 732.7251931959354) rotate(0 -43.25 11)"><path d="M-67.59 7.17 C-73 11.59, -76.75 18.24, -90.02 20.8 M-65.47 10.84 C-75.8 15.17, -82.85 20.89, -91.37 22.82" stroke="#000000" stroke-width="1" fill="none"/></g><g transform="translate(1016.7425130208334 732.7251931959354) rotate(0 -43.25 11)"><path d="M-63.42 27.27 C-70.11 26.04, -75.02 27.09, -90.02 20.8 M-61.3 30.93 C-72.83 28.19, -81.35 26.79, -91.37 22.82" stroke="#000000" stroke-width="1" fill="none"/></g></g><mask/><g stroke-linecap="round"><g transform="translate(1215.50390625 453.5195312499999) rotate(0 -27.04736328125 129.60283097296775)"><path d="M-1.69 -1.26 C-2.52 9.25, 4.27 17.96, -4.17 61.46 C-12.6 104.96, -44.07 227.25, -52.31 259.75" stroke="#40c057" stroke-width="1.5" fill="none" stroke-dasharray="1.5 7"/></g><g transform="translate(1215.50390625 453.5195312499999) rotate(0 -27.04736328125 129.60283097296775)"><path d="M-57.11 229.08 C-56.15 242.28, -52.91 250.2, -56.26 261.93" stroke="#40c057" stroke-width="1.5" fill="none" stroke-dasharray="1.5 5"/></g><g transform="translate(1215.50390625 453.5195312499999) rotate(0 -27.04736328125 129.60283097296775)"><path d="M-37.23 234.14 C-42.74 245.44, -46.03 251.7, -56.26 261.93" stroke="#40c057" stroke-width="1.5" fill="none" stroke-dasharray="1.5 5"/></g></g><mask/><g stroke-linecap="round" transform="translate(10 409.9999999999999) rotate(0 131 41)"><path d="M-0.59 1.65 L261.29 -0.73 L263.93 80.88 L0.6 80.49" stroke="none" stroke-width="0" fill="#868e96"/><path d="M-0.32 -0.59 C64.55 1.25, 127.34 -0.63, 262.87 -1.13 M-0.54 0.1 C96.11 -1.78, 191.44 -2.71, 262.41 -0.52 M261.93 -1.29 C263.35 29.45, 262 59.15, 263.52 83.77 M262.97 -0.51 C261.63 32.86, 261.45 64.7, 262.03 82.63 M262.13 81.56 C160.58 82.32, 57.21 80.22, -0.05 81.85 M262.72 81.78 C208.17 84.32, 154.81 83.97, -0.46 81.99 M-0.59 81.97 C-1.11 65.38, 1.09 44.53, 0.17 -0.35 M0.58 82.06 C0.96 64.66, 0.52 46.59, -0.2 0.85" stroke="#000" stroke-width="1" fill="none"/></g><g transform="translate(15 426.9999999999999) rotate(0 118.486328125 24)"><text x="0" y="0" font-family="Helvetica, Segoe UI Emoji" font-size="20px" fill="#000" text-anchor="start" style="white-space: pre;" direction="ltr" dominant-baseline="text-before-edge">bufferSize = 8</text><text x="0" y="24" font-family="Helvetica, Segoe UI Emoji" font-size="20px" fill="#000" text-anchor="start" style="white-space: pre;" direction="ltr" dominant-baseline="text-before-edge">indexMask = bufferSize - 1</text></g><g stroke-linecap="round" transform="translate(384 242.66666666666663) rotate(0 88.5 53)"><path d="M-0.71 -0.73 L178.93 -1.12 L177.6 104.49 L-0.42 105.44" stroke="none" stroke-width="0" fill="#fd7e14"/><path d="M1.27 0.39 C45.45 -1.32, 91.33 -0.77, 178.32 -0.3 M0.32 0.2 C69.22 -1.2, 139.63 -0.89, 177.61 -0.58 M178.83 -0.12 C177.44 36.26, 178.48 74.25, 178.92 105.16 M176.98 0.4 C177.82 29.31, 178.05 59.67, 177.91 106.44 M178.17 107.81 C133.33 104.69, 89.8 105.33, -1.93 105.48 M176.34 106.44 C106.47 105.51, 36.84 105.49, -0.77 105.44 M-1.57 107.69 C0.95 63.05, 0.49 21.42, -1.73 -1.98 M0.15 106.16 C-0.91 69.36, -0.82 34.39, -0.29 0.82" stroke="#000000" stroke-width="1" fill="none"/></g><g transform="translate(389 271.66666666666663) rotate(0 43.9111328125 24)"><text x="0" y="0" font-family="Helvetica, Segoe UI Emoji" font-size="20px" fill="#000000" text-anchor="start" style="white-space: pre;" direction="ltr" dominant-baseline="text-before-edge">producer:</text><text x="0" y="24" font-family="Helvetica, Segoe UI Emoji" font-size="20px" fill="#000000" text-anchor="start" style="white-space: pre;" direction="ltr" dominant-baseline="text-before-edge">publish(0)</text></g><g stroke-linecap="round" transform="translate(975.50390625 373.5195312499999) rotate(0 161 41)"><path d="M1.93 -1.12 L322.6 -1.51 L321.58 81.44 L-1.48 82.02" stroke="none" stroke-width="0" fill="#40c057"/><path d="M0.23 -1.38 C85.42 -1.42, 170.24 -0.64, 323.3 -0.95 M-0.24 -0.67 C101.18 -0.9, 202.06 -0.85, 322.29 -0.03 M322.48 0.02 C324.27 21.09, 324.67 37.79, 321.57 83.93 M321.8 -0.21 C322.01 21.02, 322.89 41.21, 321.46 82.08 M321.93 81.43 C234.23 83.9, 145.19 83.68, 1.31 83.27 M321.49 82 C233.93 82.97, 146.12 82.59, 0.68 81.79 M0.63 81.17 C0.82 57.19, -1.09 31.11, 0.84 1.17 M-0.29 81.59 C-0.33 57.76, -0.42 32.65, -0.35 -0.37" stroke="#000" stroke-width="1" fill="none"/></g><g transform="translate(980.50390625 390.5195312499999) rotate(0 150.0927734375 24)"><text x="0" y="0" font-family="Helvetica, Segoe UI Emoji" font-size="20px" fill="#000" text-anchor="start" style="white-space: pre;" direction="ltr" dominant-baseline="text-before-edge">consumer:</text><text x="0" y="24" font-family="Helvetica, Segoe UI Emoji" font-size="20px" fill="#000" text-anchor="start" style="white-space: pre;" direction="ltr" dominant-baseline="text-before-edge">wait_until_published(nextToRead)</text></g><g stroke-linecap="round" transform="translate(55.50390625 693.5195312499999) rotate(0 150 150)"><path d="M98.74 8.69 C111.59 1.43, 128.64 1.02, 143.96 0.45 C159.27 -0.13, 175.94 1.01, 190.64 5.21 C205.33 9.41, 219.41 16.91, 232.13 25.63 C244.85 34.35, 257.31 45.42, 266.96 57.52 C276.62 69.62, 284.57 83.95, 290.05 98.23 C295.52 112.51, 298.95 127.82, 299.84 143.18 C300.72 158.54, 299.48 175.39, 295.36 190.38 C291.24 205.37, 283.71 220.09, 275.12 233.11 C266.54 246.13, 255.85 258.99, 243.85 268.51 C231.85 278.02, 217.79 284.82, 203.14 290.21 C188.5 295.6, 171.64 300.14, 155.96 300.84 C140.28 301.54, 123.82 298.79, 109.05 294.42 C94.27 290.06, 80.12 283.23, 67.31 274.68 C54.5 266.13, 41.72 255.05, 32.17 243.12 C22.62 231.19, 15.27 217.67, 10 203.09 C4.74 188.51, 1.3 171.27, 0.57 155.64 C-0.16 140, 1.45 123.92, 5.64 109.28 C9.83 94.65, 17.17 80.7, 25.7 67.81 C34.24 54.92, 43.61 42.15, 56.86 31.97 C70.12 21.79, 95.95 10.84, 105.24 6.73 C114.54 2.62, 111.72 4.77, 112.63 7.32 M128.17 1.44 C142.4 -3.06, 160.13 -0.28, 175.34 2.28 C190.54 4.84, 205.39 9.59, 219.41 16.79 C233.43 23.99, 248.56 34.4, 259.47 45.47 C270.38 56.54, 278.13 69.16, 284.86 83.2 C291.59 97.25, 297.8 114.23, 299.83 129.75 C301.87 145.27, 300.02 161.41, 297.07 176.33 C294.11 191.25, 289.52 205.54, 282.1 219.26 C274.69 232.98, 263.54 247.68, 252.61 258.63 C241.67 269.59, 230.1 278.28, 216.49 284.98 C202.88 291.67, 186.47 296.78, 170.95 298.8 C155.43 300.81, 138.67 299.61, 123.37 297.08 C108.07 294.56, 92.78 290.6, 79.14 283.64 C65.51 276.68, 52.31 266.75, 41.55 255.32 C30.79 243.89, 21.03 229.31, 14.58 215.07 C8.14 200.83, 4.85 185.28, 2.88 169.88 C0.91 154.48, 0.35 137.81, 2.75 122.67 C5.16 107.53, 10.31 92.47, 17.32 79.02 C24.32 65.58, 33.53 52.52, 44.8 42.01 C56.08 31.49, 70.67 22.72, 84.98 15.92 C99.3 9.12, 123.03 3.28, 130.71 1.21 C138.39 -0.87, 130.78 0.88, 131.06 3.46" stroke="#000000" stroke-width="1" fill="none"/></g><g stroke-linecap="round" transform="translate(115.50390625 753.5195312499999) rotate(0 90 90)"><path d="M118.42 4.97 C129.27 7.06, 141.13 15.25, 149.8 22.65 C158.47 30.06, 165.37 39.23, 170.46 49.4 C175.55 59.56, 179.44 72.12, 180.33 83.64 C181.22 95.16, 179.5 107.55, 175.77 118.52 C172.04 129.49, 165.76 140.58, 157.96 149.44 C150.17 158.31, 139.38 166.61, 129 171.71 C118.61 176.82, 106.99 179.36, 95.64 180.06 C84.3 180.76, 71.61 179.52, 60.91 175.93 C50.2 172.33, 40.09 166.25, 31.41 158.5 C22.72 150.75, 13.82 139.98, 8.78 129.42 C3.74 118.87, 1.81 106.54, 1.15 95.19 C0.49 83.83, 1.3 72.11, 4.82 61.3 C8.33 50.49, 14.66 38.89, 22.25 30.31 C29.85 21.74, 39.9 14.78, 50.39 9.83 C60.88 4.89, 73.26 1.23, 85.21 0.62 C97.15 0.02, 115.42 4.67, 122.06 6.19 C128.7 7.72, 125.34 8.39, 125.04 9.76 M70.17 1.51 C80.81 -1.82, 96.7 0.9, 108.15 2.93 C119.6 4.96, 129.41 7.83, 138.89 13.71 C148.36 19.59, 158.48 28.69, 165.02 38.2 C171.55 47.71, 175.87 59.53, 178.1 70.76 C180.33 81.99, 180.68 93.92, 178.4 105.59 C176.13 117.25, 170.81 130.97, 164.45 140.76 C158.09 150.55, 149.79 157.9, 140.25 164.34 C130.71 170.77, 118.29 177.13, 107.2 179.37 C96.12 181.62, 84.8 180.19, 73.74 177.8 C62.68 175.41, 50.73 171.46, 40.83 165.03 C30.93 158.6, 20.72 148.51, 14.34 139.21 C7.95 129.92, 4.64 120.21, 2.52 109.25 C0.41 98.3, -0.41 84.99, 1.66 73.5 C3.73 62, 8.77 49.96, 14.94 40.27 C21.11 30.57, 29.03 21.81, 38.69 15.34 C48.35 8.87, 67.14 3.49, 72.89 1.46 C78.65 -0.58, 73.22 1.35, 73.22 3.13" stroke="#000000" stroke-width="1" fill="none"/></g><g stroke-linecap="round"><g transform="translate(55.50390625 853.5195312499999) rotate(0 30 0)"><path d="M-0.85 0.79 C9.31 0.87, 49.81 1.22, 59.82 1.12 M0.9 0.16 C11 -0.13, 48.65 -0.65, 58.77 -0.42" stroke="#000000" stroke-width="1" fill="none"/></g></g><mask/><g stroke-linecap="round"><g transform="translate(295.50390625 833.5195312499999) rotate(0 30 0)"><path d="M0.79 -0.18 C10.87 -0.18, 51.22 -0.91, 61.12 -0.82 M-0.25 -1.32 C9.71 -1.11, 50.8 0.36, 60.75 0.29" stroke="#000000" stroke-width="1" fill="none"/></g></g><mask/><g stroke-linecap="round"><g transform="translate(195.50390625 753.5195312499999) rotate(0 0 -30)"><path d="M-0.18 1.12 C-0.18 -8.99, -0.91 -49.7, -0.82 -59.84 M-1.74 0.66 C-1.28 -9.3, 1.2 -48.39, 1.46 -58.22" stroke="#000000" stroke-width="1" fill="none"/></g></g><mask/><g stroke-linecap="round"><g transform="translate(215.50390625 993.5195312499999) rotate(0 0 -30)"><path d="M1.12 -0.82 C1.01 -10.73, 0.3 -49.69, 0.16 -59.62 M0.24 1.36 C-0.08 -8.9, -0.6 -51.43, -0.71 -61.54" stroke="#000000" stroke-width="1" fill="none"/></g></g><mask/><g stroke-linecap="round"><g transform="translate(275.50390625 893.5195312499999) rotate(0 20 30)"><path d="M-0.82 0.16 C5.94 10.01, 33.65 50.46, 40.38 60.24 M0.95 -0.81 C7.6 9.18, 33.36 48.18, 39.63 58.24" stroke="#000000" stroke-width="1" fill="none"/></g></g><mask/><g stroke-linecap="round"><g transform="translate(135.50390625 793.5195312499999) rotate(0 -20 -30)"><path d="M0.16 0.38 C-6.66 -9.55, -32.88 -50.45, -39.76 -60.41 M-1.22 -0.46 C-8.27 -10.15, -34.31 -48.93, -40.59 -59.09" stroke="#000000" stroke-width="1" fill="none"/></g></g><mask/><g stroke-linecap="round"><g transform="translate(255.50390625 773.5195312499999) rotate(0 30 -20)"><path d="M0.38 0.24 C10.45 -6.65, 49.55 -34.32, 59.59 -41.16 M-0.88 -0.69 C9.07 -7.48, 48.25 -33.69, 58.43 -40.23" stroke="#000000" stroke-width="1" fill="none"/></g></g><mask/><g stroke-linecap="round"><g transform="translate(155.50390625 913.5195312499999) rotate(0 -30 20)"><path d="M0.24 -0.41 C-9.98 6.3, -50.99 33.76, -61.16 40.61 M-1.1 -1.67 C-10.98 4.65, -49.52 32.07, -59.05 38.81" stroke="#000000" stroke-width="1" fill="none"/></g></g><mask/><g transform="translate(255.50390625 673.5195312499999) rotate(0 5.5615234375 12)"><text x="0" y="0" font-family="Helvetica, Segoe UI Emoji" font-size="20px" fill="#000000" text-anchor="start" style="white-space: pre;" direction="ltr" dominant-baseline="text-before-edge">0</text></g><g transform="translate(366.73558408186364 767.7734642523725) rotate(0 5.5615234375 12)"><text x="0" y="0" font-family="Helvetica, Segoe UI Emoji" font-size="20px" fill="#000000" text-anchor="start" style="white-space: pre;" direction="ltr" dominant-baseline="text-before-edge">1</text></g><g transform="translate(361.681148245249 890.3435332902767) rotate(0 5.5615234375 12)"><text x="0" y="0" font-family="Helvetica, Segoe UI Emoji" font-size="20px" fill="#000000" text-anchor="start" style="white-space: pre;" direction="ltr" dominant-baseline="text-before-edge">2</text></g><g transform="translate(275.50390625 993.5195312499999) rotate(0 5.5615234375 12)"><text x="0" y="0" font-family="Helvetica, Segoe UI Emoji" font-size="20px" fill="#000000" text-anchor="start" style="white-space: pre;" direction="ltr" dominant-baseline="text-before-edge">3</text></g><g transform="translate(135.50390625 993.5195312499999) rotate(0 5.5615234375 12)"><text x="0" y="0" font-family="Helvetica, Segoe UI Emoji" font-size="20px" fill="#000000" text-anchor="start" style="white-space: pre;" direction="ltr" dominant-baseline="text-before-edge">4</text></g><g transform="translate(35.50390625 913.5195312499999) rotate(0 5.5615234375 12)"><text x="0" y="0" font-family="Helvetica, Segoe UI Emoji" font-size="20px" fill="#000000" text-anchor="start" style="white-space: pre;" direction="ltr" dominant-baseline="text-before-edge">5</text></g><g transform="translate(35.50390625 773.5195312499999) rotate(0 5.5615234375 12)"><text x="0" y="0" font-family="Helvetica, Segoe UI Emoji" font-size="20px" fill="#000000" text-anchor="start" style="white-space: pre;" direction="ltr" dominant-baseline="text-before-edge">6</text></g><g transform="translate(124.12266392436254 673.0027923158488) rotate(0 5.5615234375 12)"><text x="0" y="0" font-family="Helvetica, Segoe UI Emoji" font-size="20px" fill="#000000" text-anchor="start" style="white-space: pre;" direction="ltr" dominant-baseline="text-before-edge">7</text></g><g transform="translate(204.85896622270707 713.8267620349421) rotate(0 41.66666666666674 17.08333333333337)" stroke="none"><path fill="#fd7e14" d="M -4.29,-9.44 Q -4.29,-9.44 3.73,-9.29 11.75,-9.13 14.74,-3.81 17.73,1.50 15.89,7.72 14.05,13.94 12.15,18.72 10.24,23.49 10.72,25.75 11.20,28.01 11.01,29.55 10.81,31.08 10.26,32.53 9.70,33.98 8.82,35.25 7.93,36.53 6.76,37.55 5.60,38.57 4.22,39.29 2.85,40.01 1.34,40.37 -0.16,40.74 -1.71,40.73 -3.26,40.72 -4.77,40.35 -6.27,39.97 -7.64,39.24 -9.01,38.52 -10.17,37.48 -11.33,36.45 -12.20,35.17 -13.08,33.89 -13.62,32.44 -14.17,30.98 -14.35,29.44 -14.53,27.90 -12.29,22.53 -10.05,17.15 -6.91,13.97 -3.78,10.79 0.88,6.33 5.55,1.86 9.91,-0.85 14.27,-3.57 19.25,-6.18 24.23,-8.80 24.45,-9.09 24.66,-9.39 26.22,-10.02 27.78,-10.66 29.45,-10.90 31.11,-11.14 32.79,-10.98 34.47,-10.81 36.05,-10.25 37.64,-9.69 39.05,-8.77 40.46,-7.84 41.60,-6.61 42.75,-5.37 43.57,-3.90 44.38,-2.43 44.82,-0.80 45.26,0.81 45.30,2.50 45.34,4.18 44.98,5.82 44.61,7.47 43.86,8.98 43.12,10.48 42.03,11.77 40.94,13.06 39.58,14.04 38.21,15.03 36.70,21.12 35.19,27.21 33.29,31.23 31.38,35.26 31.35,36.05 31.32,36.85 30.49,38.32 29.67,39.80 28.52,41.03 27.37,42.26 25.96,43.19 24.55,44.11 22.95,44.67 21.36,45.23 19.68,45.39 18.00,45.55 16.33,45.30 14.66,45.05 13.10,44.42 11.54,43.78 10.17,42.78 8.81,41.79 7.72,40.50 6.64,39.21 5.89,37.69 5.15,36.18 4.79,34.53 4.42,32.88 4.47,31.20 4.51,29.51 4.96,27.88 5.40,26.25 11.25,21.56 17.09,16.87 20.57,14.25 24.04,11.64 29.38,7.62 34.72,3.61 39.74,1.22 44.77,-1.15 49.48,-2.88 54.19,-4.62 54.55,-4.80 54.92,-4.98 56.59,-5.23 58.27,-5.48 59.96,-5.32 61.65,-5.16 63.25,-4.60 64.85,-4.04 66.27,-3.11 67.69,-2.19 68.84,-0.95 70.00,0.28 70.83,1.76 71.65,3.24 72.10,4.88 72.55,6.51 72.59,8.21 72.64,9.90 72.27,11.56 71.91,13.21 71.16,14.73 70.41,16.25 69.32,17.55 68.23,18.85 66.86,19.85 65.49,20.85 63.93,21.49 62.36,22.13 61.24,27.18 60.13,32.23 56.34,37.65 52.54,43.07 52.37,44.04 52.20,45.01 51.24,46.37 50.28,47.74 49.02,48.83 47.76,49.92 46.28,50.68 44.80,51.45 43.18,51.83 41.55,52.21 39.89,52.20 38.22,52.18 36.60,51.77 34.99,51.35 33.52,50.57 32.05,49.78 30.81,48.66 29.58,47.54 28.64,46.16 27.71,44.78 27.13,43.22 26.55,41.65 26.37,40.00 26.18,38.34 26.40,36.69 26.61,35.03 27.22,33.48 27.83,31.93 34.21,27.86 40.60,23.79 45.50,21.30 50.40,18.81 56.04,16.25 61.67,13.68 66.89,12.30 72.10,10.92 76.11,9.77 80.11,8.61 82.34,8.36 84.57,8.10 86.77,8.57 88.97,9.04 90.90,10.18 92.83,11.33 94.30,13.03 95.77,14.73 96.61,16.81 97.46,18.90 97.59,21.14 97.73,23.38 97.14,25.55 96.55,27.72 95.31,29.58 94.06,31.45 92.28,32.82 90.50,34.19 88.37,34.93 86.25,35.66 84.00,35.67 81.76,35.69 79.62,34.98 77.49,34.28 75.69,32.93 73.90,31.58 72.62,29.73 71.35,27.88 70.74,25.72 70.12,23.56 70.23,21.32 70.33,19.07 71.15,16.98 71.97,14.89 73.41,13.17 74.86,11.44 76.78,10.27 78.69,9.10 80.88,8.61 83.07,8.11 85.31,8.34 87.54,8.57 89.59,9.50 91.63,10.43 93.27,11.96 94.92,13.50 95.98,15.47 97.04,17.45 97.42,19.67 97.80,21.88 97.45,24.10 97.10,26.32 96.06,28.31 95.02,30.30 93.40,31.86 91.78,33.41 89.75,34.37 87.71,35.32 87.72,35.32 87.72,35.32 85.04,36.05 82.37,36.78 77.35,37.82 72.32,38.85 67.74,40.92 63.16,42.99 57.68,44.00 52.20,45.01 51.24,46.37 50.28,47.73 49.02,48.83 47.77,49.92 46.28,50.68 44.80,51.45 43.18,51.83 41.55,52.21 39.89,52.20 38.22,52.18 36.60,51.77 34.99,51.36 33.52,50.57 32.05,49.78 30.81,48.66 29.58,47.54 28.64,46.16 27.71,44.78 27.13,43.22 26.55,41.65 26.37,40.00 26.18,38.34 26.40,36.69 26.61,35.03 27.22,33.48 27.83,31.93 27.77,31.80 27.71,31.66 30.24,27.55 32.78,23.44 36.14,18.16 39.49,12.89 41.72,8.83 43.94,4.78 49.43,-0.10 54.92,-4.98 56.59,-5.23 58.27,-5.48 59.96,-5.32 61.65,-5.16 63.25,-4.60 64.85,-4.04 66.27,-3.11 67.68,-2.19 68.84,-0.95 70.00,0.28 70.83,1.76 71.65,3.24 72.10,4.88 72.55,6.51 72.59,8.20 72.64,9.90 72.27,11.56 71.91,13.21 71.16,14.73 70.42,16.25 69.33,17.55 68.23,18.85 66.86,19.85 65.50,20.85 63.93,21.49 62.36,22.13 60.92,22.54 59.48,22.94 55.26,24.34 51.05,25.74 46.41,29.34 41.78,32.94 36.55,34.89 31.32,36.85 30.50,38.32 29.67,39.80 28.52,41.03 27.37,42.26 25.96,43.19 24.55,44.11 22.95,44.67 21.36,45.23 19.68,45.39 18.00,45.55 16.33,45.30 14.66,45.05 13.10,44.42 11.54,43.78 10.18,42.78 8.81,41.79 7.73,40.50 6.64,39.21 5.89,37.69 5.15,36.18 4.79,34.53 4.42,32.88 4.47,31.20 4.51,29.51 4.96,27.88 5.40,26.26 6.27,23.73 7.13,21.20 9.49,16.17 11.85,11.13 14.39,5.67 16.92,0.22 20.79,-4.58 24.66,-9.39 26.22,-10.02 27.78,-10.66 29.45,-10.90 31.11,-11.14 32.79,-10.98 34.47,-10.81 36.05,-10.25 37.64,-9.69 39.05,-8.77 40.46,-7.84 41.60,-6.61 42.75,-5.38 43.57,-3.90 44.38,-2.43 44.82,-0.81 45.26,0.81 45.30,2.49 45.34,4.18 44.98,5.82 44.61,7.47 43.86,8.97 43.12,10.48 42.03,11.77 40.94,13.06 39.58,14.04 38.22,15.03 36.37,15.61 34.53,16.18 27.60,20.06 20.67,23.93 15.94,25.97 11.20,28.00 11.01,29.54 10.81,31.08 10.26,32.53 9.70,33.98 8.82,35.25 7.93,36.53 6.77,37.55 5.60,38.57 4.22,39.29 2.85,40.01 1.34,40.37 -0.16,40.74 -1.71,40.73 -3.26,40.72 -4.76,40.35 -6.27,39.97 -7.64,39.24 -9.01,38.52 -10.17,37.48 -11.32,36.45 -12.20,35.17 -13.08,33.89 -13.62,32.44 -14.17,30.99 -14.35,29.45 -14.53,27.90 -14.51,27.65 -14.49,27.40 -14.01,22.98 -13.53,18.56 -11.28,13.81 -9.02,9.07 -5.11,6.71 -1.21,4.34 1.54,6.89 4.29,9.44 3.10,9.82 1.90,10.20 0.66,10.28 -0.58,10.36 -1.81,10.14 -3.05,9.92 -4.19,9.41 -5.33,8.90 -6.32,8.13 -7.31,7.36 -8.08,6.38 -8.86,5.40 -9.37,4.26 -9.89,3.12 -10.12,1.89 -10.35,0.66 -10.28,-0.58 -10.21,-1.83 -9.84,-3.02 -9.47,-4.22 -8.83,-5.29 -8.19,-6.37 -7.31,-7.25 -6.43,-8.14 -5.36,-8.79 -4.29,-9.44 -4.29,-9.44 L -4.29,-9.44 Z"/></g><g stroke-linecap="round" transform="translate(10 10) rotate(0 270 71.5)"><path d="M0.3 1.81 L539.26 -1.09 L538.07 143.22 L-1.88 144.71" stroke="none" stroke-width="0" fill="#868e96"/><path d="M0.19 0.01 C127.8 0.84, 255.15 -0.21, 539.83 0.77 M-0.08 -0.08 C134.26 -0.62, 268.86 -0.7, 539.78 0.03 M539.9 -0.82 C540.78 38.78, 538.9 77.41, 541.89 144.82 M539.26 0 C538.48 38.92, 538.28 77.31, 540.97 142.7 M540.25 142.67 C379.01 144.69, 217.18 144.04, 0.33 143.47 M539.88 142.84 C374.71 143.68, 209.46 143.67, -0.14 142.85 M-1.51 142.58 C0.24 84.85, 0.82 30.46, 1.08 1.91 M0.7 143.27 C-1.95 102.57, -0.59 62.01, -0.36 -0.13" stroke="#000" stroke-width="1" fill="none"/></g><g transform="translate(15 45.5) rotate(0 259.1650390625 36)"><text x="0" y="0" font-family="Helvetica, Segoe UI Emoji" font-size="20px" fill="#000" text-anchor="start" style="white-space: pre;" direction="ltr" dominant-baseline="text-before-edge">3. Продюсер закончил запись слот и публикует его </text><text x="0" y="24" font-family="Helvetica, Segoe UI Emoji" font-size="20px" fill="#000" text-anchor="start" style="white-space: pre;" direction="ltr" dominant-baseline="text-before-edge">номер в своем барьере, сдвигая барьер вперед, чтобы </text><text x="0" y="48" font-family="Helvetica, Segoe UI Emoji" font-size="20px" fill="#000" text-anchor="start" style="white-space: pre;" direction="ltr" dominant-baseline="text-before-edge">сделать записанный слот доступным для потребителя.</text></g><g stroke-linecap="round"><g transform="translate(577.7753533016689 327.9860750611476) rotate(0 269.3333333333335 198.3333333333334)"><path d="M0.05 -0.96 C89.99 45.6, 452.94 214.38, 538.65 280.46 C624.36 346.53, 518.3 376.05, 514.31 395.48" stroke="#fd7e14" stroke-width="1.5" fill="none" stroke-dasharray="1.5 7"/></g><g transform="translate(577.7753533016689 327.9860750611476) rotate(0 269.3333333333335 198.3333333333334)"><path d="M526.78 368.95 C527.41 374.22, 520.46 380.78, 514.84 396.14" stroke="#fd7e14" stroke-width="1.5" fill="none" stroke-dasharray="1.5 5"/></g><g transform="translate(577.7753533016689 327.9860750611476) rotate(0 269.3333333333335 198.3333333333334)"><path d="M540.52 384.19 C537.99 386.12, 528.02 389.33, 514.84 396.14" stroke="#fd7e14" stroke-width="1.5" fill="none" stroke-dasharray="1.5 5"/></g></g><mask/></svg>