<svg version="1.1" xmlns="http://www.w3.org/2000/svg" viewBox="0 0 1372 1063.7006552747957" width="1372" height="1063.7006552747957">
  <!-- svg-source:excalidraw -->
  
  <defs>
    <style class="style-fonts">
      @font-face {
        font-family: "Virgil";
        src: url("https://excalidraw.com/Virgil.woff2");
      }
      @font-face {
        font-family: "Cascadia";
        src: url("https://excalidraw.com/Cascadia.woff2");
      }
    </style>
  </defs>
  <g transform="translate(602 301.20781250000005) rotate(0 55.01953125 12)"><text x="0" y="0" font-family="Helvetica, Segoe UI Emoji" font-size="20px" fill="#fd7e14" text-anchor="start" style="white-space: pre;" direction="ltr" dominant-baseline="text-before-edge">nextToClaim</text></g><g transform="translate(542 761.2078125) rotate(0 73.9111328125 12)"><text x="0" y="0" font-family="Helvetica, Segoe UI Emoji" font-size="20px" fill="#000000" text-anchor="start" style="white-space: pre;" direction="ltr" dominant-baseline="text-before-edge">consumerBarrier</text></g><g stroke-linecap="round" transform="translate(795.4503973557174 690.0000000000001) rotate(0 20.6364205464313 21.850327637397868)"><path d="M0 0 C0 0, 0 0, 0 0 M0 0 C0 0, 0 0, 0 0 M1.61 13.56 C4.77 9.53, 6.69 3.71, 10.66 0.73 M0.1 11.61 C3.58 7.93, 6.63 4.72, 10.16 0.25 M1.98 23.85 C5.41 17.97, 14.33 9.63, 22.42 0.48 M-0.14 24.48 C6.86 17.14, 12.93 9.27, 21.06 -0.31 M-1.53 36.91 C5.75 30.67, 12.43 21.9, 31.91 -1.38 M-0.45 37.85 C9.11 26.92, 17.09 15.71, 32.16 0.36 M2.69 47.02 C13.69 32.87, 24.02 19.85, 43.76 1.72 M2.13 45.65 C17.07 30.57, 30.96 13.62, 42.76 0.55 M12.29 47.25 C23.13 34.23, 33.75 24.88, 42.7 13.03 M13.1 44.92 C23.17 34.93, 33.49 24.1, 41.22 13.43 M22.09 47.04 C28.42 38.61, 33.97 33.6, 40.98 23.08 M24.51 46.73 C28.69 41.46, 33.04 34.3, 41.43 25.43 M35.43 46.44 C35.97 42.25, 39.49 40.39, 41.15 37.65 M34.31 46.31 C36.96 43.19, 38.18 40.96, 42.03 37.85" stroke="#40c057" stroke-width="1" fill="none"/><path d="M-0.48 -1.07 C13.37 1.29, 28.19 1.91, 41.46 -1.53 M-0.49 0.34 C8.67 0.24, 15.79 -0.2, 42.19 0.49 M41.92 0.45 C42.22 12.14, 39.39 23.11, 41.99 43.27 M40.84 -0.26 C41.99 9.52, 40.42 20.76, 40.35 44.32 M42.53 44.47 C34.25 44.32, 23.37 41.47, -1.46 42.19 M41.66 44.18 C28.45 43.03, 17.37 43.54, -0.27 44.69 M1.95 42.27 C-1.31 29.5, 0.54 19.32, 1.85 1.49 M-0.59 43.1 C0.58 35.31, 0.45 26.52, -0.43 0.15" stroke="#000000" stroke-width="2" fill="none"/></g><g stroke-linecap="round" transform="translate(795.4503973557174 650.0000000000001) rotate(0 20.6364205464313 21.850327637397868)"><path d="M0.54 1.5 L43 1.82 L42.49 44.07 L-0.03 41.74" stroke="none" stroke-width="0" fill="#228be6"/><path d="M-1.07 -0.77 C13.36 0.01, 26.05 0.29, 39.74 -1.96 M0.34 0.33 C12.5 -0.7, 24.25 1.12, 41.77 -0.48 M41.72 0.87 C42.15 11.97, 42.09 28.59, 40.84 42.42 M41.02 0.85 C40.63 11.04, 41.56 22.6, 41.89 42.86 M42.04 45.6 C29.11 43.9, 13.2 42.5, -1.51 43.6 M41.75 43.06 C28.21 44.32, 16.12 43.59, 0.99 43.66 M-1.43 42.28 C-1.64 32.08, 1.11 21.43, 1.49 -1.89 M-0.6 44.52 C0.79 28.88, 0.97 12.25, 0.15 0.81" stroke="#000000" stroke-width="2" fill="none"/></g><g transform="translate(855.4503973557174 614.8000000000001) rotate(0 5.5615234375 12)"><text x="0" y="0" font-family="Helvetica, Segoe UI Emoji" font-size="20px" fill="#000000" text-anchor="start" style="white-space: pre;" direction="ltr" dominant-baseline="text-before-edge">2</text></g><g transform="translate(855.4503973557174 654.8000000000001) rotate(0 5.5615234375 12)"><text x="0" y="0" font-family="Helvetica, Segoe UI Emoji" font-size="20px" fill="#000000" text-anchor="start" style="white-space: pre;" direction="ltr" dominant-baseline="text-before-edge">1</text></g><g stroke-linecap="round" transform="translate(795.4503973557174 770.0000000000001) rotate(0 20.6364205464313 21.850327637397868)"><path d="M-0.09 1.94 C10.36 -1.81, 18.39 -0.37, 41.65 -0.99 M39.46 -0.25 C43.25 15.59, 40.46 29.58, 40.17 44.35 M39.3 44.76 C28.69 43.5, 13.39 43.31, 0.62 42.84 M-1.44 44.01 C-2.22 32.95, -2.05 20.06, -1.36 1.26" stroke="#000000" stroke-width="2.5" fill="none" stroke-dasharray="1.5 8"/></g><g stroke-linecap="round" transform="translate(795.4503973557174 730.0000000000001) rotate(0 20.6364205464313 21.850327637397868)"><path d="M1.94 0.19 C9.26 -1.94, 21.49 0.4, 40.28 0.68 M41.02 1.83 C42.4 13.59, 41.79 27.98, 41.92 44.15 M42.34 44.42 C26.66 42.01, 12.31 43.91, -0.86 43.19 M0.31 41.85 C1.58 25.18, 0.67 8.65, 1.26 0.77" stroke="#000000" stroke-width="2.5" fill="none" stroke-dasharray="1.5 8"/></g><g transform="translate(855.4503973557174 734.8000000000001) rotate(0 22.24609375 12)"><text x="0" y="0" font-family="Helvetica, Segoe UI Emoji" font-size="20px" fill="#000000" text-anchor="start" style="white-space: pre;" direction="ltr" dominant-baseline="text-before-edge">255u</text></g><g transform="translate(855.4503973557174 694.8000000000001) rotate(0 5.5615234375 12)"><text x="0" y="0" font-family="Helvetica, Segoe UI Emoji" font-size="20px" fill="#000000" text-anchor="start" style="white-space: pre;" direction="ltr" dominant-baseline="text-before-edge">0</text></g><g transform="translate(855.4503973557174 774.8000000000001) rotate(0 22.24609375 12)"><text x="0" y="0" font-family="Helvetica, Segoe UI Emoji" font-size="20px" fill="#000000" text-anchor="start" style="white-space: pre;" direction="ltr" dominant-baseline="text-before-edge">254u</text></g><g stroke-linecap="round" transform="translate(795.4503973557174 810.0000000000001) rotate(0 20.6364205464313 21.850327637397868)"><path d="M-0.1 0.38 C11.79 1.08, 26.21 1.04, 39.46 -0.25 M41.65 -1.1 C42.14 17.56, 42.36 35.35, 39.3 44.76 M40.66 44.32 C26.55 42.92, 15.24 41.87, -1.44 44.01 M0.33 42.34 C0.99 35.4, 1.63 26.46, -0.06 -1.95" stroke="#000000" stroke-width="2.5" fill="none" stroke-dasharray="1.5 8"/></g><g stroke-linecap="round" transform="translate(795.4503973557174 850.0000000000001) rotate(0 20.6364205464313 21.850327637397868)"><path d="M0.38 -0.99 C9.9 0.67, 19.07 -1.79, 41.02 1.83 M40.17 0.65 C41.51 16.14, 42.18 28.57, 42.34 44.42 M41.89 42.84 C29.27 45.28, 16.74 42.13, 0.31 41.85 M-1.36 44.96 C1.14 29.79, 1.26 12.02, -1.95 -1.46" stroke="#000000" stroke-width="2.5" fill="none" stroke-dasharray="1.5 8"/></g><g transform="translate(855.4503973557174 814.8000000000001) rotate(0 22.24609375 12)"><text x="0" y="0" font-family="Helvetica, Segoe UI Emoji" font-size="20px" fill="#000000" text-anchor="start" style="white-space: pre;" direction="ltr" dominant-baseline="text-before-edge">253u</text></g><g transform="translate(855.4503973557174 854.8000000000001) rotate(0 22.24609375 12)"><text x="0" y="0" font-family="Helvetica, Segoe UI Emoji" font-size="20px" fill="#000000" text-anchor="start" style="white-space: pre;" direction="ltr" dominant-baseline="text-before-edge">252u</text></g><g stroke-linecap="round" transform="translate(795.4503973557174 890.0000000000001) rotate(0 20.6364205464313 21.850327637397868)"><path d="M0.65 0.64 C11.35 -0.39, 28.16 0.85, 40.32 0.38 M42.14 1.11 C39.45 11.76, 42.14 20.97, 39.99 43.08 M42.98 42.14 C26.17 43.9, 12.1 44.83, -1.68 44.03 M1.9 44.6 C-0.34 31.62, -1.74 21.93, -0.1 0.11" stroke="#000000" stroke-width="2.5" fill="none" stroke-dasharray="1.5 8"/></g><g stroke-linecap="round" transform="translate(795.4503973557174 930.0000000000001) rotate(0 20.6364205464313 21.850327637397868)"><path d="M0.64 -1.81 C10.09 1.7, 21.67 -1.09, 41.65 -1.1 M42.39 -1.97 C42.43 15.26, 40.94 27.79, 40.66 44.32 M39.71 42.26 C30.96 42.21, 21.28 42.38, 0.33 42.34 M0.9 43.64 C-2.12 26.38, -1.68 11.89, 0.11 -1.04" stroke="#000000" stroke-width="2.5" fill="none" stroke-dasharray="1.5 8"/></g><g transform="translate(855.4503973557174 894.8000000000001) rotate(0 22.24609375 12)"><text x="0" y="0" font-family="Helvetica, Segoe UI Emoji" font-size="20px" fill="#000000" text-anchor="start" style="white-space: pre;" direction="ltr" dominant-baseline="text-before-edge">251u</text></g><g transform="translate(855.4503973557174 934.8000000000003) rotate(0 22.24609375 12)"><text x="0" y="0" font-family="Helvetica, Segoe UI Emoji" font-size="20px" fill="#000000" text-anchor="start" style="white-space: pre;" direction="ltr" dominant-baseline="text-before-edge">240u</text></g><g stroke-linecap="round" transform="translate(795.4503973557174 970.0000000000001) rotate(0 20.6364205464313 21.850327637397868)"><path d="M1.83 0.99 C12.74 0.43, 26.28 0.7, 41.72 0.87 M41.99 -0.44 C39.56 14.93, 41.46 30.23, 40.76 45.41 M39.42 44.94 C30.43 44.09, 21.59 45.02, 0.77 45.6 M-1.46 42.19 C-0.08 28.73, -1.02 14.33, 0.96 -1.28" stroke="#000000" stroke-width="2.5" fill="none" stroke-dasharray="1.5 8"/></g><g stroke-linecap="round" transform="translate(795.4503973557174 1010.0000000000001) rotate(0 20.6364205464313 21.850327637397868)"><path d="M0.99 -0.95 C9.02 -1.48, 17.94 0.07, 42.14 1.11 M40.84 -1.28 C40.89 9.43, 40.65 17.1, 42.98 42.14 M42.51 42.02 C32.2 41.95, 23.72 44.09, 1.9 44.6 M-1.51 43.6 C0.53 29.69, 1.2 18.7, -1.28 -0.92" stroke="#000000" stroke-width="2.5" fill="none" stroke-dasharray="1.5 8"/></g><g transform="translate(855.4503973557174 974.8000000000003) rotate(0 22.24609375 12)"><text x="0" y="0" font-family="Helvetica, Segoe UI Emoji" font-size="20px" fill="#000000" text-anchor="start" style="white-space: pre;" direction="ltr" dominant-baseline="text-before-edge">239u</text></g><g transform="translate(855.4503973557174 1014.8000000000003) rotate(0 22.24609375 12)"><text x="0" y="0" font-family="Helvetica, Segoe UI Emoji" font-size="20px" fill="#000000" text-anchor="start" style="white-space: pre;" direction="ltr" dominant-baseline="text-before-edge">238u</text></g><g stroke-linecap="round" transform="translate(795.4503973557174 490.0000000000001) rotate(0 20.6364205464313 21.850327637397868)"><path d="M0.22 -0.1 L41.89 0.31 L43.12 45.6 L1.96 45.04" stroke="none" stroke-width="0" fill="#fd7e14"/><path d="M-1.1 0.65 C14.87 0.79, 29.95 -2.05, 42.34 0.72 M0.31 -0.43 C11.23 0.98, 22.19 -0.59, 41.43 -0.92 M39.91 1.26 C41.68 17.71, 41.8 31.56, 39.32 42.24 M40.75 0.39 C41.73 9.17, 40.79 20.08, 41.32 43.43 M43 45.65 C23.37 42.19, 7.05 44.04, 1.49 45.55 M40.81 43.11 C25.22 44.75, 10.96 44.62, 0.77 43.27 M1.5 45.43 C1.46 31.17, 0.01 16.18, -1.96 0.15 M0.56 44.4 C-0.3 32.25, -0.18 21.82, -0.8 -0.55" stroke="#000000" stroke-width="2" fill="none"/></g><g stroke-linecap="round" transform="translate(795.4503973557174 570.0000000000001) rotate(0 20.6364205464313 21.850327637397868)"><path d="M-0.1 0.62 L41.58 1.85 L43.17 45.67 L1.34 44.2" stroke="none" stroke-width="0" fill="#fd7e14"/><path d="M0.65 0.45 C11.28 1.34, 18.86 1.29, 41.99 -0.44 M-0.43 -0.26 C10.59 -0.91, 18.74 0.02, 40.35 0.62 M42.53 0.77 C43.24 10.34, 41.28 16.94, 39.81 42.19 M41.66 0.48 C40.65 12.44, 41.76 25.85, 41 44.69 M43.22 42.27 C27.64 42.79, 17.28 45.55, 1.85 45.19 M40.68 43.1 C33.61 44.1, 25.01 44.28, -0.43 43.85 M1.72 45.52 C1.1 27.4, -0.15 8.42, 0.15 -0.77 M0.7 43.12 C-0.06 32.93, 0.95 22.27, -0.55 0.11" stroke="#000000" stroke-width="2" fill="none"/></g><g stroke-linecap="round" transform="translate(795.4503973557174 530.0000000000001) rotate(0 20.6364205464313 21.850327637397868)"><path d="M0.62 0.31 L43.12 1.9 L43.24 45.04 L0.5 42.22" stroke="none" stroke-width="0" fill="#fd7e14"/><path d="M0.45 0.87 C14.27 -2.1, 27.38 0.59, 40.84 -1.28 M-0.26 0.85 C10.33 -0.54, 22.37 -0.75, 41.89 -0.84 M42.04 1.9 C41.87 13.77, 39.02 26.19, 39.76 43.6 M41.75 -0.64 C40.59 13.8, 41.1 26.42, 42.27 43.66 M39.85 42.28 C28.61 44.54, 19.98 45.95, 1.49 41.81 M40.67 44.52 C27.21 44.15, 12.74 43.03, 0.15 44.51 M1.82 44.92 C0.04 29.38, -2.29 15.25, -0.77 -1.28 M-0.58 43.69 C-0.7 31.17, -1.05 16.1, 0.11 -0.05" stroke="#000000" stroke-width="2" fill="none"/></g><g transform="translate(855.4503973557174 494.80000000000007) rotate(0 5.5615234375 12)"><text x="0" y="0" font-family="Helvetica, Segoe UI Emoji" font-size="20px" fill="#000000" text-anchor="start" style="white-space: pre;" direction="ltr" dominant-baseline="text-before-edge">5</text></g><g transform="translate(855.4503973557174 534.8000000000001) rotate(0 5.5615234375 12)"><text x="0" y="0" font-family="Helvetica, Segoe UI Emoji" font-size="20px" fill="#000000" text-anchor="start" style="white-space: pre;" direction="ltr" dominant-baseline="text-before-edge">4</text></g><g transform="translate(855.4503973557174 574.8000000000001) rotate(0 5.5615234375 12)"><text x="0" y="0" font-family="Helvetica, Segoe UI Emoji" font-size="20px" fill="#000000" text-anchor="start" style="white-space: pre;" direction="ltr" dominant-baseline="text-before-edge">3</text></g><g stroke-linecap="round" transform="translate(795.4503973557174 370.0000000000001) rotate(0 20.6364205464313 21.850327637397868)"><path d="M1.06 0.72 C13.74 -0.88, 27.73 1.03, 40.42 -0.51 M0.15 -0.92 C16.53 -0.54, 31.98 -0.38, 41.9 0.39 M39.32 -1.46 C39.96 17.16, 41.58 33.47, 42.04 44.66 M41.32 -0.27 C42.07 10.27, 40.83 21.48, 42.25 42.99 M42.76 45.55 C33.3 41.9, 23.45 42.86, -1.18 42.5 M42.04 43.27 C25.66 44.8, 10.03 44.74, 0.86 44.61 M-1.96 43.85 C-0.85 26.65, 0.11 13.28, 1.4 -1.16 M-0.8 43.15 C0.31 30.61, 0.51 17.77, 0.92 0.95" stroke="#000000" stroke-width="2" fill="none"/></g><g stroke-linecap="round" transform="translate(795.4503973557174 450.0000000000001) rotate(0 20.6364205464313 21.850327637397868)"><path d="M1.34 0.5 L39.8 0.04 L42.23 43.59 L0.13 45.37" stroke="none" stroke-width="0" fill="#fd7e14"/><path d="M0.72 -0.44 C13.4 -0.84, 29.98 -1.08, 40.76 1.71 M-0.92 0.62 C8.32 0.1, 17.64 0.57, 41.66 0.95 M39.81 -1.51 C41.16 15.18, 40.22 30.92, 42.23 42.42 M41 0.99 C41.43 10.87, 42.34 23.19, 40.56 42.99 M43.12 45.19 C29.61 45.11, 20.81 42.83, -1.2 45.34 M40.85 43.85 C27.27 44.29, 12.4 44.88, 0.91 44.31 M0.15 42.93 C-1.27 29.98, 1.12 17.28, -1.16 -0.03 M-0.55 43.81 C-0.48 32.89, -0.28 22.38, 0.95 0.98" stroke="#000000" stroke-width="2" fill="none"/></g><g stroke-linecap="round" transform="translate(795.4503973557174 410.0000000000001) rotate(0 20.6364205464313 21.850327637397868)"><path d="M0.5 -1.48 L41.32 0.95 L41.16 43.83 L1.67 43.62" stroke="none" stroke-width="0" fill="#fd7e14"/><path d="M-0.44 -1.28 C7.7 0.47, 15.78 -0.66, 42.98 -1.56 M0.62 -0.84 C9.57 -0.3, 19.44 0.77, 42.22 0.45 M39.76 -0.1 C40.95 11.94, 41.62 26.91, 39.99 42.78 M42.27 -0.04 C41.06 15.98, 42.27 29.52, 40.56 43.07 M42.76 41.81 C29.09 43.15, 13.52 42.88, 1.64 44.88 M41.42 44.51 C26.31 44.27, 11.66 44.43, 0.61 43.88 M-0.77 42.42 C0.62 31.77, 1.83 16.44, -0.03 -0.91 M0.11 43.65 C0.66 26.41, 1.27 9.76, 0.98 0.67" stroke="#000000" stroke-width="2" fill="none"/></g><g transform="translate(855.4503973557174 374.80000000000007) rotate(0 5.5615234375 12)"><text x="0" y="0" font-family="Helvetica, Segoe UI Emoji" font-size="20px" fill="#000000" text-anchor="start" style="white-space: pre;" direction="ltr" dominant-baseline="text-before-edge">8</text></g><g transform="translate(855.4503973557174 414.80000000000007) rotate(0 5.5615234375 12)"><text x="0" y="0" font-family="Helvetica, Segoe UI Emoji" font-size="20px" fill="#000000" text-anchor="start" style="white-space: pre;" direction="ltr" dominant-baseline="text-before-edge">7</text></g><g transform="translate(855.4503973557174 454.80000000000007) rotate(0 5.5615234375 12)"><text x="0" y="0" font-family="Helvetica, Segoe UI Emoji" font-size="20px" fill="#000000" text-anchor="start" style="white-space: pre;" direction="ltr" dominant-baseline="text-before-edge">6</text></g><g stroke-linecap="round" transform="translate(795.4503973557174 250) rotate(0 20.6364205464313 21.850327637397868)"><path d="M-0.86 -0.51 C11.44 -1.69, 18.02 0.18, 39.42 1.24 M0.63 0.39 C9.87 0.73, 17.81 -0.69, 40.54 -0.76 M42.04 0.96 C40.01 11.98, 42.21 25.9, 40.73 45.69 M42.25 -0.71 C40.46 12.3, 41.39 26.61, 42.2 44.44 M40.09 42.5 C34.43 44.69, 25.7 45.05, -0.85 43.99 M42.14 44.61 C26.14 44.19, 9.79 43.03, 0.07 43.32 M1.4 42.54 C-0.07 32.48, 1.94 21.46, -1.1 0.22 M0.92 44.65 C0.85 31.47, 0.11 17.16, 0.02 0.48" stroke="#000000" stroke-width="2" fill="none"/></g><g stroke-linecap="round" transform="translate(795.4503973557174 330) rotate(0 20.6364205464313 21.850327637397868)"><path d="M-0.51 1.71 C9.55 -1.27, 22.53 -1.67, 42.51 -1.68 M0.39 0.95 C13.51 -0.29, 25.14 -0.99, 40.52 -0.05 M42.23 -1.28 C40.13 14.26, 41.15 26.15, 43.26 43.62 M40.56 -0.71 C41.02 12.28, 42.4 25.05, 42.02 42.75 M40.07 45.34 C27.8 44.84, 13.51 42.61, 0.29 45.33 M42.18 44.31 C27.95 44.04, 13.29 44.13, -0.38 43.06 M-1.16 43.67 C-1.15 32.16, -1.85 15.55, 0.22 -0.1 M0.95 44.68 C0.6 29.48, -0.81 14.78, 0.48 -0.05" stroke="#000000" stroke-width="2" fill="none"/></g><g stroke-linecap="round" transform="translate(795.4503973557174 290) rotate(0 20.6364205464313 21.850327637397868)"><path d="M1.71 -1.56 C12.22 0.41, 25.48 1.34, 39.6 0.33 M0.95 0.45 C9.54 -1.14, 18.4 -0.91, 41.22 0.05 M39.99 -0.92 C42.36 10.95, 40.9 23.68, 41.19 43.22 M40.56 -0.63 C41.92 17.64, 42.62 34.53, 40.33 44.25 M42.91 44.88 C32.19 44.99, 19.49 43.74, 1.63 44.24 M41.88 43.88 C25.78 43.1, 10.39 43.69, -0.64 43.8 M-0.03 42.79 C1.68 26.54, -1.41 12.81, -0.1 0.62 M0.98 44.37 C-0.15 29.18, -0.38 16.61, -0.05 0.07" stroke="#000000" stroke-width="2" fill="none"/></g><g transform="translate(855.4503973557174 254.80000000000018) rotate(0 10.380859375 12)"><text x="0" y="0" font-family="Helvetica, Segoe UI Emoji" font-size="20px" fill="#000000" text-anchor="start" style="white-space: pre;" direction="ltr" dominant-baseline="text-before-edge">11</text></g><g transform="translate(855.4503973557174 294.8000000000002) rotate(0 11.123046875 12)"><text x="0" y="0" font-family="Helvetica, Segoe UI Emoji" font-size="20px" fill="#000000" text-anchor="start" style="white-space: pre;" direction="ltr" dominant-baseline="text-before-edge">10</text></g><g transform="translate(855.4503973557174 334.8000000000002) rotate(0 5.5615234375 12)"><text x="0" y="0" font-family="Helvetica, Segoe UI Emoji" font-size="20px" fill="#000000" text-anchor="start" style="white-space: pre;" direction="ltr" dominant-baseline="text-before-edge">9</text></g><g stroke-linecap="round" transform="translate(795.4503973557174 210) rotate(0 20.6364205464313 21.850327637397868)"><path d="M-1.85 1.24 C7.48 0.27, 16.96 1.19, 42.04 1.9 M-0.73 -0.76 C14.19 0.46, 27.95 0.79, 41.75 -0.64 M40.73 1.99 C41.39 10.63, 43.2 24.16, 39.85 42.28 M42.2 0.74 C40.42 10.89, 40.9 20.1, 40.67 44.52 M40.42 43.99 C28.09 44.56, 13.15 45.74, 1.82 44.92 M41.35 43.32 C27.5 43.39, 15.56 44, -0.58 43.69 M-1.1 43.92 C-0.53 33.2, -0.13 23.3, 1.9 1.96 M0.02 44.18 C-0.16 27.73, 0.72 11.58, -0.53 0.45" stroke="#000000" stroke-width="2" fill="none"/></g><g stroke-linecap="round" transform="translate(795.4503973557174 170) rotate(0 20.6364205464313 21.850327637397868)"><path d="M1.24 -1.68 C9.73 -0.98, 20.06 1.15, 43.17 0.9 M-0.76 -0.05 C12.31 -0.22, 24.9 0.78, 40.63 -0.46 M43.26 -0.08 C40.82 16.85, 43.24 28.81, 39.86 42.43 M42.02 -0.95 C42.15 13.6, 41.01 27.54, 42.09 44.29 M41.56 45.33 C26.58 45.02, 12.53 45.34, 1.22 44.07 M40.89 43.06 C29.04 44.29, 17.32 43.15, -0.02 43.25 M0.22 43.61 C0.97 26.56, 2.2 10.71, 1.96 1.34 M0.48 43.65 C0.39 30.33, 0.28 14.77, 0.45 -0.59" stroke="#000000" stroke-width="2" fill="none"/></g><g transform="translate(855.4503973557174 174.80000000000018) rotate(0 11.123046875 12)"><text x="0" y="0" font-family="Helvetica, Segoe UI Emoji" font-size="20px" fill="#000000" text-anchor="start" style="white-space: pre;" direction="ltr" dominant-baseline="text-before-edge">13</text></g><g transform="translate(855.4503973557174 214.80000000000018) rotate(0 11.123046875 12)"><text x="0" y="0" font-family="Helvetica, Segoe UI Emoji" font-size="20px" fill="#000000" text-anchor="start" style="white-space: pre;" direction="ltr" dominant-baseline="text-before-edge">12</text></g><g stroke-linecap="round" transform="translate(795.4503973557174 10) rotate(0 20.6364205464313 21.850327637397868)"><path d="M-1.36 1.26 C15.7 1.83, 30.76 -0.13, 39.32 -1.46 M-0.52 0.39 C9.74 -0.66, 18.07 0.44, 41.32 -0.27 M43 1.95 C39.83 16.03, 39.99 35.34, 42.76 45.55 M40.81 -0.59 C40.26 17.18, 41.45 33.41, 42.04 43.27 M42.77 45.43 C30.11 45.03, 15.67 43.79, -1.96 43.85 M41.83 44.4 C29.89 43.72, 19.22 44.73, -0.8 43.15 M0.31 45.55 C1.92 32.08, 1.36 17.02, -1.48 0.04 M0.83 43.66 C-0.51 28.96, -0.56 13.72, -0.15 -0.59" stroke="#000000" stroke-width="2" fill="none"/></g><g stroke-linecap="round" transform="translate(795.4503973557174 50) rotate(0 20.6364205464313 21.850327637397868)"><path d="M1.26 0.77 C10.82 1.18, 17.78 -1.67, 39.81 -1.51 M0.39 0.48 C11.54 -0.24, 24.82 0.27, 41 0.99 M43.22 -1.43 C39.75 11.67, 41.61 27.36, 43.12 45.19 M40.68 -0.6 C42.33 9.57, 42.2 18.72, 40.85 43.85 M43 45.52 C26.75 44.38, 9.77 42.05, 0.15 42.93 M41.97 43.12 C31.52 43.48, 22.78 43.13, -0.55 43.81 M1.85 45.6 C1.83 32.14, 0.36 16.42, 0.04 0.95 M-0.04 43.17 C0.42 30.24, 0.37 17.8, -0.59 0.36" stroke="#000000" stroke-width="2" fill="none"/></g><g transform="translate(855.4503973557174 14.800000000000182) rotate(0 22.24609375 12)"><text x="0" y="0" font-family="Helvetica, Segoe UI Emoji" font-size="20px" fill="#000000" text-anchor="start" style="white-space: pre;" direction="ltr" dominant-baseline="text-before-edge">255u</text></g><g transform="translate(855.4503973557174 54.80000000000018) rotate(0 22.24609375 12)"><text x="0" y="0" font-family="Helvetica, Segoe UI Emoji" font-size="20px" fill="#000000" text-anchor="start" style="white-space: pre;" direction="ltr" dominant-baseline="text-before-edge">254u</text></g><g stroke-linecap="round"><g transform="translate(795.4503973557174 169.63732503093797) rotate(0 0 -40)"><path d="M2.65 1.26 C2.35 -12.71, 0.7 -68.84, -0.08 -82.73" stroke="#000000" stroke-width="1.5" fill="none" stroke-dasharray="8 9"/></g></g><mask/><g stroke-linecap="round"><g transform="translate(835.4503973557174 169.63732503093797) rotate(0 0 -40)"><path d="M1.26 -0.08 C0.62 -14.2, -2.17 -68.71, -2.73 -82.05" stroke="#000000" stroke-width="1.5" fill="none" stroke-dasharray="8 9"/></g></g><mask/><g stroke-linecap="round"><g transform="translate(875.4503973557174 149.63732503093797) rotate(0 0 -30)"><path d="M-0.08 -2.73 C-0.87 -13.3, -2.04 -52.6, -2.05 -62.12" stroke="#000000" stroke-width="1.5" fill="none" stroke-dasharray="1.5 7"/></g></g><mask/><g stroke-linecap="round"><g transform="translate(682 321.20781250000005) rotate(0 60 40)"><path d="M-2.05 -2.12 C4.61 5.03, 19.76 26.28, 39.86 40.15 C59.96 54.01, 104.97 74.74, 118.55 81.08 M2.03 2.91 C8.31 10.8, 18.57 31.65, 37.55 43.86 C56.54 56.06, 101.77 70.14, 115.95 76.14" stroke="#fd7e14" stroke-width="1" fill="none"/></g><g transform="translate(682 321.20781250000005) rotate(0 60 40)"><path d="M82.93 75.71 C95.07 74.34, 105.31 78.4, 113.39 74.3 M87.94 75.82 C95.85 77.87, 108.66 74.8, 114.54 74.87" stroke="#fd7e14" stroke-width="1" fill="none"/></g><g transform="translate(682 321.20781250000005) rotate(0 60 40)"><path d="M90.1 56.48 C99.74 60.71, 107.85 70.48, 113.39 74.3 M95.11 56.59 C100.56 65.26, 110.89 68.83, 114.54 74.87" stroke="#fd7e14" stroke-width="1" fill="none"/></g></g><mask/><g stroke-linecap="round" transform="translate(10 470) rotate(0 131 41)"><path d="M1.16 0.55 L262.41 -1.27 L263.54 81.19 L0.8 81.42" stroke="none" stroke-width="0" fill="#868e96"/><path d="M0.08 -0.83 C60.03 0.86, 117.8 -0.63, 262.73 0.08 M-0.19 0.69 C72.32 -0.48, 142.52 -0.42, 262.17 0.59 M263.1 -0.93 C261.43 30.99, 264.24 65.56, 263.38 83.54 M262.27 0.75 C262.98 22.02, 262.73 42.39, 261.99 81.02 M262.15 82.89 C182.57 79.74, 100.89 79.94, 1.58 80.72 M262.25 82.12 C198.57 82.66, 134.44 82.43, 0.2 81.41 M0.13 83.67 C-0.48 56.16, 0.51 31.28, 0.81 -0.3 M-0.25 81.85 C0.56 62.1, -0.92 43, 0.68 0.03" stroke="#000" stroke-width="1" fill="none"/></g><g transform="translate(15 487) rotate(0 118.486328125 24)"><text x="0" y="0" font-family="Helvetica, Segoe UI Emoji" font-size="20px" fill="#000" text-anchor="start" style="white-space: pre;" direction="ltr" dominant-baseline="text-before-edge">bufferSize = 8</text><text x="0" y="24" font-family="Helvetica, Segoe UI Emoji" font-size="20px" fill="#000" text-anchor="start" style="white-space: pre;" direction="ltr" dominant-baseline="text-before-edge">indexMask = bufferSize - 1</text></g><g stroke-linecap="round" transform="translate(40.43068722510043 688.127671387398) rotate(0 150 150)"><path d="M186.08 4.34 C200.97 5.76, 215.58 15.34, 228.63 23.42 C241.69 31.5, 254.25 41.03, 264.42 52.82 C274.6 64.6, 283.94 79.93, 289.68 94.15 C295.43 108.37, 297.97 122.86, 298.87 138.14 C299.77 153.43, 298.5 170.56, 295.08 185.84 C291.65 201.12, 286.21 216.88, 278.32 229.83 C270.42 242.78, 259.51 253.76, 247.69 263.52 C235.86 273.27, 221.9 282.44, 207.38 288.35 C192.86 294.27, 175.92 297.66, 160.56 298.98 C145.2 300.31, 129.99 299.74, 115.2 296.3 C100.4 292.86, 85.13 286.54, 71.79 278.34 C58.44 270.14, 45.08 258.96, 35.11 247.09 C25.14 235.22, 17.65 221.28, 11.99 207.1 C6.34 192.92, 2.3 177.36, 1.16 162.01 C0.03 146.66, 1.63 130.14, 5.2 114.99 C8.77 99.83, 14.8 84.31, 22.61 71.08 C30.43 57.85, 40.38 45.7, 52.08 35.61 C63.77 25.52, 78.31 16.31, 92.79 10.54 C107.27 4.77, 121.81 1.68, 138.95 0.97 C156.08 0.27, 184.93 4.39, 195.58 6.29 C206.23 8.19, 203.56 10.03, 202.86 12.38 M109.68 5.88 C123.36 -0.15, 141.59 0.81, 157.2 1.54 C172.81 2.27, 188.99 5.33, 203.32 10.25 C217.65 15.17, 231.28 21.54, 243.18 31.05 C255.08 40.56, 266.2 54.27, 274.71 67.32 C283.23 80.36, 289.86 94.57, 294.27 109.31 C298.67 124.05, 301.86 140.22, 301.14 155.75 C300.42 171.29, 295.65 187.92, 289.95 202.53 C284.26 217.14, 276.43 231.53, 266.97 243.41 C257.5 255.29, 245.78 265.31, 233.18 273.8 C220.57 282.29, 206.22 290.05, 191.33 294.36 C176.43 298.67, 159.12 300.29, 143.8 299.66 C128.49 299.03, 114.02 295.74, 99.43 290.58 C84.84 285.42, 68.45 278.21, 56.26 268.69 C44.08 259.17, 34.63 246.35, 26.34 233.44 C18.05 220.52, 10.84 206.23, 6.52 191.2 C2.2 176.17, -0.23 158.84, 0.42 143.23 C1.07 127.62, 5.01 111.96, 10.4 97.55 C15.79 83.14, 23.15 69.03, 32.76 56.76 C42.36 44.49, 55.09 32.47, 68.04 23.91 C80.99 15.34, 103.52 8.14, 110.45 5.35 C117.39 2.56, 109.28 4.89, 109.66 7.16" stroke="#000000" stroke-width="1" fill="none"/></g><g stroke-linecap="round" transform="translate(100.43068722510043 748.127671387398) rotate(0 90 90)"><path d="M61.68 4.32 C71.84 -0.52, 86.07 -0.82, 97.47 0.19 C108.87 1.21, 119.84 5.38, 130.1 10.41 C140.36 15.44, 151.6 21.96, 159.03 30.39 C166.46 38.82, 171.21 49.86, 174.7 61 C178.2 72.14, 180.54 85.54, 179.99 97.22 C179.43 108.9, 176.72 120.85, 171.38 131.08 C166.04 141.31, 156.86 151.31, 147.95 158.61 C139.03 165.9, 128.74 171.16, 117.9 174.82 C107.06 178.49, 94.2 181.2, 82.92 180.58 C71.65 179.97, 60.29 176.5, 50.25 171.15 C40.22 165.79, 30.3 157.13, 22.71 148.47 C15.13 139.81, 8.43 129.88, 4.73 119.18 C1.03 108.48, -0.44 95.71, 0.51 84.27 C1.45 72.84, 5.21 60.93, 10.41 50.57 C15.61 40.21, 21.39 30.43, 31.71 22.13 C42.04 13.83, 63.72 4.17, 72.36 0.76 C81.01 -2.65, 83.41 0, 83.6 1.65 M114.8 2.81 C125.74 4.43, 138.68 11.08, 147.53 18.37 C156.38 25.66, 162.59 36.23, 167.9 46.55 C173.2 56.87, 177.88 68.69, 179.35 80.3 C180.83 91.91, 179.66 105.01, 176.74 116.21 C173.82 127.41, 168.87 138.7, 161.85 147.51 C154.83 156.33, 145.09 163.77, 134.62 169.1 C124.16 174.42, 110.52 178.23, 99.06 179.46 C87.61 180.68, 76.72 179.39, 65.89 176.43 C55.06 173.46, 43.17 168.94, 34.06 161.67 C24.95 154.4, 16.68 143.21, 11.21 132.82 C5.74 122.42, 2.44 110.6, 1.25 99.29 C0.07 87.98, 1.19 75.75, 4.1 64.95 C7 54.16, 11.65 43.51, 18.7 34.5 C25.75 25.49, 36.25 16.34, 46.4 10.9 C56.55 5.46, 68.23 3.25, 79.6 1.86 C90.98 0.47, 108.72 1.83, 114.65 2.56 C120.58 3.29, 115.55 4.5, 115.18 6.24" stroke="#000000" stroke-width="1" fill="none"/></g><g stroke-linecap="round"><g transform="translate(40.43068722510043 848.127671387398) rotate(0 30 0)"><path d="M0.58 -0.77 C10.59 -0.75, 49.54 0.48, 59.45 0.55 M-0.58 1.44 C9.28 1.06, 48.23 -1.18, 58.21 -1.28" stroke="#000000" stroke-width="1" fill="none"/></g></g><mask/><g stroke-linecap="round"><g transform="translate(280.4306872251004 828.127671387398) rotate(0 30 0)"><path d="M-0.77 -0.55 C9.25 -0.64, 50.48 -0.23, 60.55 0.06 M1.03 1.78 C10.89 1.85, 50.27 2.02, 59.89 1.63" stroke="#000000" stroke-width="1" fill="none"/></g></g><mask/><g stroke-linecap="round"><g transform="translate(180.43068722510043 748.127671387398) rotate(0 0 -30)"><path d="M-0.55 0.55 C-0.64 -9.37, -0.23 -50.22, 0.06 -60.32 M1.36 -0.21 C1.07 -9.89, -0.8 -49.2, -0.85 -58.96" stroke="#000000" stroke-width="1" fill="none"/></g></g><mask/><g stroke-linecap="round"><g transform="translate(200.43068722510043 988.127671387398) rotate(0 0 -30)"><path d="M0.55 0.06 C0.63 -9.65, -0.22 -48.75, -0.32 -58.81 M-0.62 -0.95 C-0.66 -10.91, -1.4 -50.61, -1.44 -60.31" stroke="#000000" stroke-width="1" fill="none"/></g></g><mask/><g stroke-linecap="round"><g transform="translate(260.4306872251004 888.127671387398) rotate(0 20 30)"><path d="M0.06 -0.32 C7.02 9.58, 34.58 49.72, 41.19 59.95 M-1.36 -1.54 C5.59 8.51, 34.18 51.33, 40.87 61.46" stroke="#000000" stroke-width="1" fill="none"/></g></g><mask/><g stroke-linecap="round"><g transform="translate(120.43068722510043 788.127671387398) rotate(0 -20 -30)"><path d="M-0.32 1.19 C-7.09 -8.87, -33.61 -50.28, -40.05 -60.29 M1.71 0.77 C-5.27 -9.11, -34.21 -48.68, -41.02 -58.9" stroke="#000000" stroke-width="1" fill="none"/></g></g><mask/><g stroke-linecap="round"><g transform="translate(240.43068722510043 768.127671387398) rotate(0 30 -20)"><path d="M1.19 -0.05 C11.13 -6.49, 49.72 -32.16, 59.71 -38.96 M0.36 -1.12 C10.11 -7.85, 48.5 -34.06, 58.61 -40.54" stroke="#000000" stroke-width="1" fill="none"/></g></g><mask/><g stroke-linecap="round"><g transform="translate(140.43068722510043 908.127671387398) rotate(0 -30 20)"><path d="M-0.05 -0.29 C-9.82 6.38, -48.83 34.6, -58.96 41.17 M-1.53 -1.48 C-11.34 5.38, -49.88 32.74, -59.36 39.66" stroke="#000000" stroke-width="1" fill="none"/></g></g><mask/><g transform="translate(240.43068722510043 668.127671387398) rotate(0 5.5615234375 12)"><text x="0" y="0" font-family="Helvetica, Segoe UI Emoji" font-size="20px" fill="#000000" text-anchor="start" style="white-space: pre;" direction="ltr" dominant-baseline="text-before-edge">0</text></g><g transform="translate(351.66236505696406 762.3816043897706) rotate(0 5.5615234375 12)"><text x="0" y="0" font-family="Helvetica, Segoe UI Emoji" font-size="20px" fill="#000000" text-anchor="start" style="white-space: pre;" direction="ltr" dominant-baseline="text-before-edge">1</text></g><g transform="translate(346.60792922034943 884.9516734276748) rotate(0 5.5615234375 12)"><text x="0" y="0" font-family="Helvetica, Segoe UI Emoji" font-size="20px" fill="#000000" text-anchor="start" style="white-space: pre;" direction="ltr" dominant-baseline="text-before-edge">2</text></g><g transform="translate(260.4306872251004 988.127671387398) rotate(0 5.5615234375 12)"><text x="0" y="0" font-family="Helvetica, Segoe UI Emoji" font-size="20px" fill="#000000" text-anchor="start" style="white-space: pre;" direction="ltr" dominant-baseline="text-before-edge">3</text></g><g transform="translate(120.43068722510043 988.127671387398) rotate(0 5.5615234375 12)"><text x="0" y="0" font-family="Helvetica, Segoe UI Emoji" font-size="20px" fill="#000000" text-anchor="start" style="white-space: pre;" direction="ltr" dominant-baseline="text-before-edge">4</text></g><g transform="translate(20.430687225100428 908.127671387398) rotate(0 5.5615234375 12)"><text x="0" y="0" font-family="Helvetica, Segoe UI Emoji" font-size="20px" fill="#000000" text-anchor="start" style="white-space: pre;" direction="ltr" dominant-baseline="text-before-edge">5</text></g><g transform="translate(20.430687225100428 768.127671387398) rotate(0 5.5615234375 12)"><text x="0" y="0" font-family="Helvetica, Segoe UI Emoji" font-size="20px" fill="#000000" text-anchor="start" style="white-space: pre;" direction="ltr" dominant-baseline="text-before-edge">6</text></g><g transform="translate(109.04944489946274 667.6109324532468) rotate(0 5.5615234375 12)"><text x="0" y="0" font-family="Helvetica, Segoe UI Emoji" font-size="20px" fill="#000000" text-anchor="start" style="white-space: pre;" direction="ltr" dominant-baseline="text-before-edge">7</text></g><g stroke-linecap="round" transform="translate(27.678734100100428 69.91221020609692) rotate(0 251.5 80.5)"><path d="M-0.85 0.2 L503.02 -1.27 L502.57 159.96 L1.69 160.62" stroke="none" stroke-width="0" fill="#868e96"/><path d="M0.59 -0.76 C162.37 -2.23, 323.39 -2.34, 503.65 0.47 M0.06 0.33 C185.79 1.16, 371.71 1.22, 503.24 0.07 M502.23 -1.28 C501.61 49.2, 502.83 95.01, 502.97 160.09 M503.11 -0.05 C502.02 64.43, 502.63 129.49, 503.98 161.67 M503.38 160.96 C339.62 161.71, 176.1 160.62, 0.36 160.53 M503.14 161 C331.7 159.76, 160.94 159.77, -0.25 161.23 M0.55 161.41 C-1.32 103.31, -0.85 43.35, -0.58 1.91 M-0.25 160.08 C-1.69 127.15, -1.97 94.8, -0.41 0.63" stroke="#000" stroke-width="1" fill="none"/></g><g transform="translate(32.67873410010043 102.41221020609692) rotate(0 243.92578125 48)"><text x="0" y="0" font-family="Helvetica, Segoe UI Emoji" font-size="20px" fill="#000" text-anchor="start" style="white-space: pre;" direction="ltr" dominant-baseline="text-before-edge">Продюсер ожидает появления свободного слота. </text><text x="0" y="24" font-family="Helvetica, Segoe UI Emoji" font-size="20px" fill="#000" text-anchor="start" style="white-space: pre;" direction="ltr" dominant-baseline="text-before-edge">Т.к. слоты захватываются последовательно </text><text x="0" y="48" font-family="Helvetica, Segoe UI Emoji" font-size="20px" fill="#000" text-anchor="start" style="white-space: pre;" direction="ltr" dominant-baseline="text-before-edge">следующий слот для продюсера будет указывать на</text><text x="0" y="72" font-family="Helvetica, Segoe UI Emoji" font-size="20px" fill="#000" text-anchor="start" style="white-space: pre;" direction="ltr" dominant-baseline="text-before-edge">нулевой индекс буфера.</text></g><g stroke-linecap="round" transform="translate(42 301.20781250000005) rotate(0 200 53)"><path d="M-1.27 -0.43 L398.96 1.69 L399.62 107.95 L0.43 107.25" stroke="none" stroke-width="0" fill="#fd7e14"/><path d="M-0.53 -0.67 C149.06 -0.32, 300.14 -0.46, 400.87 -0.48 M0.42 0.49 C126.35 -0.27, 251.78 -0.62, 399.45 0.04 M401.12 1.4 C398.16 27.71, 398.41 57.46, 398.39 104.9 M400.15 0.92 C400.9 33.95, 400.62 66.18, 399.26 106.02 M400.94 105.95 C260.32 106.66, 121.18 106.61, -0.17 105.33 M399.91 106.48 C265.52 105.07, 131.49 105.81, 0.02 106.33 M1.54 105.19 C0.58 70.7, 1.7 34.68, 1.66 -0.41 M-0.74 105.36 C0.99 76.39, 1.6 47.18, 0.1 0.01" stroke="#000000" stroke-width="1" fill="none"/></g><g transform="translate(47 330.20781250000005) rotate(0 181.5673828125 24)"><text x="0" y="0" font-family="Helvetica, Segoe UI Emoji" font-size="20px" fill="#000000" text-anchor="start" style="white-space: pre;" direction="ltr" dominant-baseline="text-before-edge">producer:</text><text x="0" y="24" font-family="Helvetica, Segoe UI Emoji" font-size="20px" fill="#000000" text-anchor="start" style="white-space: pre;" direction="ltr" dominant-baseline="text-before-edge">wait_published(nextToClaim - bufferSize)</text></g><g stroke-linecap="round" transform="translate(795.6787341001003 608.6081401373979) rotate(0 20.6364205464313 21.850327637397868)"><path d="M-1.04 1.69 L40.89 1.95 L41.7 44.95 L-1.54 43.14" stroke="none" stroke-width="0" fill="#fd7e14"/><path d="M-1.2 1.64 C15.83 1.63, 30.84 -0.61, 41.56 1.63 M0.91 0.61 C13.69 -0.37, 26.03 -0.28, 40.89 -0.64 M40.11 -0.03 C40.61 15.51, 39.91 25.95, 41.49 43.61 M42.22 0.98 C42.01 14.72, 40.6 28.96, 41.75 43.65 M40.2 44.6 C27.45 44.49, 15.67 42.51, 0.72 43.72 M41.16 43.08 C30.5 44.73, 18.63 44.63, 0.28 43.91 M0.8 43.12 C1.58 31.48, 1.32 22.63, -0.49 -1.83 M0.02 43.29 C0.95 31.74, 0.42 20.63, -0.64 -0.21" stroke="#000000" stroke-width="2" fill="none"/></g><g transform="translate(188.60319806835605 711.5352559906532) rotate(0 13.651698319247487 -6.992333285468192)" stroke="none"><path fill="#40c057" d="M -0.50,-2.00 Q -0.50,-2.00 1.81,-2.48 4.14,-2.96 6.02,-3.52 7.91,-4.08 10.63,-5.04 13.35,-6.00 15.21,-6.93 17.07,-7.87 18.32,-8.43 19.58,-9.00 21.37,-10.55 23.16,-12.10 24.23,-13.41 25.31,-14.71 25.56,-14.91 25.81,-15.11 26.10,-15.22 26.40,-15.32 26.72,-15.33 27.04,-15.34 27.34,-15.24 27.65,-15.15 27.90,-14.96 28.16,-14.77 28.35,-14.51 28.53,-14.25 28.62,-13.95 28.71,-13.64 28.70,-13.32 28.69,-13.01 28.58,-12.71 28.47,-12.41 28.27,-12.16 28.07,-11.92 27.80,-11.75 27.53,-11.58 27.22,-11.50 26.91,-11.43 26.59,-11.46 26.27,-11.48 25.98,-11.61 25.69,-11.74 25.46,-11.95 25.22,-12.17 25.07,-12.45 24.91,-12.72 24.85,-13.04 24.80,-13.35 24.84,-13.66 24.89,-13.98 25.03,-14.26 25.17,-14.55 25.40,-14.77 25.63,-14.99 25.91,-15.13 26.20,-15.27 26.51,-15.31 26.83,-15.36 27.14,-15.29 27.45,-15.23 27.73,-15.07 28.00,-14.91 28.22,-14.68 28.43,-14.44 28.55,-14.14 28.67,-13.85 28.70,-13.53 28.72,-13.22 28.64,-12.91 28.56,-12.60 28.39,-12.33 28.22,-12.07 28.22,-12.07 28.22,-12.07 26.86,-10.70 25.50,-9.33 23.15,-7.52 20.80,-5.70 19.66,-5.41 18.51,-5.11 16.51,-4.02 14.51,-2.92 11.76,-1.82 9.00,-0.72 7.02,-0.02 5.04,0.66 2.77,1.33 0.50,2.00 0.25,2.03 0.00,2.07 -0.24,2.04 -0.48,2.01 -0.72,1.92 -0.95,1.83 -1.16,1.69 -1.36,1.55 -1.53,1.36 -1.70,1.18 -1.81,0.96 -1.93,0.74 -1.99,0.49 -2.05,0.25 -2.05,0.00 -2.05,-0.24 -1.99,-0.48 -1.93,-0.72 -1.82,-0.94 -1.70,-1.17 -1.54,-1.35 -1.37,-1.54 -1.17,-1.68 -0.96,-1.83 -0.73,-1.91 -0.50,-2.00 -0.50,-2.00 L -0.50,-2.00 Z"/></g><g transform="translate(215.90659470685068 697.5505894197169) rotate(0 15.31653957769231 26.63746013511701)" stroke="none"><path fill="#40c057" d="M 1.66,1.24 Q 1.66,1.24 -2.43,6.54 -6.53,11.84 -9.48,15.26 -12.43,18.67 -14.21,21.18 -16.00,23.69 -17.56,25.92 -19.11,28.15 -20.12,29.70 -21.12,31.25 -21.64,32.31 -22.17,33.37 -23.82,35.44 -25.47,37.51 -25.78,38.48 -26.09,39.44 -26.27,39.65 -26.45,39.85 -26.67,40.00 -26.89,40.16 -27.15,40.25 -27.40,40.35 -27.67,40.38 -27.94,40.42 -28.20,40.39 -28.47,40.35 -28.73,40.26 -28.98,40.16 -29.20,40.01 -29.43,39.86 -29.61,39.65 -29.79,39.45 -29.91,39.21 -30.04,38.97 -30.10,38.71 -30.17,38.45 -30.17,38.18 -30.17,37.90 -30.10,37.64 -30.04,37.38 -29.92,37.14 -29.79,36.90 -26.38,35.43 -22.96,33.96 -17.47,31.98 -11.98,30.00 -8.26,27.73 -4.55,25.46 -1.93,23.90 0.68,22.34 2.59,21.29 4.49,20.25 6.20,19.09 7.91,17.92 9.86,16.82 11.81,15.71 12.81,15.10 13.81,14.50 14.69,13.87 15.57,13.24 16.85,12.21 18.13,11.17 20.58,9.88 23.03,8.58 23.27,8.51 23.52,8.43 23.78,8.42 24.03,8.40 24.29,8.45 24.54,8.49 24.77,8.60 25.01,8.70 25.21,8.86 25.41,9.02 25.57,9.22 25.73,9.43 25.84,9.66 25.94,9.90 25.99,10.15 26.04,10.40 26.02,10.66 26.01,10.92 25.93,11.16 25.85,11.41 25.72,11.63 25.59,11.85 25.40,12.03 25.22,12.21 25.00,12.35 24.78,12.48 23.68,14.24 22.57,16.01 20.33,19.14 18.08,22.28 16.11,24.78 14.14,27.28 12.75,29.24 11.35,31.20 10.18,32.84 9.00,34.48 7.61,36.66 6.22,38.85 5.37,39.70 4.52,40.54 3.41,41.46 2.29,42.38 0.97,43.23 -0.34,44.07 -1.47,45.28 -2.59,46.49 -2.85,46.64 -3.10,46.79 -3.38,46.87 -3.66,46.96 -3.96,46.98 -4.25,46.99 -4.54,46.94 -4.83,46.88 -5.10,46.76 -5.36,46.64 -5.59,46.45 -5.82,46.27 -6.00,46.04 -6.18,45.80 -6.30,45.53 -6.42,45.27 -6.47,44.98 -6.52,44.69 -6.50,44.39 -6.48,44.10 -6.39,43.82 -6.31,43.54 -6.15,43.29 -6.00,43.04 -5.79,42.83 -5.58,42.62 -3.42,41.98 -1.26,41.34 2.81,39.36 6.88,37.38 10.07,35.96 13.25,34.54 16.09,33.03 18.93,31.52 21.59,30.47 24.25,29.41 28.99,27.46 33.72,25.51 36.11,24.51 38.51,23.50 40.39,22.98 42.28,22.46 45.28,22.49 48.28,22.52 48.92,23.69 49.55,24.86 48.53,26.61 47.51,28.36 44.37,30.59 41.24,32.83 39.46,34.40 37.69,35.97 35.88,37.28 34.07,38.58 31.50,39.93 28.94,41.28 27.61,42.24 26.28,43.20 25.15,44.34 24.01,45.47 21.81,47.13 19.60,48.79 18.55,49.76 17.51,50.72 16.33,51.85 15.15,52.97 14.86,53.52 14.58,54.07 14.37,54.22 14.17,54.37 13.94,54.47 13.70,54.57 13.45,54.61 13.20,54.64 12.95,54.62 12.70,54.60 12.46,54.51 12.22,54.43 12.00,54.29 11.79,54.15 11.62,53.97 11.45,53.79 11.32,53.56 11.20,53.34 11.13,53.10 11.06,52.86 11.05,52.60 11.05,52.35 11.10,52.10 11.15,51.85 11.27,51.63 11.38,51.40 11.54,51.20 11.70,51.01 12.76,50.59 13.82,50.17 15.48,49.45 17.15,48.73 19.90,47.67 22.64,46.61 25.10,45.46 27.55,44.30 29.77,43.24 32.00,42.18 33.88,41.18 35.76,40.18 38.01,39.33 40.26,38.49 41.88,37.73 43.51,36.96 44.56,36.36 45.61,35.77 49.36,35.16 53.11,34.56 55.52,34.10 57.93,33.64 58.23,33.64 58.52,33.65 58.80,33.74 59.08,33.84 59.31,34.02 59.55,34.21 59.71,34.46 59.87,34.70 59.95,34.99 60.02,35.28 60.00,35.57 59.98,35.87 59.87,36.14 59.76,36.41 59.56,36.64 59.37,36.86 59.11,37.01 58.86,37.16 58.57,37.22 58.27,37.28 57.98,37.24 57.69,37.21 57.42,37.08 57.15,36.95 56.94,36.74 56.73,36.54 56.59,36.27 56.46,36.01 56.41,35.72 56.37,35.42 56.42,35.13 56.47,34.84 56.62,34.58 56.76,34.32 56.98,34.12 57.19,33.92 57.46,33.80 57.74,33.68 58.03,33.65 58.33,33.62 58.61,33.69 58.90,33.76 59.15,33.91 59.41,34.07 59.59,34.30 59.78,34.53 59.89,34.80 60.00,35.08 60.01,35.38 60.02,35.67 59.94,35.96 59.85,36.24 59.68,36.48 59.51,36.73 59.27,36.90 59.04,37.08 58.75,37.17 58.47,37.26 58.47,37.26 58.47,37.26 56.06,37.52 53.65,37.78 50.35,38.37 47.04,38.96 45.89,39.37 44.75,39.78 43.02,40.49 41.30,41.19 39.25,42.00 37.21,42.81 35.31,43.89 33.40,44.98 31.22,46.13 29.04,47.27 26.54,48.60 24.03,49.93 21.43,51.11 18.82,52.30 16.70,53.19 14.58,54.07 14.37,54.22 14.17,54.37 13.94,54.47 13.70,54.57 13.45,54.61 13.20,54.64 12.95,54.62 12.70,54.60 12.46,54.51 12.22,54.43 12.00,54.29 11.79,54.15 11.62,53.97 11.45,53.79 11.32,53.56 11.20,53.34 11.13,53.10 11.06,52.86 11.05,52.60 11.05,52.35 11.10,52.10 11.15,51.85 11.27,51.63 11.38,51.40 11.54,51.20 11.70,51.01 12.08,50.58 12.46,50.14 13.75,48.96 15.04,47.77 16.20,46.89 17.35,46.00 19.42,44.22 21.50,42.45 23.02,41.51 24.55,40.58 26.07,39.66 27.59,38.75 29.95,37.47 32.30,36.20 33.95,34.94 35.60,33.69 37.46,31.94 39.32,30.18 42.04,28.20 44.75,26.22 45.84,25.43 46.94,24.64 44.97,25.04 43.01,25.45 41.33,25.80 39.65,26.16 37.27,27.22 34.88,28.28 30.17,30.30 25.45,32.31 23.00,33.37 20.55,34.44 17.68,36.11 14.80,37.78 11.74,39.34 8.69,40.89 4.38,43.22 0.08,45.54 -1.25,46.02 -2.59,46.49 -2.85,46.64 -3.10,46.79 -3.38,46.87 -3.66,46.96 -3.96,46.98 -4.25,46.99 -4.54,46.94 -4.83,46.88 -5.10,46.76 -5.36,46.64 -5.59,46.45 -5.82,46.27 -6.00,46.04 -6.18,45.80 -6.30,45.53 -6.42,45.27 -6.47,44.98 -6.52,44.69 -6.50,44.39 -6.48,44.10 -6.39,43.82 -6.31,43.54 -6.15,43.29 -6.00,43.04 -5.79,42.83 -5.58,42.62 -5.16,42.18 -4.75,41.75 -3.70,41.01 -2.65,40.27 -1.51,39.62 -0.36,38.97 1.47,37.66 3.31,36.35 4.22,35.39 5.14,34.43 5.77,33.53 6.40,32.63 7.54,31.01 8.68,29.39 10.03,27.30 11.39,25.22 13.18,22.70 14.98,20.17 17.08,16.89 19.18,13.61 21.10,11.10 23.03,8.58 23.27,8.51 23.52,8.43 23.78,8.42 24.03,8.40 24.29,8.45 24.54,8.49 24.77,8.60 25.01,8.70 25.21,8.86 25.41,9.02 25.57,9.22 25.73,9.43 25.84,9.66 25.94,9.90 25.99,10.15 26.04,10.40 26.02,10.66 26.01,10.92 25.93,11.16 25.85,11.41 25.72,11.63 25.59,11.85 25.40,12.03 25.22,12.21 25.00,12.35 24.78,12.48 23.06,13.18 21.34,13.88 20.35,14.53 19.35,15.18 18.39,15.81 17.43,16.44 15.32,17.29 13.22,18.14 11.38,19.22 9.55,20.29 7.76,21.56 5.96,22.84 4.14,23.91 2.31,24.99 -0.24,26.62 -2.80,28.25 -6.76,30.78 -10.72,33.31 -16.09,35.42 -21.46,37.53 -23.77,38.49 -26.09,39.44 -26.27,39.65 -26.45,39.85 -26.67,40.00 -26.89,40.16 -27.15,40.25 -27.40,40.35 -27.67,40.38 -27.94,40.42 -28.20,40.39 -28.47,40.35 -28.73,40.26 -28.98,40.16 -29.20,40.01 -29.43,39.86 -29.61,39.65 -29.79,39.45 -29.91,39.21 -30.04,38.97 -30.10,38.71 -30.17,38.45 -30.17,38.18 -30.17,37.91 -30.10,37.64 -30.04,37.38 -29.92,37.14 -29.79,36.90 -29.77,36.70 -29.74,36.50 -29.07,35.64 -28.39,34.77 -26.81,33.13 -25.24,31.49 -24.50,30.48 -23.77,29.47 -22.71,27.95 -21.65,26.43 -20.15,24.15 -18.66,21.87 -16.87,19.17 -15.08,16.47 -12.31,13.03 -9.54,9.59 -5.60,4.17 -1.66,-1.24 -1.49,-1.42 -1.31,-1.61 -1.10,-1.74 -0.89,-1.87 -0.65,-1.95 -0.41,-2.03 -0.16,-2.05 0.08,-2.07 0.32,-2.03 0.57,-1.99 0.80,-1.90 1.03,-1.80 1.23,-1.65 1.44,-1.50 1.59,-1.30 1.75,-1.11 1.86,-0.88 1.97,-0.66 2.02,-0.41 2.07,-0.16 2.06,0.08 2.05,0.33 1.98,0.57 1.91,0.81 1.78,1.03 1.66,1.24 1.66,1.24 L 1.66,1.24 Z"/></g><g transform="translate(269.18151497708504 760.1486207372419) rotate(0 29.301206148628694 23.640745869916316)" stroke="none"><path fill="#228be6" d="M -2.62,-9.84 Q -2.62,-9.84 3.13,-11.31 8.89,-12.79 15.09,-14.47 21.30,-16.15 24.56,-17.10 27.83,-18.04 29.19,-18.35 30.55,-18.67 31.95,-18.64 33.34,-18.62 34.69,-18.26 36.04,-17.90 37.27,-17.23 38.49,-16.56 39.52,-15.62 40.55,-14.67 41.32,-13.51 42.10,-12.35 42.57,-11.03 43.04,-9.72 43.19,-8.33 43.33,-6.94 43.14,-5.56 42.94,-4.17 42.43,-2.88 41.91,-1.58 41.10,-0.44 40.28,0.68 39.22,1.59 38.16,2.50 36.91,3.12 35.66,3.75 30.64,8.60 25.62,13.45 21.84,16.53 18.06,19.61 12.89,23.15 7.71,26.69 8.00,27.10 8.29,27.50 6.96,28.35 5.63,29.19 4.13,29.69 2.63,30.19 1.06,30.32 -0.50,30.45 -2.06,30.20 -3.62,29.95 -5.07,29.33 -6.52,28.71 -7.78,27.76 -9.04,26.82 -10.04,25.60 -11.04,24.38 -11.72,22.95 -12.40,21.53 -12.71,19.98 -13.03,18.43 -12.97,16.86 -12.91,15.28 -12.47,13.77 -12.03,12.25 -11.24,10.88 -10.45,9.52 -9.36,8.38 -8.27,7.24 -0.85,7.18 6.56,7.13 11.23,5.20 15.90,3.28 21.00,2.47 26.11,1.65 31.98,1.02 37.86,0.39 40.33,0.25 42.80,0.10 44.46,0.12 46.13,0.15 47.73,0.56 49.34,0.98 50.80,1.77 52.26,2.56 53.49,3.68 54.72,4.80 55.65,6.18 56.57,7.56 57.14,9.12 57.71,10.68 57.89,12.33 58.07,13.98 57.85,15.63 57.63,17.28 57.02,18.82 56.41,20.37 55.45,21.72 54.48,23.08 53.23,24.16 51.97,25.25 50.49,26.00 49.01,26.75 47.39,27.13 45.77,27.51 42.11,31.36 38.45,35.22 34.53,37.68 30.61,40.13 26.35,42.30 22.10,44.47 18.11,46.31 14.11,48.15 12.44,48.35 10.76,48.56 9.08,48.36 7.40,48.16 5.82,47.56 4.24,46.96 2.84,46.00 1.45,45.05 0.33,43.78 -0.79,42.52 -1.57,41.02 -2.36,39.53 -2.77,37.88 -3.18,36.24 -3.18,34.55 -3.18,32.86 -2.78,31.22 -2.38,29.58 -1.59,28.08 -0.81,26.58 0.30,25.31 1.42,24.05 2.81,23.08 4.20,22.12 5.78,21.52 7.36,20.92 12.08,19.41 16.80,17.90 22.98,16.48 29.16,15.05 33.65,14.68 38.13,14.31 45.52,14.28 52.92,14.26 55.33,14.42 57.73,14.58 59.46,14.79 61.19,15.00 62.81,15.62 64.44,16.24 65.87,17.22 67.30,18.21 68.46,19.51 69.61,20.82 70.42,22.36 71.23,23.90 71.64,25.58 72.06,27.27 72.06,29.01 72.06,30.75 71.64,32.44 71.23,34.13 70.42,35.67 69.61,37.21 68.46,38.51 67.30,39.81 65.87,40.80 64.44,41.79 62.81,42.41 61.19,43.02 59.46,43.23 57.73,43.44 54.59,47.85 51.45,52.26 46.70,54.86 41.94,57.45 38.19,59.57 34.44,61.69 28.26,64.38 22.08,67.07 20.92,67.42 19.76,67.78 18.06,68.14 16.35,68.51 14.61,68.46 12.87,68.41 11.19,67.94 9.51,67.47 7.99,66.62 6.47,65.76 5.20,64.57 3.93,63.37 2.98,61.91 2.03,60.44 1.46,58.79 0.89,57.15 0.73,55.41 0.58,53.67 0.84,51.95 1.10,50.22 1.77,48.61 2.43,47.00 3.47,45.60 4.50,44.19 5.84,43.08 7.18,41.96 8.74,41.19 10.31,40.43 15.22,39.70 20.13,38.98 25.08,38.30 30.04,37.63 35.32,37.51 40.60,37.39 48.56,37.65 56.51,37.92 58.81,38.46 61.11,39.00 63.11,40.24 65.12,41.49 66.62,43.31 68.13,45.13 68.97,47.34 69.81,49.55 69.91,51.91 70.00,54.27 69.34,56.54 68.67,58.80 67.32,60.74 65.97,62.68 64.07,64.08 62.16,65.48 59.92,66.20 57.67,66.93 55.30,66.89 52.94,66.86 50.71,66.07 48.49,65.29 46.63,63.83 44.77,62.37 43.47,60.40 42.17,58.42 41.57,56.14 40.97,53.85 41.13,51.50 41.30,49.14 42.20,46.96 43.11,44.78 44.66,43.00 46.22,41.22 48.26,40.03 50.30,38.84 52.62,38.37 54.93,37.89 57.27,38.18 59.62,38.47 61.75,39.49 63.88,40.52 65.57,42.17 67.26,43.82 68.34,45.92 69.41,48.02 69.76,50.36 70.11,52.69 69.69,55.02 69.28,57.35 68.14,59.42 67.01,61.49 65.27,63.09 63.53,64.69 61.37,65.65 59.21,66.61 56.86,66.83 54.51,67.05 54.51,67.05 54.51,67.05 47.58,66.77 40.64,66.49 34.62,66.56 28.59,66.62 24.18,67.20 19.76,67.78 18.06,68.14 16.35,68.51 14.61,68.46 12.87,68.41 11.19,67.94 9.51,67.47 7.99,66.62 6.47,65.76 5.20,64.57 3.93,63.37 2.98,61.91 2.03,60.44 1.46,58.80 0.89,57.15 0.73,55.41 0.58,53.67 0.84,51.95 1.10,50.23 1.76,48.61 2.43,47.00 3.46,45.60 4.50,44.19 5.84,43.08 7.18,41.96 8.74,41.19 10.31,40.43 11.48,40.11 12.65,39.79 16.73,38.05 20.82,36.31 25.22,33.85 29.63,31.38 33.41,29.26 37.18,27.15 40.85,24.65 44.52,22.15 51.13,18.36 57.73,14.58 59.46,14.79 61.19,15.00 62.81,15.62 64.44,16.24 65.87,17.22 67.30,18.21 68.46,19.51 69.61,20.81 70.42,22.35 71.23,23.89 71.64,25.58 72.06,27.27 72.06,29.01 72.06,30.75 71.64,32.44 71.23,34.13 70.42,35.67 69.61,37.21 68.46,38.51 67.30,39.81 65.87,40.80 64.44,41.79 62.82,42.41 61.19,43.02 59.46,43.23 57.74,43.44 55.33,43.22 52.92,43.00 46.62,43.03 40.31,43.05 35.54,43.27 30.77,43.50 26.56,44.64 22.35,45.79 18.23,46.97 14.11,48.15 12.44,48.35 10.76,48.56 9.08,48.36 7.40,48.16 5.82,47.56 4.24,46.96 2.84,46.00 1.45,45.05 0.33,43.78 -0.79,42.52 -1.57,41.02 -2.36,39.53 -2.77,37.89 -3.18,36.24 -3.18,34.55 -3.18,32.86 -2.78,31.22 -2.38,29.58 -1.59,28.08 -0.81,26.58 0.30,25.32 1.42,24.05 2.81,23.09 4.20,22.12 5.78,21.52 7.36,20.92 9.93,19.73 12.49,18.53 16.94,16.19 21.39,13.85 26.12,10.35 30.84,6.84 36.82,3.47 42.80,0.10 44.46,0.12 46.12,0.15 47.73,0.56 49.34,0.98 50.80,1.77 52.26,2.56 53.49,3.68 54.72,4.80 55.65,6.18 56.57,7.56 57.14,9.12 57.71,10.68 57.89,12.33 58.07,13.98 57.85,15.63 57.63,17.27 57.02,18.82 56.41,20.36 55.45,21.72 54.49,23.07 53.23,24.16 51.97,25.25 50.49,26.00 49.01,26.75 47.39,27.13 45.77,27.51 43.75,27.46 41.73,27.42 35.73,27.90 29.72,28.37 24.25,28.96 18.77,29.55 13.32,30.03 7.87,30.52 1.04,29.41 -5.78,28.31 1.25,27.91 8.29,27.50 6.96,28.35 5.63,29.19 4.13,29.69 2.64,30.19 1.06,30.32 -0.50,30.45 -2.06,30.20 -3.61,29.95 -5.07,29.33 -6.52,28.71 -7.78,27.77 -9.04,26.82 -10.04,25.60 -11.04,24.38 -11.72,22.95 -12.40,21.53 -12.71,19.98 -13.03,18.44 -12.97,16.86 -12.91,15.28 -12.47,13.77 -12.03,12.25 -11.24,10.88 -10.46,9.52 -9.36,8.38 -8.27,7.24 -7.79,6.86 -7.31,6.48 -2.82,3.76 1.67,1.04 6.40,-2.49 11.13,-6.02 15.22,-9.01 19.30,-12.00 23.56,-15.02 27.82,-18.04 29.19,-18.35 30.55,-18.67 31.94,-18.64 33.34,-18.62 34.69,-18.26 36.04,-17.90 37.27,-17.23 38.49,-16.56 39.52,-15.62 40.55,-14.67 41.32,-13.51 42.10,-12.35 42.57,-11.03 43.04,-9.72 43.19,-8.33 43.33,-6.94 43.14,-5.56 42.95,-4.17 42.43,-2.88 41.91,-1.58 41.10,-0.45 40.28,0.68 39.22,1.59 38.16,2.50 36.91,3.12 35.67,3.75 35.62,3.79 35.58,3.84 29.90,4.53 24.22,5.22 19.15,5.94 14.08,6.66 8.35,8.25 2.62,9.84 1.40,10.01 0.19,10.18 -1.02,10.05 -2.24,9.93 -3.40,9.51 -4.56,9.10 -5.58,8.42 -6.60,7.75 -7.43,6.84 -8.27,5.94 -8.86,4.86 -9.45,3.79 -9.76,2.60 -10.08,1.41 -10.10,0.19 -10.13,-1.03 -9.86,-2.23 -9.58,-3.43 -9.03,-4.52 -8.48,-5.62 -7.69,-6.56 -6.89,-7.49 -5.89,-8.21 -4.90,-8.92 -3.76,-9.38 -2.62,-9.84 -2.62,-9.84 L -2.62,-9.84 Z"/></g><g transform="translate(329.7817367844764 844.7225566662385) rotate(0 -27.303396638494974 34.96166642734113)" stroke="none"><path fill="#fd7e14" d="M -0.39,10.25 Q -0.39,10.25 -5.37,10.12 -10.35,9.99 -14.85,10.00 -19.35,10.01 -24.65,10.25 -29.96,10.49 -34.32,10.80 -38.69,11.11 -39.32,11.38 -39.96,11.65 -41.38,11.47 -42.81,11.30 -44.16,10.79 -45.50,10.28 -46.69,9.46 -47.87,8.64 -48.82,7.57 -49.78,6.49 -50.45,5.21 -51.11,3.94 -51.46,2.54 -51.80,1.15 -51.80,-0.28 -51.80,-1.72 -51.46,-3.12 -51.11,-4.51 -50.44,-5.79 -49.77,-7.06 -48.82,-8.14 -47.86,-9.21 -46.68,-10.03 -45.49,-10.85 -44.15,-11.36 -42.80,-11.87 -41.38,-12.04 -39.95,-12.21 -32.66,-7.78 -25.37,-3.35 -21.32,-0.45 -17.26,2.43 -12.21,5.18 -7.16,7.93 -5.59,8.70 -4.02,9.48 -2.46,9.83 -0.91,10.19 0.50,10.91 1.92,11.62 3.12,12.66 4.33,13.69 5.25,14.99 6.18,16.28 6.76,17.76 7.35,19.24 7.57,20.82 7.78,22.39 7.62,23.97 7.45,25.56 6.91,27.05 6.37,28.55 5.49,29.87 4.60,31.19 3.43,32.27 2.26,33.34 0.86,34.10 -0.53,34.86 -2.07,35.27 -3.61,35.67 -5.20,35.70 -6.79,35.72 -12.85,35.58 -18.92,35.43 -25.61,34.55 -32.30,33.67 -37.51,33.59 -42.72,33.51 -47.05,33.60 -51.38,33.69 -45.93,27.81 -40.48,21.92 -40.63,16.97 -40.79,12.02 -36.65,13.89 -32.52,15.77 -27.89,17.93 -23.27,20.09 -19.12,22.44 -14.98,24.80 -11.11,26.81 -7.23,28.81 -6.34,29.17 -5.44,29.52 -3.89,30.30 -2.34,31.07 -1.02,32.20 0.29,33.32 1.31,34.73 2.32,36.14 2.97,37.75 3.61,39.35 3.86,41.07 4.10,42.79 3.93,44.52 3.75,46.24 3.17,47.88 2.59,49.51 1.63,50.96 0.67,52.40 -0.59,53.58 -1.87,54.75 -3.39,55.59 -4.91,56.43 -6.58,56.88 -8.26,57.32 -9.99,57.36 -11.73,57.39 -13.42,57.01 -15.11,56.63 -22.26,58.29 -29.41,59.95 -33.93,60.12 -38.46,60.30 -43.33,60.37 -48.20,60.45 -49.47,60.66 -50.74,60.86 -52.48,60.65 -54.22,60.44 -55.86,59.82 -57.50,59.20 -58.94,58.21 -60.38,57.21 -61.54,55.90 -62.71,54.59 -63.52,53.04 -64.34,51.49 -64.76,49.79 -65.18,48.08 -65.18,46.33 -65.18,44.58 -64.76,42.88 -64.34,41.18 -63.53,39.62 -62.71,38.07 -61.55,36.76 -60.39,35.45 -58.95,34.45 -57.51,33.46 -55.87,32.84 -54.23,32.21 -52.49,32.00 -50.75,31.79 -44.01,36.12 -37.26,40.46 -33.37,42.44 -29.47,44.42 -25.56,46.65 -21.65,48.89 -18.34,49.90 -15.03,50.91 -13.39,51.51 -11.76,52.10 -10.31,53.07 -8.87,54.04 -7.70,55.32 -6.53,56.61 -5.70,58.14 -4.87,59.67 -4.43,61.35 -3.99,63.03 -3.97,64.77 -3.95,66.51 -4.34,68.21 -4.74,69.90 -5.52,71.45 -6.31,73.00 -7.45,74.32 -8.58,75.63 -10.00,76.64 -11.42,77.65 -13.04,78.29 -14.65,78.92 -16.38,79.16 -18.10,79.39 -19.83,79.20 -21.56,79.01 -25.22,81.33 -28.88,83.65 -29.65,83.96 -30.43,84.26 -32.75,84.56 -35.08,84.85 -37.38,84.39 -39.68,83.92 -41.71,82.75 -43.74,81.58 -45.29,79.82 -46.84,78.06 -47.74,75.89 -48.65,73.73 -48.82,71.39 -48.99,69.05 -48.40,66.78 -47.81,64.51 -46.53,62.54 -45.25,60.58 -43.40,59.13 -41.56,57.68 -39.35,56.89 -37.14,56.10 -34.80,56.06 -32.45,56.02 -30.22,56.73 -27.98,57.44 -26.09,58.83 -24.20,60.21 -22.85,62.13 -21.50,64.05 -20.83,66.30 -20.17,68.55 -20.25,70.89 -20.34,73.23 -21.17,75.43 -22.00,77.62 -23.49,79.44 -24.97,81.25 -26.96,82.49 -28.95,83.74 -31.23,84.28 -33.51,84.82 -35.85,84.61 -38.18,84.40 -40.33,83.45 -42.48,82.50 -44.21,80.92 -45.94,79.34 -47.07,77.28 -48.21,75.23 -48.62,72.92 -49.04,70.62 -48.70,68.29 -48.37,65.97 -47.30,63.88 -46.24,61.79 -44.57,60.15 -42.89,58.51 -40.78,57.49 -38.67,56.46 -38.67,56.46 -38.67,56.47 -33.44,55.17 -28.22,53.88 -21.62,52.39 -15.03,50.91 -13.39,51.50 -11.76,52.10 -10.32,53.07 -8.87,54.04 -7.70,55.32 -6.53,56.61 -5.70,58.14 -4.87,59.67 -4.43,61.35 -3.99,63.03 -3.97,64.77 -3.95,66.51 -4.34,68.20 -4.74,69.90 -5.52,71.45 -6.31,73.00 -7.45,74.32 -8.58,75.63 -10.00,76.64 -11.42,77.65 -13.04,78.28 -14.65,78.92 -16.38,79.16 -18.10,79.39 -19.83,79.20 -21.56,79.02 -25.98,77.77 -30.41,76.52 -34.94,73.91 -39.47,71.30 -44.45,68.34 -49.43,65.38 -54.83,61.63 -60.24,57.89 -55.49,59.37 -50.74,60.86 -52.48,60.65 -54.22,60.44 -55.86,59.82 -57.50,59.20 -58.94,58.21 -60.38,57.21 -61.54,55.90 -62.71,54.59 -63.52,53.04 -64.34,51.49 -64.76,49.79 -65.18,48.09 -65.18,46.33 -65.18,44.58 -64.76,42.88 -64.34,41.18 -63.53,39.63 -62.71,38.07 -61.55,36.76 -60.39,35.45 -58.95,34.45 -57.51,33.46 -55.87,32.84 -54.23,32.21 -52.49,32.00 -50.75,31.79 -48.34,31.63 -45.93,31.48 -41.63,31.53 -37.33,31.57 -32.17,31.42 -27.01,31.27 -21.80,30.28 -16.58,29.29 -11.01,29.41 -5.44,29.52 -3.89,30.30 -2.34,31.07 -1.02,32.20 0.29,33.32 1.31,34.73 2.32,36.13 2.97,37.74 3.61,39.35 3.86,41.07 4.10,42.79 3.93,44.51 3.75,46.24 3.17,47.87 2.59,49.51 1.63,50.95 0.67,52.40 -0.59,53.58 -1.87,54.75 -3.39,55.59 -4.91,56.43 -6.58,56.88 -8.26,57.32 -9.99,57.36 -11.73,57.39 -13.42,57.01 -15.11,56.63 -16.45,56.05 -17.78,55.47 -21.56,53.50 -25.33,51.54 -30.31,48.42 -35.30,45.30 -39.62,43.08 -43.94,40.87 -49.86,38.01 -55.78,35.15 -60.87,26.59 -65.97,18.03 -58.65,12.14 -51.33,6.26 -46.75,6.39 -42.17,6.52 -37.72,6.72 -33.28,6.92 -28.20,7.58 -23.12,8.25 -17.89,8.86 -12.67,9.47 -8.34,9.47 -4.02,9.48 -2.47,9.83 -0.92,10.19 0.49,10.90 1.91,11.62 3.12,12.66 4.33,13.69 5.25,14.99 6.18,16.28 6.76,17.76 7.35,19.24 7.57,20.82 7.78,22.39 7.62,23.97 7.45,25.55 6.91,27.05 6.37,28.55 5.49,29.87 4.60,31.19 3.43,32.27 2.26,33.34 0.86,34.10 -0.53,34.86 -2.07,35.27 -3.60,35.67 -5.19,35.70 -6.78,35.72 -10.91,34.17 -15.03,32.62 -19.32,29.94 -23.61,27.26 -27.74,24.61 -31.87,21.97 -35.91,16.81 -39.95,11.65 -41.38,11.47 -42.81,11.30 -44.16,10.79 -45.50,10.28 -46.69,9.46 -47.87,8.64 -48.82,7.57 -49.78,6.49 -50.45,5.22 -51.11,3.94 -51.46,2.54 -51.80,1.15 -51.80,-0.28 -51.80,-1.72 -51.46,-3.12 -51.11,-4.51 -50.44,-5.79 -49.77,-7.06 -48.82,-8.14 -47.86,-9.21 -46.68,-10.03 -45.50,-10.85 -44.15,-11.36 -42.81,-11.87 -41.38,-12.04 -39.95,-12.21 -39.68,-12.33 -39.42,-12.44 -34.60,-12.11 -29.78,-11.78 -24.38,-11.44 -18.97,-11.10 -14.26,-10.93 -9.55,-10.75 -4.58,-10.50 0.39,-10.25 1.61,-10.05 2.83,-9.86 3.97,-9.37 5.11,-8.89 6.10,-8.15 7.09,-7.41 7.87,-6.45 8.66,-5.49 9.19,-4.38 9.72,-3.26 9.97,-2.05 10.22,-0.84 10.17,0.39 10.13,1.62 9.78,2.81 9.44,4.00 8.83,5.07 8.21,6.14 7.35,7.04 6.50,7.93 5.45,8.59 4.41,9.26 3.24,9.65 2.06,10.04 0.83,10.15 -0.39,10.25 -0.39,10.25 L -0.39,10.25 Z"/></g><g transform="translate(244.54186435210158 924.6349370715895) rotate(0 3.995619020267611 22.30887286316056)" stroke="none"><path fill="#fd7e14" d="M -1.15,-10.41 Q -1.15,-10.41 4.00,-11.01 9.17,-11.60 13.77,-12.25 18.37,-12.91 21.33,-13.44 24.29,-13.97 25.68,-13.94 27.07,-13.91 28.41,-13.55 29.75,-13.19 30.96,-12.52 32.18,-11.85 33.20,-10.91 34.22,-9.97 34.98,-8.81 35.75,-7.65 36.21,-6.34 36.68,-5.04 36.82,-3.66 36.96,-2.27 36.76,-0.90 36.57,0.46 36.05,1.75 35.53,3.04 34.72,4.16 33.91,5.29 32.85,6.19 31.79,7.09 30.55,7.71 29.31,8.33 27.95,8.63 26.60,8.94 20.20,12.58 13.80,16.22 7.06,19.17 0.32,22.12 -4.04,24.05 -8.41,25.99 -13.37,28.84 -18.32,31.70 -20.58,21.86 -22.84,12.01 -18.03,11.31 -13.22,10.62 -4.94,10.88 3.32,11.14 10.89,11.18 18.45,11.22 22.82,11.12 27.18,11.02 29.37,9.54 31.56,8.06 33.05,7.44 34.55,6.82 36.14,6.58 37.74,6.33 39.35,6.48 40.96,6.63 42.49,7.15 44.02,7.68 45.37,8.56 46.73,9.44 47.84,10.61 48.94,11.79 49.74,13.20 50.53,14.61 50.97,16.16 51.40,17.72 51.45,19.33 51.50,20.95 51.16,22.53 50.82,24.11 50.11,25.56 49.40,27.02 48.37,28.26 47.33,29.50 46.03,30.46 44.73,31.41 40.10,32.96 35.47,34.51 30.31,36.32 25.15,38.12 19.84,39.92 14.53,41.72 9.89,43.19 5.25,44.66 1.08,46.31 -3.08,47.95 -8.31,50.87 -13.54,53.79 -19.86,56.92 -26.19,60.05 -28.38,60.44 -30.56,60.83 -32.76,60.50 -34.96,60.17 -36.94,59.16 -38.92,58.14 -40.47,56.55 -42.02,54.96 -42.98,52.95 -43.95,50.95 -44.22,48.74 -44.49,46.53 -44.04,44.36 -43.59,42.18 -42.47,40.26 -41.35,38.34 -39.68,36.87 -38.00,35.41 -35.95,34.56 -33.90,33.71 -31.68,33.56 -29.46,33.41 -27.31,33.97 -25.16,34.54 -23.30,35.76 -21.44,36.98 -20.07,38.73 -18.70,40.48 -17.97,42.58 -17.23,44.68 -17.20,46.90 -17.17,49.12 -17.85,51.24 -18.53,53.36 -19.85,55.14 -21.17,56.93 -22.99,58.21 -24.81,59.48 -26.95,60.10 -29.08,60.73 -31.30,60.64 -33.53,60.55 -35.60,59.75 -37.68,58.96 -39.39,57.54 -41.11,56.13 -42.28,54.24 -43.45,52.35 -43.96,50.18 -44.47,48.02 -44.26,45.81 -44.05,43.59 -43.14,41.56 -42.24,39.53 -40.73,37.90 -39.22,36.26 -37.27,35.19 -35.32,34.12 -35.32,34.13 -35.33,34.13 -30.54,31.64 -25.75,29.14 -21.57,26.91 -17.39,24.67 -13.02,22.79 -8.65,20.91 -4.01,19.44 0.62,17.98 5.72,16.20 10.82,14.43 16.07,12.81 21.31,11.20 26.44,9.63 31.56,8.06 33.05,7.44 34.55,6.82 36.14,6.58 37.74,6.33 39.35,6.48 40.96,6.63 42.49,7.15 44.01,7.68 45.37,8.56 46.73,9.44 47.84,10.61 48.94,11.79 49.74,13.20 50.53,14.60 50.97,16.16 51.40,17.72 51.45,19.33 51.50,20.95 51.16,22.53 50.82,24.11 50.11,25.56 49.40,27.01 48.37,28.26 47.33,29.50 46.03,30.45 44.73,31.41 43.30,32.24 41.86,33.08 34.51,35.00 27.16,36.92 22.78,36.81 18.41,36.69 10.76,36.69 3.11,36.69 -1.55,36.75 -6.23,36.81 -10.48,36.75 -14.74,36.70 -19.00,36.43 -23.25,36.17 -27.53,34.33 -31.80,32.49 -34.70,25.20 -37.61,17.91 -34.37,13.60 -31.13,9.30 -27.05,7.21 -22.96,5.11 -18.15,3.11 -13.33,1.11 -8.13,-0.72 -2.93,-2.57 3.62,-5.41 10.19,-8.25 17.24,-11.11 24.29,-13.97 25.68,-13.94 27.07,-13.91 28.41,-13.55 29.75,-13.19 30.96,-12.52 32.18,-11.85 33.20,-10.91 34.22,-9.97 34.98,-8.81 35.75,-7.65 36.21,-6.34 36.68,-5.04 36.82,-3.66 36.96,-2.28 36.76,-0.90 36.57,0.46 36.05,1.75 35.53,3.04 34.72,4.16 33.91,5.29 32.85,6.19 31.79,7.09 30.55,7.71 29.31,8.33 27.95,8.63 26.60,8.94 25.79,8.96 24.98,8.99 18.24,9.15 11.50,9.30 6.32,9.86 1.15,10.41 -0.10,10.40 -1.36,10.39 -2.59,10.07 -3.81,9.76 -4.93,9.16 -6.04,8.56 -6.98,7.71 -7.91,6.87 -8.62,5.82 -9.33,4.77 -9.76,3.59 -10.20,2.40 -10.34,1.14 -10.48,-0.10 -10.31,-1.36 -10.15,-2.61 -9.69,-3.78 -9.23,-4.96 -8.50,-5.99 -7.77,-7.03 -6.82,-7.86 -5.86,-8.68 -4.74,-9.26 -3.61,-9.83 -2.38,-10.12 -1.15,-10.41 -1.15,-10.41 L -1.15,-10.41 Z"/></g><g transform="translate(118.01392871029566 933.9580481188806) rotate(0 33.96276167227427 17.647317339514984)" stroke="none"><path fill="#fd7e14" d="M -1.46,-9.54 Q -1.46,-9.54 6.04,-10.37 13.56,-11.21 18.80,-12.72 24.04,-14.24 27.98,-15.38 31.92,-16.52 33.22,-16.61 34.51,-16.69 35.79,-16.47 37.07,-16.25 38.26,-15.73 39.45,-15.20 40.48,-14.41 41.51,-13.62 42.32,-12.60 43.13,-11.59 43.67,-10.41 44.21,-9.23 44.46,-7.95 44.70,-6.68 44.64,-5.38 44.57,-4.08 44.19,-2.84 43.82,-1.59 43.15,-0.48 42.49,0.63 41.58,1.56 40.67,2.48 39.57,3.16 38.46,3.85 37.22,4.24 35.99,4.64 32.24,8.01 28.49,11.38 22.37,14.33 16.26,17.28 11.11,19.59 5.95,21.91 2.06,24.23 -1.83,26.56 -3.13,27.03 -4.43,27.51 -5.80,27.65 -7.18,27.80 -8.55,27.61 -9.92,27.43 -11.20,26.92 -12.49,26.41 -13.61,25.61 -14.74,24.81 -15.64,23.76 -16.54,22.71 -17.17,21.48 -17.79,20.25 -18.10,18.90 -18.41,17.55 -18.39,16.17 -18.37,14.79 -18.02,13.45 -17.67,12.12 -17.01,10.90 -16.35,9.69 -15.42,8.67 -14.49,7.64 -13.34,6.88 -12.19,6.11 -6.26,5.77 -0.32,5.44 7.22,4.52 14.78,3.60 20.34,2.89 25.89,2.18 31.00,0.71 36.10,-0.75 40.72,-2.43 45.35,-4.11 49.39,-5.79 53.44,-7.48 54.96,-7.73 56.48,-7.98 58.02,-7.86 59.56,-7.75 61.03,-7.26 62.50,-6.78 63.80,-5.95 65.11,-5.13 66.18,-4.02 67.26,-2.91 68.03,-1.58 68.81,-0.24 69.24,1.23 69.68,2.71 69.74,4.26 69.81,5.80 69.51,7.31 69.20,8.83 68.54,10.23 67.89,11.62 66.91,12.82 65.94,14.02 64.71,14.95 63.48,15.88 62.06,16.49 60.64,17.10 54.82,20.61 49.01,24.11 44.45,27.02 39.90,29.93 36.07,32.45 32.25,34.98 31.20,36.51 30.16,38.04 28.86,39.04 27.57,40.03 26.07,40.69 24.57,41.35 22.96,41.64 21.34,41.92 19.71,41.80 18.08,41.69 16.52,41.19 14.96,40.69 13.57,39.83 12.17,38.98 11.02,37.81 9.88,36.64 9.04,35.23 8.21,33.83 7.73,32.26 7.26,30.69 7.17,29.06 7.09,27.42 7.40,25.81 7.70,24.21 8.39,22.72 9.07,21.23 10.09,19.95 11.11,18.67 20.18,16.19 29.25,13.71 33.83,13.07 38.40,12.42 43.90,10.64 49.39,8.85 54.20,7.25 59.01,5.66 64.07,3.85 69.13,2.04 70.10,1.68 71.07,1.31 72.66,0.90 74.25,0.49 75.89,0.47 77.54,0.44 79.14,0.82 80.74,1.19 82.21,1.94 83.67,2.68 84.92,3.76 86.16,4.83 87.12,6.17 88.07,7.52 88.67,9.05 89.27,10.58 89.49,12.21 89.71,13.84 89.53,15.47 89.36,17.11 88.79,18.65 88.23,20.20 87.31,21.56 86.39,22.93 85.18,24.03 83.96,25.14 82.51,25.92 81.07,26.70 78.55,30.57 76.03,34.43 72.88,37.71 69.73,41.00 66.35,44.60 62.97,48.21 60.15,50.30 57.33,52.39 55.81,53.16 54.28,53.93 52.62,54.31 50.96,54.70 49.25,54.67 47.54,54.64 45.89,54.21 44.24,53.78 42.74,52.96 41.25,52.15 39.99,51.00 38.73,49.85 37.78,48.43 36.83,47.01 36.25,45.40 35.67,43.80 35.49,42.10 35.31,40.41 35.54,38.72 35.77,37.02 36.40,35.44 37.03,33.85 38.02,32.46 39.01,31.07 40.30,29.96 41.60,28.85 47.95,28.08 54.30,27.30 60.39,26.62 66.47,25.94 68.75,26.12 71.04,26.31 73.15,27.22 75.26,28.13 76.97,29.66 78.68,31.20 79.81,33.20 80.94,35.20 81.37,37.45 81.80,39.71 81.49,41.98 81.18,44.26 80.15,46.31 79.13,48.37 77.51,49.99 75.88,51.62 73.83,52.64 71.77,53.65 69.49,53.96 67.22,54.27 64.96,53.84 62.71,53.40 60.71,52.27 58.71,51.14 57.18,49.43 55.65,47.72 54.74,45.61 53.83,43.50 53.65,41.21 53.46,38.92 54.02,36.69 54.58,34.47 55.81,32.53 57.05,30.60 58.84,29.16 60.63,27.72 62.79,26.93 64.95,26.14 67.24,26.08 69.54,26.02 71.73,26.70 73.93,27.37 75.79,28.71 77.65,30.06 78.99,31.92 80.33,33.79 81.00,35.98 81.68,38.18 81.61,40.47 81.55,42.77 80.75,44.92 79.96,47.08 78.52,48.87 77.08,50.66 75.14,51.89 73.21,53.13 70.98,53.68 68.75,54.23 68.75,54.23 68.75,54.23 64.57,54.53 60.39,54.83 53.93,54.76 47.47,54.70 52.40,53.54 57.33,52.39 55.81,53.16 54.28,53.93 52.62,54.31 50.96,54.70 49.25,54.67 47.55,54.64 45.90,54.21 44.25,53.78 42.75,52.96 41.25,52.15 39.99,51.00 38.73,49.85 37.78,48.43 36.83,47.01 36.25,45.41 35.67,43.80 35.49,42.10 35.31,40.41 35.54,38.72 35.77,37.03 36.40,35.44 37.03,33.85 38.02,32.46 39.01,31.07 40.30,29.96 41.60,28.85 42.18,28.42 42.77,27.99 46.41,24.80 50.05,21.61 53.08,18.58 56.11,15.56 59.32,12.05 62.53,8.54 66.80,4.93 71.07,1.32 72.66,0.90 74.25,0.49 75.89,0.47 77.54,0.44 79.14,0.82 80.74,1.19 82.21,1.94 83.67,2.68 84.92,3.76 86.16,4.83 87.11,6.17 88.07,7.51 88.67,9.04 89.27,10.57 89.49,12.20 89.71,13.83 89.53,15.47 89.36,17.10 88.79,18.65 88.23,20.19 87.31,21.56 86.40,22.92 85.18,24.03 83.96,25.14 82.52,25.92 81.07,26.70 80.61,26.73 80.16,26.76 74.64,28.61 69.13,30.47 64.50,31.82 59.86,33.17 55.58,34.17 51.30,35.16 46.96,36.46 42.62,37.75 36.39,37.89 30.16,38.04 28.86,39.03 27.57,40.03 26.07,40.69 24.57,41.35 22.96,41.64 21.35,41.92 19.71,41.80 18.08,41.69 16.52,41.19 14.96,40.69 13.57,39.83 12.17,38.98 11.03,37.81 9.88,36.64 9.04,35.23 8.21,33.83 7.73,32.26 7.26,30.69 7.17,29.06 7.09,27.42 7.40,25.82 7.70,24.21 8.39,22.72 9.07,21.23 10.09,19.95 11.11,18.67 12.37,17.36 13.62,16.06 17.65,13.23 21.67,10.40 26.04,7.64 30.42,4.88 36.85,1.26 43.28,-2.35 48.36,-4.92 53.43,-7.48 54.96,-7.73 56.48,-7.98 58.02,-7.86 59.56,-7.75 61.03,-7.26 62.49,-6.78 63.80,-5.95 65.11,-5.13 66.18,-4.02 67.26,-2.91 68.03,-1.58 68.81,-0.24 69.24,1.23 69.68,2.71 69.74,4.26 69.81,5.80 69.51,7.31 69.20,8.83 68.55,10.22 67.89,11.62 66.91,12.82 65.94,14.02 64.71,14.95 63.48,15.88 62.06,16.49 60.64,17.10 59.33,17.20 58.01,17.30 52.83,19.05 47.64,20.80 42.75,21.61 37.86,22.42 33.58,23.38 29.30,24.35 23.54,25.37 17.79,26.39 12.26,27.20 6.73,28.01 2.44,27.28 -1.83,26.56 -3.13,27.03 -4.43,27.50 -5.80,27.65 -7.18,27.80 -8.55,27.61 -9.92,27.43 -11.20,26.92 -12.49,26.41 -13.61,25.61 -14.74,24.81 -15.64,23.76 -16.54,22.71 -17.16,21.48 -17.79,20.25 -18.10,18.90 -18.41,17.55 -18.39,16.17 -18.37,14.79 -18.02,13.45 -17.67,12.12 -17.01,10.90 -16.35,9.69 -15.42,8.67 -14.49,7.65 -13.34,6.88 -12.19,6.11 -7.75,4.02 -3.31,1.92 1.43,-0.35 6.17,-2.63 10.73,-5.08 15.29,-7.53 19.57,-10.10 23.84,-12.66 27.88,-14.59 31.92,-16.52 33.21,-16.61 34.51,-16.69 35.79,-16.47 37.07,-16.25 38.26,-15.73 39.45,-15.20 40.48,-14.41 41.51,-13.62 42.32,-12.60 43.13,-11.59 43.67,-10.41 44.21,-9.23 44.46,-7.95 44.70,-6.68 44.64,-5.38 44.57,-4.08 44.19,-2.84 43.82,-1.60 43.16,-0.48 42.49,0.63 41.58,1.56 40.67,2.48 39.57,3.16 38.46,3.85 37.22,4.24 35.99,4.64 39.15,1.16 42.31,-2.31 35.51,1.34 28.71,5.00 22.51,5.81 16.30,6.61 8.88,8.08 1.46,9.54 0.30,9.58 -0.85,9.62 -1.99,9.38 -3.13,9.13 -4.18,8.63 -5.23,8.12 -6.12,7.37 -7.02,6.63 -7.71,5.69 -8.40,4.75 -8.85,3.68 -9.30,2.60 -9.47,1.45 -9.65,0.30 -9.55,-0.85 -9.44,-2.01 -9.07,-3.11 -8.69,-4.21 -8.06,-5.19 -7.43,-6.17 -6.58,-6.97 -5.73,-7.77 -4.72,-8.34 -3.71,-8.92 -2.58,-9.23 -1.46,-9.54 -1.46,-9.54 L -1.46,-9.54 Z"/></g><g transform="translate(52.752151379258976 874.0237628148672) rotate(0 37.958380692541766 18.646222094581958)" stroke="none"><path fill="#fd7e14" d="M -3.74,-9.54 Q -3.74,-9.54 1.62,-11.61 7.00,-13.68 11.00,-15.19 15.01,-16.69 20.06,-18.62 25.12,-20.55 27.80,-21.69 30.47,-22.84 31.84,-22.98 33.22,-23.13 34.58,-22.94 35.95,-22.75 37.24,-22.24 38.52,-21.73 39.65,-20.93 40.77,-20.13 41.67,-19.08 42.57,-18.04 43.19,-16.80 43.82,-15.57 44.13,-14.22 44.44,-12.88 44.41,-11.50 44.39,-10.12 44.04,-8.78 43.69,-7.44 43.03,-6.23 42.37,-5.02 41.44,-4.00 40.51,-2.98 39.36,-2.21 38.21,-1.45 36.91,-0.98 35.61,-0.51 31.78,6.45 27.96,13.41 22.82,18.62 17.68,23.84 15.96,26.16 14.24,28.47 13.12,29.41 12.00,30.34 10.69,30.98 9.38,31.62 7.96,31.93 6.53,32.24 5.07,32.20 3.62,32.16 2.21,31.77 0.81,31.38 -0.46,30.66 -1.73,29.95 -2.79,28.95 -3.86,27.95 -4.65,26.73 -5.44,25.51 -5.92,24.13 -6.40,22.75 -6.53,21.30 -6.67,19.85 -6.45,18.40 -6.23,16.96 -5.68,15.61 -5.12,14.26 -4.26,13.09 -3.40,11.91 4.42,8.51 12.25,5.11 18.49,2.39 24.72,-0.32 30.38,-2.81 36.05,-5.30 46.51,-3.70 56.96,-2.10 57.03,6.79 57.10,15.70 53.96,20.86 50.82,26.02 46.92,31.29 43.01,36.56 39.60,41.04 36.20,45.52 32.89,48.91 29.59,52.30 28.17,53.18 26.75,54.07 25.17,54.59 23.58,55.11 21.92,55.23 20.25,55.36 18.60,55.08 16.96,54.80 15.42,54.14 13.89,53.48 12.56,52.46 11.23,51.45 10.19,50.15 9.14,48.85 8.43,47.34 7.72,45.83 7.40,44.19 7.07,42.55 7.15,40.88 7.23,39.22 7.70,37.62 8.18,36.01 9.02,34.57 9.86,33.13 11.03,31.93 12.19,30.74 18.78,28.51 25.36,26.27 31.19,24.82 37.01,23.37 43.04,21.84 49.06,20.32 54.47,19.16 59.89,18.01 65.55,17.04 71.20,16.07 72.14,15.92 73.08,15.77 74.57,15.78 76.07,15.79 77.52,16.15 78.97,16.52 80.29,17.22 81.61,17.92 82.72,18.91 83.84,19.91 84.68,21.14 85.53,22.38 86.05,23.78 86.57,25.18 86.75,26.66 86.92,28.15 86.73,29.63 86.55,31.12 86.01,32.51 85.47,33.91 84.62,35.13 83.76,36.36 82.64,37.35 81.52,38.33 80.19,39.02 78.86,39.71 77.41,40.06 75.96,40.41 69.91,44.11 63.86,47.80 58.45,51.03 53.04,54.26 49.36,56.41 45.68,58.56 47.13,57.52 48.58,56.47 47.21,58.08 45.84,59.68 44.04,60.77 42.23,61.86 40.17,62.31 38.11,62.76 36.01,62.54 33.91,62.31 32.00,61.42 30.09,60.53 28.55,59.08 27.02,57.63 26.04,55.77 25.05,53.90 24.71,51.82 24.37,49.74 24.71,47.66 25.05,45.58 26.04,43.71 27.03,41.85 28.56,40.40 30.09,38.95 32.01,38.07 33.92,37.18 36.02,36.95 38.12,36.73 40.18,37.18 42.24,37.63 44.04,38.72 45.85,39.81 47.21,41.42 48.58,43.03 49.36,44.99 50.14,46.95 50.25,49.05 50.37,51.16 49.80,53.19 49.24,55.22 48.05,56.97 46.87,58.71 45.19,59.99 43.51,61.27 41.51,61.94 39.51,62.61 37.40,62.61 35.29,62.61 33.29,61.94 31.29,61.26 29.61,59.98 27.94,58.71 26.75,56.96 25.57,55.21 25.01,53.18 24.44,51.15 24.56,49.04 24.67,46.94 25.45,44.98 26.24,43.02 26.24,43.02 26.23,43.02 31.86,38.32 37.49,33.62 41.26,31.57 45.03,29.52 51.68,25.93 58.33,22.35 65.70,19.06 73.08,15.77 74.57,15.78 76.07,15.79 77.52,16.15 78.97,16.52 80.29,17.22 81.61,17.92 82.72,18.91 83.84,19.91 84.68,21.14 85.53,22.38 86.05,23.78 86.57,25.18 86.75,26.66 86.92,28.15 86.73,29.63 86.55,31.12 86.01,32.51 85.47,33.91 84.62,35.13 83.77,36.36 82.64,37.35 81.52,38.33 80.19,39.02 78.86,39.71 77.41,40.06 75.96,40.41 75.01,40.44 74.06,40.47 69.65,40.89 65.25,41.31 60.72,42.44 56.20,43.58 50.54,45.64 44.89,47.70 37.24,50.00 29.59,52.30 28.17,53.18 26.76,54.07 25.17,54.59 23.58,55.11 21.92,55.23 20.25,55.36 18.61,55.08 16.96,54.80 15.43,54.14 13.89,53.48 12.56,52.47 11.24,51.45 10.19,50.15 9.14,48.86 8.43,47.34 7.72,45.83 7.40,44.19 7.07,42.55 7.15,40.89 7.23,39.22 7.70,37.62 8.18,36.02 9.02,34.57 9.86,33.13 11.03,31.94 12.19,30.74 14.01,28.96 15.83,27.17 20.09,22.29 24.34,17.41 27.16,13.78 29.99,10.16 34.26,10.30 38.52,10.45 42.80,13.87 47.08,17.30 42.78,18.51 38.48,19.72 32.93,21.93 27.38,24.13 20.81,26.30 14.24,28.47 13.12,29.41 12.01,30.34 10.70,30.98 9.39,31.62 7.96,31.93 6.53,32.24 5.08,32.20 3.62,32.16 2.21,31.77 0.81,31.38 -0.46,30.67 -1.73,29.95 -2.79,28.95 -3.85,27.95 -4.65,26.73 -5.44,25.51 -5.92,24.13 -6.40,22.75 -6.53,21.30 -6.67,19.85 -6.45,18.40 -6.23,16.96 -5.68,15.61 -5.12,14.26 -4.26,13.09 -3.40,11.91 -0.76,9.18 1.87,6.44 6.37,2.41 10.87,-1.61 16.11,-7.20 21.36,-12.79 25.91,-17.81 30.47,-22.84 31.84,-22.98 33.22,-23.13 34.58,-22.94 35.95,-22.75 37.24,-22.24 38.52,-21.74 39.64,-20.93 40.77,-20.13 41.67,-19.08 42.57,-18.04 43.19,-16.80 43.82,-15.57 44.13,-14.23 44.44,-12.88 44.41,-11.50 44.39,-10.12 44.04,-8.78 43.69,-7.45 43.03,-6.23 42.37,-5.02 41.44,-4.00 40.51,-2.98 39.36,-2.21 38.21,-1.45 36.91,-0.98 35.61,-0.51 32.03,0.35 28.44,1.22 21.44,3.24 14.44,5.26 9.09,7.40 3.74,9.54 2.55,9.85 1.35,10.16 0.12,10.17 -1.11,10.18 -2.31,9.90 -3.52,9.62 -4.62,9.06 -5.72,8.50 -6.65,7.69 -7.59,6.88 -8.30,5.87 -9.01,4.87 -9.47,3.72 -9.92,2.57 -10.08,1.34 -10.25,0.12 -10.11,-1.10 -9.98,-2.33 -9.55,-3.49 -9.13,-4.65 -8.44,-5.68 -7.75,-6.70 -6.83,-7.53 -5.92,-8.36 -4.83,-8.95 -3.74,-9.54 -3.74,-9.54 L -3.74,-9.54 Z"/></g><g transform="translate(70.066500467085 764.8101762608874) rotate(0 4.328587271956565 31.29901565876247)" stroke="none"><path fill="#fd7e14" d="M -2.35,-10.02 Q -2.35,-10.02 4.19,-11.36 10.75,-12.70 12.71,-13.14 14.66,-13.59 15.89,-13.73 17.12,-13.86 18.35,-13.70 19.58,-13.54 20.73,-13.09 21.88,-12.64 22.89,-11.92 23.91,-11.21 24.72,-10.27 25.53,-9.34 26.09,-8.24 26.65,-7.13 26.94,-5.93 27.22,-4.72 27.21,-3.49 27.20,-2.25 26.89,-1.05 26.58,0.14 25.99,1.23 25.40,2.32 24.57,3.24 23.74,4.15 22.72,4.85 21.69,5.54 20.53,5.96 19.37,6.39 14.86,11.17 10.35,15.95 6.74,18.30 3.14,20.66 -1.16,13.79 -5.47,6.93 0.59,6.88 6.66,6.82 12.36,6.62 18.05,6.42 21.98,5.83 25.90,5.24 27.42,4.95 28.95,4.66 30.49,4.75 32.04,4.83 33.52,5.28 35.00,5.73 36.33,6.52 37.66,7.32 38.76,8.40 39.87,9.49 40.68,10.81 41.49,12.13 41.96,13.61 42.43,15.08 42.53,16.63 42.63,18.17 42.37,19.70 42.10,21.22 41.47,22.64 40.84,24.05 39.90,25.28 38.95,26.50 37.74,27.47 36.53,28.43 35.12,29.07 33.71,29.72 27.46,33.11 21.22,36.51 15.04,39.95 8.87,43.39 3.84,46.92 -1.18,50.45 -5.02,53.75 -8.87,57.05 -12.35,49.48 -15.83,41.92 -19.83,40.48 -23.84,39.05 -15.86,36.93 -7.88,34.81 -1.57,33.02 4.72,31.22 9.76,29.83 14.79,28.44 24.75,30.35 34.71,32.25 33.87,40.98 33.03,49.71 28.19,53.18 23.35,56.66 17.81,59.14 12.26,61.61 7.88,64.11 3.51,66.61 0.29,69.52 -2.92,72.44 -5.72,75.33 -8.52,78.23 -9.93,79.09 -11.34,79.96 -12.91,80.46 -14.49,80.97 -16.13,81.08 -17.78,81.20 -19.41,80.91 -21.04,80.63 -22.55,79.96 -24.06,79.30 -25.37,78.29 -26.68,77.28 -27.71,75.99 -28.74,74.70 -29.43,73.19 -30.13,71.69 -30.44,70.07 -30.75,68.45 -30.66,66.80 -30.58,65.15 -30.10,63.56 -29.62,61.98 -28.78,60.56 -27.93,59.14 -26.77,57.96 -25.62,56.78 -15.72,55.69 -5.82,54.60 1.06,54.42 7.95,54.25 10.34,54.18 12.73,54.10 14.84,54.42 16.95,54.73 18.84,55.70 20.74,56.67 22.23,58.19 23.72,59.72 24.64,61.64 25.56,63.56 25.83,65.67 26.09,67.78 25.66,69.87 25.24,71.96 24.17,73.80 23.10,75.64 21.49,77.05 19.89,78.45 17.92,79.27 15.96,80.09 13.83,80.23 11.71,80.38 9.64,79.84 7.58,79.30 5.80,78.13 4.02,76.97 2.71,75.29 1.39,73.61 0.68,71.60 -0.02,69.60 -0.05,67.47 -0.08,65.34 0.56,63.31 1.21,61.28 2.47,59.56 3.73,57.85 5.48,56.63 7.22,55.40 9.27,54.80 11.31,54.20 13.44,54.29 15.57,54.37 17.56,55.13 19.55,55.89 21.19,57.24 22.84,58.60 23.96,60.41 25.09,62.21 25.58,64.29 26.07,66.36 25.87,68.48 25.67,70.60 24.81,72.55 23.94,74.50 22.50,76.06 21.06,77.63 19.19,78.66 17.32,79.68 15.23,80.06 13.13,80.44 13.13,80.44 13.13,80.44 7.43,80.50 1.73,80.56 -3.39,79.39 -8.52,78.22 -9.93,79.09 -11.34,79.96 -12.91,80.46 -14.48,80.97 -16.13,81.08 -17.78,81.20 -19.41,80.91 -21.04,80.63 -22.55,79.96 -24.06,79.30 -25.37,78.29 -26.68,77.28 -27.71,75.99 -28.74,74.70 -29.43,73.20 -30.13,71.69 -30.44,70.07 -30.75,68.45 -30.66,66.80 -30.58,65.15 -30.10,63.56 -29.62,61.98 -28.78,60.56 -27.93,59.14 -26.78,57.96 -25.62,56.78 -22.62,53.81 -19.62,50.83 -15.12,47.64 -10.62,44.44 -5.10,41.43 0.42,38.42 5.26,35.60 10.09,32.78 14.42,31.27 18.74,29.76 17.79,38.19 16.83,46.63 19.26,50.40 21.68,54.17 17.24,55.33 12.81,56.50 6.00,58.53 -0.80,60.56 -7.81,62.51 -14.82,64.45 -21.36,63.40 -27.89,62.34 -28.04,50.75 -28.20,39.17 -24.84,36.50 -21.48,33.82 -15.46,29.27 -9.43,24.71 -3.28,21.09 2.85,17.46 9.63,13.84 16.41,10.23 21.15,7.73 25.90,5.24 27.42,4.95 28.94,4.66 30.49,4.75 32.04,4.83 33.52,5.28 35.00,5.73 36.33,6.52 37.66,7.31 38.76,8.40 39.87,9.49 40.68,10.81 41.49,12.13 41.96,13.60 42.43,15.08 42.53,16.62 42.64,18.17 42.37,19.69 42.10,21.22 41.47,22.64 40.85,24.05 39.90,25.28 38.95,26.50 37.74,27.47 36.53,28.43 35.12,29.07 33.71,29.72 33.14,29.80 32.57,29.89 27.41,30.47 22.24,31.05 16.64,30.92 11.05,30.80 3.96,30.16 -3.11,29.52 -7.47,28.06 -11.84,26.60 -12.77,15.89 -13.70,5.18 -8.29,1.90 -2.89,-1.36 2.06,-4.95 7.01,-8.53 10.84,-11.06 14.66,-13.59 15.89,-13.73 17.12,-13.86 18.35,-13.70 19.58,-13.54 20.73,-13.09 21.88,-12.64 22.89,-11.92 23.91,-11.21 24.72,-10.27 25.53,-9.34 26.09,-8.24 26.65,-7.13 26.94,-5.93 27.22,-4.72 27.21,-3.49 27.20,-2.25 26.89,-1.05 26.58,0.14 25.99,1.23 25.40,2.32 24.57,3.24 23.74,4.15 22.72,4.85 21.69,5.54 20.53,5.96 19.37,6.39 17.32,6.48 15.28,6.57 8.82,8.30 2.35,10.02 1.12,10.16 -0.10,10.30 -1.34,10.14 -2.57,9.97 -3.72,9.52 -4.88,9.07 -5.89,8.35 -6.91,7.63 -7.72,6.70 -8.54,5.76 -9.10,4.65 -9.67,3.55 -9.95,2.34 -10.24,1.13 -10.22,-0.10 -10.21,-1.35 -9.90,-2.55 -9.59,-3.75 -9.00,-4.84 -8.41,-5.94 -7.58,-6.86 -6.74,-7.78 -5.72,-8.47 -4.69,-9.17 -3.52,-9.60 -2.35,-10.02 -2.35,-10.02 L -2.35,-10.02 Z"/></g><g transform="translate(96.03802409882428 734.8430336088807) rotate(0 38.29134894423072 -2.3307777618227306)" stroke="none"><path fill="#fd7e14" d="M -5.15,-9.12 Q -5.15,-9.12 -0.76,-11.64 3.62,-14.17 9.05,-16.34 14.48,-18.52 18.52,-20.02 22.56,-21.51 23.87,-21.80 25.19,-22.08 26.53,-22.05 27.87,-22.01 29.16,-21.65 30.46,-21.29 31.63,-20.63 32.80,-19.98 33.78,-19.06 34.76,-18.14 35.49,-17.01 36.22,-15.89 36.66,-14.62 37.10,-13.35 37.23,-12.02 37.35,-10.68 37.15,-9.35 36.95,-8.02 36.44,-6.78 35.93,-5.54 35.14,-4.46 34.34,-3.37 33.31,-2.51 32.28,-1.65 31.08,-1.06 29.87,-0.47 28.51,6.11 27.16,12.69 24.73,18.02 22.31,23.35 21.24,26.18 20.18,29.02 19.35,30.24 18.52,31.46 17.43,32.44 16.33,33.43 15.03,34.12 13.73,34.82 12.31,35.18 10.88,35.54 9.40,35.55 7.93,35.56 6.50,35.22 5.07,34.88 3.76,34.20 2.45,33.53 1.34,32.56 0.23,31.59 -0.61,30.38 -1.45,29.18 -1.98,27.80 -2.52,26.43 -2.71,24.97 -2.89,23.51 -2.73,22.04 -2.56,20.58 -2.05,19.20 -1.53,17.82 4.42,12.35 10.39,6.88 15.24,1.66 20.10,-3.56 23.99,-8.15 27.89,-12.73 30.32,-16.25 32.76,-19.76 35.26,-23.29 37.76,-26.82 38.52,-27.02 39.28,-27.22 40.32,-28.40 41.36,-29.59 42.65,-30.49 43.94,-31.40 45.41,-31.97 46.88,-32.53 48.45,-32.73 50.01,-32.93 51.58,-32.75 53.14,-32.57 54.62,-32.02 56.10,-31.47 57.40,-30.58 58.71,-29.69 59.76,-28.52 60.81,-27.34 61.55,-25.95 62.29,-24.56 62.68,-23.03 63.07,-21.50 63.07,-19.92 63.08,-18.35 62.72,-16.81 62.35,-15.28 61.62,-13.88 60.90,-12.48 57.80,-6.99 54.71,-1.50 52.60,2.50 50.50,6.52 49.57,11.49 48.63,16.47 46.41,21.68 44.19,26.89 44.59,28.16 44.99,29.43 44.37,30.92 43.75,32.41 42.79,33.71 41.84,35.01 40.60,36.04 39.36,37.07 37.90,37.77 36.45,38.48 34.88,38.81 33.30,39.15 31.69,39.10 30.08,39.05 28.52,38.61 26.97,38.18 25.57,37.38 24.16,36.59 22.99,35.48 21.82,34.37 20.94,33.02 20.07,31.66 19.55,30.14 19.02,28.61 18.88,27.00 18.73,25.40 18.98,23.80 19.23,22.21 22.48,17.95 25.73,13.69 29.03,10.04 32.33,6.38 35.30,2.68 38.27,-1.01 40.91,-4.95 43.55,-8.89 46.06,-13.78 48.56,-18.68 52.20,-23.57 55.85,-28.46 58.60,-32.34 61.35,-36.21 65.30,-39.29 69.26,-42.37 68.66,-42.09 68.06,-41.82 69.52,-42.62 70.98,-43.42 72.59,-43.86 74.20,-44.29 75.87,-44.32 77.53,-44.35 79.16,-43.99 80.78,-43.62 82.28,-42.88 83.77,-42.13 85.04,-41.05 86.31,-39.97 87.28,-38.62 88.25,-37.27 88.88,-35.72 89.50,-34.18 89.73,-32.53 89.97,-30.88 89.80,-29.22 89.63,-27.56 89.07,-25.99 88.51,-24.42 87.59,-23.03 86.67,-21.64 85.45,-20.51 84.22,-19.38 84.91,-13.77 85.59,-8.16 84.77,-3.43 83.96,1.29 83.28,4.83 82.60,8.37 82.08,10.46 81.56,12.55 80.40,14.37 79.23,16.19 77.55,17.54 75.87,18.89 73.85,19.64 71.82,20.38 69.67,20.44 67.51,20.50 65.45,19.86 63.39,19.23 61.64,17.97 59.88,16.72 58.62,14.96 57.37,13.21 56.73,11.15 56.10,9.09 56.16,6.93 56.22,4.78 56.96,2.75 57.70,0.73 59.05,-0.94 60.40,-2.63 62.22,-3.79 64.04,-4.95 66.13,-5.47 68.23,-5.99 70.38,-5.82 72.53,-5.64 74.51,-4.79 76.49,-3.94 78.09,-2.50 79.70,-1.06 80.76,0.81 81.82,2.69 82.23,4.81 82.64,6.93 82.35,9.06 82.05,11.20 81.10,13.13 80.14,15.06 78.61,16.59 77.09,18.12 75.15,19.07 73.22,20.03 71.09,20.32 68.95,20.61 66.83,20.21 64.71,19.80 62.83,18.74 60.96,17.68 59.52,16.07 58.08,14.47 57.22,12.49 56.37,10.50 56.20,8.35 56.02,6.20 56.02,6.21 56.02,6.21 57.02,2.00 58.02,-2.20 59.06,-7.12 60.10,-12.04 60.68,-16.27 61.27,-20.51 64.66,-31.16 68.06,-41.82 69.52,-42.62 70.98,-43.42 72.59,-43.85 74.20,-44.29 75.87,-44.32 77.53,-44.35 79.16,-43.99 80.78,-43.62 82.27,-42.88 83.77,-42.13 85.04,-41.05 86.30,-39.97 87.28,-38.62 88.25,-37.27 88.88,-35.72 89.50,-34.18 89.73,-32.53 89.97,-30.88 89.80,-29.22 89.63,-27.56 89.07,-25.99 88.51,-24.42 87.59,-23.03 86.67,-21.64 85.45,-20.51 84.22,-19.38 81.45,-16.73 78.68,-14.07 74.78,-9.34 70.88,-4.61 67.87,0.14 64.85,4.90 61.46,9.46 58.06,14.03 55.01,18.23 51.97,22.43 48.48,25.93 44.99,29.43 44.37,30.92 43.75,32.41 42.80,33.71 41.84,35.01 40.60,36.04 39.36,37.07 37.91,37.77 36.46,38.48 34.88,38.81 33.30,39.15 31.69,39.10 30.08,39.05 28.52,38.61 26.97,38.18 25.57,37.38 24.16,36.59 22.99,35.48 21.82,34.37 20.94,33.02 20.07,31.66 19.55,30.14 19.02,28.61 18.88,27.01 18.73,25.40 18.98,23.81 19.22,22.21 19.86,19.51 20.50,16.80 23.24,11.12 25.98,5.44 26.93,0.75 27.88,-3.93 30.16,-8.98 32.44,-14.03 35.86,-20.62 39.28,-27.22 40.32,-28.40 41.35,-29.59 42.65,-30.49 43.94,-31.40 45.41,-31.97 46.88,-32.53 48.45,-32.73 50.01,-32.93 51.58,-32.75 53.14,-32.57 54.62,-32.02 56.10,-31.47 57.40,-30.58 58.71,-29.69 59.76,-28.52 60.81,-27.34 61.55,-25.95 62.29,-24.56 62.68,-23.03 63.07,-21.50 63.07,-19.93 63.08,-18.35 62.72,-16.82 62.35,-15.28 61.62,-13.88 60.90,-12.48 59.38,-11.57 57.86,-10.65 53.99,-6.03 50.13,-1.41 46.13,3.21 42.14,7.84 37.40,12.64 32.67,17.44 26.43,23.23 20.18,29.02 19.35,30.24 18.52,31.46 17.43,32.44 16.33,33.43 15.03,34.12 13.73,34.82 12.31,35.18 10.88,35.54 9.41,35.55 7.93,35.56 6.50,35.22 5.07,34.88 3.76,34.20 2.45,33.53 1.34,32.56 0.23,31.59 -0.61,30.38 -1.45,29.18 -1.98,27.80 -2.52,26.43 -2.70,24.97 -2.89,23.51 -2.73,22.04 -2.56,20.58 -2.05,19.20 -1.53,17.82 -0.48,15.86 0.57,13.91 3.83,7.66 7.08,1.42 10.54,-4.95 13.99,-11.33 18.28,-16.42 22.56,-21.51 23.87,-21.80 25.18,-22.08 26.53,-22.05 27.87,-22.01 29.16,-21.65 30.46,-21.29 31.63,-20.64 32.80,-19.98 33.78,-19.06 34.76,-18.14 35.49,-17.02 36.22,-15.89 36.66,-14.62 37.10,-13.35 37.23,-12.02 37.35,-10.68 37.15,-9.35 36.95,-8.02 36.44,-6.78 35.93,-5.54 35.14,-4.46 34.34,-3.37 33.31,-2.51 32.28,-1.65 31.08,-1.06 29.87,-0.47 25.98,0.39 22.09,1.27 18.04,2.74 13.98,4.21 9.57,6.67 5.15,9.12 3.99,9.61 2.82,10.09 1.57,10.28 0.32,10.47 -0.93,10.36 -2.19,10.25 -3.38,9.84 -4.58,9.43 -5.64,8.74 -6.70,8.05 -7.57,7.14 -8.43,6.22 -9.06,5.12 -9.68,4.02 -10.02,2.80 -10.36,1.58 -10.40,0.32 -10.44,-0.93 -10.17,-2.17 -9.91,-3.41 -9.36,-4.54 -8.80,-5.68 -8.00,-6.65 -7.19,-7.62 -6.17,-8.37 -5.15,-9.12 -5.15,-9.12 L -5.15,-9.12 Z"/></g><g stroke-linecap="round" transform="translate(1002 701.2078125) rotate(0 90 40)"><path d="M-0.96 1.89 L181.11 1.07 L179.1 79.1 L-0.75 79.51" stroke="none" stroke-width="0" fill="#40c057"/><path d="M-1.28 0.19 C37.49 2.09, 71.59 0.66, 179.09 1.98 M-0.05 0.31 C39.68 0.73, 80.01 0.78, 180.67 0.25 M179.89 0.13 C181.68 18.01, 178.95 37.08, 178.83 80.81 M180.01 -0.25 C179.38 23.67, 179.41 45.02, 180.57 80.68 M180.41 78.73 C127.02 79.69, 71.77 79.92, 1.91 78.11 M179.08 79.64 C110.35 78.92, 42.21 79.15, 0.63 79.58 M-0.43 78.96 C1.68 54.84, 1.94 30.86, 1.25 -1.54 M-0.21 80.19 C-0.71 58.35, 0.35 36.66, -0.29 -0.18" stroke="#000" stroke-width="1" fill="none"/></g><g transform="translate(1007 717.2078125) rotate(0 53.3544921875 24)"><text x="0" y="0" font-family="Helvetica, Segoe UI Emoji" font-size="20px" fill="#000" text-anchor="start" style="white-space: pre;" direction="ltr" dominant-baseline="text-before-edge">consumerA:</text><text x="0" y="24" font-family="Helvetica, Segoe UI Emoji" font-size="20px" fill="#000" text-anchor="start" style="white-space: pre;" direction="ltr" dominant-baseline="text-before-edge">reading</text></g><g stroke-linecap="round" transform="translate(942 181.20781250000005) rotate(0 210 110)"><path d="M-0.9 -0.9 L419.25 -0.49 L420.89 221 L0.84 219.12" stroke="none" stroke-width="0" fill="#868e96"/><path d="M-0.62 -0.02 C129.51 -0.51, 259.14 -2.16, 420.12 -0.05 M0.51 0.52 C139.41 -1.93, 277.72 -2.06, 420.25 -0.03 M419.07 0.78 C420.57 68.15, 421.33 133.88, 420.62 220.02 M419.9 -0.54 C420.2 61.01, 419.74 121.35, 420.24 220.18 M420.43 219.69 C321.74 218.09, 222.32 218.88, -0.26 219.02 M420.01 219.78 C309.44 218.35, 198.26 218.58, -0.34 219.89 M1.69 220.37 C-0.53 164.13, -2.1 111.39, 0.81 -0.36 M0.49 220.12 C0.69 149.76, 0.52 80.66, 0.48 0.46" stroke="#000" stroke-width="1" fill="none"/></g><g transform="translate(947 207.20781250000005) rotate(0 203.14453125 84)"><text x="0" y="0" font-family="Helvetica, Segoe UI Emoji" font-size="20px" fill="#000" text-anchor="start" style="white-space: pre;" direction="ltr" dominant-baseline="text-before-edge">Первый потребитель читает слот 0, второй </text><text x="0" y="24" font-family="Helvetica, Segoe UI Emoji" font-size="20px" fill="#000" text-anchor="start" style="white-space: pre;" direction="ltr" dominant-baseline="text-before-edge">потребитель закончил чтение слота 1 и </text><text x="0" y="48" font-family="Helvetica, Segoe UI Emoji" font-size="20px" fill="#000" text-anchor="start" style="white-space: pre;" direction="ltr" dominant-baseline="text-before-edge">пометил его как прочтенный. Чтобы </text><text x="0" y="72" font-family="Helvetica, Segoe UI Emoji" font-size="20px" fill="#000" text-anchor="start" style="white-space: pre;" direction="ltr" dominant-baseline="text-before-edge">продюсер не затер в это время слот 0, </text><text x="0" y="96" font-family="Helvetica, Segoe UI Emoji" font-size="20px" fill="#000" text-anchor="start" style="white-space: pre;" direction="ltr" dominant-baseline="text-before-edge">барьер не должен быть передвинут пока </text><text x="0" y="120" font-family="Helvetica, Segoe UI Emoji" font-size="20px" fill="#000" text-anchor="start" style="white-space: pre;" direction="ltr" dominant-baseline="text-before-edge">первый потребитель не пометит этот слот </text><text x="0" y="144" font-family="Helvetica, Segoe UI Emoji" font-size="20px" fill="#000" text-anchor="start" style="white-space: pre;" direction="ltr" dominant-baseline="text-before-edge">как прочтенный.</text></g><g stroke-linecap="round"><g transform="translate(701.4054818882478 783.1389542539248) rotate(0 42.87059141429033 -10.965570876962374)"><path d="M0.79 0.03 C4.36 -0.56, 6.59 0.55, 20.61 -3.03 C34.63 -6.6, 73.96 -18.11, 84.89 -21.42 M-0.26 -1.01 C3.23 -1.53, 5.07 1.68, 19.67 -2.06 C34.27 -5.81, 76.16 -20.12, 87.34 -23.49" stroke="#000000" stroke-width="1" fill="none"/></g><g transform="translate(701.4054818882478 783.1389542539248) rotate(0 42.87059141429033 -10.965570876962374)"><path d="M63.69 -5.06 C67.18 -10.87, 75.29 -12.85, 85.79 -23.36 M64.2 -5.57 C68.78 -9.53, 74.9 -13.87, 87.47 -23.57" stroke="#000000" stroke-width="1" fill="none"/></g><g transform="translate(701.4054818882478 783.1389542539248) rotate(0 42.87059141429033 -10.965570876962374)"><path d="M57.41 -24.6 C62.42 -25.97, 71.97 -23.47, 85.79 -23.36 M57.92 -25.11 C63.98 -24.83, 71.47 -24.89, 87.47 -23.57" stroke="#000000" stroke-width="1" fill="none"/></g></g><mask/><g stroke-linecap="round" transform="translate(1002 561.2078125) rotate(0 90 40)"><path d="M-0.76 -1.27 L181.3 0.87 L181.48 79.12 L-1.32 78.78" stroke="none" stroke-width="0" fill="#228be6"/><path d="M1.41 -0.5 C60.13 0.66, 122.67 0.23, 178.68 1.61 M0.58 0.48 C57.35 0.81, 114.7 0.13, 180.29 -0.51 M179.12 -0.92 C180.21 29.96, 181.15 61.38, 181.61 80.48 M180.5 0.74 C178.91 22.48, 179.34 45.78, 180.59 80.05 M181.73 81.38 C127.51 79.49, 70.74 80.89, -1.23 80.75 M180.85 79.71 C124.59 80.72, 67.97 81.5, -0.62 80.4 M0.04 79.41 C0.53 51.7, 1.1 17.94, 1.28 -1.07 M0.23 79.17 C-0.9 64.13, -0.34 45.95, 0.59 0.63" stroke="#000" stroke-width="1" fill="none"/></g><g transform="translate(1007 577.2078125) rotate(0 58.3544921875 24)"><text x="0" y="0" font-family="Helvetica, Segoe UI Emoji" font-size="20px" fill="#000" text-anchor="start" style="white-space: pre;" direction="ltr" dominant-baseline="text-before-edge">consumerB:</text><text x="0" y="24" font-family="Helvetica, Segoe UI Emoji" font-size="20px" fill="#000" text-anchor="start" style="white-space: pre;" direction="ltr" dominant-baseline="text-before-edge">mark as read</text></g><g stroke-linecap="round"><g transform="translate(1002 601.2078125) rotate(0 -60 30)"><path d="M1.09 -1.16 C-9.22 2.16, -40.79 9.73, -60.94 19.82 C-81.09 29.91, -109.88 52.68, -119.82 59.37 M0.21 0.84 C-9.81 4.36, -38.6 11.35, -58.72 21.27 C-78.83 31.19, -110.17 53.72, -120.49 60.36" stroke="#000000" stroke-width="1" fill="none"/></g><g transform="translate(1002 601.2078125) rotate(0 -60 30)"><path d="M-104.78 34.53 C-109.82 45.72, -117.23 53.6, -120.5 58.9 M-103.32 36.77 C-109.18 45.18, -115 54.39, -119.99 59.88" stroke="#000000" stroke-width="1" fill="none"/></g><g transform="translate(1002 601.2078125) rotate(0 -60 30)"><path d="M-93.31 51.55 C-102.66 56.42, -114.41 57.88, -120.5 58.9 M-91.86 53.79 C-101.99 55.96, -112.02 58.91, -119.99 59.88" stroke="#000000" stroke-width="1" fill="none"/></g></g><mask/><g stroke-linecap="round"><g transform="translate(1002 761.2078125) rotate(0 -60 -20)"><path d="M0.65 0.18 C-9.49 -3.04, -40.7 -12.47, -60.89 -19.29 C-81.08 -26.11, -110.63 -37.5, -120.49 -40.75 M-0.46 -0.77 C-10.23 -4.33, -38.47 -14.53, -58.65 -21.04 C-78.82 -27.55, -111.31 -36.54, -121.52 -39.83" stroke="#000000" stroke-width="1" fill="none"/></g><g transform="translate(1002 761.2078125) rotate(0 -60 -20)"><path d="M-91.27 -43.05 C-99.33 -41.71, -110.7 -40.53, -119.56 -39.13 M-92.12 -41.56 C-101.86 -40.04, -113.57 -40.19, -120.7 -39.12" stroke="#000000" stroke-width="1" fill="none"/></g><g transform="translate(1002 761.2078125) rotate(0 -60 -20)"><path d="M-97.16 -23.39 C-103.46 -27.95, -113.08 -32.64, -119.56 -39.13 M-98.02 -21.9 C-105.59 -27.28, -115.22 -34.35, -120.7 -39.12" stroke="#000000" stroke-width="1" fill="none"/></g></g><mask/><g stroke-linecap="round"><g transform="translate(782 681.2078125) rotate(0 -200 40)"><path d="M0.5 0.41 C-43.07 3.71, -194.5 6.03, -261.19 19.26 C-327.89 32.48, -376.35 69.51, -399.67 79.75 M-0.7 -0.42 C-43.93 3.07, -192.52 6.84, -259.11 20.4 C-325.7 33.97, -376.53 71.26, -400.26 80.94" stroke="#228be6" stroke-width="1" fill="none"/></g><g transform="translate(782 681.2078125) rotate(0 -200 40)"><path d="M-379.32 56.82 C-387.72 66.41, -393.26 70.93, -399.09 79.87 M-379.06 58.03 C-387.79 66.68, -395.23 75.37, -399.74 81.07" stroke="#228be6" stroke-width="1" fill="none"/></g><g transform="translate(782 681.2078125) rotate(0 -200 40)"><path d="M-369.84 75.02 C-381.13 78.92, -389.66 77.72, -399.09 79.87 M-369.58 76.23 C-381.87 77.92, -392.92 79.67, -399.74 81.07" stroke="#228be6" stroke-width="1" fill="none"/></g></g><mask/><g stroke-linecap="round"><g transform="translate(402 381.20781250000005) rotate(0 110 190)"><path d="M-0.69 0.58 C36.05 27.26, 182.81 96.72, 219.6 160.09 C256.39 223.47, 220.15 344.18, 220.07 380.83" stroke="#fd7e14" stroke-width="1.5" fill="none" stroke-dasharray="1.5 7"/></g><g transform="translate(402 381.20781250000005) rotate(0 110 190)"><path d="M214.58 350.86 C215.25 358.39, 217.95 363.45, 219.97 379.3" stroke="#fd7e14" stroke-width="1.5" fill="none" stroke-dasharray="1.5 5"/></g><g transform="translate(402 381.20781250000005) rotate(0 110 190)"><path d="M234.92 353.57 C230.93 360.36, 228.97 364.8, 219.97 379.3" stroke="#fd7e14" stroke-width="1.5" fill="none" stroke-dasharray="1.5 5"/></g></g><mask/><g stroke-linecap="round"><g transform="translate(782 401.20781250000005) rotate(0 -260 130)"><path d="M0.77 -0.72 C-55.93 12.71, -252.58 36.73, -339.22 80.34 C-425.86 123.94, -489.01 230.78, -519.1 260.92" stroke="#e67700" stroke-width="1.5" fill="none" stroke-dasharray="1.5 7"/></g><g transform="translate(782 401.20781250000005) rotate(0 -260 130)"><path d="M-510.51 233.86 C-512.54 244.93, -515.3 254.65, -517.19 260.57" stroke="#e67700" stroke-width="1.5" fill="none" stroke-dasharray="1.5 5"/></g><g transform="translate(782 401.20781250000005) rotate(0 -260 130)"><path d="M-494.57 246.8 C-502.65 253.04, -511.49 257.82, -517.19 260.57" stroke="#e67700" stroke-width="1.5" fill="none" stroke-dasharray="1.5 5"/></g></g><mask/><g stroke-linecap="round"><g transform="translate(782 701.2078125) rotate(0 -250 -50)"><path d="M-0.79 0.43 C-47.5 -16.38, -196.48 -97.81, -279.69 -101.2 C-362.89 -104.58, -463.17 -33.48, -500.02 -19.88 M0.99 -0.39 C-45.9 -17.07, -196.84 -97.27, -280.47 -100.29 C-364.1 -103.31, -464.05 -32.17, -500.8 -18.5" stroke="#40c057" stroke-width="1" fill="none"/></g><g transform="translate(782 701.2078125) rotate(0 -250 -50)"><path d="M-479.55 -39.86 C-489.45 -32.97, -494.37 -26.66, -500.14 -18.32 M-480.04 -40.18 C-487.14 -33.04, -496.39 -22.99, -500.42 -19.02" stroke="#40c057" stroke-width="1" fill="none"/></g><g transform="translate(782 701.2078125) rotate(0 -250 -50)"><path d="M-470.29 -21.54 C-483.35 -21.06, -491.49 -21.11, -500.14 -18.32 M-470.78 -21.87 C-481.35 -21.75, -494.12 -18.66, -500.42 -19.02" stroke="#40c057" stroke-width="1" fill="none"/></g></g><mask/><g stroke-linecap="round"><g transform="translate(1282 421.20781250000005) rotate(0 -340 250)"><path d="M-0.22 0.18 C-0.47 60, 39.5 276.86, -0.52 360.05 C-40.54 443.25, -140.26 482.68, -240.31 499.37 C-340.36 516.05, -527.7 483.51, -600.84 460.15 C-673.98 436.8, -665.98 376.13, -679.16 359.24 M-1.79 -0.77 C-2.34 59.77, 38.17 278.1, -1.74 361.62 C-41.65 445.14, -141.36 483.73, -241.24 500.35 C-341.12 516.97, -527.87 484.86, -601.03 461.34 C-674.19 437.82, -667.29 375.99, -680.2 359.24" stroke="#000000" stroke-width="1" fill="none"/></g><g transform="translate(1282 421.20781250000005) rotate(0 -340 250)"><path d="M-660.71 381.44 C-668.52 372.89, -677.05 363.13, -679.94 360.63 M-661.62 382.53 C-664.82 376.82, -669.67 372.18, -680.98 359.79" stroke="#000000" stroke-width="1" fill="none"/></g><g transform="translate(1282 421.20781250000005) rotate(0 -340 250)"><path d="M-680.03 388.37 C-680.48 377.18, -681.57 364.76, -679.94 360.63 M-680.94 389.46 C-679.56 382.29, -679.83 376.01, -680.98 359.79" stroke="#000000" stroke-width="1" fill="none"/></g></g><mask/></svg>