<svg version="1.1" xmlns="http://www.w3.org/2000/svg" viewBox="0 0 642.8673195447022 599.7050855089498" width="642.8673195447022" height="599.7050855089498">
  <!-- svg-source:excalidraw -->
  
  <defs>
    <style class="style-fonts">
      @font-face {
        font-family: "Virgil";
        src: url("https://excalidraw.com/Virgil.woff2");
      }
      @font-face {
        font-family: "Cascadia";
        src: url("https://excalidraw.com/Cascadia.woff2");
      }
    </style>
  </defs>
  <g stroke-linecap="round" transform="translate(177.57169584801176 148.34090909090918) rotate(0 155.75 152.25)"><path d="M183.03 2.22 C198.6 2.21, 214.56 9.93, 228.81 17.11 C243.05 24.28, 257.5 33.94, 268.5 45.25 C279.49 56.56, 288.04 70.57, 294.78 84.96 C301.53 99.35, 306.47 116.1, 308.97 131.59 C311.47 147.07, 312.44 162.57, 309.79 177.86 C307.13 193.16, 300.64 209.52, 293.03 223.34 C285.42 237.15, 275.72 249.73, 264.13 260.75 C252.54 271.78, 237.72 282.31, 223.49 289.49 C209.26 296.68, 194.34 301.73, 178.75 303.89 C163.17 306.05, 145.82 305.44, 129.97 302.45 C114.12 299.47, 98 293.31, 83.65 285.99 C69.29 278.68, 55.08 269.68, 43.85 258.56 C32.62 247.45, 23.34 233.54, 16.26 219.29 C9.17 205.04, 3.61 188.59, 1.34 173.07 C-0.93 157.55, -0.16 141.55, 2.64 126.16 C5.43 110.76, 10.76 94.69, 18.1 80.7 C25.44 66.72, 35.03 53, 46.67 42.27 C58.32 31.55, 73.58 23.07, 87.98 16.36 C102.39 9.65, 115.58 3.96, 133.11 2.02 C150.64 0.08, 181.51 3.42, 193.18 4.75 C204.86 6.07, 203.71 7.43, 203.14 9.96 M171.6 0.73 C187.19 -0.09, 204.28 7.42, 218.64 13.9 C233 20.39, 245.7 29.26, 257.75 39.66 C269.79 50.06, 282.52 63.03, 290.91 76.28 C299.3 89.54, 304.66 104.14, 308.08 119.2 C311.49 134.26, 312.94 151.19, 311.4 166.63 C309.87 182.07, 305.22 197.13, 298.87 211.83 C292.52 226.53, 284 243.02, 273.29 254.82 C262.58 266.62, 248.72 274.77, 234.61 282.64 C220.5 290.5, 204.56 298.37, 188.64 302.01 C172.73 305.64, 155.03 305.99, 139.14 304.44 C123.25 302.89, 108.02 299.01, 93.3 292.7 C78.58 286.39, 62.8 277.35, 50.79 266.6 C38.78 255.85, 28.99 241.75, 21.23 228.22 C13.46 214.68, 7.58 200.82, 4.22 185.42 C0.86 170.02, -0.4 151.53, 1.06 135.82 C2.52 120.1, 6.81 105.1, 12.98 91.15 C19.15 77.19, 27.6 63.84, 38.1 52.09 C48.6 40.35, 62.02 29, 75.97 20.66 C89.92 12.33, 105.92 5.64, 121.81 2.07 C137.7 -1.49, 163.18 -0.89, 171.29 -0.72 C179.4 -0.54, 170.98 0.42, 170.49 3.11" stroke="#000000" stroke-width="1" fill="none"/></g><g stroke-linecap="round"><g transform="translate(259.2194231207391 410.1022727272727) rotate(0 -45.26136363636368 42.801136363636374)"><path d="M0.54 0.79 C-14.61 15.03, -75.17 70.9, -90.29 85.11 M-0.63 0.16 C-15.98 14.59, -76.09 72.43, -91.11 86.39" stroke="#000000" stroke-width="1" fill="none"/></g></g><mask/><g stroke-linecap="round"><g transform="translate(423.94669584801176 199.46590909090918) rotate(0 41.18559088417663 -37.78229630630727)"><path d="M0.77 -1.19 C14.49 -13.8, 69.35 -63.37, 82.81 -75.68 M-0.28 0.8 C13.27 -11.62, 68.05 -61.21, 82.1 -74.21" stroke="#000000" stroke-width="1" fill="none"/></g></g><mask/><g transform="translate(143.8785140298299 508.34090909090895) rotate(0 6 11.5)"><text x="0" y="18" font-family="Helvetica, Segoe UI Emoji" font-size="20px" fill="#000000" text-anchor="start" style="white-space: pre;" direction="ltr">0</text></g><g transform="translate(487.06904962001573 99.42520225310471) rotate(0 17 11.5)"><text x="0" y="18" font-family="Helvetica, Segoe UI Emoji" font-size="20px" fill="#000000" text-anchor="start" style="white-space: pre;" direction="ltr">128</text></g><g stroke-linecap="round"><g transform="translate(400.61715039346626 162.70454545454555) rotate(0 53.369318181818244 -58.732954545454504)"><path d="M-0.69 1.19 C17.02 -18.06, 87.99 -96.94, 105.86 -116.58 M1.14 0.78 C19.27 -18.72, 90.69 -98.35, 108.11 -118.24" stroke="#000000" stroke-width="1" fill="none"/></g></g><mask/><g transform="translate(487.0148776661935 10) rotate(0 17 11.5)"><text x="0" y="18" font-family="Helvetica, Segoe UI Emoji" font-size="20px" fill="#000000" text-anchor="start" style="white-space: pre;" direction="ltr">129</text></g><g stroke-linecap="round"><g transform="translate(218.06357798040852 463.7723336487776) rotate(0 150.67145771621472 -166.59886076786398)"><path d="M-0.88 -1.15 C49.51 -4.46, 252.42 36.34, 301.19 -19.02 C349.95 -74.39, 292.98 -280.97, 291.69 -333.34 M0.86 0.85 C51.18 -2.84, 251.27 34.91, 300.15 -20.58 C349.04 -76.07, 295.14 -280.17, 294.16 -332.1" stroke="#5c940d" stroke-width="1" fill="none"/></g><g transform="translate(218.06357798040852 463.7723336487776) rotate(0 150.67145771621472 -166.59886076786398)"><path d="M306.24 -305.83 C306.89 -312.51, 301.97 -314.99, 294.11 -331.55 M307.42 -305.69 C305.33 -310.45, 302.31 -317.64, 293.25 -331.58" stroke="#5c940d" stroke-width="1" fill="none"/></g><g transform="translate(218.06357798040852 463.7723336487776) rotate(0 150.67145771621472 -166.59886076786398)"><path d="M285.91 -303.03 C290.73 -310.14, 289.99 -313.19, 294.11 -331.55 M287.09 -302.89 C289.29 -308.16, 290.55 -315.94, 293.25 -331.58" stroke="#5c940d" stroke-width="1" fill="none"/></g></g><mask/><g stroke-linecap="round"><g transform="translate(210.65124130255714 361.8522727272727) rotate(0 -35.176136363636374 13.784090909091105)"><path d="M0.01 0.39 C-11.6 4.97, -59.28 23.77, -70.86 28.2 M-1.44 -0.44 C-13.15 3.71, -60.69 21.67, -72.08 26.4" stroke="#000000" stroke-width="1" fill="none"/></g></g><mask/><g stroke-linecap="round"><g transform="translate(200.1966958480117 482.814561618974) rotate(0 181.0260304417793 -216.28796591907332)"><path d="M0.84 -0.52 C61.42 -0.98, 308.27 69.53, 362.63 -2.67 C416.98 -74.86, 333.05 -362.2, 326.97 -433.69 M-0.17 1.81 C60.37 1.02, 307.5 68.09, 361.98 -4.37 C416.46 -76.83, 332.62 -361.41, 326.7 -432.96" stroke="#e67700" stroke-width="1" fill="none"/></g><g transform="translate(200.1966958480117 482.814561618974) rotate(0 181.0260304417793 -216.28796591907332)"><path d="M341.06 -406.16 C339.76 -411.38, 333.07 -418.67, 328.32 -432.43 M341.67 -406.22 C336.11 -417.02, 330.23 -426.33, 325.81 -433.05" stroke="#e67700" stroke-width="1" fill="none"/></g><g transform="translate(200.1966958480117 482.814561618974) rotate(0 181.0260304417793 -216.28796591907332)"><path d="M320.89 -402.41 C324.21 -408.64, 322.16 -416.78, 328.32 -432.43 M321.5 -402.47 C323.46 -414.69, 325.13 -425.4, 325.81 -433.05" stroke="#e67700" stroke-width="1" fill="none"/></g></g><mask/><g transform="translate(45.310332211647676 90.1931818181817) rotate(0 76 11.5)"><text x="0" y="18" font-family="Helvetica, Segoe UI Emoji" font-size="20px" fill="#5c940d" text-anchor="start" style="white-space: pre;" direction="ltr">precedes == true</text></g><g transform="translate(459.98588080098995 558.0862068965519) rotate(0 83 11.5)"><text x="0" y="18" font-family="Helvetica, Segoe UI Emoji" font-size="20px" fill="#e67700" text-anchor="start" style="white-space: pre;" direction="ltr">precedes  == false</text></g><g stroke-linecap="round"><g transform="translate(451.94669584801176 247.46590909090918) rotate(0 22.5 -16)"><path d="M0.29 0.99 C7.61 -4.43, 37.68 -26.85, 45.09 -32.45 M-1.02 0.46 C6.05 -4.8, 36.71 -25.8, 44.18 -31.15" stroke="#000000" stroke-width="1" fill="none"/></g></g><mask/><g transform="translate(470.44669584801176 183.96590909090918) rotate(0 17 11.5)"><text x="0" y="18" font-family="Helvetica, Segoe UI Emoji" font-size="20px" fill="#000000" text-anchor="start" style="white-space: pre;" direction="ltr">127</text></g><g stroke-linecap="round"><g transform="translate(311.44669584801176 434.9659090909092) rotate(0 -2.471590909090878 59.624999999999886)"><path d="M0.96 0.43 C0.38 20.44, -3.56 100.35, -4.5 120.1 M0 -0.39 C-0.6 19.29, -4.33 98.34, -5.22 118.43" stroke="#000000" stroke-width="1" fill="none"/></g></g><mask/><g transform="translate(282.98078675710263 539.9772727272727) rotate(0 6 11.5)"><text x="0" y="18" font-family="Helvetica, Segoe UI Emoji" font-size="20px" fill="#000000" text-anchor="start" style="white-space: pre;" direction="ltr">1</text></g><g stroke-linecap="round"><g transform="translate(42.59469696969683 124.13350903482484) rotate(0 79.54545454545462 0)"><path d="M0.95 -0.96 C27.36 -1.21, 132.55 -1.35, 158.75 -1.01 M-0.02 1.15 C26.18 0.97, 130.86 0.31, 157.63 0" stroke="#5c940d" stroke-width="1" fill="none"/></g></g><mask/><g stroke-linecap="round"><g transform="translate(197.14015151515156 126.86078176209747) rotate(0 40.17045454545456 40.19886363636368)"><path d="M-0.69 -0.38 C12.92 13.28, 67.92 67.64, 81.28 80.95 M1.15 -1.62 C14.72 11.77, 67.37 65.45, 80.82 79.11" stroke="#5c940d" stroke-width="1" fill="none"/></g></g><mask/><g stroke-linecap="round"><g transform="translate(450.32784743991664 587.0919729846685) rotate(0 90.84639498432614 0.5485893416927752)"><path d="M-0.85 0.7 C29.46 0.95, 152.17 1.67, 182.54 1.69 M0.9 0.02 C31.08 -0.09, 152.11 -0.44, 182.04 -0.12" stroke="#e67700" stroke-width="1" fill="none"/></g></g><mask/><g stroke-linecap="round"><g transform="translate(448.8799634273775 588.7612519815339) rotate(0 -15.180250783699108 -39.95591692789981)"><path d="M-0.44 -1.1 C-5.56 -14.62, -24.68 -67.68, -29.67 -80.79 M1.53 0.94 C-3.77 -12.49, -24.8 -66.5, -30.25 -79.72" stroke="#e67700" stroke-width="1" fill="none"/></g></g><mask/><g stroke-linecap="round"><g transform="translate(428.04924242424255 201.69032721664308) rotate(0 -86.7045454545455 103.1818181818183)"><path d="M0.96 0.57 C-26.54 2.66, -136.57 -21.96, -165.71 12.25 C-194.85 46.45, -172.71 173.54, -173.9 205.81 M0.01 -0.17 C-27.59 2.15, -137.52 -20.7, -166.67 13.8 C-195.83 48.3, -173.99 174.69, -174.92 206.84" stroke="#5c940d" stroke-width="1" fill="none"/></g><g transform="translate(428.04924242424255 201.69032721664308) rotate(0 -86.7045454545455 103.1818181818183)"><path d="M-186.09 179.35 C-184.14 185.08, -182.21 193.48, -175.78 207.32 M-186.95 179.71 C-183.53 188.65, -178.62 196.32, -175.3 206.25" stroke="#5c940d" stroke-width="1" fill="none"/></g><g transform="translate(428.04924242424255 201.69032721664308) rotate(0 -86.7045454545455 103.1818181818183)"><path d="M-165.62 177.97 C-168.59 184.19, -171.57 192.93, -175.78 207.32 M-166.47 178.33 C-169.38 187.58, -170.79 195.68, -175.3 206.25" stroke="#5c940d" stroke-width="1" fill="none"/></g></g><mask/><g stroke-linecap="round"><g transform="translate(431.6856060606062 193.22441812573396) rotate(0 -66.84659090909093 118.63636363636374)"><path d="M0.3 -0.79 C-22.04 12.96, -114.82 43.47, -134.88 82.99 C-154.95 122.5, -122.39 210.44, -120.09 236.29 M-1 1.4 C-22.91 14.79, -112.89 42.02, -132.8 81.3 C-152.7 120.58, -122.41 211.31, -120.42 237.1" stroke="#e67700" stroke-width="1" fill="none"/></g><g transform="translate(431.6856060606062 193.22441812573396) rotate(0 -66.84659090909093 118.63636363636374)"><path d="M-137.2 209.4 C-130.88 218.56, -130.38 222.83, -119.01 235.62 M-136.62 210.85 C-130.64 219.88, -126.47 228.26, -119.91 237.82" stroke="#e67700" stroke-width="1" fill="none"/></g><g transform="translate(431.6856060606062 193.22441812573396) rotate(0 -66.84659090909093 118.63636363636374)"><path d="M-117.05 205.48 C-115.31 215.59, -119.38 220.74, -119.01 235.62 M-116.47 206.93 C-116.96 217.38, -119.27 227.03, -119.91 237.82" stroke="#e67700" stroke-width="1" fill="none"/></g></g><mask/><g stroke-linecap="round"><g transform="translate(260.89015151515156 218.84941812573408) rotate(0 -22.98295454545456 70.45454545454544)"><path d="M-0.57 -0.98 C-7.11 8.64, -32.53 34.48, -40.28 58.03 C-48.02 81.58, -46.18 126.45, -47.04 140.33 M1.33 1.12 C-5.19 10.82, -33.04 35.61, -40.71 58.98 C-48.39 82.35, -44.01 127.4, -44.71 141.34" stroke="#5c940d" stroke-width="1" fill="none"/></g><g transform="translate(260.89015151515156 218.84941812573408) rotate(0 -22.98295454545456 70.45454545454544)"><path d="M-57.01 114.92 C-54.89 117.56, -51.71 126.26, -44.04 142.96 M-54.69 112.62 C-53.53 119.52, -50.39 125.43, -45.21 141.16" stroke="#5c940d" stroke-width="1" fill="none"/></g><g transform="translate(260.89015151515156 218.84941812573408) rotate(0 -22.98295454545456 70.45454545454544)"><path d="M-36.49 114.62 C-38.76 117.23, -39.97 126, -44.04 142.96 M-34.17 112.32 C-37.25 119.19, -38.35 125.16, -45.21 141.16" stroke="#5c940d" stroke-width="1" fill="none"/></g></g><mask/><g transform="translate(10 398.63729691361294) rotate(0 78.5 11.5)"><text x="0" y="18" font-family="Helvetica, Segoe UI Emoji" font-size="20px" fill="#000000" text-anchor="start" style="white-space: pre;" direction="ltr">255 (max uint8_t)</text></g><g stroke-linecap="round"><g transform="translate(536.6465039393502 331.2445458562914) rotate(0 -20.57635447820718 -52.27506272841825)"><path d="M-0.88 0.39 C-7.88 -16.97, -35.19 -87.4, -41.87 -104.7 M0.87 -0.45 C-5.76 -17.57, -32.45 -85.79, -39.53 -103.25" stroke="#5c940d" stroke-width="1" fill="none"/></g><g transform="translate(536.6465039393502 331.2445458562914) rotate(0 -20.57635447820718 -52.27506272841825)"><path d="M-18.93 -82.02 C-25.96 -87.61, -30.05 -95.06, -40.2 -104.65 M-19.09 -80.96 C-26.21 -88.9, -33.51 -96.5, -39.68 -104.05" stroke="#5c940d" stroke-width="1" fill="none"/></g><g transform="translate(536.6465039393502 331.2445458562914) rotate(0 -20.57635447820718 -52.27506272841825)"><path d="M-38 -74.45 C-39.05 -82.26, -37.2 -92.07, -40.2 -104.65 M-38.17 -73.38 C-38.39 -84.16, -38.83 -94.49, -39.68 -104.05" stroke="#5c940d" stroke-width="1" fill="none"/></g></g><mask/></svg>