<svg version="1.1" xmlns="http://www.w3.org/2000/svg" viewBox="0 0 594.8093128307971 500.86937925842255" width="594.8093128307971" height="500.86937925842255">
  <!-- svg-source:excalidraw -->
  
  <defs>
    <style class="style-fonts">
      @font-face {
        font-family: "Virgil";
        src: url("https://excalidraw.com/Virgil.woff2");
      }
      @font-face {
        font-family: "Cascadia";
        src: url("https://excalidraw.com/Cascadia.woff2");
      }
    </style>
  </defs>
  <g stroke-linecap="round" transform="translate(173.45155421010742 119.93834477566406) rotate(0 155.75 152.25)"><path d="M183.03 2.22 C198.6 2.21, 214.56 9.93, 228.81 17.11 C243.05 24.28, 257.5 33.94, 268.5 45.25 C279.49 56.56, 288.04 70.57, 294.78 84.96 C301.53 99.35, 306.47 116.1, 308.97 131.59 C311.47 147.07, 312.44 162.57, 309.79 177.86 C307.13 193.16, 300.64 209.52, 293.03 223.34 C285.42 237.15, 275.72 249.73, 264.13 260.75 C252.54 271.78, 237.72 282.31, 223.49 289.49 C209.26 296.68, 194.34 301.73, 178.75 303.89 C163.17 306.05, 145.82 305.44, 129.97 302.45 C114.12 299.47, 98 293.31, 83.65 285.99 C69.29 278.68, 55.08 269.68, 43.85 258.56 C32.62 247.45, 23.34 233.54, 16.26 219.29 C9.17 205.04, 3.61 188.59, 1.34 173.07 C-0.93 157.55, -0.16 141.55, 2.64 126.16 C5.43 110.76, 10.76 94.69, 18.1 80.7 C25.44 66.72, 35.03 53, 46.67 42.27 C58.32 31.55, 73.58 23.07, 87.98 16.36 C102.39 9.65, 115.58 3.96, 133.11 2.02 C150.64 0.08, 181.51 3.42, 193.18 4.75 C204.86 6.07, 203.71 7.43, 203.14 9.96 M171.6 0.73 C187.19 -0.09, 204.28 7.42, 218.64 13.9 C233 20.39, 245.7 29.26, 257.75 39.66 C269.79 50.06, 282.52 63.03, 290.91 76.28 C299.3 89.54, 304.66 104.14, 308.08 119.2 C311.49 134.26, 312.94 151.19, 311.4 166.63 C309.87 182.07, 305.22 197.13, 298.87 211.83 C292.52 226.53, 284 243.02, 273.29 254.82 C262.58 266.62, 248.72 274.77, 234.61 282.64 C220.5 290.5, 204.56 298.37, 188.64 302.01 C172.73 305.64, 155.03 305.99, 139.14 304.44 C123.25 302.89, 108.02 299.01, 93.3 292.7 C78.58 286.39, 62.8 277.35, 50.79 266.6 C38.78 255.85, 28.99 241.75, 21.23 228.22 C13.46 214.68, 7.58 200.82, 4.22 185.42 C0.86 170.02, -0.4 151.53, 1.06 135.82 C2.52 120.1, 6.81 105.1, 12.98 91.15 C19.15 77.19, 27.6 63.84, 38.1 52.09 C48.6 40.35, 62.02 29, 75.97 20.66 C89.92 12.33, 105.92 5.64, 121.81 2.07 C137.7 -1.49, 163.18 -0.89, 171.29 -0.72 C179.4 -0.54, 170.98 0.42, 170.49 3.11" stroke="#000000" stroke-width="1" fill="none"/></g><g stroke-linecap="round"><g transform="translate(237.16824700007615 372.0445359982345) rotate(0 -59.05446708463954 52.801136363636346)"><path d="M0.54 0.79 C-19.21 18.37, -98.16 87.57, -117.87 105.11 M-0.63 0.16 C-20.58 17.93, -99.08 89.09, -118.7 106.39" stroke="#000000" stroke-width="1" fill="none"/></g></g><mask/><g stroke-linecap="round"><g transform="translate(408.7920714514867 180.37368960325026) rotate(0 16.875246056590463 -19.161606651134875)"><path d="M0.77 -1.19 C6.38 -7.59, 28.83 -32.33, 34.19 -38.44 M-0.28 0.8 C5.16 -5.41, 27.53 -30.18, 33.48 -36.96" stroke="#000000" stroke-width="1" fill="none"/></g></g><mask/><g transform="translate(137.34457928847723 467.86937925842255) rotate(0 6 11.5)"><text x="0" y="18" font-family="Helvetica, Segoe UI Emoji" font-size="20px" fill="#000000" text-anchor="start" style="white-space: pre;" direction="ltr">0</text></g><g transform="translate(433.6385631545252 116.19505173096303) rotate(0 17 11.5)"><text x="0" y="18" font-family="Helvetica, Segoe UI Emoji" font-size="20px" fill="#000000" text-anchor="start" style="white-space: pre;" direction="ltr">128</text></g><g transform="translate(547.0326670627719 220.90778051234105) rotate(0 17 11.5)"><text x="0" y="18" font-family="Helvetica, Segoe UI Emoji" font-size="20px" fill="#000000" text-anchor="start" style="white-space: pre;" direction="ltr">126</text></g><g stroke-linecap="round"><g transform="translate(207.5655824232735 327.58763944651037) rotate(0 -64.83130877742946 17.57719435736692)"><path d="M0.01 0.39 C-21.49 6.23, -108.71 30.09, -130.17 35.78 M-1.44 -0.44 C-23.04 4.98, -110.11 27.99, -131.39 33.99" stroke="#000000" stroke-width="1" fill="none"/></g></g><mask/><g transform="translate(426.3626043668467 427.3078588822469) rotate(0 76 11.5)"><text x="0" y="18" font-family="Helvetica, Segoe UI Emoji" font-size="20px" fill="#5c940d" text-anchor="start" style="white-space: pre;" direction="ltr">precedes == true</text></g><g transform="translate(16.249045516151966 10) rotate(0 83 11.5)"><text x="0" y="18" font-family="Helvetica, Segoe UI Emoji" font-size="20px" fill="#e67700" text-anchor="start" style="white-space: pre;" direction="ltr">precedes  == false</text></g><g stroke-linecap="round"><g transform="translate(424.37827834803835 231.13231029290537) rotate(0 55.94827586206904 -30.82758620689654)"><path d="M0.29 0.99 C18.76 -9.38, 93.43 -51.56, 111.98 -62.1 M-1.02 0.46 C17.2 -9.74, 92.46 -50.51, 111.08 -60.8" stroke="#000000" stroke-width="1" fill="none"/></g></g><mask/><g transform="translate(550.8093128307971 155.56334477566404) rotate(0 17 11.5)"><text x="0" y="18" font-family="Helvetica, Segoe UI Emoji" font-size="20px" fill="#000000" text-anchor="start" style="white-space: pre;" direction="ltr">127</text></g><g stroke-linecap="round"><g transform="translate(419.85386567662 458.14473782302787) rotate(0 79.54545454545462 0)"><path d="M0.95 -0.96 C27.36 -1.21, 132.55 -1.35, 158.75 -1.01 M-0.02 1.15 C26.18 0.97, 130.86 0.31, 157.63 0" stroke="#5c940d" stroke-width="1" fill="none"/></g></g><mask/><g stroke-linecap="round"><g transform="translate(371.2958719462128 385.35476917099027) rotate(0 26.549764890282148 36.75058777429467)"><path d="M-0.69 -0.38 C8.38 12.13, 45.22 61.89, 54.04 74.05 M1.15 -1.62 C10.18 10.62, 44.67 59.71, 53.58 72.21" stroke="#5c940d" stroke-width="1" fill="none"/></g></g><mask/><g stroke-linecap="round"><g transform="translate(10.854759664461028 49.70135250389268) rotate(0 91.36363636363649 -2.727272727272748)"><path d="M-0.85 0.7 C29.64 -0.14, 153.03 -3.78, 183.57 -4.86 M0.9 0.02 C31.25 -1.19, 152.97 -5.9, 183.07 -6.67" stroke="#e67700" stroke-width="1" fill="none"/></g></g><mask/><g stroke-linecap="round"><g transform="translate(215.61888797581173 90.16755319940904) rotate(0 -10.576124120631391 -21.686616284442806)"><path d="M-0.44 -1.1 C-4.02 -8.53, -17 -37.24, -20.46 -44.25 M1.53 0.94 C-2.24 -6.4, -17.13 -36.05, -21.04 -43.18" stroke="#e67700" stroke-width="1" fill="none"/></g></g><mask/><g transform="translate(32.77641008623357 367.82093949491957) rotate(0 78.5 11.5)"><text x="0" y="18" font-family="Helvetica, Segoe UI Emoji" font-size="20px" fill="#000000" text-anchor="start" style="white-space: pre;" direction="ltr">255 (max uint8_t)</text></g><g stroke-linecap="round"><g transform="translate(188.66588882410193 282.63801723233325) rotate(0 -38.10344827586208 4.482758620689623)"><path d="M-0.15 0.75 C-12.77 2.11, -64.19 6.65, -76.95 7.93 M-1.68 0.09 C-13.82 1.59, -61.96 7.37, -74.62 8.92" stroke="#000000" stroke-width="1" fill="none"/></g></g><mask/><g transform="translate(83.83830261720533 291.5690517150918) rotate(0 17 11.5)"><text x="0" y="18" font-family="Helvetica, Segoe UI Emoji" font-size="20px" fill="#000000" text-anchor="start" style="white-space: pre;" direction="ltr">254</text></g><g stroke-linecap="round"><g transform="translate(457.9762336516881 263.6724999909539) rotate(0 45.68965517241378 -5.862068965517238)"><path d="M0.19 -0.75 C15.48 -2.5, 75.98 -9.34, 91.3 -11.15 M-1.17 1.47 C14 -0.58, 74.83 -11.03, 90.32 -12.97" stroke="#000000" stroke-width="1" fill="none"/></g></g><mask/><g stroke-linecap="round"><g transform="translate(216.94175089306742 333.80594805238917) rotate(0 124.82758620689654 -6.312655706107101)"><path d="M0.51 0.82 C27.17 8.9, 119.35 59.99, 160.93 49.57 C202.51 39.15, 235.22 -43.08, 250 -61.72 M-0.68 0.2 C25.72 8.48, 118.24 58.14, 159.93 47.99 C201.61 37.84, 234.43 -42.4, 249.41 -60.69" stroke="#5c940d" stroke-width="1" fill="none"/></g><g transform="translate(216.94175089306742 333.80594805238917) rotate(0 124.82758620689654 -6.312655706107101)"><path d="M244.86 -31.46 C247.21 -41.98, 246.83 -53.9, 247.54 -61.36 M242.63 -31.5 C244.45 -41.3, 247.76 -51.49, 250.39 -60.33" stroke="#5c940d" stroke-width="1" fill="none"/></g><g transform="translate(216.94175089306742 333.80594805238917) rotate(0 124.82758620689654 -6.312655706107101)"><path d="M227.33 -42.14 C236.48 -48.65, 242.79 -56.5, 247.54 -61.36 M225.1 -42.18 C233.2 -48.09, 242.72 -54.5, 250.39 -60.33" stroke="#5c940d" stroke-width="1" fill="none"/></g></g><mask/><g stroke-linecap="round"><g transform="translate(412.80381985858463 357.12077585302285) rotate(0 8.103448275862064 -59.13793103448273)"><path d="M-0.54 0.15 C1.97 -8.65, 12.9 -34.24, 15.28 -54 C17.67 -73.75, 14.28 -107.76, 13.78 -118.39 M1.37 -0.81 C4.24 -9.82, 15.51 -36.12, 17.51 -55.5 C19.51 -74.89, 14.27 -106.37, 13.36 -117.13" stroke="#5c940d" stroke-width="1" fill="none"/></g><g transform="translate(412.80381985858463 357.12077585302285) rotate(0 8.103448275862064 -59.13793103448273)"><path d="M27.06 -91.86 C24.77 -97.74, 18.37 -108.72, 14.18 -116.7 M27.12 -89.71 C24.29 -95.82, 21.79 -101.21, 13.28 -116.44" stroke="#5c940d" stroke-width="1" fill="none"/></g><g transform="translate(412.80381985858463 357.12077585302285) rotate(0 8.103448275862064 -59.13793103448273)"><path d="M6.68 -89.49 C10.86 -96.03, 10.91 -107.76, 14.18 -116.7 M6.74 -87.35 C8.28 -94.15, 10.15 -100.05, 13.28 -116.44" stroke="#5c940d" stroke-width="1" fill="none"/></g></g><mask/><g stroke-linecap="round"><g transform="translate(219.01071641030882 327.1207758530228) rotate(0 91.03448275862067 -58.275862068965466)"><path d="M0.75 -1.1 C24.99 1.52, 115.35 38.32, 145.39 16.59 C175.43 -5.14, 174.77 -106.47, 180.97 -131.48 M-0.32 0.94 C23.85 3.14, 114.32 37.23, 144.92 14.85 C175.52 -7.53, 176.93 -108.7, 183.29 -133.33" stroke="#e67700" stroke-width="1" fill="none"/></g><g transform="translate(219.01071641030882 327.1207758530228) rotate(0 91.03448275862067 -58.275862068965466)"><path d="M187.79 -102.49 C188.75 -114.43, 187.23 -120.38, 181.52 -134.95 M190.56 -103.98 C188.26 -113.56, 184.77 -121.99, 184.15 -134.05" stroke="#e67700" stroke-width="1" fill="none"/></g><g transform="translate(219.01071641030882 327.1207758530228) rotate(0 91.03448275862067 -58.275862068965466)"><path d="M167.46 -105.28 C174.42 -116.52, 178.89 -121.66, 181.52 -134.95 M170.23 -106.77 C174.28 -115.33, 177.15 -122.89, 184.15 -134.05" stroke="#e67700" stroke-width="1" fill="none"/></g></g><mask/><g stroke-linecap="round"><g transform="translate(513.1486474447915 170.56905171509183) rotate(0 -192.24137931034477 14.999999999999972)"><path d="M-0.58 0.96 C-12.28 -11.64, -26.13 -64.72, -71.08 -74.88 C-116.03 -85.05, -217.92 -89.98, -270.25 -60.01 C-322.59 -30.04, -366.02 77.58, -385.08 104.93 M1.32 0.42 C-9.91 -12.13, -23.89 -63.55, -68.75 -73.92 C-113.62 -84.29, -215.12 -91.3, -267.86 -61.82 C-320.59 -32.34, -365.43 75.22, -385.15 102.97" stroke="#5c940d" stroke-width="1" fill="none"/></g><g transform="translate(513.1486474447915 170.56905171509183) rotate(0 -192.24137931034477 14.999999999999972)"><path d="M-378.51 72.17 C-382.89 78.48, -380.51 85.75, -383.25 102.74 M-380.2 73.71 C-382.86 82.66, -382.99 92.15, -385.92 102.77" stroke="#5c940d" stroke-width="1" fill="none"/></g><g transform="translate(513.1486474447915 170.56905171509183) rotate(0 -192.24137931034477 14.999999999999972)"><path d="M-360.68 82.33 C-369.15 86.26, -370.8 91.22, -383.25 102.74 M-362.37 83.86 C-370.75 89.36, -376.69 95.55, -385.92 102.77" stroke="#5c940d" stroke-width="1" fill="none"/></g></g><mask/><g stroke-linecap="round"><g transform="translate(215.56244054823986 135.7414655081953) rotate(0 -69.82758620689654 111.03448275862067)"><path d="M-0.04 -0.41 C-23.15 17.16, -115.99 68.42, -138.98 105.48 C-161.97 142.54, -138.19 202.35, -137.96 221.95 M-1.51 -1.67 C-24.7 16.01, -117.25 68.98, -139.57 106.46 C-161.89 143.94, -135.78 204.11, -135.44 223.21" stroke="#5c940d" stroke-width="1" fill="none"/></g><g transform="translate(215.56244054823986 135.7414655081953) rotate(0 -69.82758620689654 111.03448275862067)"><path d="M-151.66 198.68 C-148.47 203.44, -142.59 211.14, -133.74 221.28 M-151.8 197.83 C-146.26 206.31, -139.87 215.88, -135.15 223.35" stroke="#5c940d" stroke-width="1" fill="none"/></g><g transform="translate(215.56244054823986 135.7414655081953) rotate(0 -69.82758620689654 111.03448275862067)"><path d="M-131.53 194.69 C-133.88 200.54, -133.56 209.35, -133.74 221.28 M-131.67 193.84 C-133.38 203.57, -134.19 214.56, -135.15 223.35" stroke="#5c940d" stroke-width="1" fill="none"/></g></g><mask/><g stroke-linecap="round"><g transform="translate(529.3555439965157 162.2931896461263) rotate(0 -256.8965517241379 106.37931034482759)"><path d="M0.54 -0.32 C-9.32 -15.09, -16.89 -72.97, -59.38 -88.37 C-101.88 -103.76, -193.46 -107.94, -254.44 -92.69 C-315.41 -77.44, -381.95 -38.93, -425.25 3.14 C-468.54 45.21, -502.75 117.06, -514.18 159.72 C-525.61 202.38, -510.83 234.51, -493.84 259.12 C-476.85 283.73, -425.82 299.42, -412.24 307.38 M-0.63 -1.54 C-10.61 -16.18, -17.76 -71.72, -60.19 -87.24 C-102.61 -102.75, -194.34 -109.82, -255.18 -94.63 C-316.02 -79.44, -382.38 -38.5, -425.22 3.9 C-468.05 46.3, -500.44 117.34, -512.2 159.78 C-523.95 202.22, -512.56 234.04, -495.75 258.52 C-478.94 283, -425.08 298.59, -411.32 306.64" stroke="#e67700" stroke-width="1" fill="none"/></g><g transform="translate(529.3555439965157 162.2931896461263) rotate(0 -256.8965517241379 106.37931034482759)"><path d="M-441.8 305.11 C-434.09 305.16, -423.06 304.95, -412.41 306 M-440.82 305.63 C-433.5 305.48, -426.52 305, -410.83 307.31" stroke="#e67700" stroke-width="1" fill="none"/></g><g transform="translate(529.3555439965157 162.2931896461263) rotate(0 -256.8965517241379 106.37931034482759)"><path d="M-433.51 286.33 C-428.12 291.73, -419.43 296.83, -412.41 306 M-432.54 286.85 C-427.17 291.41, -422.24 295.59, -410.83 307.31" stroke="#e67700" stroke-width="1" fill="none"/></g></g><mask/></svg>